<svg xmlns="http://www.w3.org/2000/svg" width="117" height="31" viewBox="0 0 117 31">
  <path fill-rule="evenodd" clip-rule="evenodd" fill="#28A0C3" d="M0 0h117v31H0z" id="Button_2_"/>
  <g id="cta-label_1_" fill="#FFF">
    <path d="M12.635 20.636v-9.994h2.12v8.244h4.053v1.75h-6.173zM26.65 20.636h-5.756v-9.994h5.756v1.736h-3.637v2.195h3.384v1.736h-3.384v2.576h3.637v1.75zM35.203 20.636l-.725-2.38h-3.643l-.725 2.38h-2.283L31.354 10.6h2.59l3.542 10.036h-2.283zm-1.23-4.156c-.67-2.156-1.047-3.375-1.132-3.657-.083-.283-.143-.506-.18-.67-.15.583-.58 2.025-1.292 4.327h2.605zM41.213 16.8v3.836h-2.12v-9.994h2.913c1.358 0 2.363.247 3.015.742.652.494.978 1.245.978 2.252 0 .588-.162 1.11-.485 1.57-.324.457-.782.816-1.374 1.076 1.503 2.246 2.482 3.697 2.94 4.354h-2.353L42.34 16.8h-1.127zm0-1.72h.684c.67 0 1.164-.113 1.483-.336.32-.224.48-.575.48-1.053 0-.473-.164-.81-.49-1.01-.326-.2-.83-.302-1.514-.302h-.643v2.7zM57.553 20.636H54.86l-4.348-7.56h-.062c.086 1.335.13 2.287.13 2.857v4.703h-1.894v-9.994h2.673l4.34 7.485h.048c-.068-1.298-.102-2.217-.102-2.755v-4.73h1.907v9.994zM68.637 20.636l-2.406-7.84h-.06c.085 1.594.13 2.66.13 3.192v4.648h-1.895v-9.994h2.885l2.365 7.642h.04l2.51-7.642h2.885v9.994h-1.976v-4.73c0-.224.003-.48.01-.773.007-.292.038-1.066.093-2.324h-.062l-2.577 7.826h-1.94zM87.026 15.626c0 1.653-.41 2.925-1.23 3.814s-1.996 1.333-3.527 1.333-2.708-.445-3.53-1.333-1.23-2.165-1.23-3.828.412-2.934 1.235-3.81c.822-.878 2-1.317 3.537-1.317s2.71.442 3.525 1.326c.813.885 1.22 2.156 1.22 3.816zm-7.294 0c0 1.116.212 1.957.636 2.522.424.565 1.058.847 1.9.847 1.69 0 2.537-1.123 2.537-3.37 0-2.25-.84-3.376-2.523-3.376-.843 0-1.478.282-1.907.85s-.643 1.41-.643 2.526zM91.566 16.8v3.836h-2.12v-9.994h2.913c1.358 0 2.363.247 3.014.742.652.494.978 1.245.978 2.252 0 .588-.162 1.11-.486 1.57-.323.457-.78.816-1.374 1.076 1.504 2.246 2.485 3.697 2.94 4.354H95.08L92.694 16.8h-1.128zm0-1.72h.684c.67 0 1.165-.113 1.483-.336.32-.224.48-.575.48-1.053 0-.473-.164-.81-.49-1.01-.326-.2-.83-.302-1.514-.302h-.644v2.7zM104.796 20.636H99.04v-9.994h5.756v1.736h-3.637v2.195h3.383v1.736h-3.384v2.576h3.636v1.75z"/>
  </g>
</svg>
