<svg xmlns="http://www.w3.org/2000/svg" xmlns:xlink="http://www.w3.org/1999/xlink" viewBox="0 0 4668.9443 214.3706">
  <defs>
    <path id="a" d="M299.28 25.79v65.32h-91.044V25.79h-33.128v164.68h33.128v-70.754h91.043v70.755h33.166V25.79z"/>
  </defs>
  <use xlink:href="#a" overflow="visible" fill="#231F20"/>
  <defs>
    <path id="b" d="M740.23 25.79v164.644h145.42l-18.405-28.962H773.48v-41.756h90.774V91.77H773.48V54.104h93.592l18.044-28.313z"/>
  </defs>
  <use xlink:href="#b" overflow="visible" fill="#231F20"/>
  <defs>
    <path id="c" d="M51.92 25.756C17.44 25.756 0 46.706 0 77.244v61.493c0 35.267 22.44 51.734 51.748 51.734h103.945l-19.24-30.103H58.14c-16.613 0-23.848-6.01-23.848-24.66V79.976c0-18.005 6.094-25.007 24.31-25.007h78.637l18.544-29.212H51.92z"/>
  </defs>
  <use xlink:href="#c" overflow="visible" fill="#231F20"/>
  <g>
    <defs>
      <path id="d" d="M594.775 25.687c-19.947 0-40.327 11.97-40.327 42.78v7.943c0 32.057 19.65 44.277 39.302 44.36h68.98c7.14 0 12.966 1.22 12.966 13.353v13.968c-.185 10.876-5.64 13.382-13.232 13.382H571.73l-18.59 28.962H664.6c26.865 0 45.11-13.384 45.11-44.24v-11.34c0-29.888-16.938-43.99-43.244-43.99h-65.86c-7.29 0-12.378-1.997-12.378-12.817V66.674c0-9.217 3.51-12.57 12.005-12.57l86.402-.04 18.072-28.377H594.775z"/>
    </defs>
    <use xlink:href="#d" overflow="visible" fill="#231F20"/>
  </g>
  <g>
    <defs>
      <path id="e" d="M445.13 59.966l30.01 68.46h-59.813l29.804-68.46zM428.77 25.79l-78.098 164.644h36.932l15.185-33.99h84.864l15.18 33.99h37.053L461.615 25.79H428.77z"/>
    </defs>
    <use xlink:href="#e" overflow="visible" fill="#231F20"/>
  </g>
  <g>
    <defs>
      <path id="f" d="M1014.758 0c-4.24 0-7.655 3.376-7.655 7.63v53.49h141.457L1084.15 0h-69.392z"/>
    </defs>
    <use xlink:href="#f" overflow="visible" fill="#0179C0"/>
    <defs>
      <path id="g" d="M1092.58 69.705V211.16l61.13-64.408.043-69.43c0-4.197-3.443-7.617-7.657-7.617h-53.515z"/>
    </defs>
    <use xlink:href="#g" overflow="visible" fill="#0179C0"/>
    <g>
      <defs>
        <path id="h" d="M937.345 69.54v69.378c0 4.235 3.413 7.648 7.628 7.648h53.557V5.123L937.345 69.54z"/>
      </defs>
      <use xlink:href="#h" overflow="visible" fill="#0179C0"/>
    </g>
    <g>
      <defs>
        <path id="i" d="M945.157 153.24l64.414 61.093 69.404.038c4.205 0 7.632-3.422 7.632-7.63v-53.5h-141.45z"/>
      </defs>
      <use xlink:href="#i" overflow="visible" fill="#0179C0"/>
    </g>
  </g>
  <g>
    <defs>
      <path id="j" d="M1545.558 123.936c-1.488-2.608-1.488-5.265.046-8.01l37.354-69.93c1.35-2.57 3.45-3.814 6.31-3.814 2.825 0 4.906 1.245 6.23 3.814l36.52 70c1.534 2.675 1.474 5.384-.147 7.94-1.573 2.572-3.79 3.84-6.628 3.84h-72.88c-3 0-5.32-1.29-6.804-3.84m26.003-109.76l-93.63 176.682h28.54l15.626-30.56c3.39-6.502 8.762-9.814 16.13-9.814h101.713c7.218 0 12.526 3.312 15.867 9.876 9.5 17.99 14.86 28.202 16.212 30.498h28.292c-60.465-114.094-91.62-172.997-93.656-176.682h-35.095z"/>
    </defs>
    <use xlink:href="#j" overflow="visible" fill="#231F20"/>
    <defs>
      <path id="k" d="M1758.093 95.81c-2.284-2.32-3.432-5.14-3.432-8.522V48.852c0-3.398 1.15-6.235 3.433-8.523 2.2-2.294 4.947-3.422 8.148-3.422h102.996c25.59 0 38.38 10.643 38.38 32.04 0 20.19-12.124 30.266-36.327 30.266h-105.05c-3.2 0-5.946-1.097-8.147-3.404m-26.163-81.634v176.91h22.73v-57.508c0-3.22 1.15-5.922 3.433-8.22 2.2-2.267 4.946-3.43 8.148-3.43h100.46c42.406 0 63.65-17.788 63.65-53.505 0-16.955-5.372-30.277-16.047-39.85-10.697-9.6-24.693-14.397-42.036-14.397H1731.93z"/>
    </defs>
    <use xlink:href="#k" overflow="visible" fill="#231F20"/>
    <defs>
      <path id="l" d="M1988.706 95.81c-2.28-2.32-3.39-5.14-3.39-8.522V48.852c0-3.398 1.11-6.235 3.39-8.523 2.326-2.294 5.052-3.422 8.26-3.422h102.95c25.596 0 38.395 10.643 38.395 32.04 0 20.19-12.128 30.266-36.39 30.266h-104.955c-3.207 0-5.933-1.097-8.26-3.404m-26.088-81.634v176.91h22.7v-57.508c0-3.22 1.11-5.922 3.39-8.22 2.325-2.267 5.05-3.43 8.258-3.43h100.458c42.427 0 63.608-17.788 63.608-53.505 0-16.955-5.334-30.277-16.04-39.85-10.654-9.6-24.7-14.397-41.996-14.397h-140.377z"/>
    </defs>
    <use xlink:href="#l" overflow="visible" fill="#231F20"/>
    <defs>
      <path id="m" d="M2377.152 14.176V79.33c0 3.176-1.07 5.993-3.365 8.293-2.264 2.366-5.022 3.516-8.208 3.516h-129.755c-3.226 0-5.938-1.15-8.217-3.517-2.246-2.3-3.423-5.117-3.423-8.294V14.175h-22.722v176.91h22.722V125.49c0-3.167 1.177-5.943 3.423-8.205 2.28-2.26 4.99-3.42 8.217-3.42h129.754c3.185 0 5.943 1.16 8.207 3.42 2.294 2.262 3.365 5.038 3.365 8.204v65.596h22.726V14.175h-22.726z"/>
    </defs>
    <use xlink:href="#m" overflow="visible" fill="#231F20"/>
    <g>
      <defs>
        <path id="n" d="M2447.444 14.176h22.72v176.91h-22.72z"/>
      </defs>
      <use xlink:href="#n" overflow="visible" fill="#231F20"/>
    </g>
    <g>
      <defs>
        <path id="o" d="M2539.758 95.81c-2.278-2.32-3.367-5.14-3.367-8.522V48.852c0-3.398 1.09-6.235 3.368-8.523 2.264-2.294 5.042-3.422 8.213-3.422h102.966c25.605 0 38.365 10.643 38.365 32.04 0 20.19-12.122 30.266-36.333 30.266H2547.97c-3.17 0-5.948-1.097-8.212-3.404m-26.088-81.634v176.91h22.72v-57.508c0-3.22 1.09-5.922 3.368-8.22 2.264-2.267 5.042-3.43 8.213-3.43h57.58c7.895 0 14.534 2.97 19.935 8.802l54.57 60.355h31.978l-54.513-60.32c-.985-1.2-1.527-2.386-1.527-3.786 0-3.518 1.707-5.433 5.045-5.814 33.983-3.5 50.995-21.05 50.995-52.743 0-16.955-5.314-30.277-16.056-39.85-10.634-9.6-24.64-14.397-41.987-14.397h-140.32z"/>
      </defs>
      <use xlink:href="#o" overflow="visible" fill="#231F20"/>
    </g>
    <g>
      <defs>
        <path id="p" d="M2748.162 14.176v176.91h184.772v-22.628h-150.212c-3.194 0-5.978-1.285-8.266-3.693-2.404-2.49-3.547-5.416-3.547-8.82V125.82c0-3.19 1.142-6.01 3.546-8.4 2.288-2.37 5.072-3.555 8.266-3.555h127.287V91.14H2782.72c-3.194 0-5.978-1.15-8.266-3.517-2.404-2.387-3.547-5.157-3.547-8.355v-30.71c0-3.223 1.142-5.94 3.546-8.23 2.288-2.292 5.072-3.42 8.266-3.42h150.212V14.176h-184.772z"/>
      </defs>
      <use xlink:href="#p" overflow="visible" fill="#231F20"/>
    </g>
    <g>
      <defs>
        <path id="q" d="M1307.92 12.507c-13.754 0-25.48 4.88-35.172 14.643-9.7 9.745-14.512 21.467-14.512 35.104 0 13.78 4.813 25.56 14.512 35.28 9.69 9.794 21.418 14.643 35.173 14.643h98.988c7.402 0 13.772 2.672 19.033 8 5.307 5.27 7.995 11.606 7.995 19.04 0 7.6-2.688 14.023-7.994 19.328-5.26 5.3-11.63 7.934-19.032 7.934h-148.672v22.72h148.672c13.628 0 25.323-4.89 35.054-14.614 9.778-9.77 14.632-21.558 14.632-35.37 0-13.616-4.854-25.37-14.605-35.09-9.73-9.774-21.407-14.66-34.992-14.66h-98.837c-7.553 0-13.994-2.632-19.284-7.895-5.276-5.36-7.98-11.755-7.98-19.316 0-7.41 2.704-13.817 7.98-19.09 5.29-5.29 11.73-7.934 19.285-7.934h136.622V12.507h-136.86z"/>
      </defs>
      <use xlink:href="#q" overflow="visible" fill="#231F20"/>
    </g>
  </g>
  <g fill="#231F20">
    <path d="M3058.93 12.642h124.476c16.077.263 35.526.52 51.346 14.78 5.963 5.19 16.337 17.117 16.337 39.16 0 43.824-37.086 49.79-49.272 51.863l67.423 77.28h-33.972l-61.976-73.13h-88.43v73.13h-25.93V12.643zm25.672 22.043v66.387h90.506c14.26 0 32.414-.256 42.787-14.005 4.668-5.96 6.223-12.965 6.223-19.445 0-7.006-1.815-14.005-5.446-19.451-8.3-13.23-21.524-13.23-33.45-13.485h-100.62zM3302.12 12.642h169.08v22.563h-143.15v54.717h139.258v21.524H3328.05v61.716h149.632v22.564H3302.12V12.642zM3519.646 148.79c2.85 3.368 5.703 6.48 12.705 11.15 19.97 13.742 44.345 17.893 68.464 17.893 40.196 0 62.236-14.78 62.236-37.08 0-25.42-28.783-27.755-65.09-30.866-45.9-3.888-61.718-5.184-75.723-17.893-11.15-10.374-12.965-22.044-12.965-30.602 0-52.118 68.978-53.414 85.835-53.414 25.675 0 51.606 4.144 72.87 18.412 9.078 6.223 13.225 11.15 18.412 18.405l-23.6 9.598c-3.888-3.887-6.223-6.48-10.63-9.598-16.337-11.67-36.565-15.293-56.533-15.293-14.78 0-33.194 2.072-44.087 7.52-12.706 6.22-16.337 15.556-16.337 23.074 0 5.447 2.075 10.374 5.447 14.005 6.222 7.264 15.817 8.816 32.933 10.632 16.597 1.815 32.934 2.855 49.53 4.67 7.783.776 15.82 1.816 23.6 3.632 19.708 4.67 42.01 17.372 42.01 47.454 0 7.52-1.295 19.19-9.337 30.602-14.26 20.228-42.527 29.043-80.388 29.043-15.04 0-34.233-2.072-47.199-5.447-37.6-9.335-50.827-28.523-56.014-36.042l23.86-9.853zM3728.87 12.642h169.078v22.563H3754.8v54.717h139.257v21.524H3754.8v61.716h149.63v22.564h-175.56V12.642zM3945.095 12.642h124.476c16.078.263 35.526.52 51.347 14.78 5.963 5.19 16.337 17.117 16.337 39.16 0 43.824-37.085 49.79-49.27 51.863l67.422 77.28h-33.973l-61.976-73.13h-88.43v73.13h-25.93V12.643zm25.672 22.043v66.387h90.506c14.26 0 32.413-.256 42.787-14.005 4.668-5.96 6.223-12.965 6.223-19.445 0-7.006-1.815-14.005-5.447-19.451-8.298-13.23-21.524-13.23-33.45-13.485h-100.62zM4327.03 12.642h28.522l-86.355 183.084h-26.19l-87.912-183.084h28.786l63.793 135.365c4.67 9.598 5.707 12.453 8.818 22.827 1.817-9.078 2.597-11.157 6.744-19.972l63.795-138.22zM4377.295 12.642h169.075v22.563h-143.144v54.717h139.257v21.524h-139.257v61.716h149.63v22.564h-175.56V12.642z"/>
  </g>
  <g>
    <path d="M4586.852 40.063c1.066 1.63 4.392 6.715 13.744 6.715 1.568 0 3.2-.126 4.77-.753 3.2-1.318 3.765-3.577 3.765-5.084 0-2.823-1.945-3.827-3.325-4.392-1.004-.377-1.13-.44-5.147-1.38l-5.335-1.13c-2.823-.69-4.204-1.004-5.585-1.57-2.01-.815-7.47-3.514-7.47-10.857 0-8.408 7.093-13.806 17.51-13.806 9.54 0 14.687 4.707 17.825 8.975l-6.778 5.082c-1.506-2.196-4.394-6.59-11.485-6.59-4.455 0-8.347 2.01-8.347 5.398 0 3.766 4.142 4.52 8.16 5.272l4.58 1.004c5.962 1.255 14.372 3.703 14.372 13.18 0 10.167-9.414 14.246-18.828 14.246-2.447 0-5.21-.25-7.907-1.004-2.95-.88-8.16-3.012-11.485-8.41l6.967-4.895zM4668.944 8.934v44.308h-8.096l.754-36.4-9.54 36.4h-7.468l-9.603-36.4.817 36.4h-8.096V8.934h12.05l8.662 32.886 8.473-32.886h12.05z"/>
  </g>
</svg>
