<svg xmlns="http://www.w3.org/2000/svg" viewBox="0 0 392.174 49.4195">
  <g fill="#0179C1">
    <path d="M184.072 0c-.965 0-1.747.784-1.747 1.744V13.98h32.315L199.923.002 184.073 0zM215.823 17.676c0-.964-.783-1.743-1.748-1.743h-12.23v32.312l13.975-14.717.003-15.852zM198.14 49.42c.962 0 1.74-.783 1.74-1.75V35.445h-32.31l14.713 13.97 15.856.005zM166.388 31.745c0 .964.778 1.746 1.747 1.746h12.232V1.178l-13.974 14.715-.005 15.853z"/>
  </g>
  <path d="M51.286 21.792h-15.6l.002-11.194-5.68-.004v28.228h5.68V26.697h15.598v12.125h5.69V10.598h-5.69M148.62 33.85h-16.063v-7.153h15.553v-4.79h-15.553v-6.46h16.036l3.095-4.85h-24.832v28.218h24.922M10.04 15.593h13.483l3.173-5.002h-17.8C2.985 10.59 0 14.183 0 19.41v10.54c0 6.048 3.846 8.872 8.865 8.872h17.82l-3.302-5.16H9.966c-2.852 0-4.09-1.033-4.09-4.222v-9.56c0-3.085 1.043-4.287 4.165-4.287zM114.216 21.75H102.93c-1.252 0-2.12-.342-2.12-2.195l-.003-1.95c0-1.58.6-2.155 2.056-2.155l14.807-.007 3.097-4.864-18.838.004c-3.416 0-6.91 2.053-6.91 7.325v1.358c0 5.497 3.365 7.597 6.728 7.61h11.822c1.23 0 2.225.208 2.225 2.282l-.003 2.397c-.027 1.86-.963 2.292-2.266 2.292H97.98l-3.186 4.962h19.097c4.61 0 7.735-2.292 7.735-7.583v-1.944c0-5.12-2.903-7.537-7.41-7.537zM73.482 10.6L60.097 38.815h6.325l2.608-5.823h14.545l2.597 5.823h6.35L79.108 10.6h-5.625zm-2.307 17.586l5.11-11.727 5.145 11.726H71.175z"/>
  <g>
    <path d="M245.828 29.42c0 1.578-.58 2.828-1.74 3.75-1.158.92-2.696 1.382-4.62 1.382-2.31 0-4.08-.256-5.314-.764v-1.32c1.36.578 3.1.87 5.21.87 1.55-.002 2.784-.356 3.69-1.067.91-.71 1.367-1.646 1.367-2.8 0-.714-.15-1.307-.454-1.78-.302-.467-.792-.897-1.472-1.282-.68-.39-1.683-.808-3-1.255-1.93-.663-3.265-1.382-4-2.154-.74-.77-1.108-1.8-1.108-3.083 0-1.413.554-2.567 1.662-3.458 1.108-.895 2.532-1.34 4.274-1.34 1.775 0 3.443.337 5.002 1.01l-.478 1.137c-1.57-.655-3.07-.982-4.498-.982-1.397 0-2.51.322-3.337.968-.825.645-1.24 1.526-1.24 2.638 0 .7.126 1.274.382 1.72.254.448.67.853 1.246 1.208.58.36 1.57.787 2.975 1.288 1.474.507 2.58 1.002 3.32 1.48.745.48 1.285 1.022 1.624 1.627.342.608.51 1.346.51 2.206zM265.343 24.816c0 2.998-.75 5.372-2.248 7.117-1.502 1.745-3.57 2.62-6.208 2.62-2.628 0-4.693-.875-6.193-2.62s-2.25-4.126-2.25-7.142c0-3.007.758-5.375 2.27-7.103 1.513-1.728 3.58-2.593 6.198-2.593 2.64 0 4.7.868 6.194 2.606 1.49 1.735 2.237 4.11 2.237 7.116zm-15.465 0c0 2.704.605 4.798 1.81 6.277 1.208 1.48 2.94 2.216 5.2 2.216 2.275 0 4.013-.73 5.216-2.2 1.202-1.462 1.805-3.563 1.805-6.294 0-2.722-.604-4.81-1.807-6.264-1.202-1.45-2.93-2.177-5.19-2.177-2.25 0-3.983.733-5.206 2.196-1.22 1.466-1.83 3.55-1.83 6.246zM281.44 25.735l5.533-10.342h1.423l-6.298 11.595v7.306h-1.358V27.09l-6.322-11.697h1.513l5.51 10.342zM305.89 24.816c0 2.998-.747 5.372-2.246 7.117-1.5 1.745-3.57 2.62-6.207 2.62-2.63 0-4.692-.875-6.193-2.62-1.5-1.745-2.25-4.126-2.25-7.142 0-3.007.757-5.375 2.27-7.103 1.51-1.728 3.578-2.593 6.2-2.593 2.636 0 4.7.868 6.19 2.606 1.493 1.735 2.237 4.11 2.237 7.116zm-15.46 0c0 2.704.602 4.798 1.807 6.277 1.21 1.48 2.942 2.216 5.2 2.216 2.275 0 4.014-.73 5.216-2.2 1.202-1.462 1.803-3.563 1.803-6.294 0-2.722-.6-4.81-1.803-6.264-1.202-1.45-2.932-2.177-5.19-2.177-2.25 0-3.984.733-5.203 2.196-1.22 1.466-1.83 3.55-1.83 6.246zM323.695 15.393v12.23c0 2.172-.63 3.87-1.886 5.092-1.26 1.223-3.016 1.837-5.265 1.837-2.19 0-3.897-.614-5.125-1.843-1.23-1.228-1.844-2.942-1.844-5.138v-12.18h1.332v12.23c0 1.818.505 3.235 1.513 4.246 1.01 1.014 2.436 1.52 4.28 1.52 1.802 0 3.197-.5 4.19-1.493.992-.997 1.487-2.377 1.487-4.146V15.392h1.318zM344.315 16.31c-2.37 0-4.236.758-5.597 2.275-1.362 1.518-2.044 3.595-2.044 6.23 0 2.698.64 4.792 1.926 6.285 1.286 1.492 3.12 2.236 5.51 2.236 1.583 0 3.042-.2 4.37-.607v1.163c-1.25.44-2.812.66-4.68.66-2.657 0-4.746-.86-6.27-2.576-1.526-1.714-2.29-4.108-2.29-7.186 0-1.92.362-3.615 1.094-5.08.726-1.467 1.774-2.597 3.14-3.395 1.367-.795 2.953-1.195 4.763-1.195 1.846 0 3.497.345 4.954 1.035l-.53 1.19c-1.378-.692-2.826-1.036-4.345-1.036zM362.43 27.623h-7.68l-2.64 6.67h-1.46l7.602-18.98h.84l7.448 18.98h-1.486l-2.625-6.67zm-7.202-1.19h6.76l-2.57-6.815c-.218-.534-.476-1.274-.778-2.223-.233.828-.487 1.58-.762 2.25l-2.65 6.788zM382.98 34.294h-1.333L370.454 17.51h-.104c.104 2.002.153 3.508.153 4.528v12.256h-1.266v-18.9h1.318l11.184 16.754h.076c-.077-1.554-.116-3.025-.116-4.423V15.393h1.28v18.9z"/>
  </g>
  <g>
    <path d="M386.508 17.915c0-.502.125-.973.376-1.413.252-.44.597-.786 1.037-1.04.44-.253.913-.38 1.42-.38.503 0 .974.125 1.414.376.44.252.786.597 1.04 1.037.253.44.38.913.38 1.42 0 .495-.122.96-.365 1.394-.245.433-.587.78-1.026 1.042-.44.262-.92.392-1.443.392-.52 0-1-.13-1.438-.39-.44-.26-.782-.607-1.027-1.04-.245-.436-.367-.902-.367-1.4zm.395 0c0 .434.11.84.328 1.22.22.377.518.674.896.89.378.22.783.327 1.215.327.438 0 .843-.11 1.218-.327.374-.22.67-.515.89-.888.22-.373.33-.78.33-1.222 0-.437-.11-.843-.327-1.217s-.514-.67-.887-.89c-.373-.22-.78-.33-1.222-.33-.436 0-.842.11-1.216.327-.374.22-.67.514-.89.887-.22.373-.33.78-.33 1.223zm3.587-.686c0 .2-.053.378-.16.532-.107.155-.257.27-.45.345l.896 1.488h-.633l-.78-1.334h-.508v1.335h-.558v-3.357h.984c.418 0 .723.082.918.245.195.164.292.412.292.746zm-1.635.568h.407c.2 0 .362-.052.484-.156.122-.104.183-.237.183-.398 0-.188-.055-.323-.163-.405-.108-.082-.28-.123-.513-.123h-.4v1.08z"/>
  </g>
</svg>
