<svg xmlns="http://www.w3.org/2000/svg" width="101" height="35" viewBox="0 0 101 35"><style>.st0{fill-rule:evenodd;clip-rule:evenodd}.st1{fill:#ff9504}</style><path class="st0" fill="#FFF" d="M4 0h93c2.2 0 4 1.8 4 4v27c0 2.2-1.8 4-4 4H4c-2.2 0-4-1.8-4-4V4c0-2.2 1.8-4 4-4z"/><path class="st1" d="M25.9 21.6c-1.1.9-2.1.9-3.4.9h-3.3V12h3.2c1.3 0 2.5 0 3.4 1 .4.5.6 1.1.6 1.7 0 .9-.4 1.7-1.2 2.1 1.2.4 1.7 1.3 1.7 2.4-.1 1-.4 1.9-1 2.4zm-3.2-7.2h-1V16h1c.6 0 1.1-.2 1.1-.8s-.6-.8-1.1-.8zm.3 3.8h-1.4v1.9H23c.7 0 1.3-.2 1.3-1 0-.7-.7-.9-1.3-.9zm10.6 4.3v-.8c-.4.9-1.2 1.1-2 1.1-.9 0-1.7-.3-2.3-1-.6-.8-.7-1.5-.7-2.4v-4.7H31V19c0 .9.2 1.6 1.3 1.6 1 0 1.4-.7 1.4-1.6v-4.3h2.4v7.9h-2.5zm7.6 2.7h-2.5l1.3-3-3-7.6h2.5l1.6 4.6 1.5-4.6h2.5l-3.9 10.6zm16.5-2.7l-4-6.4.1 6.4h-2.6V12h2.3l4.1 6.6-.2-6.6H60v10.5h-2.3zm8.3.3c-2.4 0-4.3-1.8-4.3-4.2s1.8-4.2 4.3-4.2c2.4 0 4.3 1.8 4.3 4.2s-1.9 4.2-4.3 4.2zm0-6.2c-1.1 0-1.9.9-1.9 2s.8 2 1.9 2c1.1 0 1.9-.9 1.9-2s-.8-2-1.9-2zm14.4 5.9h-2.2l-1.3-5.1-1.3 5.1h-2.2L71 14.6h2.4l1.2 4.9 1.3-4.9h2l1.3 4.9 1.2-4.9h2.4l-2.4 7.9z"/></svg>