<svg xmlns="http://www.w3.org/2000/svg" viewBox="0 0 362.71 219.95"><defs><style>.cls-1{fill:#ff9504}</style></defs><title>dark_triangle</title><g id="Layer_2" data-name="Layer 2"><path class="cls-1" d="M11.91 65.17c-2.42-6.63-4.62-13.32-6.5-20.07S2 31.62.74 24.77C-.14 19.86-.73 14.42 2 10.21A14.78 14.78 0 0 1 8.53 5C19.4.09 34.52 1.21 46.27.69q21.45-1 42.93-.6c28.64.42 57.25 2.38 85.74 5.39q6.81.72 13.61 1.52c51.45 6 103.8 14.79 152.92 31.65a123.43 123.43 0 0 1 15.86 6.27c11.3 5.73 2.16 17.28-3.28 23.47-34.9 39.68-78.71 69.51-124.28 95.61-29.19 16.72-59.55 31.06-90.17 44.83-10.17 4.58-20.15 10.21-31.45 11-10 .73-19-3.14-26.05-10.2-19.31-19.38-30.23-47.73-41.76-72.07-9.02-19-21.15-52.45-28.43-72.39z" id="Layer_7" data-name="Layer 7"/></g></svg>