<svg xmlns="http://www.w3.org/2000/svg" viewBox="0 0 257 155.84"><defs><style>.cls-1{fill:#ffa904}</style></defs><title>light_triangle</title><g id="Layer_2" data-name="Layer 2"><path class="cls-1" d="M8.44 46.18C6.72 41.48 5.16 36.74 3.83 32S1.39 22.4.52 17.55c-.62-3.48-1-7.33.86-10.32A10.47 10.47 0 0 1 6 3.51C13.75.06 24.46.86 32.78.49Q48-.19 63.2.06c20.3.29 40.57 1.69 60.8 3.82q4.82.51 9.64 1.07c36.36 4.28 73.51 10.49 108.3 22.44a87.46 87.46 0 0 1 11.24 4.44c8 4.06 1.53 12.24-2.33 16.63-24.73 28.11-55.77 49.25-88.06 67.74-20.67 11.8-42.19 22.01-63.88 31.8-7.21 3.24-14.28 7.23-22.28 7.82a23.29 23.29 0 0 1-18.46-7.23c-13.68-13.73-21.42-33.82-29.59-51.07C22.19 84 13.6 60.31 8.44 46.18z" id="Layer_7" data-name="Layer 7"/></g></svg>