<svg xmlns="http://www.w3.org/2000/svg" width="212.7" height="132.3"><path d="M5.2 37.1C4 33.1 3 29.1 2.1 25 1.3 21 .6 16.9.2 12.8c-.3-2.9-.5-6.2 1.3-8.5C2.5 3 4 2.1 5.6 1.5 12.2-1 21.1.3 28 .5c8.5.2 17 .7 25.4 1.4 16.9 1.4 33.7 3.7 50.4 6.6 2.7.5 5.3.9 8 1.4 30.1 5.6 60.7 12.9 89 24.9 3.1 1.3 6.2 2.6 9.1 4.3 6.4 3.8.6 10.3-2.9 13.7-22.2 22-49.3 37.8-77.2 51.4-17.9 8.7-36.4 15.9-55 22.8-6.2 2.3-12.3 5.2-19 5.2-5.9 0-11.1-2.6-15-7.1C30.1 113 24.8 95.9 19 81 14.4 69.4 8.6 49.2 5.2 37.1z" fill="#fff"/></svg>