<svg xmlns="http://www.w3.org/2000/svg" viewBox="0 0 45.12 14.88"><path fill-rule="evenodd" clip-rule="evenodd" fill="#009ED1" d="M1.92 0H43.2c1.06 0 1.92.86 1.92 1.92v11.04c0 1.06-.86 1.92-1.92 1.92H1.92A1.92 1.92 0 0 1 0 12.96V1.92C0 .86.86 0 1.92 0z"/><g fill="#FFF"><path d="M8.805 6.144c-.157-.464-.362-.663-.69-.663-.335 0-.52.205-.52.54 0 .745 2.106.8 2.106 2.346 0 .847-.581 1.408-1.573 1.408-.765 0-1.36-.417-1.613-1.388l.93-.198c.11.595.451.806.731.806.328 0 .581-.218.581-.587 0-.93-2.105-.944-2.105-2.325 0-.848.506-1.381 1.483-1.381.841 0 1.354.499 1.518 1.196l-.848.247zM11.303 8.052v.492c0 .37.218.534.506.534.362 0 .506-.233.506-.52h.86c-.04.766-.498 1.217-1.366 1.217-.82 0-1.368-.506-1.368-1.32V7.239c0-.813.547-1.32 1.368-1.32.8 0 1.367.507 1.367 1.265v.869h-1.873zm1.011-.698V7.15c0-.328-.157-.533-.506-.533s-.505.205-.505.533v.205h1.011zM14.75 8.052v.492c0 .37.219.534.506.534.362 0 .506-.233.506-.52h.861c-.041.766-.499 1.217-1.367 1.217-.82 0-1.367-.506-1.367-1.32V7.239c0-.813.547-1.32 1.367-1.32.8 0 1.367.507 1.367 1.265v.869H14.75zm1.012-.698V7.15c0-.328-.158-.533-.506-.533s-.506.205-.506.533v.205h1.012zM19.005 9.707V4.77h.861v1.641c.287-.273.581-.492.937-.492.526 0 .8.267.8.957v2.83h-.862V6.973c0-.247-.082-.41-.314-.41-.178 0-.376.17-.56.334v2.81h-.862zM22.374 7.327c0-.984.506-1.408 1.368-1.408s1.367.424 1.367 1.408v1.04c0 .984-.506 1.408-1.367 1.408s-1.368-.424-1.368-1.408v-1.04zm.862 1.258c0 .287.205.438.506.438s.506-.15.506-.438V7.108c0-.287-.205-.437-.506-.437s-.506.15-.506.437v1.477zM25.584 5.987h.807l.499 2.325h.014l.499-2.325h.738l.526 2.325h.014l.472-2.325h.806l-.875 3.72h-.806l-.527-2.325h-.013l-.458 2.324h-.807l-.889-3.719z"/></g></svg>