<svg xmlns="http://www.w3.org/2000/svg" viewBox="0 0 361.1641 106.8418"><path fill="#FFF" d="M41.776 2.636c-23.526 0-38.89 19.332-38.89 37.335 0 10.325 2.522 15.494 5.273 20.41 3.474-9.37 10.443-27.97 10.443-27.97s3.245-1.684 3.245-1.44l4.68-11.89 3.007-1.56 3.713-7.93 8.167 1.328L57.98 20.17l18.612 5.166c-4.803-12.26-18.367-22.7-34.816-22.7m-.24 79.71c-10.208 0-22.686-3.597-31.697-14.634h63.267c-7.325 9.474-19.923 14.635-31.57 14.635m12.486-16.565h-5.758L58.94 52.467l1.082 2.035-6 11.28zm5.642-42.373l-18.37-10.687-6.72-1.21v4.93l5.16 4.796-7.204-.595s.248.362 6.243 6.72l27.373 4.567 4.804 3.12-12.486.598L53.296 54.5 36.371 65.78H25.335l3.714-7.323-.593-.238-9.974 7.56h-2.394l10.2-14.28c.485-4.096.24-2.286.85-9.606L25.57 39.73l-4.086 15.845-8.522 10.207h-2.164l5.053-7.076 7.082-21.74-1.808.846-3.118 8.648-2.155 1.194S10.8 59.902 8.16 65.907C4.323 60.38 0 52.937 0 39.97 0 20.526 16.68 0 41.776 0 65.904 0 78.752 19.21 80.91 29.163L59.664 23.41zM71.55 51.5l-3.484 3.002-6.973 11.28H56.54l4.553-8.045 3.603-3 5.173-14.53 5.52 2.28-3.84 9.014zm3.23 14.282h-9.238l8.76-13.802 2.647-9.005 5.527 1.92c-.492 6.958-2.774 14.053-7.697 20.887M63.507 49.216l-2.766.492.725-5.527-.724-1.085.725-6.25 7.07 2.884-5.028 9.486zm56.956-20.824h-2.88v19.51h2.88c6.66 0 7.865-4.75 7.865-9.61 0-4.862-1.206-9.9-7.865-9.9m89.665 22.095c0-3.492-.472-9.422-4.978-9.422-5.106 0-5.168 8.516-5.168 12.535 0 3.483.25 11.706 4.99 11.706 1.796 0 3.298-1.135 4.028-2.83.477-1.196 1.128-2.996 1.128-6.182v-5.807zm25.82-10.206c-4.93 0-5.003 7.673-5.112 10.485h9.837c.072-3.04-.17-10.484-4.724-10.484m95.835 12.117c-5.325 1.034-8.273 2.4-8.273 7.862 0 3.187 1.612 4.807 3.41 4.807 2.53 0 3.428-1.492 3.967-2.592.603-1.075.895-3.407.895-5.576v-4.503zm-211.322-2.514h-2.88v12.244c0 1.255.124 2.28.713 2.94.552.536 1.506.84 3.248.84h1.5v1.805H104.01v-1.805h1.69c1.43 0 2.633-.253 3.244-.722.594-.55.896-1.438.896-3.058V32.53c0-1.92-.302-3.242-1.263-3.716-.59-.347-1.733-.422-3.293-.422h-1.273v-1.808h16.453c8.397 0 15.662 3.01 15.662 11.707 0 8.285-7.145 11.593-15.662 11.593m34.99-4.084c-2.1 0-3.364-1.502-3.364-2.705 0-.425 0-.904.3-1.553h-.06c-2.89 2.394-3.542 11.517-3.542 15.06v4.324c0 1.862 0 3.36.55 4.14.534.776 1.912.84 2.696.84h2.69v1.806h-18.96v-1.805h1.81c1.904 0 2.87-.304 3.35-1.09.666-1.07.55-3.95.55-3.95V49.882c0-3.6-.128-6.3-.55-7.26-.48-1.034-1.2-1.264-2.82-1.264h-.658v-1.805h10.203l.297 7.197h.062c.296-3.473 2.34-8.03 7.027-8.03 2.512 0 4.085 1.195 4.085 3.54 0 1.79-1.33 3.594-3.668 3.537M179.69 67.71l-.106-4.404s-.07.202-.07 0c-.714 2.295-3.777 5.232-7.857 5.232-6.778 0-8.283-3.947-8.283-9.17V47.244c0-3.548-.118-4.87-.362-5.225-.17-.306-.472-.66-2.035-.66h-.43v-1.805h10.214v20.59c0 4.49 2.458 4.61 3.66 4.61 2.04 0 3.66-1.797 4.255-4.193.358-1.39.358-2.934.358-4.5v-8.818c0-2.464.072-4.504-.472-5.1-.48-.555-1.14-.785-3-.785h-.602v-1.805h11.402v21.37c0 1.863.13 3.36.664 4.142.535.775 1.383.84 2.222.84h1.076v1.805h-10.63zm31.225 0l-.13-4.404c-.52 1.877-3.243 5.232-7.86 5.232-8.883 0-11.225-8.1-11.225-14.94 0-6.78 4.087-14.877 12.19-14.877 4.026 0 5.647 1.615 6.238 2.82V32.78c0-1.562 0-2.708-.9-3.617-.537-.537-1.38-.77-2.765-.77h-.54v-1.81l11.523-.888V62.32c0 1.966.31 2.56.794 2.986.536.416 1.55.6 2.634.6h.776v1.806h-10.735zm19.868-15.01s-.177 2.938.412 6.368c.6 3.408 2.045 7.01 6.057 7.01 5.59 0 8.229-4.917 8.229-7.976h2.338c0 4.025-3.892 10.438-11.58 10.438-8.995 0-13.44-6.358-13.44-14.94 0-8.877 5.82-14.877 13.203-14.877 8.757 0 12.185 6.354 12.185 13.976h-17.402zm38.71 15.012v-20.96c0-4.13-1.984-4.434-3.6-4.434-1.156 0-2.466.657-3.36 2.1-.79 1.326-1.214 3.717-1.214 6.07v10.378c0 2.4-.102 3.595.424 4.2.484.537 1.144.84 2.704.84h.836v1.806h-15.306v-1.805h.906c1.325 0 2.165-.304 2.636-.84.544-.606.43-1.802.43-4.2V46.4c0-1.86.055-3.425-.495-4.21-.592-.78-1.49-.83-2.334-.83h-1.142v-1.805h10.682l.128 4.38h.065c1.016-2.638 3.595-5.212 7.915-5.212 6.486 0 8.05 3.538 8.05 9.412v12.79c0 2.34-.06 3.36.468 4.142.547.775 1.566.84 2.35.84h1.14v1.805h-11.282zm28.745-2.714c-1.19 2.522-3.48 3.542-6.898 3.542-6.07 0-7.086-4.37-7.086-7.856V41.41h-5.04v-1.855h.478c6.54 0 10.017-8.7 10.017-12.97h1.86v12.97h5.642v1.855h-5.523v20.165c0 1.935.247 3.792 2.346 3.792.903 0 1.503-.42 1.922-1.08 1.134-1.63 1.09-4.872 1.09-7.017h2.21c0 3.29-.238 6.038-1.02 7.728m1.563 2.714v-1.805h.894c.844 0 1.813-.065 2.347-.84.543-.78.543-2.41.543-4.27V45.743c0-1.203.122-2.884-.91-3.725-.598-.53-1.734-.61-2.818-.61h-.596v-1.855h11.698v21.24c0 1.86-.052 3.49.545 4.272.546.775 1.438.84 2.28.84h1.137v1.805H299.8zm32.647 0c.055 0-.057-4.58-.125-4.58-.47 2.346-4.074 5.408-8.1 5.408-6.293 0-8.285-4.434-8.285-7.26 0-6.66 6.673-8.883 15.848-10.685v-4.74c0-3.232-1.375-5.155-5.638-5.155-2.873 0-5.347 1.743-5.702 2.757v.127c.355-.554 1.14-.724 1.74-.724 2.1 0 3.545 1.19 3.545 3.29 0 1.633-1.69 3.43-4.016 3.43-1.928 0-4.215-1.262-4.215-4.206 0-3.964 4.63-6.65 10.567-6.65 5.276 0 11.043 1.482 11.043 9.71v13.81c0 2.042.297 2.704.786 3.062.538.416 1.264.6 2.043.6h.58v1.806h-10.073zm-25.384-32.54a4.555 4.555 0 0 1-4.556-4.563c0-2.523 2.032-4.492 4.556-4.492 2.52 0 4.562 1.97 4.562 4.49a4.564 4.564 0 0 1-4.562 4.565m36.426 32.54v-1.806h.362c.78 0 1.625-.185 2.162-.6.476-.427.78-.846.78-2.988V32.78c0-.848 0-2.708-.91-3.617-.53-.537-1.548-.77-2.207-.77h-1.083v-1.81l11.53-.888V62.32c0 1.966.29 2.56.777 2.986.538.416 1.555.6 2.696.6h.48v1.806H343.49z"/><path fill="#FFD200" d="M130.672 84.653h1.91V82.38h-1.91v2.273zm23.78 14.52c-.702 0-1.157-.373-1.157-1.02 0-.617.347-1.074 1.102-1.29.748.216 1.338.38 2.465.38 2.814 0 5.096-2.118 5.096-4.883 0-1.283-.564-2.36-.968-2.84.485-.242 1.343-.376 2.145-.376v-1.932c-1.044.107-2.17.642-3.002 1.236-.91-.646-1.958-.967-3.46-.967-2.975 0-5.282 1.93-5.282 4.88 0 1.53.59 2.897 1.905 3.89-1.07.674-1.876 1.18-1.876 2.388 0 .834.67 1.66 1.74 1.984-1.5.778-2.362 1.45-2.362 2.84 0 2.306 2.093 3.38 6.012 3.38 4.34 0 6.35-1.716 6.35-3.755 0-2.736-2.115-3.914-8.71-3.914zm-1.24-6.813c0-1.824 1.185-3.217 3.38-3.217 2.365 0 3.54 1.286 3.54 3.33 0 1.656-1.126 3.108-3.322 3.108-2.146 0-3.598-1.368-3.598-3.22zm3.916 12.82c-3.86 0-4.504-.698-4.504-1.746 0-.99.858-2.33 3.888-2.33 3.405 0 4.798.698 4.827 2.063-.03 1.367-1.905 2.014-4.212 2.014zm165.706-6.007c-.698 0-1.15-.373-1.15-1.02 0-.617.347-1.074 1.094-1.29.753.216 1.34.38 2.47.38 2.816 0 5.096-2.118 5.096-4.883 0-1.283-.564-2.36-.967-2.84.482-.242 1.342-.376 2.15-.376v-1.932c-1.05.107-2.175.642-3.008 1.236-.914-.646-1.96-.967-3.46-.967-2.977 0-5.284 1.93-5.284 4.88 0 1.53.592 2.897 1.907 3.89-1.075.674-1.876 1.18-1.876 2.388 0 .834.665 1.66 1.74 1.984-1.506.778-2.36 1.45-2.36 2.84 0 2.306 2.09 3.38 6.004 3.38 4.348 0 6.36-1.716 6.36-3.755 0-2.736-2.117-3.914-8.716-3.914zM321.6 92.36c0-1.824 1.178-3.217 3.38-3.217 2.356 0 3.54 1.286 3.54 3.33 0 1.656-1.128 3.108-3.33 3.108-2.14 0-3.59-1.368-3.59-3.22zm3.915 12.82c-3.863 0-4.508-.698-4.508-1.746 0-.99.863-2.33 3.892-2.33 3.405 0 4.797.698 4.83 2.063-.033 1.367-1.91 2.014-4.215 2.014zM209.29 98.184c-.886.935-2.546 2.114-3.995 2.114-1.396 0-2.28-.616-2.28-2.464V87.747h-1.932v10.14c0 3.003 1.96 4.074 4.022 4.074 1.585 0 3.033-.908 4.133-2.144h.05v1.876h1.935V87.747h-1.934v10.436zm30.116 1.955c-3.218 0-5.417-2.52-5.417-8.122 0-5.558 2.198-8.13 4.99-8.13 2.893 0 4.126 1.664 4.825 4.4l1.983-.592c-.858-3.54-2.948-5.632-6.542-5.632-4.666 0-7.402 3.65-7.402 9.954 0 6.784 3.054 9.945 7.402 9.945 3.97 0 5.953-2.466 6.81-6.057l-1.928-.375c-.593 2.358-1.748 4.61-4.722 4.61zm-21.935-9.63h-.055v-2.76h-1.93v13.944h1.93v-7.72c.912-2.87 2.173-4.45 4.59-4.506v-1.93c-2.312 0-3.46 1.07-4.534 2.973zm38.135-3.027c-1.582 0-3.03.912-4.133 2.144h-.054V82.33h-1.928v19.362h1.928v-10.43c.888-.935 2.552-2.12 4.004-2.12 1.39 0 2.27.62 2.27 2.468v10.082h1.933V91.56c0-3.01-1.958-4.08-4.02-4.08zm56.635 0c-1.58 0-3.027.912-4.13 2.144h-.056v-1.877h-1.924v13.945h1.924v-10.43c.888-.935 2.55-2.12 4-2.12 1.392 0 2.278.62 2.278 2.468v10.082h1.936V91.56c0-3.01-1.963-4.08-4.028-4.08zm-38.643 4.182c0-3.055-2.47-4.18-4.827-4.18-2.628 0-4.346 1.337-5.227 2.947l1.688.885c.373-.943 1.42-2.172 3.57-2.172 1.66 0 2.865.698 2.865 2.55v.747c-6.194 1.1-8.525 2.63-8.525 5.688 0 2.55 1.82 3.833 3.968 3.833 2.09 0 3.648-1.125 4.614-2.196l.214 1.928h1.98c-.19-.72-.32-1.47-.32-3.002v-7.028zm-1.932 6.333c-1.126 1.283-2.895 2.302-4.286 2.302-1.078 0-2.312-.855-2.312-2.145 0-1.93 2.174-3.215 6.597-3.993v3.835zm13.974 3.697h1.932V82.33h-1.933v19.362zm-7.46 0h1.934V82.33h-1.934v19.362zM183.973 82.33l-4.666 8.878-4.668-8.88h-2.357l5.95 11.213v8.152h2.146v-8.15l5.954-11.213h-2.36zm-53.313 19.36h1.934V87.747h-1.934v13.945zm13.196-14.21c-1.583 0-3.028.91-4.13 2.142h-.055v-1.877h-1.93v13.945h1.93V91.26c.888-.935 2.547-2.12 3.996-2.12 1.397 0 2.28.62 2.28 2.468v10.082h1.93V91.56c0-3.01-1.953-4.08-4.02-4.08zm48.138 0c-3.806 0-5.713 3.218-5.713 7.242 0 4.02 1.908 7.237 5.714 7.237 3.805 0 5.71-3.215 5.71-7.236 0-4.024-1.905-7.243-5.71-7.243zm0 12.815c-2.305 0-3.784-1.982-3.784-5.573 0-3.598 1.478-5.58 3.784-5.58 2.308 0 3.782 1.982 3.782 5.58 0 3.59-1.474 5.573-3.782 5.573zm147.2 0c-2.308 0-4.13-2.145-4.13-5.2h9.062v-1.29c0-4.45-2.413-6.326-5.307-6.326-3.437 0-5.686 2.734-5.686 7.244 0 5.092 2.947 7.237 6.06 7.237 3.162 0 4.447-1.663 5.362-3.242l-1.5-.78c-.806 1.448-2.15 2.36-3.86 2.36zm-.325-11.153c2.09 0 3.326 1.715 3.326 4.292h-7.082c.16-2.577 1.424-4.293 3.755-4.293zm-216.04 1.365h-.055v-2.763h-1.926v13.945h1.925v-7.72c.915-2.87 2.173-4.45 4.59-4.506v-1.93c-2.31 0-3.46 1.07-4.536 2.973zm174.634 9.787c-2.306 0-4.128-2.145-4.128-5.2h9.063v-1.29c0-4.45-2.415-6.326-5.31-6.326-3.435 0-5.687 2.734-5.687 7.244 0 5.092 2.952 7.237 6.06 7.237 3.164 0 4.452-1.663 5.365-3.242l-1.505-.78c-.8 1.448-2.14 2.36-3.86 2.36zm-.32-11.153c2.09 0 3.325 1.715 3.325 4.292h-7.082c.16-2.577 1.422-4.293 3.755-4.293zm-183.86 2.466l-.026-.05c2.332-.803 3.272-2.333 3.272-4.454 0-2.63-2.038-4.777-5.415-4.777h-7.137v19.362h6.007c5.254 0 7.03-2.306 7.03-5.2 0-2.416-1.56-4.347-3.732-4.882zm-7.162-7.453h4.612c2.47 0 3.65 1.018 3.65 3.198 0 1.628-1.26 3.297-4.505 3.297h-3.758v-6.495zm4.025 15.714h-4.025v-7.396h3.702c3.057 0 5.042 1.443 5.042 3.91 0 2.416-1.558 3.487-4.72 3.487zM348.47 91.21c0-1.232.884-2.064 2.524-2.064 1.5 0 2.52.644 3.595 1.957l1.337-1.177c-.94-1.426-2.95-2.416-4.773-2.442-2.683-.028-4.534 1.34-4.615 3.755-.162 5.098 8.1 3.22 8.1 6.76 0 1.178-.915 2.302-3.005 2.302-1.742 0-3.082-.825-3.996-2.145l-1.532 1.156c1.29 1.714 3.408 2.653 5.58 2.653 2.524 0 4.883-1.37 4.883-4.074 0-5.203-8.1-3.647-8.1-6.678zm9.8-8.77c1.558 0 2.894 1.213 2.894 2.858 0 1.66-1.336 2.872-2.895 2.872-1.576 0-2.912-1.212-2.912-2.872 0-1.645 1.336-2.857 2.91-2.857zm0 .464c-1.33 0-2.356 1.028-2.356 2.394 0 1.397 1.027 2.41 2.355 2.41 1.31 0 2.338-1.013 2.338-2.41 0-1.366-1.027-2.394-2.34-2.394zm-.61 4.054h-.51v-3.305h1.266c.787 0 1.173.293 1.173.942 0 .594-.37.85-.865.91l.94 1.453h-.555l-.88-1.437h-.57v1.438zm0-1.853h.6c.62 0 .82-.178.82-.54 0-.317-.155-.495-.734-.495h-.687v1.035z"/></svg>