<?xml version="1.0" encoding="utf-8"?>
<!-- Generator: Adobe Illustrator 18.1.1, SVG Export Plug-In . SVG Version: 6.00 Build 0)  -->
<!DOCTYPE svg PUBLIC "-//W3C//DTD SVG 1.1//EN" "http://www.w3.org/Graphics/SVG/1.1/DTD/svg11.dtd">
<svg version="1.1" id="Layer_1" xmlns="http://www.w3.org/2000/svg" xmlns:xlink="http://www.w3.org/1999/xlink" x="0px" y="0px"
	 width="300px" height="600px" viewBox="0 0 300 600" style="enable-background:new 0 0 300 600;" xml:space="preserve">
<style type="text/css">
	.st0{fill:#8C8C8C;}
</style>
<g>
	<path class="st0" d="M83.6,72.5h3.1v1.3c0.7-1,1.8-1.5,3.2-1.5h0.4v3.2h-0.9c-1.8,0-2.7,1.2-2.7,2.7V85h-3.1V72.5z"/>
	<path class="st0" d="M90.3,78.7c0-3.7,3-6.5,6.5-6.5c3.7,0,6.6,2.8,6.6,6.5v1h-9.8c0.4,1.5,1.7,2.6,3.3,2.6c1.2,0,2.2-0.6,2.9-1.5
		l2.7,1.3c-1.1,1.9-3.2,3.1-5.7,3.1C93.3,85.3,90.3,82.4,90.3,78.7z M93.7,77.5h6.5c-0.4-1.5-1.7-2.4-3.2-2.4
		C95.4,75,94.1,76,93.7,77.5z"/>
	<path class="st0" d="M110,72.3c1.4,0,2.5,0.4,3.5,1.3v-1.1h3.1V85h-3.1V84c-1.1,0.9-2.2,1.3-3.5,1.3c-3.7,0-6.2-2.9-6.2-6.5
		C103.8,75.1,106.4,72.3,110,72.3z M113.6,80.7v-3.9c-0.9-1.2-2.2-1.6-3.1-1.6c-1.9,0-3.4,1.5-3.4,3.6c0,2.1,1.5,3.6,3.4,3.6
		C111.4,82.3,112.6,82,113.6,80.7z"/>
	<path class="st0" d="M124.2,72.3c1.4,0,2.5,0.4,3.5,1.3v-4.8h3.1V85h-3.1V84c-1.1,0.9-2.2,1.3-3.5,1.3c-3.7,0-6.2-2.9-6.2-6.5
		C117.9,75.1,120.5,72.3,124.2,72.3z M127.7,80.7v-3.9c-0.9-1.2-2.2-1.6-3.1-1.6c-1.9,0-3.4,1.5-3.4,3.6c0,2.1,1.5,3.6,3.4,3.6
		C125.5,82.3,126.8,82,127.7,80.7z"/>
	<path class="st0" d="M132.7,85.6c0.8,0.5,1.5,0.6,1.8,0.6c0.8,0,1.3-0.4,1.5-0.9l0.1-0.2l-4.7-12.7h3.6l2.9,8.9l2.9-8.9h3.5
		L139.8,85c-1.2,3.2-3.1,4-4.9,4c-1.4,0-2.6-0.4-3.5-1L132.7,85.6z"/>
	<path class="st0" d="M149.2,73.2h1.5v-0.7c0-1.9,1.3-3.8,3.8-3.8h2.1v2.7h-1.5c-0.9,0-1.4,0.5-1.4,1.4v0.4h2.6v2.7h-2.6V85h-3.1
		v-9.1h-1.5V73.2z"/>
	<path class="st0" d="M156.5,78.8c0-3.6,3-6.5,6.6-6.5c3.6,0,6.6,2.9,6.6,6.5c0,3.7-3,6.5-6.6,6.5S156.5,82.5,156.5,78.8z
		 M166.4,78.8c0-2.1-1.5-3.6-3.4-3.6c-1.9,0-3.4,1.5-3.4,3.6c0,2.1,1.5,3.6,3.4,3.6S166.4,80.9,166.4,78.8z"/>
	<path class="st0" d="M170.8,72.5h3.1v1.3c0.7-1,1.8-1.5,3.2-1.5h0.4v3.2h-0.9c-1.8,0-2.7,1.2-2.7,2.7V85h-3.1V72.5z"/>
	<path class="st0" d="M182.3,72.5h1.8v-3h3.1v3h3.1v2.7h-3.1v5.1c0,1.1,0.7,1.9,1.8,1.9h1.2V85h-1.8c-2.6,0-4.4-1.6-4.4-4.2v-5.6
		h-1.8V72.5z"/>
	<path class="st0" d="M191.6,68.8h3.1v4.8c0.8-0.8,1.9-1.3,3.2-1.3c3.1,0,5.2,2.5,5.2,5.7v7H200v-7.1c0-1.5-1.2-2.7-2.7-2.7
		c-1.5,0-2.7,1.3-2.7,2.7V85h-3.1V68.8z"/>
	<path class="st0" d="M204.2,78.7c0-3.7,3-6.5,6.5-6.5c3.7,0,6.6,2.8,6.6,6.5v1h-9.8c0.4,1.5,1.7,2.6,3.3,2.6c1.2,0,2.3-0.6,2.9-1.5
		l2.7,1.3c-1.1,1.9-3.2,3.1-5.7,3.1C207.2,85.3,204.2,82.4,204.2,78.7z M207.5,77.5h6.5c-0.4-1.5-1.7-2.4-3.2-2.4
		C209.3,75,208,76,207.5,77.5z"/>
	<path class="st0" d="M59.2,96.7h1.5V96c0-1.9,1.3-3.8,3.8-3.8h2.1v2.7h-1.5c-0.9,0-1.4,0.5-1.4,1.4v0.4h2.6v2.7h-2.6v9.1h-3.1v-9.1
		h-1.5V96.7z"/>
	<path class="st0" d="M67.1,96h3.1v1.3c0.7-1,1.8-1.5,3.2-1.5h0.4v3.2h-0.9c-1.8,0-2.7,1.2-2.7,2.7v6.9h-3.1V96z"/>
	<path class="st0" d="M73.7,102.2c0-3.7,3-6.5,6.5-6.5c3.7,0,6.6,2.8,6.6,6.5v1h-9.8c0.4,1.5,1.7,2.6,3.3,2.6c1.2,0,2.2-0.6,2.9-1.5
		l2.7,1.3c-1.1,1.9-3.2,3.1-5.7,3.1C76.8,108.8,73.7,105.9,73.7,102.2z M77.1,101h6.5c-0.4-1.5-1.7-2.4-3.2-2.4
		C78.8,98.5,77.6,99.5,77.1,101z"/>
	<path class="st0" d="M93.5,95.8c1.4,0,2.5,0.4,3.5,1.3V96h3.1v12.5H97v-1.1c-1.1,0.9-2.2,1.3-3.5,1.3c-3.7,0-6.2-2.9-6.2-6.5
		C87.3,98.6,89.8,95.8,93.5,95.8z M97,104.2v-3.9c-0.9-1.2-2.2-1.6-3.1-1.6c-1.9,0-3.4,1.5-3.4,3.6c0,2.1,1.5,3.6,3.4,3.6
		C94.9,105.8,96.1,105.5,97,104.2z"/>
	<path class="st0" d="M106.9,102.9l-1.7,1.7v4h-3.1V92.3h3.1v8.8l4.9-5.1h4l-4.9,4.8l5.2,7.7h-3.8L106.9,102.9z"/>
	<path class="st0" d="M114.4,92.7c0-1.1,0.9-1.9,1.9-1.9s1.9,0.9,1.9,1.9s-0.9,1.9-1.9,1.9S114.4,93.7,114.4,92.7z M114.8,96h3.1
		v12.5h-3.1V96z"/>
	<path class="st0" d="M119.8,96h3.1v1c0.8-0.8,1.9-1.3,3.2-1.3c3.2,0,5.2,2.5,5.2,5.7v7h-3.1v-7.1c0-1.5-1.2-2.7-2.7-2.7
		c-1.5,0-2.7,1.3-2.7,2.7v7.1h-3.1V96z"/>
	<path class="st0" d="M133.6,92.5h3.6c-0.2,2.3-0.8,4.5-1.8,6.6h-3.1C133.1,96.9,133.5,94.7,133.6,92.5z"/>
	<path class="st0" d="M142.2,96h3.6l2.2,7.9l2.4-7.9h3.3l2.4,7.9l2.1-7.9h3.5l-3.8,12.5h-3.5l-2.5-8.1l-2.4,8.1H146L142.2,96z"/>
	<path class="st0" d="M161.3,102.2c0-3.7,3-6.5,6.5-6.5c3.7,0,6.6,2.8,6.6,6.5v1h-9.8c0.4,1.5,1.7,2.6,3.3,2.6
		c1.2,0,2.3-0.6,2.9-1.5l2.7,1.3c-1.1,1.9-3.2,3.1-5.7,3.1C164.3,108.8,161.3,105.9,161.3,102.2z M164.7,101h6.5
		c-0.4-1.5-1.7-2.4-3.2-2.4C166.4,98.5,165.1,99.5,164.7,101z"/>
	<path class="st0" d="M174.8,102.2c0-3.7,3-6.5,6.5-6.5c3.7,0,6.6,2.8,6.6,6.5v1h-9.8c0.4,1.5,1.7,2.6,3.3,2.6
		c1.2,0,2.3-0.6,2.9-1.5l2.7,1.3c-1.1,1.9-3.2,3.1-5.7,3.1C177.8,108.8,174.8,105.9,174.8,102.2z M178.2,101h6.5
		c-0.4-1.5-1.7-2.4-3.2-2.4C179.9,98.5,178.6,99.5,178.2,101z"/>
	<path class="st0" d="M193.8,102.9l-1.7,1.7v4H189V92.3h3.1v8.8L197,96h4l-4.9,4.8l5.2,7.7h-3.8L193.8,102.9z"/>
	<path class="st0" d="M200.4,102.2c0-3.7,3-6.5,6.5-6.5c3.7,0,6.6,2.8,6.6,6.5v1h-9.8c0.4,1.5,1.7,2.6,3.3,2.6
		c1.2,0,2.3-0.6,2.9-1.5l2.7,1.3c-1.1,1.9-3.2,3.1-5.7,3.1C203.4,108.8,200.4,105.9,200.4,102.2z M203.7,101h6.5
		c-0.4-1.5-1.7-2.4-3.2-2.4C205.5,98.5,204.2,99.5,203.7,101z"/>
	<path class="st0" d="M214.5,96h3.1v1c0.8-0.8,1.9-1.3,3.2-1.3c3.1,0,5.2,2.5,5.2,5.7v7H223v-7.1c0-1.5-1.2-2.7-2.7-2.7
		c-1.5,0-2.7,1.3-2.7,2.7v7.1h-3.1V96z"/>
	<path class="st0" d="M233.4,95.8c1.4,0,2.5,0.4,3.5,1.3v-4.8h3.1v16.3H237v-1.1c-1.1,0.9-2.2,1.3-3.5,1.3c-3.6,0-6.2-2.9-6.2-6.5
		C227.2,98.6,229.8,95.8,233.4,95.8z M237,104.2v-3.9c-0.9-1.2-2.2-1.6-3.1-1.6c-1.9,0-3.4,1.5-3.4,3.6c0,2.1,1.5,3.6,3.4,3.6
		C234.8,105.8,236,105.5,237,104.2z"/>
</g>
</svg>
