<?xml version="1.0" encoding="utf-8"?>
<!-- Generator: Adobe Illustrator 18.1.1, SVG Export Plug-In . SVG Version: 6.00 Build 0)  -->
<!DOCTYPE svg PUBLIC "-//W3C//DTD SVG 1.1//EN" "http://www.w3.org/Graphics/SVG/1.1/DTD/svg11.dtd">
<svg version="1.1" id="Layer_1" xmlns="http://www.w3.org/2000/svg" xmlns:xlink="http://www.w3.org/1999/xlink" x="0px" y="0px"
	 width="300px" height="600px" viewBox="0 0 300 600" style="enable-background:new 0 0 300 600;" xml:space="preserve">
<style type="text/css">
	.st0{fill:#8C8C8C;}
</style>
<g>
	<path class="st0" d="M36.1,75.2c0-3.6,2.9-6.5,6.5-6.5c1.6,0,3.2,0.6,4.3,1.6L45.1,72c-0.7-0.5-1.5-0.9-2.4-0.9
		c-2.2,0-3.9,1.8-3.9,4c0,2.2,1.7,4,3.9,4c0.9,0,1.8-0.3,2.4-0.9l1.8,1.7c-1.2,1-2.7,1.6-4.3,1.6C39,81.6,36.1,78.8,36.1,75.2z"/>
	<path class="st0" d="M47.7,77.8v-5.3h2.2v5.3c0,1.1,0.8,1.8,1.9,1.8c1.1,0,1.9-0.8,1.9-1.8v-5.3h2.2v5.3c0,2.3-1.9,3.9-4.1,3.9
		S47.7,80.1,47.7,77.8z"/>
	<path class="st0" d="M57.6,72.5h2.2v0.9c0.5-0.7,1.3-1.1,2.3-1.1h0.3v2.3h-0.6c-1.3,0-1.9,0.8-1.9,1.9v5h-2.2V72.5z"/>
	<path class="st0" d="M67,72.3c1,0,1.8,0.3,2.5,0.9v-0.8h2.2v9h-2.2v-0.8c-0.8,0.7-1.5,0.9-2.5,0.9c-2.6,0-4.5-2.1-4.5-4.7
		S64.4,72.3,67,72.3z M69.6,78.4v-2.8c-0.7-0.9-1.5-1.2-2.2-1.2c-1.4,0-2.5,1.1-2.5,2.6s1.1,2.6,2.5,2.6
		C68,79.5,68.9,79.3,69.6,78.4z"/>
	<path class="st0" d="M72.9,72.5h1.3v-2.2h2.2v2.2h2.2v1.9h-2.2V78c0,0.8,0.5,1.3,1.3,1.3h0.9v2.1h-1.3c-1.8,0-3.2-1.2-3.2-3v-4
		h-1.3V72.5z"/>
	<path class="st0" d="M79.3,76.9c0-2.6,2.2-4.6,4.7-4.6c2.6,0,4.7,2,4.7,4.6v0.7h-7c0.3,1.1,1.2,1.9,2.4,1.9c0.8,0,1.6-0.4,2.1-1.1
		l2,1c-0.8,1.4-2.3,2.2-4.1,2.2C81.4,81.6,79.3,79.6,79.3,76.9z M81.7,76h4.6c-0.3-1.1-1.2-1.8-2.3-1.8C82.9,74.3,82,75,81.7,76z"/>
	<path class="st0" d="M93.8,72.3c1,0,1.8,0.3,2.5,0.9v-3.5h2.2v11.7h-2.2v-0.8c-0.8,0.7-1.5,0.9-2.5,0.9c-2.6,0-4.5-2.1-4.5-4.7
		S91.1,72.3,93.8,72.3z M96.3,78.4v-2.8c-0.7-0.9-1.5-1.2-2.2-1.2c-1.4,0-2.5,1.1-2.5,2.6s1.1,2.6,2.5,2.6
		C94.7,79.5,95.6,79.3,96.3,78.4z"/>
	<path class="st0" d="M103.8,72.5h2.2v0.9c0.5-0.7,1.3-1.1,2.3-1.1h0.3v2.3h-0.6c-1.3,0-1.9,0.8-1.9,1.9v5h-2.2V72.5z"/>
	<path class="st0" d="M113.3,72.3c1,0,1.8,0.3,2.5,0.9v-0.8h2.2v9h-2.2v-0.8c-0.8,0.7-1.5,0.9-2.5,0.9c-2.6,0-4.5-2.1-4.5-4.7
		S110.6,72.3,113.3,72.3z M115.8,78.4v-2.8c-0.7-0.9-1.5-1.2-2.2-1.2c-1.4,0-2.5,1.1-2.5,2.6s1.1,2.6,2.5,2.6
		C114.3,79.5,115.1,79.3,115.8,78.4z"/>
	<path class="st0" d="M123.8,72.3c1,0,1.8,0.3,2.5,0.9v-3.5h2.2v11.7h-2.2v-0.8c-0.8,0.7-1.5,0.9-2.5,0.9c-2.6,0-4.5-2.1-4.5-4.7
		S121.1,72.3,123.8,72.3z M126.3,78.4v-2.8c-0.7-0.9-1.5-1.2-2.2-1.2c-1.4,0-2.5,1.1-2.5,2.6s1.1,2.6,2.5,2.6
		C124.8,79.5,125.6,79.3,126.3,78.4z"/>
	<path class="st0" d="M130,70.1c0-0.8,0.6-1.4,1.4-1.4s1.4,0.6,1.4,1.4s-0.6,1.4-1.4,1.4S130,70.8,130,70.1z M130.3,72.5h2.2v9h-2.2
		V72.5z"/>
	<path class="st0" d="M133.7,77c0-2.6,2.1-4.7,4.7-4.7s4.7,2.1,4.7,4.7c0,2.7-2.1,4.7-4.7,4.7C135.9,81.6,133.7,79.7,133.7,77z
		 M140.9,77c0-1.5-1.1-2.6-2.4-2.6c-1.3,0-2.4,1.1-2.4,2.6c0,1.5,1.1,2.6,2.4,2.6S140.9,78.5,140.9,77z"/>
	<path class="st0" d="M147.4,73h1.1v-0.5c0-1.4,0.9-2.7,2.7-2.7h1.5v1.9h-1c-0.7,0-1,0.3-1,1V73h1.9v1.9h-1.9v6.6h-2.2v-6.6h-1.1V73
		z"/>
	<path class="st0" d="M152.9,77c0-2.6,2.1-4.7,4.7-4.7s4.7,2.1,4.7,4.7c0,2.7-2.1,4.7-4.7,4.7S152.9,79.7,152.9,77z M160.1,77
		c0-1.5-1.1-2.6-2.4-2.6c-1.3,0-2.4,1.1-2.4,2.6c0,1.5,1.1,2.6,2.4,2.6C159,79.5,160.1,78.5,160.1,77z"/>
	<path class="st0" d="M163.6,72.5h2.2v0.9c0.5-0.7,1.3-1.1,2.3-1.1h0.3v2.3h-0.6c-1.3,0-1.9,0.8-1.9,1.9v5h-2.2V72.5z"/>
	<path class="st0" d="M172,76.9c0-2.6,2.2-4.6,4.7-4.6c2.6,0,4.7,2,4.7,4.6v0.7h-7c0.3,1.1,1.2,1.9,2.4,1.9c0.8,0,1.6-0.4,2.1-1.1
		l2,1c-0.8,1.4-2.3,2.2-4.1,2.2C174.1,81.6,172,79.6,172,76.9z M174.4,76h4.6c-0.3-1.1-1.2-1.8-2.3-1.8
		C175.6,74.3,174.7,75,174.4,76z"/>
	<path class="st0" d="M181.3,72.5h2.6l2.1,6.4l2.1-6.4h2.5l-3.3,9h-2.7L181.3,72.5z"/>
	<path class="st0" d="M190.7,76.9c0-2.6,2.2-4.6,4.7-4.6c2.6,0,4.7,2,4.7,4.6v0.7h-7c0.3,1.1,1.2,1.9,2.4,1.9c0.8,0,1.6-0.4,2.1-1.1
		l2,1c-0.8,1.4-2.3,2.2-4.1,2.2C192.8,81.6,190.7,79.6,190.7,76.9z M193.1,76h4.6c-0.3-1.1-1.2-1.8-2.3-1.8
		C194.3,74.3,193.4,75,193.1,76z"/>
	<path class="st0" d="M201.2,72.5h2.2v0.9c0.5-0.7,1.3-1.1,2.3-1.1h0.3v2.3h-0.6c-1.3,0-1.9,0.8-1.9,1.9v5h-2.2V72.5z"/>
	<path class="st0" d="M207.1,81.9c0.6,0.4,1,0.4,1.3,0.4c0.6,0,0.9-0.3,1.1-0.6l0.1-0.1l-3.4-9.1h2.6l2.1,6.4l2.1-6.4h2.5l-3.3,9
		c-0.8,2.3-2.2,2.9-3.5,2.9c-1,0-1.9-0.3-2.5-0.7L207.1,81.9z"/>
	<path class="st0" d="M219.4,72.5h2.2v0.8c0.6-0.6,1.4-1,2.3-1c1.2,0,2.1,0.6,2.6,1.4c0.6-0.9,1.5-1.4,2.7-1.4
		c2.3,0,3.5,1.8,3.5,3.8v5.4h-2.2v-5.3c0-1.1-0.7-1.8-1.7-1.8c-1,0-1.7,0.8-1.7,1.8v5.3h-2.2v-5.3c0-1.1-0.7-1.8-1.7-1.8
		c-1,0-1.7,0.8-1.7,1.8v5.3h-2.2V72.5z"/>
	<path class="st0" d="M233.8,77c0-2.6,2.1-4.7,4.7-4.7s4.7,2.1,4.7,4.7c0,2.7-2.1,4.7-4.7,4.7S233.8,79.7,233.8,77z M241,77
		c0-1.5-1.1-2.6-2.4-2.6c-1.3,0-2.4,1.1-2.4,2.6c0,1.5,1.1,2.6,2.4,2.6C239.9,79.5,241,78.5,241,77z"/>
	<path class="st0" d="M244,77c0-2.6,2.1-4.7,4.7-4.7s4.7,2.1,4.7,4.7c0,2.7-2.1,4.7-4.7,4.7S244,79.7,244,77z M251.1,77
		c0-1.5-1.1-2.6-2.4-2.6c-1.3,0-2.4,1.1-2.4,2.6c0,1.5,1.1,2.6,2.4,2.6C250.1,79.5,251.1,78.5,251.1,77z"/>
	<path class="st0" d="M258.7,72.3c1,0,1.8,0.3,2.5,0.9v-3.5h2.2v11.7h-2.2v-0.8c-0.8,0.7-1.5,0.9-2.5,0.9c-2.6,0-4.5-2.1-4.5-4.7
		S256,72.3,258.7,72.3z M261.2,78.4v-2.8c-0.7-0.9-1.5-1.2-2.2-1.2c-1.4,0-2.5,1.1-2.5,2.6s1.1,2.6,2.5,2.6
		C259.6,79.5,260.5,79.3,261.2,78.4z"/>
	<path class="st0" d="M57.1,93.5h2.6l1.6,5.7l1.7-5.7h2.4l1.7,5.7l1.5-5.7h2.5l-2.7,9h-2.5l-1.8-5.8l-1.7,5.8h-2.5L57.1,93.5z"/>
	<path class="st0" d="M71.7,91.1c0-0.8,0.6-1.4,1.4-1.4s1.4,0.6,1.4,1.4s-0.6,1.4-1.4,1.4S71.7,91.8,71.7,91.1z M72,93.5h2.2v9H72
		V93.5z"/>
	<path class="st0" d="M75.3,93.5h1.3v-2.2h2.2v2.2H81v1.9h-2.2V99c0,0.8,0.5,1.3,1.3,1.3H81v2.1h-1.3c-1.8,0-3.2-1.2-3.2-3v-4h-1.3
		V93.5z"/>
	<path class="st0" d="M82.3,90.8h2.2v3.4c0.6-0.6,1.3-0.9,2.3-0.9c2.3,0,3.8,1.8,3.8,4.1v5.1h-2.2v-5.1c0-1.1-0.8-2-1.9-2
		c-1.1,0-1.9,0.9-1.9,2v5.1h-2.2V90.8z"/>
	<path class="st0" d="M95.3,96.2c0-3.6,3-6.5,6.5-6.5c2.4,0,4.3,1.1,5.5,2.7l0.3,0.4l-2.2,1.2l-0.3-0.3c-0.7-0.9-1.8-1.6-3.2-1.6
		c-2.2,0-3.9,1.8-3.9,4c0,2.3,1.7,4.1,3.9,4.1c1.2,0,2.4-0.4,3.4-1.6V98h-2.6v-2.1h5v6.6h-2.3v-1.1c-1,0.8-2.1,1.3-3.7,1.3
		C98,102.6,95.3,99.8,95.3,96.2z"/>
	<path class="st0" d="M108.6,98c0-2.6,2.1-4.7,4.7-4.7s4.7,2.1,4.7,4.7c0,2.7-2.1,4.7-4.7,4.7C110.8,102.6,108.6,100.7,108.6,98z
		 M115.8,98c0-1.5-1.1-2.6-2.4-2.6c-1.3,0-2.4,1.1-2.4,2.6c0,1.5,1.1,2.6,2.4,2.6S115.8,99.5,115.8,98z"/>
	<path class="st0" d="M118.8,98c0-2.6,2.1-4.7,4.7-4.7s4.7,2.1,4.7,4.7c0,2.7-2.1,4.7-4.7,4.7C121,102.6,118.8,100.7,118.8,98z
		 M126,98c0-1.5-1.1-2.6-2.4-2.6c-1.3,0-2.4,1.1-2.4,2.6c0,1.5,1.1,2.6,2.4,2.6S126,99.5,126,98z"/>
	<path class="st0" d="M129,97.5c0-2.4,1.8-4.2,4.5-4.2c0.8,0,1.7,0.3,2.4,0.8v-0.7h2.2v7.6c0,2.6-2,4.3-4.6,4.3
		c-1.7,0-3.1-0.7-3.9-1.7l-0.2-0.2l1.8-1.3l0.2,0.2c0.5,0.5,1.2,0.9,2.1,0.9c1.3,0,2.4-0.7,2.4-2.1v-0.4c-0.8,0.6-1.6,0.8-2.4,0.8
		C130.8,101.7,129,99.9,129,97.5z M135.9,98.6v-2.3c-0.8-0.7-1.5-1-2.3-1c-1.3,0-2.3,0.9-2.3,2.1c0,1.2,1,2.1,2.3,2.1
		C134.4,99.6,135.1,99.3,135.9,98.6z"/>
	<path class="st0" d="M139.9,90.8h2.2v11.7h-2.2V90.8z"/>
	<path class="st0" d="M143.3,97.9c0-2.6,2.2-4.6,4.7-4.6c2.6,0,4.7,2,4.7,4.6v0.7h-7c0.3,1.1,1.2,1.9,2.4,1.9c0.8,0,1.6-0.4,2.1-1.1
		l2,1c-0.8,1.4-2.3,2.2-4.1,2.2C145.5,102.6,143.3,100.6,143.3,97.9z M145.8,97h4.6c-0.3-1.1-1.2-1.8-2.3-1.8
		C147,95.3,146.1,96,145.8,97z"/>
	<path class="st0" d="M157.6,89.9h5.5c2.7,0,4.4,1.8,4.4,4.2c0,2.2-1.7,4.1-4.4,4.1h-3v4.3h-2.6V89.9z M160.2,92.1v3.8h2.7
		c1.2,0,2-0.9,2-1.9c0-1-0.7-1.9-2-1.9H160.2z"/>
	<path class="st0" d="M168.7,90.8h2.2v11.7h-2.2V90.8z"/>
	<path class="st0" d="M176.7,93.3c1,0,1.8,0.3,2.5,0.9v-0.8h2.2v9h-2.2v-0.8c-0.8,0.7-1.5,0.9-2.5,0.9c-2.6,0-4.5-2.1-4.5-4.7
		S174,93.3,176.7,93.3z M179.2,99.4v-2.8c-0.7-0.9-1.5-1.2-2.2-1.2c-1.4,0-2.5,1.1-2.5,2.6s1.1,2.6,2.5,2.6
		C177.7,100.5,178.5,100.3,179.2,99.4z"/>
	<path class="st0" d="M183.3,102.9c0.6,0.4,1,0.4,1.3,0.4c0.6,0,0.9-0.3,1.1-0.6l0.1-0.1l-3.4-9.1h2.6l2.1,6.4l2.1-6.4h2.5l-3.3,9
		c-0.8,2.3-2.2,2.9-3.5,2.9c-1,0-1.9-0.3-2.5-0.7L183.3,102.9z"/>
	<path class="st0" d="M196.4,89.9h3.7l3,8.4l3.1-8.4h3.7l1,12.6h-2.7l-0.6-9.4l-3,8.1h-2.8l-3-8.1l-0.6,9.4h-2.6L196.4,89.9z"/>
	<path class="st0" d="M212.2,98.8v-5.3h2.2v5.3c0,1.1,0.8,1.8,1.9,1.8c1.1,0,1.9-0.8,1.9-1.8v-5.3h2.2v5.3c0,2.3-1.9,3.9-4.1,3.9
		C214,102.6,212.2,101.1,212.2,98.8z"/>
	<path class="st0" d="M221.6,101.7l-0.3-0.2l1.1-1.7l0.3,0.2c0.6,0.3,1.6,0.8,2.6,0.8c0.9,0,1.3-0.3,1.3-0.7c0-0.7-0.8-0.8-2.1-1.1
		c-1.8-0.4-3-1.3-3-2.8c0-1.4,1.4-2.8,3.7-2.8c1.4,0,2.6,0.3,3.3,0.7l0.4,0.2l-1.1,1.7l-0.4-0.1c-0.4-0.2-1.3-0.5-2.3-0.5
		c-0.7,0-1.4,0.2-1.4,0.7c0,0.5,0.5,0.7,1.7,0.9c2,0.4,3.5,1.1,3.5,2.9c0,1.7-1.4,2.9-3.8,2.9C223.9,102.6,222.6,102.2,221.6,101.7z
		"/>
	<path class="st0" d="M230.1,91.1c0-0.8,0.6-1.4,1.4-1.4s1.4,0.6,1.4,1.4s-0.6,1.4-1.4,1.4S230.1,91.8,230.1,91.1z M230.4,93.5h2.2
		v9h-2.2V93.5z"/>
	<path class="st0" d="M238.6,100.5c0.9,0,1.6-0.5,2.1-1.2l0.2-0.3l1.9,1.1l-0.3,0.5c-0.8,1.2-2.2,2-3.9,2c-2.6,0-4.7-2.1-4.7-4.7
		c0-2.6,2.2-4.7,4.7-4.7c1.6,0,3.1,0.8,3.9,2l0.3,0.5l-1.9,1.1l-0.2-0.3c-0.5-0.7-1.2-1.2-2.1-1.2c-1.3,0-2.4,1.1-2.4,2.6
		C236.2,99.5,237.3,100.5,238.6,100.5z"/>
</g>
</svg>
