<svg version="1.1" id="Layer_1" xmlns="http://www.w3.org/2000/svg" viewBox="0 243.4 300 87.6">
<g>
	<path d="M36.5,292.7c-4.7,4.9-9.9,6.1-15.9,6.1c-6.6,0-11.2-2-15.1-5.9C0,287.3,0,280.3,0,271.1s0-16.1,5.6-21.8
		c3.9-3.9,8.5-5.9,15.1-5.9c14,0,20,9.1,21.3,18.1H28.5c-1.1-4.1-3.2-6.1-7.8-6.1c-2.4,0-4.3,1.1-5.3,2.3c-1.3,1.6-2,3.4-2,13.4
		s0.8,11.9,2,13.5c1,1.3,2.8,2.3,5.3,2.3c2.8,0,4.8-0.9,5.9-2.1c1.6-1.6,2-3.8,2-5.8v-0.8h-8V267H42v7.6
		C42,283.4,40.7,288.5,36.5,292.7z"/>
	<path d="M48.7,298.4v-54.5h37.1v12H62.1v9.1h20.2v12H62.1v9.5h23.6v12L48.7,298.4L48.7,298.4z"/>
	<path d="M123.4,298.4L106,271v27.4H92.6v-54.5h11.7l17.4,27.4v-27.4h13.4v54.5C135.1,298.4,123.4,298.4,123.4,298.4z"/>
</g>
<g>
	<path fill="#1D4E8F" d="M243.7,298.4L226.3,271v27.4h-13.4v-54.5h11.7l17.4,27.4v-27.4h13.4v54.5
		C255.5,298.4,243.7,298.4,243.7,298.4z"/>
	<path fill="#1D4E8F" d="M262.9,298.4v-54.5H300v12h-23.6v9.1h20.2v12h-20.2v9.5H300v12L262.9,298.4L262.9,298.4z"/>
	<path fill="#1D4E8F" d="M200.7,249.3c-3.9-3.9-8.5-5.9-15.2-5.9s-11.3,2-15.2,5.9c-5.6,5.6-5.6,12.6-5.6,21.8s0,16.2,5.6,21.8
		c2.7,2.7,5.8,4.5,9.7,5.4v-28.8h-5.2v-2.9l5.2-8.9h11.8v40.4c3.5-0.9,6.3-2.7,8.8-5.2c5.6-5.6,5.6-12.6,5.6-21.8
		C206.3,261.9,206.3,255,200.7,249.3z"/>
</g>
<g>
	<path d="M8.7,311.8v5.6h9.1v4H8.7v9.3H4.2v-22.9h15.2v4L8.7,311.8L8.7,311.8z"/>
	<path d="M23.4,330.8v-23h4.5v23H23.4z"/>
	<path d="M47,330.8l-9.1-14.1v14.2h-4.5v-23.1h4l9.2,14.1v-14.1h4.5v23C51.1,330.8,47,330.8,47,330.8z"/>
	<path d="M69.7,330.8l-1.3-4.1h-8.2l-1.4,4.1h-4.7l8.4-23H66l8.4,23H69.7z M64.3,314.6l-2.9,8.4h5.7L64.3,314.6z"/>
	<path d="M91,330.8l-9.2-14.2v14.2h-4.5v-23h4l9.2,14.1v-14.1H95v23H91z"/>
	<path d="M108.2,331c-2.7,0-4.6-0.9-6.2-2.4c-2.3-2.3-2.3-4.9-2.3-9.3c0-4.4,0-7,2.3-9.3c1.6-1.6,3.5-2.4,6.2-2.4
		c4.3,0,7.6,2.4,8.5,7.3h-4.6c-0.5-1.9-1.6-3.3-3.8-3.3c-1.3,0-2.3,0.5-2.9,1.2c-0.9,0.9-1.1,2.1-1.1,6.5c0,4.4,0.3,5.6,1.1,6.5
		c0.6,0.8,1.6,1.2,2.9,1.2c2.3,0,3.4-1.4,3.9-3.3h4.5C115.9,328.5,112.5,331,108.2,331z"/>
	<path d="M120.7,330.8v-23h15.2v4h-10.7v5.4h9.1v4h-9.1v5.6h10.6v4H120.7L120.7,330.8z"/>
</g>
<g>
	<path d="M142.1,276.6V265h17.4v11.6H142.1z"/>
</g>
</svg>
