<svg version="1.1" xmlns="http://www.w3.org/2000/svg" 
	 viewBox="0 0 469 316">
<style type="text/css">
	.Arched_x0020_Green{fill:url(#SVGID_1_);stroke:#FFFFFF;stroke-width:0.25;stroke-miterlimit:1;}
	.st0{fill:#FFFFFF;}
	.st1{fill:url(#SVGID_2_);}
	.st2{fill:url(#SVGID_3_);}
</style>
<linearGradient id="SVGID_1_" gradientUnits="userSpaceOnUse" x1="-172.814" y1="463.5503" x2="-172.1069" y2="462.8432">
	<stop  offset="0" style="stop-color:#20AC4B"/>
	<stop  offset="0.9831" style="stop-color:#19361A"/>
</linearGradient>
<g>
	<path d="M234.3,0C108.6,0,0,69.3,0,154.7c0,85.4,108.6,161.1,234.3,161.1c125.7,0,234.3-75.7,234.3-161.1
		C468.6,69.3,360.1,0,234.3,0z M247.4,15.4c83.6,4.2,155,43.4,175.4,104.1l1.9,5.8H253.5c-29.6-22.9-22.5-88.5-19.2-108.9l0.4-1.3
		C236.7,15.1,247.4,15.4,247.4,15.4z M47.2,119.5c28.5-67,102.4-103,185.8-104.4c-1.1,0.7-2.2,1.7-2.2,1.7
		c-13.9,14.5-44.4,55.5-55,108.5H45.2L47.2,119.5z M229.2,298.8c-87.9,0-167.4-50.3-185.7-115.6l157-0.4
		C243,199.7,234.1,272.9,229.2,298.8L229.2,298.8z M230,298.6c16.8-21.1,53.3-74.7,57.7-116.3h137.8
		C410,259.4,320.4,298.5,230,298.6z"/>
	<g>
		<polygon class="st0" points="226.4,173.1 238.5,173.1 238.5,135.2 226.4,135.2 		"/>
		<path class="st0" d="M52.2,145.1c0-1.7,0.7-3,2.9-3H124l0-6.8H50.6c-5.7,0-10.3,4.3-10.3,9.9v12.6H112l0,5.7c0,1.7-1.4,3-3.4,3
			l-68.5,0c0,3.9,3.3,6.8,7.3,6.8h66.2c5.7,0,10.3-4.2,10.3-9.8v-12.5H52.1L52.2,145.1z"/>
		<path class="st0" d="M133.4,145.1v18.2c0,5.4,4.6,9.8,10.3,9.8h73.3v-6.8h-68.2c-2,0-3.5-1.5-3.5-3.2l0-17.8
			c0-1.7,1.5-3.2,3.5-3.2h68.2v-6.8h-73.3C138,135.2,133.4,139.6,133.4,145.1z"/>
		<path class="st0" d="M414.7,135.2h-73.8v37.9h12l0-31h56.6c1.9,0,3.4,1.5,3.4,3.2v27.9h4.4c4,0,7.3-2.9,7.3-6.8l0-21.2
			C424.7,139.6,420.3,135.2,414.7,135.2z"/>
		<path class="st0" d="M321.2,135.2h-63c-5.7,0-10.3,4.4-10.3,9.9v18.2c0,5.4,4.6,9.8,10.3,9.8h63c5.7,0,10.3-4.4,10.3-9.8v-18.2
			C331.5,139.6,326.9,135.2,321.2,135.2z M319.5,163.1c0,1.7-1.5,3.2-3.5,3.2h-52.7c-1.9,0-3.5-1.5-3.5-3.2v-17.9
			c0-1.7,1.5-3.2,3.5-3.2H316c1.9,0,3.5,1.5,3.5,3.2V163.1z"/>
	</g>
	<linearGradient id="SVGID_2_" gradientUnits="userSpaceOnUse" x1="226.4377" y1="298.7497" x2="226.4377" y2="182.7388">
		<stop  offset="0" style="stop-color:#8C8E90"/>
		<stop  offset="0.1302" style="stop-color:#838587"/>
		<stop  offset="0.3469" style="stop-color:#6A6B6D"/>
		<stop  offset="0.6236" style="stop-color:#414243"/>
		<stop  offset="0.9465" style="stop-color:#0A0A0A"/>
		<stop  offset="1" style="stop-color:#000000"/>
	</linearGradient>
	<path class="st1" d="M229.3,298.7c18-103.7-28.6-116-28.6-116h50.1C259.2,220.8,229.1,299.4,229.3,298.7z"/>
	<linearGradient id="SVGID_3_" gradientUnits="userSpaceOnUse" x1="233.8027" y1="125.3267" x2="233.8027" y2="15.1333">
		<stop  offset="1.840490e-02" style="stop-color:#000000"/>
		<stop  offset="1" style="stop-color:#848689"/>
	</linearGradient>
	<path class="st2" d="M234.6,15.1c0,0-15.5,37.6-19.2,63.7c-3.7,26.1,2.7,45.3,2.1,46.3l35.9,0.2C253.4,125.3,221,104.1,234.6,15.1z
		"/>
</g>
</svg>
