<?xml version="1.0" encoding="utf-8"?>
<!-- Generator: Adobe Illustrator 18.1.1, SVG Export Plug-In . SVG Version: 6.00 Build 0)  -->
<!DOCTYPE svg PUBLIC "-//W3C//DTD SVG 1.1//EN" "http://www.w3.org/Graphics/SVG/1.1/DTD/svg11.dtd">
<svg version="1.1" id="Layer_1" xmlns="http://www.w3.org/2000/svg" xmlns:xlink="http://www.w3.org/1999/xlink" x="0px" y="0px"
	 viewBox="12.3 310 300 83" enable-background="new 12.3 310 300 83" xml:space="preserve">
<g>
	<path fill="#FFFFFF" d="M56.3,351.5l-1.9,12.1h7.7v8.9h-8.9L50,392.4H39.7l3.2-19.8H29.5l-3.2,19.8h-9.6l3.2-19.8h-7.7v-8.9h8.9
		l1.9-12.1h-7.7v-8.9h8.9l3.2-18.5h10.2l-3.2,18.5h12.8l3.2-18.5h10.2l-3.2,18.5h7.7v8.9H56.3z M33.4,351.5l-1.9,12.1h13.4l1.9-12.1
		H33.4z"/>
	<path fill="#FFFFFF" d="M94.6,393c-9.6,0-17.9-1.9-24.3-8.3L78,377c4.5,5.1,10.9,6.4,16.6,6.4c7,0,12.8-2.6,12.8-8.3
		c0-3.8-1.9-6.4-7.7-7l-9.6-0.6c-10.9-1.3-17.2-5.7-17.2-16c0-11.5,9.6-17.9,21.7-17.9c8.9,0,16,1.9,21.7,6.4l-7.7,7.7
		c-3.8-3.2-8.9-4.5-14.7-4.5c-7,0-10.9,3.2-10.9,7.7c0,3.8,2.6,6.4,8.3,6.4l8.3,0.6c12.1,1.3,18.5,6.4,18.5,16.6
		C118.9,386.6,108.7,393,94.6,393z"/>
	<path fill="#FFFFFF" d="M152.1,393c-13.4,0-26.2-8.3-26.2-30c0-21.7,12.8-30,26.2-30c8.3,0,13.4,2.6,19.1,8.3l-8.3,7.7
		c-3.8-3.8-6.4-5.7-10.9-5.7c-4.5,0-8.3,1.9-10.9,5.1c-2.6,3.2-3.2,7.7-3.2,14c0,7,0.6,10.9,3.2,14c2.6,3.2,6.4,5.1,10.9,5.1
		c4.5,0,7.7-1.3,10.9-5.7l8.3,7.7C166.1,390.4,160.4,393,152.1,393z"/>
	<path fill="#FFFFFF" d="M180.8,322.1V310h12.1v12.1H180.8z M180.8,392.4v-58.1h11.5v58.1H180.8z"/>
	<path fill="#FFFFFF" d="M245.9,386c-3.8,3.8-9.6,7-17.2,7c-7.7,0-13.4-3.2-17.2-7c-5.7-5.7-7-13.4-7-23s1.3-17.2,7-23
		c3.8-3.8,9.6-7,17.2-7c7.7,0,13.4,3.2,17.2,7c5.7,5.7,7,13.4,7,23C252.9,372.6,251.7,380.2,245.9,386z M237,347
		c-1.9-1.9-5.1-3.2-8.9-3.2s-6.4,1.3-8.3,3.2c-3.8,3.8-3.8,9.6-3.8,16c0,6.4,0.6,12.1,3.8,16c1.9,1.9,5.1,3.2,8.3,3.2
		c3.2,0,6.4-1.3,8.9-3.2c3.8-3.8,3.8-9.6,3.8-16C240.8,356.6,240.8,350.2,237,347z"/>
	<path fill="#FFFFFF" d="M300.2,392.4v-35.7c0-8.9-5.1-12.8-11.5-12.8c-6.4,0-12.1,3.8-12.1,12.8v35.7h-11.5v-58.1h11.5v5.7
		c3.8-4.5,9.6-6.4,15.3-6.4s10.9,1.9,14.7,5.1c4.5,4.5,5.7,9.6,5.7,16.6v37H300.2z"/>
</g>
</svg>
