<?xml version="1.0" encoding="utf-8"?>
<!-- Generator: Adobe Illustrator 18.1.1, SVG Export Plug-In . SVG Version: 6.00 Build 0)  -->
<!DOCTYPE svg PUBLIC "-//W3C//DTD SVG 1.1//EN" "http://www.w3.org/Graphics/SVG/1.1/DTD/svg11.dtd">
<svg version="1.1" id="Layer_1" xmlns="http://www.w3.org/2000/svg" xmlns:xlink="http://www.w3.org/1999/xlink" x="0px" y="0px"
	 viewBox="0 110.1 300 29.8" enable-background="new 0 110.1 300 29.8" xml:space="preserve">
<g>
	<path fill="#FFFFFF" d="M5.8,115.6v7.2h11.6v5.1H5.8v12H0v-29.5h19.5v5.1H5.8z"/>
	<path fill="#FFFFFF" d="M24.7,139.6v-29.1h5.8v29.1H24.7z"/>
	<path fill="#FFFFFF" d="M54.8,139.6l-11.6-17.8v17.8h-5.8v-29.1h5.1l11.6,17.8v-17.8h5.8v29.1H54.8z"/>
	<path fill="#FFFFFF" d="M86.6,135.4c-2.1,3.1-4.8,4.1-8.9,4.1H67.1v-29.1h10.6c4.1,0,6.8,1.4,8.9,4.1c1.7,2.4,1.7,5.5,1.7,10.3
		C88.4,129.6,88.4,132.7,86.6,135.4z M81.5,117.3c-1-1-2.4-1.7-4.5-1.7h-4.5v19.2h4.5c2.1,0,3.4-0.7,4.5-1.7c1-1.4,1.4-3.1,1.4-7.9
		C82.9,120.4,82.5,118.7,81.5,117.3z"/>
	<path fill="#FFFFFF" d="M121.9,136.8c-2.1,2.1-4.5,3.1-7.9,3.1c-3.4,0-5.8-1-7.9-3.1c-3.1-3.1-3.1-6.2-3.1-11.6
		c0-5.5,0-8.9,3.1-11.6c2.1-2.4,4.5-3.4,7.9-3.4c3.4,0,5.8,1,7.9,3.1c3.1,3.1,3.1,6.2,3.1,11.6C125,130.3,125,133.7,121.9,136.8z
		 M117.8,116.6c-0.7-1-2.1-1.7-3.8-1.7s-2.7,0.7-3.8,1.7c-1,1.4-1.4,2.7-1.4,8.2c0,5.5,0.3,6.8,1.4,8.2c1,1,2.1,1.7,3.8,1.7
		s2.7-0.7,3.8-1.7c1-1.4,1.4-2.7,1.4-8.2C119.2,119.3,118.8,118,117.8,116.6z"/>
	<path fill="#FFFFFF" d="M141.4,139.9c-6.2,0-11-4.1-11-10.3v-19.2h5.8v19.2c0,3.4,2.1,5.5,5.1,5.5s5.1-2.1,5.1-5.5v-19.2h5.8v19.2
		C152.4,135.8,147.6,139.9,141.4,139.9z"/>
	<path fill="#FFFFFF" d="M170.2,115.6v24.3h-5.8v-24.3h-7.9v-5.1h21.6v5.1H170.2z"/>
	<path fill="#FFFFFF" d="M213.4,139.6v-17.1l-5.8,11h-3.8l-5.8-11v17.1h-5.8v-29.1h5.8l7.9,15.8l7.9-15.8h5.5v29.1H213.4z"/>
	<path fill="#FFFFFF" d="M244.2,136.8c-2.1,2.1-4.5,3.1-7.9,3.1c-3.4,0-5.8-1-7.9-3.1c-3.1-3.1-3.1-6.2-3.1-11.6s0-8.9,3.1-11.6
		c1.7-2.4,4.5-3.4,7.9-3.4c3.4,0,5.8,1,7.9,3.1c3.1,3.1,3.1,6.2,3.1,11.6C247.3,130.3,246.9,133.7,244.2,136.8z M239.7,116.6
		c-0.7-1-2.1-1.7-3.8-1.7s-2.7,0.7-3.8,1.7c-1,1.4-1.4,2.7-1.4,8.2c0,5.5,0.3,6.8,1.4,8.2c1,1,2.4,1.7,4.1,1.7s2.7-0.7,3.4-1.7
		c1-1.4,1.4-2.7,1.4-8.2C241.1,119.3,241.1,118,239.7,116.6z"/>
	<path fill="#FFFFFF" d="M268.8,139.6l-5.8-11.6h-4.1v11.6h-5.8v-29.1h11.6c6.2,0,9.6,4.1,9.6,8.9c0,4.1-2.4,6.5-5.5,7.5l6.5,12.7
		C275.3,139.6,268.8,139.6,268.8,139.6z M264.4,115.6h-5.5v7.9h5.5c2.4,0,4.1-1.7,4.1-3.8C268.5,117,266.8,115.6,264.4,115.6z"/>
	<path fill="#FFFFFF" d="M280.5,139.6v-29.1H300v5.1h-13.7v6.8h11.6v4.8h-11.6v7.2H300v5.1H280.5z"/>
</g>
</svg>
