<?xml version="1.0" encoding="utf-8"?>
<!-- Generator: Adobe Illustrator 18.1.1, SVG Export Plug-In . SVG Version: 6.00 Build 0)  -->
<!DOCTYPE svg PUBLIC "-//W3C//DTD SVG 1.1//EN" "http://www.w3.org/Graphics/SVG/1.1/DTD/svg11.dtd">
<svg version="1.1" id="Layer_1" xmlns="http://www.w3.org/2000/svg" xmlns:xlink="http://www.w3.org/1999/xlink" x="0px" y="0px"
	 viewBox="12.2 393.5 300.1 83" enable-background="new 12.2 393.5 300.1 83" xml:space="preserve">
<g>
	<path fill="#939598" d="M56.3,435l-1.9,12.1h7.7v8.9h-8.9L50,475.9H39.7l3.2-19.8H29.5l-3.2,19.8h-9.6l3.2-19.8h-7.7v-8.9h8.9
		l1.9-12.1h-7.7v-8.9h8.9l3.2-18.5h10.2l-3.2,18.5h12.8l3.2-18.5h10.2l-3.2,18.5h7.7v8.9h-8.8V435z M33.4,435l-1.9,12.1h13.4
		l1.9-12.1H33.4z"/>
	<path fill="#939598" d="M94.6,476.5c-9.6,0-17.9-1.9-24.3-8.3l7.7-7.7c4.5,5.1,10.9,6.4,16.6,6.4c7,0,12.8-2.6,12.8-8.3
		c0-3.8-1.9-6.4-7.7-7l-9.6-0.6c-10.9-1.3-17.2-5.7-17.2-16c0-11.5,9.6-17.9,21.7-17.9c8.9,0,16,1.9,21.7,6.4l-7.7,7.7
		c-3.8-3.2-8.9-4.5-14.7-4.5c-7,0-10.9,3.2-10.9,7.7c0,3.8,2.6,6.4,8.3,6.4l8.3,0.6c12.1,1.3,18.5,6.4,18.5,16.6
		C118.9,470.1,108.7,476.5,94.6,476.5z"/>
	<path fill="#939598" d="M152.1,476.5c-13.4,0-26.2-8.3-26.2-30s12.8-30,26.2-30c8.3,0,13.4,2.6,19.1,8.3l-8.3,7.7
		c-3.8-3.8-6.4-5.7-10.9-5.7s-8.3,1.9-10.9,5.1c-2.6,3.2-3.2,7.7-3.2,14c0,7,0.6,10.9,3.2,14c2.6,3.2,6.4,5.1,10.9,5.1
		s7.7-1.3,10.9-5.7l8.3,7.7C166.1,473.9,160.4,476.5,152.1,476.5z"/>
	<path fill="#939598" d="M180.8,405.6v-12.1h12.1v12.1H180.8z M180.8,475.9v-58.1h11.5v58.1H180.8z"/>
	<path fill="#939598" d="M245.9,469.5c-3.8,3.8-9.6,7-17.2,7c-7.7,0-13.4-3.2-17.2-7c-5.7-5.7-7-13.4-7-23s1.3-17.2,7-23
		c3.8-3.8,9.6-7,17.2-7c7.7,0,13.4,3.2,17.2,7c5.7,5.7,7,13.4,7,23S251.7,463.7,245.9,469.5z M237,430.5c-1.9-1.9-5.1-3.2-8.9-3.2
		s-6.4,1.3-8.3,3.2c-3.8,3.8-3.8,9.6-3.8,16s0.6,12.1,3.8,16c1.9,1.9,5.1,3.2,8.3,3.2s6.4-1.3,8.9-3.2c3.8-3.8,3.8-9.6,3.8-16
		S240.8,433.7,237,430.5z"/>
	<path fill="#939598" d="M300.2,475.9v-35.7c0-8.9-5.1-12.8-11.5-12.8s-12.1,3.8-12.1,12.8v35.7h-11.5v-58.1h11.5v5.7
		c3.8-4.5,9.6-6.4,15.3-6.4s10.9,1.9,14.7,5.1c4.5,4.5,5.7,9.6,5.7,16.6v37L300.2,475.9L300.2,475.9z"/>
</g>
</svg>
