<svg xmlns="http://www.w3.org/2000/svg" viewBox="0 0 218 31"><style>.st0{fill:#FFFFFF;}</style><path class="st0" d="M7.6 12.9L2.5 5.1V13H0V.1h2.2L7.3 8V.1h2.5v12.8H7.6zM20.2 11.7c-.9.9-1.9 1.4-3.4 1.4s-2.6-.5-3.4-1.4C12 10.4 12 9 12 6.5c0-2.4 0-3.9 1.3-5.2.9-.9 2-1.4 3.4-1.4s2.6.5 3.4 1.4c1.3 1.3 1.3 2.7 1.3 5.2.1 2.5 0 3.9-1.2 5.2zm-1.9-8.8c-.4-.4-.9-.7-1.6-.7-.7 0-1.2.3-1.6.7-.5.5-.6 1.2-.6 3.6 0 2.4.1 3 .6 3.6.4.4.9.7 1.6.7.7 0 1.2-.3 1.6-.7.5-.5.7-1.1.7-3.6 0-2.4-.2-3-.7-3.6zM35.1 12.9L30 5.1V13h-2.5V.1h2.2L34.8 8V.1h2.5v12.8h-2.2zM39.9 12.9V.1h8.4v2.2h-5.9v3h5.1v2.2h-5.1v3.1h5.9v2.2h-8.4zM50.5 12.9V.1h8.4v2.2H53v3h5v2.2h-5v3.1h5.9v2.2h-8.4zM69.5 11.1c-.9 1.3-2.1 1.9-3.9 1.9H61V.1h4.6c1.7 0 3 .6 3.9 1.9.8 1.1.8 2.4.8 4.5s0 3.5-.8 4.6zm-2.2-8c-.4-.5-1-.8-1.9-.8h-1.9v8.4h1.9c.8 0 1.5-.3 1.9-.8.5-.6.5-1.4.5-3.4s-.1-2.8-.5-3.4zM81.2 2.3v10.6h-2.5V2.3h-3.3V.1h9.2v2.2h-3.4zM93.6 11.7c-.9.9-1.9 1.4-3.4 1.4s-2.6-.5-3.4-1.4c-1.3-1.3-1.3-2.7-1.3-5.2 0-2.4 0-3.9 1.3-5.2.9-.9 2-1.4 3.4-1.4s2.6.5 3.4 1.4c1.3 1.3 1.3 2.7 1.3 5.2s0 3.9-1.3 5.2zm-1.8-8.8c-.4-.4-.9-.7-1.6-.7-.7 0-1.2.3-1.6.7-.5.5-.6 1.2-.6 3.6 0 2.4.1 3 .6 3.6.4.4.9.7 1.6.7.7 0 1.2-.3 1.6-.7.5-.5.6-1.1.6-3.6 0-2.4-.2-3-.6-3.6zM111.8 12.9h-2.1l-2.4-7.8-2.4 7.8h-2.1L99.5.1h2.6l2 8.1 2.3-8.1h1.9l2.3 8.1 2-8.1h2.6l-3.4 12.8zM124.1 11.7c-.9.9-1.9 1.4-3.4 1.4s-2.6-.5-3.4-1.4C116 10.4 116 9 116 6.5c0-2.4 0-3.9 1.3-5.2.9-.9 2-1.4 3.4-1.4s2.6.5 3.4 1.4c1.3 1.3 1.3 2.7 1.3 5.2s-.1 3.9-1.3 5.2zm-1.9-8.8c-.4-.4-.9-.7-1.6-.7-.7 0-1.2.3-1.6.7-.5.5-.6 1.2-.6 3.6 0 2.4.1 3 .6 3.6.4.4.9.7 1.6.7.7 0 1.2-.3 1.6-.7.5-.5.6-1.1.6-3.6.1-2.4-.1-3-.6-3.6zM134.4 12.9l-2.5-5.1h-1.8v5.1h-2.5V.1h5c2.6 0 4.2 1.8 4.2 3.9 0 1.8-1.1 2.9-2.3 3.4l2.9 5.5h-3zm-2-10.6H130v3.4h2.4c1.1 0 1.8-.7 1.8-1.7s-.7-1.7-1.8-1.7zM145.8 12.9l-2.5-5.1h-1.8v5.1H139V.1h5c2.6 0 4.2 1.8 4.2 3.9 0 1.8-1.1 2.9-2.3 3.4l2.9 5.5h-3zm-2-10.6h-2.4v3.4h2.4c1.1 0 1.8-.7 1.8-1.7s-.7-1.7-1.8-1.7zM155.2 7.7V13h-2.5V7.7L148.8.1h2.7l2.4 5.2 2.4-5.2h2.7l-3.8 7.6zM171.3 12.9l-.8-2.3H166l-.8 2.3h-2.6L167.3.1h2l4.7 12.8h-2.7zm-2.9-9l-1.6 4.7h3.2l-1.6-4.7zM180.5 12.9h-5.4V.1h5.1c2.5 0 4 1.4 4 3.6 0 1.4-.9 2.3-1.6 2.6.8.4 1.8 1.2 1.8 2.9.1 2.4-1.6 3.7-3.9 3.7zm-.4-10.6h-2.4v3h2.4c1.1 0 1.7-.6 1.7-1.5s-.6-1.5-1.7-1.5zm.2 5.2h-2.6v3.2h2.6c1.1 0 1.7-.7 1.7-1.6s-.6-1.6-1.7-1.6zM194.4 11.7c-.9.9-1.9 1.4-3.4 1.4s-2.6-.5-3.4-1.4c-1.3-1.3-1.3-2.7-1.3-5.2 0-2.4 0-3.9 1.3-5.2.9-.9 2-1.4 3.4-1.4s2.6.5 3.4 1.4c1.3 1.3 1.3 2.7 1.3 5.2s0 3.9-1.3 5.2zm-1.8-8.8c-.4-.4-.9-.7-1.6-.7-.7 0-1.2.3-1.6.7-.5.5-.6 1.2-.6 3.6 0 2.4.1 3 .6 3.6.4.4.9.7 1.6.7.7 0 1.2-.3 1.6-.7.5-.5.6-1.1.6-3.6 0-2.4-.2-3-.6-3.6zM202.4 13c-2.6 0-4.7-1.8-4.7-4.5V.1h2.5v8.3c0 1.5.9 2.4 2.2 2.4 1.3 0 2.2-.9 2.2-2.4V.1h2.5v8.4c0 2.8-2.1 4.5-4.7 4.5zM214.5 2.3v10.6H212V2.3h-3.3V.1h9.2v2.2h-3.4zM16.2 30.9V18.1h2.5v10.6h5.8v2.2h-8.3zM26.2 30.9V18.1h2.5v12.8h-2.5zM40.5 30.9v-7.5L38 28.3h-1.7l-2.5-4.9v7.5h-2.5V18.1h2.5l3.3 6.9 3.3-6.9H43v12.8h-2.5zM45.6 30.9V18.1h2.5v12.8h-2.5zM55.6 20.3v10.6h-2.5V20.3h-3.3v-2.2H59v2.2h-3.4zM60.6 30.9V18.1H69v2.2h-5.9v3h5.1v2.2h-5.1v3.1H69v2.2h-8.4zM79.7 29.1c-.9 1.3-2.1 1.9-3.9 1.9h-4.6V18.1h4.6c1.7 0 3 .6 3.9 1.9.8 1.1.8 2.4.8 4.5s0 3.5-.8 4.6zm-2.2-8c-.4-.5-1-.8-1.9-.8h-1.9v8.4h1.9c.8 0 1.5-.3 1.9-.8.5-.6.5-1.4.5-3.4s-.1-2.8-.5-3.4zM94.2 29.7c-.9.9-1.9 1.4-3.4 1.4s-2.6-.5-3.4-1.4c-1.3-1.3-1.3-2.7-1.3-5.2 0-2.4 0-3.9 1.3-5.2.9-.9 2-1.4 3.4-1.4s2.6.5 3.4 1.4c1.3 1.3 1.3 2.7 1.3 5.2s0 3.9-1.3 5.2zm-1.8-8.8c-.4-.4-.9-.7-1.6-.7-.7 0-1.2.3-1.6.7-.5.5-.6 1.2-.6 3.6 0 2.4.1 3 .6 3.6.4.4.9.7 1.6.7.7 0 1.2-.3 1.6-.7.5-.5.6-1.1.6-3.6 0-2.4-.1-3-.6-3.6zM104.5 30.9l-2.5-5.1h-1.8v5.1h-2.5V18.1h5c2.6 0 4.2 1.8 4.2 3.9 0 1.8-1.1 2.9-2.3 3.4l2.9 5.5h-3zm-1.9-10.6h-2.4v3.4h2.4c1.1 0 1.8-.7 1.8-1.7s-.7-1.7-1.8-1.7zM120.5 30.9l-5.1-7.9v7.9h-2.5V18.1h2.2l5.1 7.9v-7.9h2.5v12.8h-2.2zM133.1 29.7c-.9.9-1.9 1.4-3.4 1.4s-2.6-.5-3.4-1.4c-1.3-1.3-1.3-2.7-1.3-5.2 0-2.4 0-3.9 1.3-5.2.9-.9 2-1.4 3.4-1.4s2.6.5 3.4 1.4c1.3 1.3 1.3 2.7 1.3 5.2s0 3.9-1.3 5.2zm-1.8-8.8c-.4-.4-.9-.7-1.6-.7-.7 0-1.2.3-1.6.7-.5.5-.6 1.2-.6 3.6 0 2.4.1 3 .6 3.6.4.4.9.7 1.6.7.7 0 1.2-.3 1.6-.7.5-.5.6-1.1.6-3.6 0-2.4-.1-3-.6-3.6zM144.7 31c-1.5 0-2.6-.5-3.4-1.4-1.3-1.3-1.3-2.7-1.3-5.2 0-2.4 0-3.9 1.3-5.2.9-.9 2-1.4 3.4-1.4 2.4 0 4.2 1.4 4.7 4.1h-2.6c-.3-1-.9-1.8-2.1-1.8-.7 0-1.2.3-1.6.7-.5.5-.6 1.2-.6 3.6 0 2.4.2 3.1.6 3.6.4.4.9.7 1.6.7 1.2 0 1.9-.8 2.2-1.8h2.5c-.4 2.8-2.3 4.1-4.7 4.1zM158 30.9l-2.5-5.1h-1.8v5.1h-2.5V18.1h5c2.6 0 4.2 1.8 4.2 3.9 0 1.8-1.1 2.9-2.3 3.4l2.9 5.5h-3zm-1.9-10.6h-2.4v3.4h2.4c1.1 0 1.8-.7 1.8-1.7s-.7-1.7-1.8-1.7zM162.6 30.9V18.1h8.4v2.2h-5.9v3h5.1v2.2h-5.1v3.1h5.9v2.2h-8.4zM181.7 29.1c-.9 1.3-2.1 1.9-3.9 1.9h-4.6V18.1h4.6c1.7 0 3 .6 3.9 1.9.8 1.1.8 2.4.8 4.5s0 3.5-.8 4.6zm-2.2-8c-.4-.5-1-.8-1.9-.8h-1.9v8.4h1.9c.8 0 1.5-.3 1.9-.8.5-.6.5-1.4.5-3.4s-.1-2.8-.5-3.4zM184.7 30.9V18.1h2.5v12.8h-2.5zM194.7 20.3v10.6h-2.5V20.3h-3.3v-2.2h9.2v2.2h-3.4zM198.2 30.9v-2.7h2.7v2.7h-2.7z"/></svg>