<svg id="Layer_1" xmlns="http://www.w3.org/2000/svg" width="183.5" height="54.1" viewBox="0 0 183.5 54.1"><style>.st0{fill:#FFFFFF;}</style><path class="st0" d="M4.7 13.2c-1.9 0-3.4-.4-4.7-1.7l1.6-1.6c.8.8 1.9 1.1 3.1 1.1C6.2 11 7 10.4 7 9.4c0-.4-.1-.8-.4-1.1-.3-.2-.5-.3-1.2-.4l-1.5-.2C2.8 7.5 2 7.2 1.4 6.6S.5 5.2.5 4.1C.5 1.8 2.2.2 5 .2c1.8 0 3 .4 4.1 1.5L7.5 3.3c-.8-.8-1.8-.9-2.6-.9-1.3 0-2 .7-2 1.6 0 .3.1.7.4.9.3.2.6.4 1.2.5l1.5.2c1.2.2 1.9.5 2.4 1 .7.6 1 1.5 1 2.7 0 2.5-2 3.9-4.7 3.9zM18.7 13.1l-.8-2.3h-4.6l-.7 2.3H10L14.7.3h2l4.6 12.8h-2.6zm-3-9l-1.6 4.6h3.2l-1.6-4.6zM26.5 13.1h-1.9L20.4.3H23l2.6 8.4L28.2.3h2.6l-4.3 12.8zM31.9 13.1V.3h8.4v2.2h-5.9v3h5.1v2.2h-5.1v3.1h5.9v2.3h-8.4zM46.3 13.1V.3h2.5v12.8h-2.5zM56.3 2.5v10.6h-2.5V2.5h-3.3V.3h9.2v2.2h-3.4zM67.6 2.5v3.2h5.1v2.2h-5.1v5.2h-2.5V.3h8.4v2.2h-5.9zM82.7 11.9c-.9.9-1.9 1.4-3.4 1.4s-2.6-.5-3.4-1.4c-1.3-1.3-1.3-2.7-1.3-5.2 0-2.4 0-3.9 1.3-5.2.9-.9 2-1.4 3.4-1.4s2.6.5 3.4 1.4C84 2.8 84 4.2 84 6.7c.1 2.4 0 3.9-1.3 5.2zm-1.8-8.8c-.4-.4-.9-.7-1.6-.7-.7 0-1.2.3-1.6.7-.5.5-.6 1.2-.6 3.6 0 2.4.1 3 .6 3.6.4.4.9.7 1.6.7.7 0 1.2-.3 1.6-.7.5-.5.6-1.1.6-3.6.1-2.5-.1-3.1-.6-3.6zM93.1 13.1L90.6 8h-1.8v5.1h-2.5V.3h5c2.6 0 4.2 1.8 4.2 3.9 0 1.8-1.1 2.9-2.3 3.4l2.9 5.5h-3zm-2-10.6h-2.4v3.4h2.4c1.1 0 1.8-.7 1.8-1.7s-.7-1.7-1.8-1.7zM105.8 13.2c-1.5 0-2.6-.5-3.4-1.4-1.3-1.3-1.3-2.7-1.3-5.2 0-2.4 0-3.9 1.3-5.2.9-.9 2-1.4 3.4-1.4 2.4 0 4.2 1.4 4.7 4.1h-2.6c-.3-1-.9-1.8-2.1-1.8-.7 0-1.2.3-1.6.7-.5.5-.6 1.2-.6 3.6 0 2.4.2 3.1.6 3.6.4.4.9.7 1.6.7 1.2 0 1.9-.8 2.2-1.8h2.5c-.5 2.7-2.3 4.1-4.7 4.1zM119.1 13.1V7.7h-4.3v5.4h-2.5V.3h2.5v5.2h4.3V.3h2.5v12.8h-2.5zM132 11.9c-.9.9-1.9 1.4-3.4 1.4s-2.6-.5-3.4-1.4c-1.3-1.3-1.3-2.7-1.3-5.2 0-2.4 0-3.9 1.3-5.2.9-.9 2-1.4 3.4-1.4s2.6.5 3.4 1.4c1.3 1.3 1.3 2.7 1.3 5.2 0 2.4 0 3.9-1.3 5.2zm-1.8-8.8c-.4-.4-.9-.7-1.6-.7-.7 0-1.2.3-1.6.7-.5.5-.6 1.2-.6 3.6 0 2.4.1 3 .6 3.6.4.4.9.7 1.6.7.7 0 1.2-.3 1.6-.7.5-.5.6-1.1.6-3.6s-.2-3.1-.6-3.6zM143 11.9c-.9.9-1.9 1.4-3.4 1.4s-2.6-.5-3.4-1.4c-1.3-1.3-1.3-2.7-1.3-5.2 0-2.4 0-3.9 1.3-5.2.9-.9 2-1.4 3.4-1.4 1.5 0 2.6.5 3.4 1.4 1.3 1.3 1.3 2.7 1.3 5.2 0 2.4 0 3.9-1.3 5.2zm-1.8-8.8c-.4-.4-.9-.7-1.6-.7-.7 0-1.2.3-1.6.7-.5.5-.6 1.2-.6 3.6 0 2.4.1 3 .6 3.6.4.4.9.7 1.6.7.7 0 1.2-.3 1.6-.7.5-.5.6-1.1.6-3.6s-.1-3.1-.6-3.6zM150.1 13.2c-1.9 0-3.4-.4-4.7-1.7l1.6-1.6c.8.8 1.9 1.1 3.1 1.1 1.5 0 2.3-.6 2.3-1.6 0-.4-.1-.8-.4-1.1-.3-.2-.5-.3-1.2-.4l-1.5-.2c-1.1-.2-1.9-.5-2.5-1.1s-.9-1.4-.9-2.5c0-2.3 1.7-3.9 4.5-3.9 1.8 0 3 .4 4.1 1.5l-1.6 1.6c-.8-.8-1.8-.9-2.6-.9-1.3 0-2 .7-2 1.6 0 .3.1.7.4.9.3.2.6.4 1.2.5l1.5.2c1.2.2 1.9.5 2.4 1 .7.6 1 1.5 1 2.7 0 2.5-2 3.9-4.7 3.9zM156.8 13.1V.3h2.5v12.8h-2.5zM169.5 13.1l-5.1-7.9v7.9h-2.5V.3h2.2l5.1 7.9V.3h2.5v12.8h-2.2zM182.3 11.7c-1.1 1.1-2.2 1.5-3.6 1.5-1.5 0-2.5-.5-3.4-1.4-1.3-1.3-1.3-2.7-1.3-5.2 0-2.4 0-3.9 1.3-5.2.9-.9 2-1.4 3.4-1.4 3 0 4.5 1.9 4.8 4.1H181c-.3-1.2-1-1.9-2.3-1.9-.7 0-1.2.3-1.6.7-.5.5-.6 1.2-.6 3.6s.1 3.1.6 3.6c.4.4.9.7 1.6.7.8 0 1.4-.3 1.8-.7.4-.5.6-1 .6-1.7v-.3h-2.4V6h4.8v1.9c0 1.8-.3 2.9-1.2 3.8zM52.4 21.5v3.2h5.1v2.2h-5.1v5.2h-2.5V19.3h8.4v2.2h-5.9zM67 32.1L64.5 27h-1.8v5.1h-2.5V19.3h5c2.6 0 4.2 1.8 4.2 3.9 0 1.8-1.1 2.9-2.3 3.4l2.9 5.5h-3zm-2-10.6h-2.4v3.4H65c1.1 0 1.8-.7 1.8-1.7s-.7-1.7-1.8-1.7zM79.1 30.9c-.9.9-1.9 1.4-3.4 1.4s-2.6-.5-3.4-1.4C71 29.6 71 28.2 71 25.7c0-2.4 0-3.9 1.3-5.2.9-.9 2-1.4 3.4-1.4 1.5 0 2.6.5 3.4 1.4 1.3 1.3 1.3 2.7 1.3 5.2 0 2.4 0 3.9-1.3 5.2zm-1.8-8.8c-.4-.4-.9-.7-1.6-.7s-1.2.3-1.6.7c-.5.5-.6 1.2-.6 3.6 0 2.4.1 3 .6 3.6.4.4.9.7 1.6.7s1.2-.3 1.6-.7c.5-.5.6-1.1.6-3.6s-.1-3.1-.6-3.6zM91.7 32.1v-7.5l-2.4 4.9h-1.7l-2.5-4.9v7.5h-2.5V19.3h2.5l3.3 6.9 3.3-6.9h2.5v12.8h-2.5zM105.6 21.5v10.6h-2.5V21.5h-3.3v-2.2h9.2v2.2h-3.4zM117.4 32.1v-5.4h-4.3v5.4h-2.5V19.3h2.5v5.2h4.3v-5.2h2.5v12.8h-2.5zM122.6 32.1V19.3h8.4v2.2h-5.9v3h5.1v2.2h-5.1v3.1h5.9v2.3h-8.4zM26.3 51.1l-.8-2.3h-4.6l-.7 2.3h-2.6l4.7-12.8h2l4.6 12.8h-2.6zm-3-9l-1.6 4.7h3.2l-1.6-4.7zM38.6 49.2c-.9 1.3-2.1 1.9-3.9 1.9h-4.6V38.3h4.6c1.7 0 3 .6 3.9 1.9.8 1.1.8 2.4.8 4.5s0 3.4-.8 4.5zm-2.2-7.9c-.4-.5-1-.8-1.9-.8h-1.9v8.4h1.9c.8 0 1.5-.3 1.9-.8.5-.6.5-1.4.5-3.4s0-2.8-.5-3.4zM46.1 51.1h-1.9L40 38.3h2.6l2.6 8.4 2.6-8.4h2.6l-4.3 12.8zM51.6 51.1V38.3H60v2.2h-5.9v3h5.1v2.2h-5.1v3.1H60v2.3h-8.4zM69.7 51.1l-5.1-7.9v7.9h-2.5V38.3h2.2l5.1 7.9v-7.9h2.5v12.8h-2.2zM79.4 40.5v10.6h-2.5V40.5h-3.3v-2.2h9.2v2.2h-3.4zM89 51.2c-2.6 0-4.7-1.8-4.7-4.5v-8.4h2.5v8.3c0 1.5.9 2.4 2.2 2.4 1.4 0 2.2-.9 2.2-2.4v-8.3h2.5v8.4c0 2.7-2.1 4.5-4.7 4.5zM102.9 51.1l-2.5-5.1h-1.8v5.1h-2.5V38.3h5c2.6 0 4.2 1.8 4.2 3.9 0 1.8-1.1 2.9-2.3 3.4l2.9 5.5h-3zM101 40.5h-2.4v3.4h2.4c1.1 0 1.8-.7 1.8-1.7s-.7-1.7-1.8-1.7zM115.1 49.9c-.9.9-1.9 1.4-3.4 1.4s-2.6-.5-3.4-1.4c-1.3-1.3-1.3-2.7-1.3-5.2 0-2.4 0-3.9 1.3-5.2.9-.9 2-1.4 3.4-1.4s2.6.5 3.4 1.4c1.3 1.3 1.3 2.7 1.3 5.2 0 2.4-.1 3.9-1.3 5.2zm-1.9-8.8c-.4-.4-.9-.7-1.6-.7-.7 0-1.2.3-1.6.7-.5.5-.6 1.2-.6 3.6s.1 3 .6 3.6c.4.4.9.7 1.6.7.7 0 1.2-.3 1.6-.7.5-.5.6-1.1.6-3.6.1-2.5-.1-3.1-.6-3.6zM123.1 51.2c-2.6 0-4.7-1.8-4.7-4.5v-8.4h2.5v8.3c0 1.5.9 2.4 2.2 2.4 1.4 0 2.2-.9 2.2-2.4v-8.3h2.5v8.4c0 2.7-2.1 4.5-4.7 4.5zM133.8 51.2c-1.9 0-3.4-.4-4.7-1.7l1.6-1.6c.8.8 1.9 1.1 3.1 1.1 1.5 0 2.3-.6 2.3-1.6 0-.4-.1-.8-.4-1.1-.3-.2-.5-.3-1.2-.4l-1.5-.2c-1.1-.2-1.9-.5-2.5-1.1s-.9-1.4-.9-2.5c0-2.3 1.7-3.9 4.5-3.9 1.8 0 3 .4 4.1 1.5l-1.6 1.6c-.8-.8-1.8-.9-2.6-.9-1.3 0-2 .7-2 1.6 0 .3.1.7.4.9.3.2.6.4 1.2.5l1.5.2c1.2.2 1.9.5 2.4 1 .7.6 1 1.5 1 2.7 0 2.5-2 3.9-4.7 3.9zM144.1 40.1v-1.9h2.4v1.9h-2.4zm0 11V42h2.3v9.1h-2.3zM158 51.1v-7.5l-2.4 4.9h-1.7l-2.5-4.9v7.5h-2.5V38.3h2.5l3.3 6.9 3.3-6.9h2.5v12.8H158zM162.9 54.1v-5.5h2.6v3.5l-2.6 2z"/></svg>