<svg id="Layer_1" xmlns="http://www.w3.org/2000/svg" width="141.8" height="13.2" viewBox="0 0 141.8 13.2"><style>.st0{fill:#FFFFFF;}</style><path class="st0" d="M5.8 2.4V13H3.3V2.4H0V.2h9.2v2.2H5.8zM17.7 13V7.6h-4.3V13h-2.5V.2h2.5v5.2h4.3V.2h2.5V13h-2.5zM22.8 13V.2h8.4v2.2h-5.9v3h5.1v2.2h-5.1v3.1h5.9V13h-8.4zM40.7 13.1c-1.9 0-3.4-.4-4.7-1.7l1.6-1.6c.8.8 1.9 1.1 3.1 1.1 1.5 0 2.3-.6 2.3-1.6 0-.4-.1-.8-.4-1.1-.3-.2-.5-.3-1.2-.4l-1.5-.2c-1.1-.2-1.9-.5-2.5-1.1s-.9-1.4-.9-2.5c0-2.3 1.7-3.9 4.5-3.9 1.8 0 3 .4 4.1 1.5l-1.6 1.6c-.8-.8-1.8-.9-2.6-.9-1.3 0-2 .7-2 1.6 0 .3.1.7.4.9s.6.4 1.2.5l1.5.2c1.2.2 1.9.5 2.4 1 .7.6 1 1.5 1 2.7 0 2.5-2 3.9-4.7 3.9zM52.4 8.2h-2.5V13h-2.5V.2h5c2.7 0 4.2 1.8 4.2 4s-1.5 4-4.2 4zm-.1-5.8h-2.4v3.5h2.3c1.1 0 1.9-.7 1.9-1.7s-.7-1.8-1.8-1.8zM66.1 11.8c-.9.9-1.9 1.4-3.4 1.4s-2.6-.5-3.4-1.4C58 10.5 58 9.1 58 6.6c0-2.4 0-3.9 1.3-5.2.9-.9 2-1.4 3.4-1.4s2.6.5 3.4 1.4c1.3 1.3 1.3 2.7 1.3 5.2 0 2.4 0 3.9-1.3 5.2zM64.3 3c-.4-.4-.9-.7-1.6-.7-.7 0-1.2.3-1.6.7-.5.5-.6 1.2-.6 3.6 0 2.4.1 3 .6 3.6.4.4.9.7 1.6.7.7 0 1.2-.3 1.6-.7.5-.5.6-1.1.6-3.6s-.1-3.1-.6-3.6zM76.4 13l-2.5-5.1h-1.8V13h-2.5V.2h5c2.6 0 4.2 1.8 4.2 3.9 0 1.8-1.1 2.9-2.3 3.4l2.9 5.5h-3zM74.5 2.4h-2.4v3.4h2.4c1.1 0 1.8-.7 1.8-1.7s-.7-1.7-1.8-1.7zM85.7 2.4V13h-2.5V2.4h-3.3V.2h9.2v2.2h-3.4zM95.8 7.7V13h-2.5V7.7L89.4.1h2.7l2.4 5.2L96.9.1h2.7l-3.8 7.6zM107.1 2.4v3.2h5.1v2.2h-5.1V13h-2.5V.2h8.4v2.2h-5.9zM121.7 13l-2.5-5.1h-1.8V13h-2.5V.2h5c2.6 0 4.2 1.8 4.2 3.9 0 1.8-1.1 2.9-2.3 3.4l2.9 5.5h-3zm-2-10.6h-2.4v3.4h2.4c1.1 0 1.8-.7 1.8-1.7s-.7-1.7-1.8-1.7zM125.8 7.7V5.5h5.5v2.2h-5.5zM137.1 13.1c-1.9 0-3.4-.4-4.7-1.7l1.6-1.6c.8.8 1.9 1.1 3.1 1.1 1.5 0 2.3-.6 2.3-1.6 0-.4-.1-.8-.4-1.1-.3-.2-.5-.3-1.2-.4l-1.5-.2c-1.1-.2-1.9-.5-2.5-1.1s-.9-1.4-.9-2.5c0-2.3 1.7-3.9 4.5-3.9 1.8 0 3 .4 4.1 1.5l-1.6 1.6c-.8-.8-1.8-.9-2.6-.9-1.3 0-2 .7-2 1.6 0 .3.1.7.4.9.3.2.6.4 1.2.5l1.5.2c1.2.2 1.9.5 2.4 1 .7.6 1 1.5 1 2.7.1 2.5-2 3.9-4.7 3.9z"/></svg>