<svg xmlns="http://www.w3.org/2000/svg" viewBox="0 0 152.7 13.2"><path d="M8.1 11.8c-.9.9-1.9 1.4-3.4 1.4s-2.6-.5-3.4-1.4C0 10.5 0 9.1 0 6.6c0-2.4 0-3.9 1.3-5.2C2.2.5 3.3 0 4.7 0c1.5 0 2.6.5 3.4 1.4 1.3 1.3 1.3 2.7 1.3 5.2 0 2.4 0 3.9-1.3 5.2zM6.3 3c-.4-.4-.9-.7-1.6-.7s-1.2.3-1.6.7c-.5.5-.6 1.2-.6 3.6 0 2.4.1 3 .6 3.6.4.4.9.7 1.6.7s1.2-.3 1.6-.7c.5-.5.6-1.1.6-3.6S6.7 3.5 6.3 3zM18.4 13l-2.5-5.1h-1.8V13h-2.5V.2h5c2.6 0 4.2 1.8 4.2 3.9 0 1.8-1.1 2.9-2.3 3.4l2.9 5.5h-3zM16.5 2.4h-2.4v3.4h2.4c1.1 0 1.8-.7 1.8-1.7s-.7-1.7-1.8-1.7zM31.7 2.4V13h-2.5V2.4h-3.3V.2h9.2v2.2h-3.4zM43.6 13V7.6h-4.4V13h-2.5V.2h2.5v5.2h4.3V.2H46V13h-2.4zM48.7 13V.2h8.4v2.2h-5.9v3h5.1v2.2h-5.1v3.1h5.9V13h-8.4zM66.6 13.1c-1.9 0-3.4-.4-4.7-1.7l1.6-1.6c.8.8 1.9 1.1 3.1 1.1 1.5 0 2.3-.6 2.3-1.6 0-.4-.1-.8-.4-1.1-.3-.2-.5-.3-1.2-.4l-1.5-.2c-1.1-.2-1.9-.5-2.5-1.1s-.9-1.4-.9-2.5c0-2.3 1.7-3.9 4.5-3.9 1.8 0 3 .4 4.1 1.5l-1.6 1.6c-.8-.8-1.8-.9-2.6-.9-1.3 0-2 .7-2 1.6 0 .3.1.7.4.9.3.2.6.4 1.2.5l1.5.2c1.2.2 1.9.5 2.4 1 .7.6 1 1.5 1 2.7 0 2.5-2 3.9-4.7 3.9zM78.2 2.4V13h-2.5V2.4h-3.3V.2h9.2v2.2h-3.4zM88.3 7.7V13h-2.5V7.7L81.9.1h2.7L87 5.3 89.4.1h2.7l-3.8 7.6zM93.4 13V.2h2.5v10.6h5.8V13h-8.3zM103.4 13V.2h2.5V13h-2.5zM112 13.1c-1.9 0-3.4-.4-4.7-1.7l1.6-1.6c.8.8 1.9 1.1 3.1 1.1 1.5 0 2.3-.6 2.3-1.6 0-.4-.1-.8-.4-1.1-.3-.2-.5-.3-1.2-.4l-1.5-.2c-1.1-.2-1.9-.5-2.5-1.1s-.9-1.4-.9-2.5c0-2.3 1.7-3.9 4.5-3.9 1.8 0 3 .4 4.1 1.5l-1.6 1.6c-.8-.8-1.8-.9-2.6-.9-1.3 0-2 .7-2 1.6 0 .3.1.7.4.9.3.2.6.4 1.2.5l1.5.2c1.2.2 1.9.5 2.4 1 .7.6 1 1.5 1 2.7.1 2.5-2 3.9-4.7 3.9zM125.6 13V7.6h-4.3V13h-2.5V.2h2.5v5.2h4.3V.2h2.5V13h-2.5zM134.3 2V.1h2.4V2h-2.4zm.1 11V3.9h2.3V13h-2.3zM146.4 13l-.8-2.3H141l-.8 2.3h-2.6L142.3.2h2L149 13h-2.6zm-3-9l-1.6 4.7h3.2L143.4 4zM150 13v-2.7h2.7V13H150z"/></svg>