<svg xmlns="http://www.w3.org/2000/svg" viewBox="0 0 151 32"><style>.st0{fill:#A0A1A2;}</style><path class="st0" d="M1.2 12V2h1.9v8.2h4.5V12H1.2zM9 12V2h2v10H9zM20 12V6.2L18.1 10h-1.3l-1.9-3.8V12H13V2h1.9l2.6 5.4L20.1 2H22v10h-2zM24 12V2h2v10h-2zM31.9 3.7V12H30V3.7h-2.6V2h7.2v1.7h-2.7zM35.9 12V2h6.6v1.7h-4.6V6h3.9v1.7h-3.9v2.4h4.6V12h-6.6zM50.7 10.5c-.7 1-1.7 1.5-3 1.5h-3.6V2h3.6c1.4 0 2.3.5 3 1.5.6.9.6 1.9.6 3.5s0 2.7-.6 3.5zM49 4.4c-.3-.4-.8-.6-1.5-.6H46v6.5h1.5c.7 0 1.1-.2 1.5-.6.4-.4.4-1.1.4-2.6s-.1-2.3-.4-2.7zM62.1 11c-.7.7-1.5 1.1-2.7 1.1-1.1 0-2-.4-2.7-1.1-1-1-1-2.1-1-4s0-3 1-4c.7-.7 1.5-1.1 2.7-1.1 1.1 0 2 .4 2.7 1.1 1 1 1 2.1 1 4 .1 1.9 0 3-1 4zm-1.4-6.8c-.3-.3-.7-.5-1.2-.5s-1 .2-1.3.5c-.4.4-.5.9-.5 2.8s.1 2.4.5 2.8c.3.3.7.5 1.3.5.5 0 1-.2 1.2-.5.4-.4.5-.9.5-2.8s-.1-2.4-.5-2.8zM70.2 12l-1.9-4h-1.4v4H65V2h3.9c2 0 3.2 1.4 3.2 3.1 0 1.4-.9 2.3-1.8 2.6l2.2 4.3h-2.3zm-1.5-8.3h-1.8v2.6h1.8c.9 0 1.4-.5 1.4-1.3 0-.7-.6-1.3-1.4-1.3zM82.8 12l-4-6.1V12h-1.9V2h1.7l4 6.1V2h1.9v10h-1.7zM92.6 11c-.7.7-1.5 1.1-2.7 1.1s-2-.4-2.7-1.1c-1-1-1-2.1-1-4s0-3 1-4c.7-.7 1.5-1.1 2.7-1.1s2 .4 2.7 1.1c1 1 1 2.1 1 4s0 3-1 4zm-1.4-6.8c-.3-.3-.7-.5-1.2-.5s-1 .2-1.3.5c-.4.4-.5.9-.5 2.8s.1 2.4.5 2.8c.3.3.7.5 1.3.5s1-.2 1.2-.5c.4-.4.5-.9.5-2.8-.1-1.9-.2-2.4-.5-2.8zM101.8 12.1c-1.1 0-2-.4-2.7-1.1-1-1-1-2.1-1-4s0-3 1-4c.7-.7 1.5-1.1 2.7-1.1 1.9 0 3.3 1.1 3.7 3.2h-2c-.2-.8-.7-1.4-1.7-1.4-.5 0-1 .2-1.2.5-.5.4-.6.9-.6 2.8s.1 2.4.5 2.8c.3.3.7.5 1.2.5 1 0 1.5-.6 1.7-1.4h2c-.4 2.1-1.8 3.2-3.6 3.2zM112.1 12l-1.9-4h-1.4v4h-1.9V2h3.9c2 0 3.2 1.4 3.2 3.1 0 1.4-.9 2.3-1.8 2.6l2.2 4.3h-2.3zm-1.5-8.3h-1.8v2.6h1.8c.9 0 1.4-.5 1.4-1.3.1-.7-.5-1.3-1.4-1.3zM115.8 12V2h6.6v1.7h-4.6V6h3.9v1.7h-3.9v2.4h4.6V12h-6.6zM130.6 10.5c-.7 1-1.7 1.5-3 1.5H124V2h3.6c1.4 0 2.3.5 3 1.5.6.9.6 1.9.6 3.5s0 2.7-.6 3.5zm-1.7-6.1c-.3-.4-.8-.6-1.5-.6h-1.5v6.5h1.5c.7 0 1.1-.2 1.5-.6.4-.4.4-1.1.4-2.6s0-2.3-.4-2.7zM133 12V2h1.9v10H133zM140.9 3.7V12H139V3.7h-2.6V2h7.2v1.7h-2.7zM149.9 6.5l-1 1.4c-.1.2-.3.5-.3.7v.3h-1.8v-.5c0-.6.2-1 .5-1.5l1-1.3c.2-.3.4-.6.4-.9 0-.7-.4-1.1-1.1-1.1-.7 0-1.1.5-1.1 1.2h-1.8c0-1.7 1.3-2.8 2.9-2.8 1.6 0 3 1 3 2.8 0 .6-.3 1.2-.7 1.7zm-3.2 5.5v-1.9h1.9V12h-1.9zM25 28.9c-1.5 0-2.7-.3-3.6-1.3l1.3-1.3c.6.6 1.5.8 2.4.8 1.2 0 1.8-.4 1.8-1.2 0-.3-.1-.6-.3-.8-.2-.2-.4-.3-.9-.3l-1.2-.2c-.9-.1-1.5-.4-1.9-.8-.5-.5-.7-1.1-.7-2 0-1.8 1.3-3 3.5-3 1.4 0 2.4.3 3.2 1.2l-1.2 1.2c-.6-.6-1.4-.7-2-.7-1 0-1.5.6-1.5 1.3 0 .3.1.5.3.7.2.2.5.3.9.4l.9.1c.9.1 1.5.4 1.9.8.5.5.8 1.2.8 2.1 0 1.9-1.6 3-3.7 3zM33.7 28.9c-1.1 0-2-.4-2.7-1.1-1-1-1-2.1-1-4s0-3 1-4c.7-.7 1.5-1.1 2.7-1.1 1.9 0 3.3 1.1 3.7 3.2h-2c-.2-.8-.7-1.4-1.7-1.4-.5 0-1 .2-1.2.5-.4.4-.5.9-.5 2.8s.1 2.4.5 2.8c.3.3.7.5 1.2.5 1 0 1.5-.6 1.7-1.4h2c-.4 2.1-1.9 3.2-3.7 3.2zM38.8 28.8v-10h1.9v10h-1.9zM48.8 27.8c-.7.7-1.5 1.1-2.7 1.1-1.1 0-2-.4-2.7-1.1-1-1-1-2.1-1-4s0-3 1-4c.7-.7 1.5-1.1 2.7-1.1 1.1 0 2 .4 2.7 1.1 1 1 1 2.1 1 4 .1 1.9 0 3-1 4zM47.4 21c-.3-.3-.7-.5-1.2-.5s-1 .2-1.3.5c-.4.4-.5.9-.5 2.8s.1 2.4.5 2.8c.3.3.7.5 1.3.5.5 0 1-.2 1.2-.5.4-.4.5-.9.5-2.8s-.1-2.4-.5-2.8zM57.5 28.8l-4-6.1v6.1h-1.9v-10h1.7l4 6.1v-6.1h1.9v10h-1.7zM67.7 28.9c-1.1 0-2-.4-2.7-1.1-1-1-1-2.1-1-4s0-3 1-4c.7-.7 1.5-1.1 2.7-1.1 1.9 0 3.3 1.1 3.7 3.2h-2c-.2-.8-.7-1.4-1.7-1.4-.5 0-1 .2-1.2.5-.4.4-.5.9-.5 2.8s.1 2.4.5 2.8c.3.3.7.5 1.2.5 1 0 1.5-.6 1.7-1.4h2c-.4 2.1-1.8 3.2-3.7 3.2zM78.6 28.8L78 27h-3.5l-.6 1.8h-2l3.6-10H77l3.6 10h-2zm-2.4-7L75 25.4h2.5l-1.3-3.6zM87.7 28.8l-4-6.1v6.1h-1.9v-10h1.7l4 6.1v-6.1h1.9v10h-1.7zM99.9 28.8v-4.2h-3.4v4.2h-1.9v-10h1.9v4.1h3.4v-4.1h1.9v10h-1.9zM103.9 28.8v-10h6.6v1.7h-4.6v2.3h3.9v1.7h-3.9V27h4.6v1.7h-6.6zM112.1 28.8v-10h1.9V27h4.5v1.7h-6.4zM123.8 25h-1.9v3.8H120v-10h3.9c2.1 0 3.3 1.4 3.3 3.1-.1 1.7-1.3 3.1-3.4 3.1zm-.1-4.5h-1.8v2.7h1.8c.9 0 1.4-.5 1.4-1.4 0-.7-.5-1.3-1.4-1.3zM127 28.8v-2.1h2.1v2.1H127z"/></svg>