<svg xmlns="http://www.w3.org/2000/svg" viewBox="0 0 106.9653 14.4141">
  <g fill="#FFF">
    <path d="M2.475 12.246h6.467v1.973H0V0h2.475v12.246zM15.954 14.414c-1.507 0-2.728-.474-3.664-1.42-.936-.948-1.404-2.21-1.404-3.785v-.294c0-1.055.204-1.997.612-2.827.407-.83.98-1.477 1.716-1.94s1.56-.693 2.466-.693c1.442 0 2.555.46 3.34 1.377.787.918 1.18 2.217 1.18 3.897v.958h-6.917c.07.873.363 1.562.876 2.07.51.508 1.154.762 1.93.762 1.09 0 1.977-.44 2.662-1.32l1.282 1.222c-.424.632-.99 1.12-1.698 1.47-.708.348-1.502.522-2.382.522zM15.67 5.36c-.652 0-1.18.23-1.58.685-.4.456-.657 1.09-.768 1.904h4.53v-.177c-.052-.794-.264-1.395-.636-1.8-.372-.408-.887-.612-1.546-.612zM29.065 14.22c-.104-.203-.195-.532-.274-.988-.755.79-1.68 1.182-2.777 1.182-1.063 0-1.93-.303-2.603-.908s-1.008-1.355-1.008-2.246c0-1.127.42-1.99 1.258-2.593.838-.602 2.036-.903 3.595-.903h1.458V7.07c0-.547-.153-.985-.46-1.313s-.773-.493-1.4-.493c-.54 0-.984.135-1.33.405-.345.27-.518.613-.518 1.03h-2.378c0-.58.193-1.122.578-1.627.385-.504.908-.9 1.57-1.186.662-.287 1.4-.43 2.216-.43 1.24 0 2.23.31 2.966.933.737.62 1.115 1.495 1.135 2.622v4.765c0 .95.134 1.71.402 2.276v.166h-2.427zm-2.612-1.71c.47 0 .912-.114 1.326-.342s.724-.534.933-.918V9.258h-1.28c-.882 0-1.544.153-1.988.46s-.665.738-.665 1.298c0 .456.152.818.455 1.088.304.27.71.406 1.218.406zM39.877 5.82c-.313-.052-.636-.078-.97-.078-1.088 0-1.822.417-2.2 1.25v7.227H34.33V3.65h2.27l.058 1.182c.574-.918 1.37-1.377 2.387-1.377.34 0 .62.045.842.137l-.01 2.226zM44.387 3.652l.068 1.22c.783-.943 1.81-1.415 3.082-1.415 2.205 0 3.327 1.26 3.366 3.78v6.982h-2.378V7.372c0-.67-.145-1.167-.435-1.49-.29-.322-.765-.483-1.424-.483-.96 0-1.672.433-2.142 1.3v7.52h-2.378V3.65h2.24zM62.153 3.652l.068 1.104c.744-.866 1.762-1.3 3.054-1.3 1.415 0 2.384.54 2.905 1.622.77-1.08 1.852-1.62 3.248-1.62 1.167 0 2.036.32 2.608.966.57.644.862 1.595.875 2.85v6.945h-2.376V7.343c0-.67-.147-1.162-.44-1.475s-.78-.47-1.46-.47c-.54 0-.982.145-1.324.435-.343.29-.583.67-.72 1.138l.01 7.246h-2.377V7.265c-.033-1.244-.67-1.866-1.908-1.866-.952 0-1.628.388-2.025 1.162v7.657h-2.378V3.65h2.24zM77.647 8.838c0-1.035.206-1.968.617-2.798.41-.83.99-1.468 1.732-1.914s1.597-.67 2.563-.67c1.428 0 2.587.46 3.478 1.378.89.918 1.37 2.135 1.443 3.652l.01.557c0 1.04-.2 1.973-.602 2.793-.4.82-.974 1.455-1.72 1.904s-1.61.674-2.59.674c-1.493 0-2.69-.496-3.585-1.49s-1.346-2.315-1.346-3.97V8.84zm2.378.205c0 1.087.225 1.938.675 2.554.45.615 1.077.923 1.88.923.8 0 1.425-.313 1.873-.938.446-.625.67-1.54.67-2.744 0-1.068-.23-1.914-.69-2.54s-1.085-.937-1.874-.937c-.777 0-1.394.31-1.85.924-.457.615-.685 1.535-.685 2.76zM95.835 5.82c-.314-.052-.636-.078-.97-.078-1.088 0-1.822.417-2.2 1.25v7.227h-2.378V3.65h2.27l.06 1.182c.573-.918 1.37-1.377 2.385-1.377.34 0 .62.045.842.137l-.01 2.226zM102.718 14.414c-1.507 0-2.727-.474-3.664-1.42-.935-.948-1.403-2.21-1.403-3.785v-.294c0-1.055.204-1.997.612-2.827.407-.83.98-1.477 1.717-1.94s1.558-.693 2.465-.693c1.44 0 2.555.46 3.34 1.377s1.18 2.217 1.18 3.897v.958h-6.918c.073.873.364 1.562.876 2.07.512.508 1.156.762 1.933.762 1.09 0 1.975-.44 2.66-1.32l1.282 1.222c-.424.632-.99 1.12-1.697 1.47s-1.5.522-2.382.522zm-.283-9.053c-.652 0-1.18.23-1.58.685s-.657 1.09-.77 1.904h4.532v-.177c-.052-.794-.264-1.395-.636-1.8s-.887-.612-1.545-.612z"/>
  </g>
</svg>