<svg xmlns="http://www.w3.org/2000/svg" viewBox="0 0 657.2263 257.1466">
  <path fill="#ED1C24" d="M642.71 111.557l-35.82 76.812-13.535-29.148H578.72l22.227 47.663h11.827l44.452-95.328"/>
  <path d="M488.7 254.178h28.93v-52.856c0-12.055 7.047-20.587 17.434-20.587 10.015 0 15.208 7.048 15.208 17.063v56.38h28.932v-61.943c0-20.958-12.612-35.795-33.013-35.795-12.98 0-22.068 5.564-28.93 15.764h-.558v-12.982H488.7v94.956zm-56.754-97.553c-30.23 0-50.445 21.7-50.445 50.26 0 28.376 20.216 50.262 50.446 50.262 30.23 0 50.446-21.886 50.446-50.26 0-28.563-20.216-50.262-50.446-50.262zm-.186 79.193c-13.724 0-20.957-11.5-20.957-28.933 0-17.618 7.233-28.932 20.957-28.932s21.33 11.314 21.33 28.932c0 17.434-7.605 28.933-21.33 28.933zm-132.604 18.36h81.23v-22.81h-45.993v-.558l43.955-49.333v-22.255h-79.192v22.812h44.51v.556l-44.51 49.703v21.885zm-37.097 0h29.117v-94.956H262.06v94.956zm-67.51 0h28.933v-43.583c0-19.845 11.87-28.56 30.044-26.15h.557v-25.037c-1.484-.557-3.153-.743-5.935-.743-11.314 0-18.918 5.193-25.41 16.32h-.556v-15.763H194.55v94.956zm-53.227-18.174c-12.797 0-20.587-8.347-22.07-21.143h68.436c.184-20.4-5.194-36.72-16.508-46.92-7.975-7.42-18.546-11.5-31.9-11.5-28.56 0-48.405 21.7-48.405 50.075 0 28.56 18.917 50.446 50.26 50.446 11.87 0 21.328-3.153 29.118-8.532 8.346-5.75 14.28-14.094 15.95-22.44h-27.82c-2.782 6.305-8.53 10.016-17.062 10.016zm-1.484-58.792c10.2 0 17.247 7.604 18.36 18.732h-38.762c2.226-11.314 8.346-18.732 20.4-18.732zM33.012 254.178h30.415l33.013-94.956H67.324L48.777 220.24h-.37L29.86 159.22H0l33.013 94.956zM262.06 125.465h29.117v25.78H262.06v-25.78z"/>
  <g>
    <path d="M171.64 73.282c-4.11 0-7.833-.69-11.17-2.07-3.34-1.38-6.196-3.29-8.57-5.73-2.377-2.44-4.206-5.312-5.49-8.62-1.284-3.305-1.926-6.884-1.926-10.736 0-3.852.642-7.43 1.927-10.737 1.284-3.307 3.113-6.18 5.49-8.62 2.374-2.44 5.23-4.348 8.57-5.73 3.337-1.38 7.06-2.07 11.17-2.07 4.045 0 7.736.69 11.075 2.07 3.337 1.382 6.177 3.29 8.522 5.73 2.343 2.44 4.155 5.313 5.44 8.62 1.284 3.306 1.926 6.884 1.926 10.736 0 3.852-.642 7.432-1.925 10.737-1.286 3.307-3.098 6.18-5.44 8.62-2.346 2.44-5.186 4.35-8.523 5.73-3.34 1.378-7.03 2.07-11.075 2.07zm-.096-10.978c3.787 0 6.693-1.493 8.714-4.478 2.023-2.985 3.035-6.885 3.035-11.7 0-4.878-1.012-8.826-3.035-11.844-2.02-3.017-4.927-4.526-8.714-4.526-3.852 0-6.774 1.51-8.763 4.526-1.99 3.018-2.984 6.966-2.984 11.845 0 4.814.995 8.714 2.985 11.7 1.99 2.985 4.912 4.477 8.764 4.477zM218.248 28.215h.29c1.602-3.082 3.738-5.393 6.402-6.933 2.663-1.54 5.793-2.31 9.39-2.31 5.648 0 10.03 1.717 13.144 5.15 3.114 3.436 4.67 8.04 4.67 13.82v33.703h-15.022V40.83c0-2.824-.722-5.087-2.166-6.79-1.446-1.7-3.58-2.55-6.405-2.55-2.952 0-5.328 1.058-7.125 3.177-1.798 2.12-2.696 4.815-2.696 8.09v28.888h-15.12v-51.23h14.638v7.8zM258.21 0h15.215v71.645h-15.214V0zM293.166 88.786h-1.734c-1.027 0-2.15-.016-3.37-.048-1.22-.033-2.344-.065-3.37-.096-1.028-.034-1.574-.05-1.637-.05V76.75h.77c.064 0 .337.014.818.047.482.032 1.012.048 1.59.048h2.504c4.558 0 6.997-1.733 7.32-5.2 0-.898-.227-2.263-.675-4.093-.45-1.83-1.123-3.9-2.022-6.21l-15.89-40.927h15.89l6.55 19.645c.576 1.733 1.12 3.643 1.636 5.73.513 2.086.963 4.03 1.348 5.825.45 2.12.867 4.206 1.252 6.26h.193c.448-2.12.93-4.237 1.444-6.356l1.445-5.78c.513-2.053 1.06-3.947 1.637-5.68l6.26-19.645h15.022l-18.297 52.482c-1.027 2.952-2.118 5.44-3.273 7.463-1.156 2.022-2.473 3.66-3.948 4.91-1.478 1.253-3.147 2.15-5.008 2.697-1.863.545-4.013.82-6.452.82zM378.292 73.282c-4.11 0-7.833-.69-11.17-2.07-3.34-1.38-6.196-3.29-8.57-5.73-2.377-2.44-4.206-5.312-5.49-8.62-1.285-3.305-1.926-6.884-1.926-10.736 0-3.852.64-7.43 1.926-10.737 1.284-3.307 3.113-6.18 5.49-8.62 2.374-2.44 5.23-4.348 8.57-5.73 3.337-1.38 7.06-2.07 11.17-2.07 4.045 0 7.735.69 11.074 2.07 3.337 1.382 6.178 3.29 8.523 5.73 2.34 2.44 4.154 5.313 5.44 8.62 1.282 3.306 1.925 6.884 1.925 10.736 0 3.852-.643 7.432-1.926 10.737-1.286 3.307-3.1 6.18-5.44 8.62-2.346 2.44-5.187 4.35-8.524 5.73-3.34 1.378-7.03 2.07-11.074 2.07zm-.097-10.978c3.787 0 6.694-1.493 8.715-4.478 2.022-2.985 3.034-6.885 3.034-11.7 0-4.878-1.012-8.826-3.034-11.844-2.022-3.017-4.928-4.526-8.715-4.526-3.85 0-6.773 1.51-8.763 4.526-1.99 3.018-2.985 6.966-2.985 11.845 0 4.814.995 8.714 2.985 11.7 1.99 2.985 4.91 4.477 8.763 4.477zM424.13 28.215h.288c1.603-3.082 3.74-5.393 6.403-6.933 2.664-1.54 5.794-2.31 9.39-2.31 5.65 0 10.03 1.717 13.145 5.15 3.113 3.436 4.67 8.04 4.67 13.82v33.703h-15.022V40.83c0-2.824-.722-5.087-2.166-6.79-1.446-1.7-3.58-2.55-6.405-2.55-2.953 0-5.33 1.058-7.126 3.177-1.798 2.12-2.696 4.815-2.696 8.09v28.888h-15.118v-51.23h14.637v7.8z"/>
  </g>
</svg>