<?xml version="1.0" encoding="utf-8"?>
<!-- Generator: Adobe Illustrator 18.1.1, SVG Export Plug-In . SVG Version: 6.00 Build 0)  -->
<!DOCTYPE svg PUBLIC "-//W3C//DTD SVG 1.1//EN" "http://www.w3.org/Graphics/SVG/1.1/DTD/svg11.dtd">
<svg version="1.1" id="Layer_1" xmlns="http://www.w3.org/2000/svg" xmlns:xlink="http://www.w3.org/1999/xlink" x="0px" y="0px"
	 viewBox="0 0 971 94.1" enable-background="new 0 0 971 94.1" xml:space="preserve">
<g id="Layer_1_1_">
	<g>
		<g>
			<path d="M970,46.3C970,20.6,948.8,0,922.6,0c-2.5,0-5.1,0.2-7.4,0.6H0v93.5h926.2v-1.5C950.7,90.7,970,70.7,970,46.3z"/>
		</g>
	</g>
	<g>
		<path fill="#FFFFFF" d="M923.9,14.9c17,0,30.8,13.6,30.8,30.2c0,16.8-13.8,30.2-30.8,30.2S893.1,61.6,893.1,45
			C892.9,28.5,906.7,14.9,923.9,14.9z"/>
		<path fill="#E20074" d="M944.3,46.7l-32.9-21.2c0,0,9.1,18.5,0,38.9L944.3,46.7z"/>
	</g>
</g>
<g id="Layer_1_2_">
	<g>
		<g>
			<path d="M971,46.3C971,20.6,949.8,0,923.6,0c-2.5,0-5.1,0.2-7.4,0.6H1v93.5h926.2v-1.5C951.7,90.7,971,70.7,971,46.3z"/>
		</g>
	</g>
	<g>
		<path fill="#FFFFFF" d="M924.9,14.9c17,0,30.8,13.6,30.8,30.2c0,16.8-13.8,30.2-30.8,30.2S894.1,61.6,894.1,45
			C893.9,28.5,907.7,14.9,924.9,14.9z"/>
		<path fill="#E20074" d="M945.3,46.7l-32.9-21.2c0,0,9.1,18.5,0,38.9L945.3,46.7z"/>
	</g>
</g>
<g>
	<path fill="#FFFFFF" d="M293.6,64h-4.9v-4.5c-1.1,1.4-2.2,2.5-3.2,3.2c-1.9,1.5-4.2,2.2-6.9,2.2c-4.1,0-7.6-1.5-10.3-4.5
		c-1.6-1.8-2.8-3.7-3.6-6c-1.1-3-1.6-6.2-1.6-9.5c0-6.3,1.6-11.5,4.9-15.4c2.9-3.4,6.6-5.1,11.2-5.1c5.1,0,8.9,2.1,11.6,6.3
		c1.3,2,2.1,4.4,2.3,7h-6.2c-0.3-2.1-1-3.8-2-5.1c-1.5-1.8-3.4-2.7-5.8-2.7c-2.9,0-5.2,1.3-6.9,3.8c-1.8,2.8-2.7,6.5-2.7,11.1
		c0,4.9,1,8.7,3.1,11.4c1.6,2.1,3.8,3.2,6.6,3.2c3.7,0,6.2-1.9,7.6-5.8c0.5-1.2,0.7-2.9,0.8-5.1h-8.5v-5.2h14.3V64z"/>
	<path fill="#FFFFFF" d="M303.7,64V25.3H327v5.5h-16.9v10.5h15.7v5.5h-15.7v11.8h17.2V64H303.7z"/>
	<path fill="#FFFFFF" d="M344.3,64V30.8h-10.1v-5.5h26.5v5.5h-10.1V64H344.3z"/>
	<path fill="#FFFFFF" d="M391.2,64V30.8h-10.1v-5.5h26.5v5.5h-10.1V64H391.2z"/>
	<path fill="#FFFFFF" d="M415.7,64V25.3h6.4V41h14.4V25.3h6.4V64h-6.4V46.4h-14.4V64H415.7z"/>
	<path fill="#FFFFFF" d="M462.7,25.3h6.7L481.7,64H475l-3-10.4h-12.2L456.7,64h-6.5L462.7,25.3z M461.3,48.5h9.2l-4.6-15.6
		L461.3,48.5z"/>
	<path fill="#FFFFFF" d="M489,64V25.3h6.5L510,54V25.3h5.9V64h-6.6L495,35.5V64H489z"/>
	<path fill="#FFFFFF" d="M526.5,64V25.3h6.3v16.4l13.4-16.4h7.4l-13.5,16L554.4,64h-7.3L536,46.2l-3.2,3.8v14H526.5z"/>
	<path fill="#FFFFFF" d="M561.3,64V25.3h23.3v5.5h-16.9v10.5h15.7v5.5h-15.7v11.8h17.2V64H561.3z"/>
	<path fill="#FFFFFF" d="M594.2,64V25.3h11.9c5.2,0,9.1,1.4,11.7,4.3c3.1,3.4,4.7,8.3,4.7,14.7c0,7.5-2,13-6.1,16.6
		c-1.6,1.4-3.4,2.2-5.4,2.7c-1.2,0.2-2.8,0.4-4.6,0.4H594.2z M600.6,58.7h4.9c1.9,0,3.4-0.2,4.5-0.6c1.1-0.4,2-1,2.9-2
		c2.2-2.5,3.3-6.4,3.3-11.7c0-4.9-1.1-8.6-3.3-11c-1-1.1-2.1-1.8-3.4-2.2c-1-0.4-2.3-0.5-3.8-0.5h-5V58.7z"/>
</g>
</svg>
