<svg xmlns="http://www.w3.org/2000/svg" viewBox="0 0 386.5 386.5"><path fill="#231F20" d="M165.3 367.7c2.4 0 4.5 1.9 4.5 4.4 0 2.6-2.1 4.5-4.5 4.5s-4.5-1.9-4.5-4.5c-.1-2.5 2-4.4 4.5-4.4zm0 .8c-2.1 0-3.7 1.6-3.7 3.7 0 2.2 1.6 3.7 3.7 3.7 2 0 3.6-1.6 3.6-3.7s-1.6-3.7-3.6-3.7zm-1 6.3h-.8v-5.1h2c1.2 0 1.8.5 1.8 1.5 0 .9-.6 1.3-1.3 1.4l1.5 2.3h-.9l-1.4-2.2h-.9v2.1zm0-2.9h.9c1 0 1.3-.3 1.3-.8s-.2-.8-1.1-.8h-1.1v1.6z"/><path fill="none" d="M83.7 227.2c-7.8 0-15.6 3-21.5 8.9-5.9 6-8.9 13.7-8.9 21.5 0 7.8 2.9 15.6 8.9 21.5 5.9 5.9 13.7 8.9 21.5 8.9 7.8 0 15.6-3 21.5-8.9s8.9-13.7 8.9-21.5c0-7.8-2.9-15.6-8.9-21.5-5.9-5.9-13.7-8.9-21.5-8.9zM172.9 289.2c7.8 0 15.6-3 21.5-8.9 6-5.9 8.9-13.7 8.9-21.5 0-7.8-3-15.6-8.9-21.5-5.9-6-13.7-8.9-21.5-8.9-7.8 0-15.6 3-21.5 8.9s-8.9 13.7-8.9 21.5c0 7.8 3 15.5 8.9 21.5 6 5.9 13.8 8.9 21.5 8.9zM267.2 14.3c-2.5-2.5-5.8-3.8-9.2-3.8-3.3 0-6.6 1.3-9.2 3.8l-88 88-25.6 25.7 123.3 123.3 10.5-10.5 103.2-103.2c5.1-5.1 5.1-13.3 0-18.3l-105-105z"/><path fill="#FFF" d="M379.6 111.9l-105-105C270.2 2.4 264.3 0 258 0c-6.3 0-12.2 2.4-16.6 6.9l-88 88L6.9 241.4c-9.1 9.1-9.1 24 0 33.2l105 105c4.4 4.4 10.3 6.9 16.6 6.9 6.3 0 12.2-2.4 16.6-6.9l131.3-131.3L379.6 145c9.1-9.1 9.1-24 0-33.1z"/><path fill="#231F20" d="M372.2 119.3l-105-105c-5.1-5.1-13.3-5.1-18.3 0L135.4 127.8l123.3 123.3 113.5-113.5c5-5 5-13.2 0-18.3zm-92.4 30.4c-5.9 5.9-13.7 8.9-21.5 8.9-7.8 0-15.6-3-21.5-8.9s-8.9-13.7-8.9-21.5c0-7.8 3-15.6 8.9-21.5s13.7-8.9 21.5-8.9c7.8 0 15.6 3 21.5 8.9s8.9 13.7 8.9 21.5c.1 7.7-2.9 15.5-8.9 21.5zM14.3 248.9c-5.1 5.1-5.1 13.3 0 18.3l105 105c2.5 2.5 5.8 3.8 9.2 3.8 3.3 0 6.6-1.3 9.2-3.8L251 258.7 127.7 135.4 14.3 248.9zm90.9 30.2c-6 5.9-13.7 8.9-21.5 8.9-7.8 0-15.6-3-21.5-8.9s-8.9-13.7-8.9-21.5c0-7.8 3-15.6 8.9-21.5s13.7-8.9 21.5-8.9c7.8 0 15.6 3 21.5 8.9 5.9 6 8.9 13.7 8.9 21.5 0 7.8-3 15.6-8.9 21.5zm46.2-41.8c5.9-6 13.7-8.9 21.5-8.9 7.8 0 15.6 3 21.5 8.9 6 5.9 8.9 13.7 8.9 21.5 0 7.8-3 15.6-8.9 21.5s-13.7 8.9-21.5 8.9c-7.8 0-15.6-3-21.5-8.9s-8.9-13.7-8.9-21.5c0-7.7 3-15.5 8.9-21.5z"/></svg>