<?xml version="1.0" encoding="utf-8"?>
<!-- Generator: Adobe Illustrator 18.1.1, SVG Export Plug-In . SVG Version: 6.00 Build 0)  -->
<!DOCTYPE svg PUBLIC "-//W3C//DTD SVG 1.1//EN" "http://www.w3.org/Graphics/SVG/1.1/DTD/svg11.dtd">
<svg version="1.1" id="Layer_1" xmlns="http://www.w3.org/2000/svg" xmlns:xlink="http://www.w3.org/1999/xlink" x="0px" y="0px"
	 viewBox="0 0 677 53.3" enable-background="new 0 0 677 53.3" xml:space="preserve">
<g>
	<g>
		<g>
			<g>
				<g>
					<path d="M306.7,21.3l0.4-3.3c0.3-2.7,2.1-4.6,7.2-4.6h0.2c0.3,0,0.4,0.1,0.4,0.4l-0.1,0.8c0,0.3-0.2,0.4-0.5,0.4h-0.1
						c-3.7,0-4.9,1.3-5.1,3.1l-0.4,3.1h4.3c0.3,0,0.5,0.1,0.4,0.4l-0.1,0.7c0,0.3-0.2,0.4-0.5,0.4h-4.3l-3,23.9
						c0,0.3-0.2,0.5-0.5,0.5h-1.1c-0.3,0-0.4-0.2-0.4-0.5l3-23.9h-2.4c-0.3,0-0.4-0.1-0.4-0.4l0.1-0.6c0-0.3,0.2-0.4,0.5-0.4l2-0.1
						H306.7z"/>
					<path d="M319.7,25.5c0.3-2.7,2.2-4.6,7.3-4.6c4.5,0,6.3,1.6,6.3,3.9c0,0.2,0,0.3,0,0.7l-1.2,9.7c-0.3,2.7-2.1,4.6-7.3,4.6
						c-4.5,0-6.3-1.6-6.3-3.9c0-0.2,0-0.4,0-0.6L319.7,25.5z M331.2,25.7c0-0.3,0-0.4,0-0.4c0-1.6-1.2-2.6-4.5-2.6
						c-3.6,0-5,1.3-5.2,3.1l-1.2,9.5c0,0.2,0,0.3,0,0.5c0,1.6,1.1,2.6,4.5,2.6c3.6,0,4.9-1.2,5.2-3.1L331.2,25.7z"/>
					<path d="M351.5,21.4l-0.1,0.9c0,0.3-0.2,0.4-0.5,0.4c-2.9,0.1-5.5,1.8-6.5,2.6l-1.7,13.8c0,0.3-0.1,0.4-0.5,0.4H341
						c-0.3,0-0.4-0.1-0.4-0.4l2.2-17.5c0-0.3,0.1-0.4,0.5-0.4h0.9c0.3,0,0.4,0.1,0.4,0.4l-0.2,2c1.2-1,3.8-2.7,6.6-2.7
						C351.3,21,351.5,21.1,351.5,21.4z"/>
				</g>
			</g>
			<g>
				<path d="M368.5,47c-0.5,0-0.7-0.2-0.7-0.7V6.9c0-0.5,0.2-0.7,0.7-0.7h10.1c9.7,0,12.5,3.5,12.5,8.2v4.1c0,3.4-1.5,5.9-5.7,7.1
					c5.1,1,7.3,3.7,7.3,7.4v5.5c0,4.7-2.9,8.4-12.5,8.4H368.5z M370.9,8.9v15.7h8.3c6.4,0,8.7-2.5,8.7-6.2v-3.6
					c0-3.7-2.3-5.9-9.4-5.9H370.9z M370.9,27.2v17.1h9.2c7.1,0,9.4-2.5,9.4-6.1v-4.9c0-3.5-2.3-6.1-9.4-6.1H370.9z"/>
				<path d="M410.6,38.5c0,3.7,2.3,6.2,9.4,6.2c7,0,9.4-2.5,9.4-6.2V6.9c0-0.5,0.2-0.7,0.7-0.7h1.8c0.5,0,0.7,0.2,0.7,0.7V39
					c0,4.7-2.9,8.5-12.5,8.5c-9.6,0-12.5-3.8-12.5-8.5V6.9c0-0.5,0.2-0.7,0.7-0.7h1.8c0.5,0,0.7,0.2,0.7,0.7V38.5z"/>
				<path d="M469.2,14.5c0-3.6-2-6.1-8.9-6.1s-8.9,2.5-8.9,6.1v2.2c0,3.1,2.2,4.5,3.8,5.1l11.5,4.4c3,1.1,6,3.4,6,7.5V39
					c0,4.7-2.9,8.5-12.4,8.5c-9.5,0-12.5-3.8-12.5-8.5v-3.1c0-0.5,0.2-0.8,0.7-0.8h1.7c0.5,0,0.7,0.2,0.7,0.8v2.8
					c0,3.6,2.2,6.1,9.2,6.1c7.1,0,9.4-2.5,9.4-6.1v-4.3c0-3.2-2.6-4.7-5-5.6l-11.2-4.3c-2.4-0.9-5.2-3.3-5.2-7.1v-3.2
					c0-4.7,2.6-8.5,12.1-8.5c9.4,0,12.1,3.8,12.1,8.5v2.9c0,0.5-0.2,0.7-0.7,0.7h-1.7c-0.5,0-0.7-0.2-0.7-0.7V14.5z"/>
				<path d="M491.8,46.2c0,0.5-0.2,0.7-0.7,0.7h-1.8c-0.5,0-0.7-0.2-0.7-0.7V6.9c0-0.5,0.2-0.7,0.7-0.7h1.8c0.5,0,0.7,0.2,0.7,0.7
					V46.2z"/>
				<path d="M534.8,46.2c0,0.5-0.2,0.7-0.7,0.7h-1.6c-0.4,0-0.5-0.1-0.7-0.4l-17.2-30.5c-0.9-1.4-1.9-3.4-1.9-3.6v33.8
					c0,0.5-0.2,0.7-0.7,0.7h-1.6c-0.5,0-0.7-0.2-0.7-0.7V6.9c0-0.5,0.2-0.7,0.7-0.7h1.6c0.3,0,0.5,0.1,0.6,0.3l17.3,30.8
					c0.5,1,1.7,3.4,1.7,3.4V6.9c0-0.5,0.2-0.7,0.7-0.7h1.6c0.5,0,0.7,0.2,0.7,0.7V46.2z"/>
				<path d="M552.7,47c-0.4,0-0.7-0.2-0.7-0.7V6.9c0-0.5,0.2-0.7,0.7-0.7h20.4c0.5,0,0.7,0.2,0.7,0.7v1.3c0,0.5-0.2,0.7-0.7,0.7h-18
					v15.2h16.9c0.5,0,0.7,0.2,0.7,0.7v1.3c0,0.5-0.2,0.7-0.7,0.7h-16.9v17.3H574c0.5,0,0.7,0.2,0.7,0.7v1.3c0,0.5-0.2,0.7-0.7,0.7
					H552.7z"/>
				<path d="M609.5,14.5c0-3.6-2-6.1-8.9-6.1c-7,0-8.9,2.5-8.9,6.1v2.2c0,3.1,2.2,4.5,3.8,5.1l11.5,4.4c3,1.1,6,3.4,6,7.5V39
					c0,4.7-2.9,8.5-12.4,8.5c-9.5,0-12.5-3.8-12.5-8.5v-3.1c0-0.5,0.2-0.8,0.7-0.8h1.7c0.5,0,0.7,0.2,0.7,0.8v2.8
					c0,3.6,2.2,6.1,9.2,6.1c7.1,0,9.4-2.5,9.4-6.1v-4.3c0-3.2-2.6-4.7-5-5.6l-11.2-4.3c-2.4-0.9-5.2-3.3-5.2-7.1v-3.2
					c0-4.7,2.6-8.5,12.1-8.5c9.4,0,12.1,3.8,12.1,8.5v2.9c0,0.5-0.2,0.7-0.7,0.7h-1.7c-0.5,0-0.7-0.2-0.7-0.7V14.5z"/>
				<path d="M647.3,14.5c0-3.6-2-6.1-8.9-6.1c-7,0-8.9,2.5-8.9,6.1v2.2c0,3.1,2.2,4.5,3.8,5.1l11.5,4.4c3,1.1,6,3.4,6,7.5V39
					c0,4.7-2.9,8.5-12.4,8.5c-9.5,0-12.5-3.8-12.5-8.5v-3.1c0-0.5,0.2-0.8,0.7-0.8h1.7c0.5,0,0.7,0.2,0.7,0.8v2.8
					c0,3.6,2.2,6.1,9.2,6.1c7.1,0,9.4-2.5,9.4-6.1v-4.3c0-3.2-2.6-4.7-5-5.6l-11.2-4.3c-2.4-0.9-5.2-3.3-5.2-7.1v-3.2
					c0-4.7,2.6-8.5,12.1-8.5c9.4,0,12.1,3.8,12.1,8.5v2.9c0,0.5-0.2,0.7-0.7,0.7h-1.7c-0.5,0-0.7-0.2-0.7-0.7V14.5z"/>
			</g>
		</g>
	</g>
	<g>
		<g>
			<path fill="#0179C1" d="M252.2,0c-1,0-1.9,0.8-1.9,1.9v13.2h34.8L269.3,0H252.2z"/>
			<path fill="#0179C1" d="M286.4,19.1c0-1-0.8-1.9-1.9-1.9h-13.2V52l15.1-15.9V19.1z"/>
			<path fill="#0179C1" d="M267.3,53.3c1,0,1.9-0.8,1.9-1.9V38.2h-34.8l15.9,15.1L267.3,53.3z"/>
			<path fill="#0179C1" d="M233.1,34.2c0,1,0.9,1.9,1.9,1.9h13.2V1.3l-15.1,15.9L233.1,34.2z"/>
		</g>
		<g>
			<polygon points="73.7,6.4 73.7,22.4 51.3,22.4 51.3,6.4 43.1,6.4 43.1,46.9 51.3,46.9 51.3,29.5 73.7,29.5 73.7,46.9 81.9,46.9 
				81.9,6.4 			"/>
			<polygon points="182.3,6.4 182.3,46.9 218.1,46.9 213.6,39.8 190.5,39.8 190.5,29.5 212.8,29.5 212.8,22.6 190.5,22.6 
				190.5,13.3 213.5,13.3 218,6.4 			"/>
			<g>
				<path d="M12.8,6.4C4.3,6.4,0,11.5,0,19v15.1c0,8.7,5.5,12.8,12.7,12.8l25.6,0l-4.7-7.4H14.3c-4.1,0-5.9-1.5-5.9-6.1V19.7
					c0-4.4,1.5-6.2,6-6.2h19.4l4.6-7.2H12.8z"/>
				<path d="M146.5,6.3c-4.9,0-9.9,3-9.9,10.5v1.9c0,7.9,4.8,10.9,9.7,10.9h17c1.8,0,3.2,0.3,3.2,3.3v3.4c0,2.7-1.4,3.3-3.3,3.3
					h-22.3l-4.6,7.1h27.5c6.6,0,11.1-3.3,11.1-10.9v-2.8c0-7.3-4.2-10.8-10.7-10.8h-16.2c-1.8,0-3-0.5-3-3.2l0-2.8
					c0-2.3,0.9-3.1,3-3.1l21.3,0l4.5-7L146.5,6.3z"/>
			</g>
			<path d="M105.6,6.4L86.4,46.9h9.1l3.7-8.4h20.9l3.7,8.4h9.1L113.7,6.4H105.6z M109.6,14.8l7.4,16.8h-14.7L109.6,14.8z"/>
		</g>
	</g>
	<g>
		<path d="M665.3,14.3c0,0.8-0.3,1.5-0.9,2c-0.6,0.5-1.4,0.7-2.5,0.7c-1.1,0-1.9-0.2-2.6-0.5v-1.5c0.4,0.2,0.9,0.4,1.4,0.5
			c0.5,0.1,0.9,0.2,1.4,0.2c0.6,0,1.1-0.1,1.4-0.3c0.3-0.2,0.4-0.5,0.4-0.9c0-0.4-0.1-0.6-0.4-0.9c-0.3-0.2-0.8-0.5-1.6-0.9
			c-0.9-0.3-1.5-0.7-1.8-1.2c-0.4-0.4-0.5-1-0.5-1.6c0-0.8,0.3-1.4,0.8-1.9c0.6-0.5,1.3-0.7,2.2-0.7c0.9,0,1.8,0.2,2.7,0.6l-0.5,1.3
			c-0.8-0.4-1.6-0.5-2.2-0.5c-0.5,0-0.9,0.1-1.1,0.3c-0.3,0.2-0.4,0.5-0.4,0.9c0,0.2,0.1,0.5,0.2,0.6c0.1,0.2,0.3,0.3,0.5,0.5
			c0.2,0.2,0.7,0.4,1.3,0.6c0.7,0.3,1.2,0.6,1.5,0.8c0.3,0.2,0.6,0.5,0.7,0.8C665.2,13.5,665.3,13.9,665.3,14.3z"/>
		<path d="M671.3,16.9L668.6,9h-0.1c0.1,1.2,0.1,2.3,0.1,3.3v4.6h-1.4V7.5h2.2l2.6,7.5h0l2.7-7.5h2.2v9.4h-1.5v-4.7
			c0-0.5,0-1.1,0-1.8c0-0.8,0-1.2,0.1-1.4h-0.1l-2.8,7.9H671.3z"/>
	</g>
</g>
</svg>
