<?xml version="1.0" encoding="utf-8"?>
<!-- Generator: Adobe Illustrator 18.1.1, SVG Export Plug-In . SVG Version: 6.00 Build 0)  -->
<!DOCTYPE svg PUBLIC "-//W3C//DTD SVG 1.1//EN" "http://www.w3.org/Graphics/SVG/1.1/DTD/svg11.dtd">
<svg version="1.1" id="Layer_1" xmlns="http://www.w3.org/2000/svg" xmlns:xlink="http://www.w3.org/1999/xlink" x="0px" y="0px"
	 viewBox="0 0 122 33" enable-background="new 0 0 122 33" xml:space="preserve">
<g id="Rounded_Rectangle_1">
	<g>
		<path fill-rule="evenodd" clip-rule="evenodd" fill="#0092FF" d="M120,0H2C0.9,0,0,0.9,0,2v29c0,1.1,0.9,2,2,2h118
			c1.1,0,2-0.9,2-2V2C122,0.9,121.1,0,120,0z"/>
	</g>
</g>
<g>
	<path fill="#FFFFFF" d="M25.1,21.1v-9.3h1.1v8.3h4.3v1H25.1z"/>
	<path fill="#FFFFFF" d="M35.4,21.2c-1.1,0-1.9-0.3-2.5-0.9s-0.9-1.5-0.9-2.6c0-1.1,0.3-2,0.9-2.7s1.3-1,2.3-1
		c0.9,0,1.6,0.3,2.2,0.9c0.5,0.6,0.8,1.3,0.8,2.3v0.7h-5c0,0.8,0.2,1.4,0.6,1.9c0.4,0.4,1,0.6,1.7,0.6c0.8,0,1.5-0.2,2.3-0.5v0.9
		c-0.4,0.2-0.8,0.3-1.1,0.3C36.3,21.2,35.9,21.2,35.4,21.2z M35.1,14.9c-0.6,0-1,0.2-1.4,0.5c-0.3,0.4-0.5,0.9-0.6,1.5h3.8
		c0-0.7-0.2-1.2-0.5-1.5S35.7,14.9,35.1,14.9z"/>
	<path fill="#FFFFFF" d="M44.7,21.1l-0.2-1h-0.1c-0.4,0.4-0.7,0.7-1.1,0.9c-0.4,0.2-0.8,0.2-1.3,0.2c-0.7,0-1.3-0.2-1.7-0.5
		c-0.4-0.4-0.6-0.9-0.6-1.5c0-1.4,1.2-2.1,3.5-2.2l1.2,0v-0.4c0-0.5-0.1-0.9-0.4-1.2c-0.2-0.3-0.6-0.4-1.2-0.4c-0.6,0-1.3,0.2-2,0.5
		l-0.3-0.8c0.4-0.2,0.7-0.3,1.2-0.4c0.4-0.1,0.9-0.2,1.3-0.2c0.9,0,1.5,0.2,1.9,0.6c0.4,0.4,0.6,1,0.6,1.8v4.7H44.7z M42.2,20.3
		c0.7,0,1.2-0.2,1.6-0.5c0.4-0.4,0.6-0.9,0.6-1.5v-0.6l-1.1,0c-0.9,0-1.5,0.2-1.9,0.4c-0.4,0.2-0.6,0.6-0.6,1.1
		c0,0.4,0.1,0.7,0.4,0.9S41.8,20.3,42.2,20.3z"/>
	<path fill="#FFFFFF" d="M51.4,14c0.3,0,0.6,0,0.9,0.1l-0.2,1C51.8,15,51.6,15,51.3,15c-0.6,0-1.1,0.2-1.5,0.7
		c-0.4,0.5-0.6,1-0.6,1.7v3.7h-1.1v-7H49l0.1,1.3h0.1c0.3-0.5,0.6-0.8,1-1S51,14,51.4,14z"/>
	<path fill="#FFFFFF" d="M58.9,21.1v-4.5c0-0.6-0.1-1-0.4-1.3s-0.7-0.4-1.3-0.4c-0.8,0-1.3,0.2-1.7,0.6s-0.5,1-0.5,1.9v3.6H54v-7
		h0.9l0.2,1h0.1c0.2-0.3,0.5-0.6,0.9-0.8s0.9-0.3,1.4-0.3c0.9,0,1.5,0.2,2,0.6s0.7,1.1,0.7,1.9v4.5H58.9z"/>
	<path fill="#FFFFFF" d="M75.7,21.1v-4.5c0-0.6-0.1-1-0.4-1.2c-0.2-0.3-0.6-0.4-1.1-0.4c-0.7,0-1.2,0.2-1.5,0.6
		c-0.3,0.4-0.5,1-0.5,1.7v3.9h-1.1v-4.5c0-0.6-0.1-1-0.4-1.2c-0.2-0.3-0.6-0.4-1.2-0.4c-0.7,0-1.2,0.2-1.5,0.6s-0.5,1-0.5,1.9v3.6
		h-1.1v-7h0.9l0.2,1h0.1c0.2-0.3,0.5-0.6,0.9-0.8c0.4-0.2,0.8-0.3,1.3-0.3c1.1,0,1.9,0.4,2.2,1.2H72c0.2-0.4,0.5-0.7,0.9-0.9
		s0.9-0.3,1.4-0.3c0.8,0,1.4,0.2,1.8,0.6s0.6,1.1,0.6,1.9v4.5H75.7z"/>
	<path fill="#FFFFFF" d="M85.6,17.6c0,1.1-0.3,2-0.9,2.7c-0.6,0.6-1.4,1-2.5,1c-0.6,0-1.2-0.1-1.7-0.4s-0.9-0.7-1.2-1.3
		C79.1,19,79,18.3,79,17.6c0-1.1,0.3-2,0.9-2.7s1.4-0.9,2.5-0.9c1,0,1.8,0.3,2.4,1C85.3,15.6,85.6,16.5,85.6,17.6z M80.1,17.6
		c0,0.9,0.2,1.6,0.6,2c0.4,0.5,0.9,0.7,1.6,0.7c0.7,0,1.3-0.2,1.6-0.7c0.4-0.5,0.6-1.1,0.6-2c0-0.9-0.2-1.6-0.6-2
		c-0.4-0.5-0.9-0.7-1.6-0.7c-0.7,0-1.3,0.2-1.6,0.7C80.3,16,80.1,16.7,80.1,17.6z"/>
	<path fill="#FFFFFF" d="M91.2,14c0.3,0,0.6,0,0.9,0.1l-0.2,1C91.6,15,91.3,15,91.1,15c-0.6,0-1.1,0.2-1.5,0.7
		c-0.4,0.5-0.6,1-0.6,1.7v3.7h-1.1v-7h0.9l0.1,1.3H89c0.3-0.5,0.6-0.8,1-1C90.3,14.1,90.7,14,91.2,14z"/>
	<path fill="#FFFFFF" d="M96.8,21.2c-1.1,0-1.9-0.3-2.5-0.9s-0.9-1.5-0.9-2.6c0-1.1,0.3-2,0.9-2.7c0.6-0.7,1.3-1,2.3-1
		c0.9,0,1.6,0.3,2.2,0.9c0.5,0.6,0.8,1.3,0.8,2.3v0.7h-5c0,0.8,0.2,1.4,0.6,1.9c0.4,0.4,1,0.6,1.7,0.6c0.8,0,1.5-0.2,2.3-0.5v0.9
		c-0.4,0.2-0.8,0.3-1.1,0.3C97.7,21.2,97.3,21.2,96.8,21.2z M96.5,14.9c-0.6,0-1,0.2-1.4,0.5c-0.3,0.4-0.5,0.9-0.6,1.5h3.8
		c0-0.7-0.2-1.2-0.5-1.5C97.5,15.1,97.1,14.9,96.5,14.9z"/>
</g>
</svg>
