<?xml version="1.0" encoding="utf-8"?>
<!-- Generator: Adobe Illustrator 18.1.1, SVG Export Plug-In . SVG Version: 6.00 Build 0)  -->
<!DOCTYPE svg PUBLIC "-//W3C//DTD SVG 1.1//EN" "http://www.w3.org/Graphics/SVG/1.1/DTD/svg11.dtd">
<svg version="1.1" id="Layer_1" xmlns="http://www.w3.org/2000/svg" xmlns:xlink="http://www.w3.org/1999/xlink" x="0px" y="0px"
	 viewBox="0 0 372.1 116.5" enable-background="new 0 0 372.1 116.5" xml:space="preserve">
<g>
	<g>
		<g>
			<path fill="#005eb8" d="M250.6,0c-1,0-1.9,0.8-1.9,1.9v13.1h34.5L267.6,0H250.6z"/>
			<path fill="#005eb8" d="M284.5,18.9c0-1-0.8-1.9-1.9-1.9h-13.1v34.5l14.9-15.7V18.9z"/>
			<path fill="#005eb8" d="M265.6,52.8c1,0,1.9-0.8,1.9-1.9V37.9H233l15.7,14.9L265.6,52.8z"/>
			<path fill="#005eb8" d="M231.7,33.9c0,1,0.8,1.9,1.9,1.9h13.1V1.3L231.7,17L231.7,33.9z"/>
		</g>
		<g>
			<polygon points="73.7,6.3 73.7,22.2 51.5,22.2 51.5,6.3 43.4,6.3 43.4,46.5 51.5,46.5 51.5,29.2 73.7,29.2 73.7,46.5 81.8,46.5 
				81.8,6.3 			"/>
			<polygon points="181.3,6.3 181.3,46.5 216.8,46.5 212.4,39.4 189.5,39.4 189.5,29.2 211.6,29.2 211.6,22.4 189.5,22.4 
				189.5,13.2 212.3,13.2 216.7,6.3 			"/>
			<g>
				<path d="M13.4,6.3C5,6.3,0.7,11.4,0.7,18.9v15c0,8.6,5.5,12.6,12.6,12.6l25.4,0L34,39.1H14.9c-4.1,0-5.8-1.5-5.8-6V19.5
					c0-4.4,1.5-6.1,5.9-6.1h19.2l4.5-7.1H13.4z"/>
				<path d="M145.9,6.3c-4.9,0-9.8,2.9-9.8,10.4v1.9c0,7.8,4.8,10.8,9.6,10.8h16.8c1.8,0,3.2,0.3,3.2,3.2v3.4c0,2.7-1.4,3.3-3.2,3.3
					h-22.1l-4.5,7.1h27.2c6.6,0,11-3.3,11-10.8v-2.8c0-7.3-4.1-10.7-10.6-10.7h-16.1c-1.8,0-3-0.5-3-3.1l0-2.8
					c0-2.3,0.9-3.1,2.9-3.1l21.1,0l4.4-6.9L145.9,6.3z"/>
			</g>
			<path d="M105.3,6.3L86.3,46.5h9l3.7-8.3h20.7l3.7,8.3h9L113.4,6.3H105.3z M109.3,14.7l7.3,16.7h-14.6L109.3,14.7z"/>
		</g>
	</g>
	<g>
		<path d="M3.2,89.6l0.4-3.4c0.3-2.8,2.2-4.7,7.4-4.7h0.2c0.3,0,0.4,0.1,0.4,0.5l-0.1,0.8c0,0.3-0.2,0.5-0.5,0.5h-0.2
			c-3.8,0-5.1,1.3-5.3,3.2l-0.4,3.2h4.5c0.3,0,0.5,0.1,0.5,0.4L10,90.8c0,0.3-0.2,0.5-0.5,0.5H5.1L2,116c0,0.3-0.2,0.5-0.5,0.5H0.4
			c-0.3,0-0.4-0.2-0.4-0.5l3.1-24.7H0.6c-0.3,0-0.5-0.1-0.4-0.5l0.1-0.6c0-0.3,0.2-0.5,0.5-0.5l2.1-0.1H3.2z"/>
		<path d="M16.7,94c0.3-2.8,2.2-4.8,7.5-4.8c4.6,0,6.4,1.6,6.4,4.1c0,0.2,0,0.3,0,0.7l-1.3,10.1c-0.3,2.8-2.2,4.7-7.5,4.7
			c-4.6,0-6.4-1.6-6.4-4.1c0-0.2,0-0.4,0-0.7L16.7,94z M28.6,94.1c0-0.3,0-0.4,0-0.5c0-1.7-1.2-2.7-4.6-2.7c-3.8,0-5.1,1.3-5.3,3.2
			l-1.2,9.8c0,0.2,0,0.3,0,0.5c0,1.7,1.2,2.7,4.6,2.7c3.8,0,5.1-1.3,5.3-3.2L28.6,94.1z"/>
		<path d="M49.4,89.8l-0.1,1c0,0.3-0.2,0.4-0.5,0.4c-3,0.1-5.7,1.8-6.8,2.6L40.2,108c0,0.3-0.2,0.5-0.5,0.5h-1.1
			c-0.3,0-0.4-0.1-0.4-0.5l2.2-18c0-0.3,0.2-0.5,0.5-0.5h1c0.3,0,0.5,0.2,0.4,0.5l-0.2,2.1c1.2-1,3.9-2.8,6.8-2.8
			C49.3,89.3,49.4,89.5,49.4,89.8z"/>
		<path d="M65.3,108.5c-0.5,0-0.7-0.2-0.7-0.7V68.9c0-0.5,0.2-0.7,0.7-0.7h10c9.6,0,12.4,3.5,12.4,8.1v4c0,3.3-1.5,5.8-5.6,7.1
			c5,1,7.2,3.6,7.2,7.4v5.5c0,4.7-2.8,8.3-12.4,8.3H65.3z M67.7,70.8v15.5H76c6.3,0,8.6-2.5,8.6-6.1v-3.6c0-3.6-2.3-5.9-9.3-5.9
			H67.7z M67.7,88.9v16.9h9.1c7,0,9.3-2.4,9.3-6.1v-4.9c0-3.5-2.3-6-9.3-6H67.7z"/>
		<path d="M106.9,100.1c0,3.6,2.3,6.1,9.3,6.1c6.9,0,9.3-2.5,9.3-6.1V68.9c0-0.5,0.2-0.7,0.7-0.7h1.8c0.5,0,0.7,0.2,0.7,0.7v31.7
			c0,4.6-2.8,8.4-12.4,8.4c-9.5,0-12.4-3.7-12.4-8.4V68.9c0-0.5,0.2-0.7,0.7-0.7h1.8c0.5,0,0.7,0.2,0.7,0.7V100.1z"/>
		<path d="M164.9,76.4c0-3.6-2-6.1-8.8-6.1c-6.9,0-8.8,2.5-8.8,6.1v2.2c0,3,2.1,4.4,3.7,5l11.4,4.3c3,1.1,5.9,3.4,5.9,7.4v5.2
			c0,4.6-2.8,8.4-12.3,8.4c-9.4,0-12.3-3.7-12.3-8.4v-3.1c0-0.5,0.2-0.8,0.7-0.8h1.7c0.5,0,0.7,0.2,0.7,0.8v2.7
			c0,3.6,2.2,6.1,9.1,6.1c7,0,9.3-2.5,9.3-6.1V96c0-3.2-2.6-4.6-4.9-5.5l-11-4.3c-2.4-0.9-5.1-3.3-5.1-7V76c0-4.6,2.6-8.4,11.9-8.4
			c9.3,0,11.9,3.7,11.9,8.4v2.9c0,0.5-0.2,0.7-0.7,0.7h-1.7c-0.5,0-0.7-0.2-0.7-0.7V76.4z"/>
		<path d="M187.3,107.8c0,0.5-0.2,0.7-0.7,0.7h-1.8c-0.5,0-0.7-0.2-0.7-0.7V68.9c0-0.5,0.2-0.7,0.7-0.7h1.8c0.5,0,0.7,0.2,0.7,0.7
			V107.8z"/>
		<path d="M229.9,107.8c0,0.5-0.2,0.7-0.7,0.7h-1.6c-0.4,0-0.5-0.1-0.7-0.4l-17-30.2c-0.9-1.4-1.8-3.4-1.9-3.6v33.4
			c0,0.5-0.2,0.7-0.7,0.7h-1.6c-0.5,0-0.7-0.2-0.7-0.7V68.9c0-0.5,0.2-0.7,0.7-0.7h1.6c0.3,0,0.5,0.1,0.6,0.3l17.1,30.4
			c0.5,0.9,1.7,3.4,1.7,3.4V68.9c0-0.5,0.2-0.7,0.7-0.7h1.6c0.5,0,0.7,0.2,0.7,0.7V107.8z"/>
		<path d="M247.6,108.5c-0.4,0-0.7-0.2-0.7-0.7V68.9c0-0.5,0.2-0.7,0.7-0.7h20.2c0.5,0,0.7,0.2,0.7,0.7v1.3c0,0.5-0.2,0.7-0.7,0.7
			h-17.8v15.1h16.7c0.5,0,0.7,0.2,0.7,0.7v1.2c0,0.5-0.2,0.7-0.7,0.7h-16.7v17.1h18.5c0.5,0,0.7,0.2,0.7,0.7v1.3
			c0,0.5-0.2,0.7-0.7,0.7H247.6z"/>
		<path d="M303.7,76.4c0-3.6-2-6.1-8.8-6.1s-8.8,2.5-8.8,6.1v2.2c0,3,2.1,4.4,3.7,5l11.4,4.3c3,1.1,5.9,3.4,5.9,7.4v5.2
			c0,4.6-2.8,8.4-12.3,8.4c-9.4,0-12.3-3.7-12.3-8.4v-3.1c0-0.5,0.2-0.8,0.7-0.8h1.7c0.5,0,0.7,0.2,0.7,0.8v2.7
			c0,3.6,2.2,6.1,9.1,6.1c7,0,9.3-2.5,9.3-6.1V96c0-3.2-2.6-4.6-4.9-5.5l-11-4.3c-2.4-0.9-5.1-3.3-5.1-7V76c0-4.6,2.6-8.4,11.9-8.4
			c9.3,0,11.9,3.7,11.9,8.4v2.9c0,0.5-0.2,0.7-0.7,0.7h-1.7c-0.5,0-0.7-0.2-0.7-0.7V76.4z"/>
		<path d="M341.1,76.4c0-3.6-2-6.1-8.8-6.1c-6.9,0-8.8,2.5-8.8,6.1v2.2c0,3,2.1,4.4,3.7,5l11.4,4.3c3,1.1,5.9,3.4,5.9,7.4v5.2
			c0,4.6-2.8,8.4-12.3,8.4c-9.4,0-12.3-3.7-12.3-8.4v-3.1c0-0.5,0.2-0.8,0.7-0.8h1.7c0.5,0,0.7,0.2,0.7,0.8v2.7
			c0,3.6,2.2,6.1,9.1,6.1c7,0,9.3-2.5,9.3-6.1V96c0-3.2-2.6-4.6-4.9-5.5l-11-4.3c-2.4-0.9-5.1-3.3-5.1-7V76c0-4.6,2.6-8.4,11.9-8.4
			c9.3,0,11.9,3.7,11.9,8.4v2.9c0,0.5-0.2,0.7-0.7,0.7h-1.7c-0.5,0-0.7-0.2-0.7-0.7V76.4z"/>
	</g>
	<g>
		<path d="M360.4,75.8c0,0.8-0.3,1.5-0.9,2c-0.6,0.5-1.4,0.7-2.5,0.7c-1.1,0-1.9-0.2-2.6-0.5v-1.5c0.4,0.2,0.9,0.4,1.4,0.5
			c0.5,0.1,0.9,0.2,1.4,0.2c0.6,0,1.1-0.1,1.4-0.3c0.3-0.2,0.4-0.5,0.4-0.9c0-0.4-0.1-0.6-0.4-0.9c-0.3-0.2-0.8-0.5-1.6-0.9
			c-0.9-0.3-1.5-0.7-1.8-1.2c-0.4-0.4-0.5-1-0.5-1.6c0-0.8,0.3-1.4,0.8-1.9s1.3-0.7,2.2-0.7c0.9,0,1.8,0.2,2.7,0.6l-0.5,1.3
			c-0.8-0.4-1.6-0.5-2.2-0.5c-0.5,0-0.9,0.1-1.1,0.3S356,71,356,71.3c0,0.2,0.1,0.5,0.2,0.6c0.1,0.2,0.3,0.3,0.5,0.5
			c0.2,0.2,0.7,0.4,1.3,0.6c0.7,0.3,1.2,0.6,1.5,0.8s0.6,0.5,0.7,0.8C360.4,75,360.4,75.4,360.4,75.8z"/>
		<path d="M366.5,78.4l-2.7-7.9h-0.1c0.1,1.2,0.1,2.3,0.1,3.3v4.6h-1.4v-9.4h2.2l2.6,7.5h0l2.7-7.5h2.2v9.4h-1.5v-4.7
			c0-0.5,0-1.1,0-1.8c0-0.8,0-1.2,0.1-1.4h-0.1l-2.8,7.9H366.5z"/>
	</g>
</g>
</svg>
