<svg xmlns="http://www.w3.org/2000/svg" viewBox="0 0 320 61"><g fill="#FFF"><path d="M29.389 18.455h11.656c3.57 0 5.53 1.974 5.53 5.57v13.43c0 3.595-1.96 5.568-5.53 5.568H29.389V18.455zm11.2 20.585c.946 0 1.436-.493 1.436-1.444V23.883c0-.951-.49-1.445-1.435-1.445h-6.651V39.04h6.65zM57.18 43.164c-3.324 0-5.145-1.832-5.145-5.18V23.495c0-3.349 1.82-5.182 5.146-5.182h6.895c3.326 0 5.146 1.833 5.146 5.182v14.487c0 3.349-1.82 5.181-5.146 5.181h-6.895zm-.595-5.322c0 .917.49 1.41 1.366 1.41h5.355c.91 0 1.365-.493 1.365-1.375V23.602c0-.917-.455-1.375-1.365-1.375h-5.355c-.91 0-1.366.458-1.366 1.375v14.24zM99.08 18.455v5.64c0 .916-.28 1.798-.35 2.115l-4.621 16.813h-4.516l-3.01-10.856-2.975 10.856h-4.55L74.435 26.21c-.07-.317-.35-1.199-.35-2.115v-5.64h4.341v5.076c0 .81.07 1.163.175 1.622l2.905 11.561 2.836-11.562c.105-.458.21-.81.21-1.621v-5.076h4.095v5.252c0 .494.105 1.058.21 1.445l2.835 11.562 2.871-11.562c.105-.458.175-.81.175-1.621v-5.076h4.34zM108.564 27.162v15.861h-4.27V18.455h4.2l8.716 15.827V18.455h4.27v24.569h-4.165l-8.75-15.862zM127.676 18.455h4.55V39.04h9.941v3.983h-14.491V18.455zM151.057 43.164c-3.325 0-5.145-1.832-5.145-5.18V23.495c0-3.349 1.82-5.182 5.145-5.182h6.896c3.324 0 5.145 1.833 5.145 5.182v14.487c0 3.349-1.82 5.181-5.145 5.181h-6.896zm-.595-5.322c0 .917.49 1.41 1.365 1.41h5.356c.91 0 1.365-.493 1.365-1.375V23.602c0-.917-.455-1.375-1.365-1.375h-5.356c-.91 0-1.365.458-1.365 1.375v14.24zM167.718 43.023V37.49c0-.916.314-1.903.42-2.22l5.985-16.85h4.796l5.95 16.85c.106.282.42 1.304.42 2.22v5.534h-4.41v-5.392h-8.89v5.392h-4.271zm5.32-9.199h6.791l-3.395-10.505-3.396 10.505zM190.4 18.455h11.656c3.57 0 5.53 1.974 5.53 5.57v13.43c0 3.595-1.96 5.568-5.53 5.568h-11.657V18.455zm11.2 20.585c.946 0 1.436-.493 1.436-1.444V23.883c0-.951-.49-1.445-1.435-1.445h-6.65V39.04h6.65zM226.417 27.162v15.861h-4.27V18.455h4.2l8.715 15.827V18.455h4.271v24.569h-4.165l-8.751-15.862zM250.323 43.164c-3.325 0-5.145-1.832-5.145-5.18V23.495c0-3.349 1.82-5.182 5.145-5.182h6.897c3.325 0 5.145 1.833 5.145 5.182v14.487c0 3.349-1.82 5.181-5.145 5.181h-6.897zm-.595-5.322c0 .917.49 1.41 1.366 1.41h5.355c.91 0 1.365-.493 1.365-1.375V23.602c0-.917-.455-1.375-1.365-1.375h-5.355c-.91 0-1.366.458-1.366 1.375v14.24zM292.222 18.455v5.64c0 .916-.28 1.798-.35 2.115l-4.621 16.813h-4.516l-3.01-10.856-2.975 10.856h-4.55l-4.62-16.813c-.071-.317-.352-1.199-.352-2.115v-5.64h4.341v5.076c0 .81.07 1.163.175 1.622l2.905 11.561 2.836-11.562c.105-.458.21-.81.21-1.621v-5.076h4.095v5.252c0 .494.105 1.058.21 1.445l2.836 11.562 2.87-11.562c.104-.458.175-.81.175-1.621v-5.076h4.34z"/></g></svg>