<svg xmlns="http://www.w3.org/2000/svg" viewBox="0 332.5873 612.0001 126.8255"><path fill="#F89E1B" d="M101.263 332.587l13.19 18.742h-26.38z"/><g fill="#42484C"><path d="M329.405 351.916l-10.49 24.899-10.925-24.899h-11.453l-10.833 24.582-10.317-24.582h-17.423l21.578 48.913h10.917l11.052-24.629 10.833 24.629h11.71l21.382-48.913zM572.241 351.916v17.195h-29.985v-17.195h-16.73v48.913h16.73v-18.89h29.985v18.89h16.641v-48.913zM365.323 351.916l-32.84 48.913h18.178l20.358-31.503 20.195 31.503h18.723l-31.974-48.913zM137.656 351.916h-18.462l-18.667 29.78-18.323-29.78H63.277l30.897 48.913h11.411zM397.027 351.916v12.827h21.275v36.086h16.73v-36.086h16.808l8.491-12.827zM56.519 352.708c-1.738-.531-3.685-.792-5.78-.792H13.73c-8.467 0-13.73 4.248-13.73 11.085v26.743c0 4.005 2.04 7.284 5.738 9.24l.708.373 10.2-10.302v-24.312h31.186v23.204H24.908l-12.892 12.882H50.74c8.136 0 13.818-4.555 13.818-11.085V364.39l-7.666-11.57-.372-.111zM504.745 351.916h-33.408a21.2 21.2 0 0 0-2.655.167l-.498.056-1.458 2.226v-.009l-9.11 13.898v21.49c0 6.53 5.64 11.085 13.72 11.085h33.409c7.876 0 13.814-4.76 13.814-11.085v-8.402h-16.725v6.604h-27.586v-23.203h27.586v5.71h16.725v-7.387c0-6.772-5.421-11.15-13.814-11.15zM136.72 364.128v36.7h51.875v-12.882H153.45v-6.157h23.702v-11.206H153.45v-5.84h35.145v-12.827h-43.347zM242.552 382.469c5.966-.251 12.384-3.13 12.384-8.877l-.018-11.653c0-6.185-4.816-10.023-12.57-10.023H195.94v48.913h16.664v-36.356h25.258c.466 0 .764.018.94.046.01.13.01.326.01.513v7.153c0 .122-.004.186-.01.224l-.009.018c-.2.15-.615.178-.931.178h-17.69v9.836l20.535 18.388h22.887l-21.042-18.36z"/></g><path fill="#F89E1B" d="M371.224 419.57L358.04 400.83h26.37z"/><path fill="#42484C" d="M71.615 425.573H67.3c-3.597 0-5.91 1.932-6.94 5.797l-5.945 22.293c-1.023 3.834.28 5.75 3.907 5.75h4.222c3.627 0 5.952-1.916 6.975-5.75l5.945-22.293c1.03-3.865-.253-5.797-3.849-5.797zm-.73 6.08l-5.781 21.68c-.352 1.32-1.123 1.98-2.31 1.98h-2.3c-1.344 0-1.84-.66-1.488-1.98l5.781-21.68c.352-1.32 1.185-1.98 2.499-1.98h2.11c1.344 0 1.841.66 1.49 1.98zM111.153 425.573h-8.819l-9.024 33.84h4.502l3.645-13.668h2.721l-.69 13.668h4.269l.615-14.093c1.992-.784 3.382-2.654 4.17-5.608l2.224-8.342c1.03-3.865-.174-5.797-3.613-5.797zm-1.09 6.55l-1.949 7.306c-.436 1.634-1.327 2.451-2.67 2.451h-2.956l3.255-12.207h2.955c1.345 0 1.8.818 1.364 2.45zM132.624 459.413h4.503l9.024-33.84h-4.503zM179.803 425.573h-3.096c-3.471 0-5.722 1.932-6.753 5.797l-5.957 22.34c-1.014 3.802.214 5.703 3.685 5.703h8.82l4.398-16.496h-6.848l-1.094 4.1h2.346l-2.213 8.296h-3.049c-1.313 0-1.752-.817-1.316-2.451l5.53-20.738c.436-1.633 1.31-2.45 2.624-2.45h1.125c1.282 0 1.706.817 1.27 2.45l-.804 3.016h4.503l.98-3.676c1.048-3.927-.336-5.891-4.151-5.891zM201.794 459.413h4.503l9.025-33.84h-4.503zM246.82 441.927l-.47-16.354h-4.502l-9.025 33.84h4.503l5.907-22.152.722 15.412-1.797 6.74h4.503l9.024-33.84h-4.503zM289.151 425.573h-2.815c-3.596 0-5.91 1.932-6.94 5.797l-1.848 6.928c-.234.88-.331 1.595-.29 2.145.041.55.227.997.556 1.343.33.346.897.77 1.702 1.272l3.627 2.404c.47.346.801.629.994.849.19.22.203.644.036 1.272l-1.534 5.75c-.352 1.32-1.122 1.98-2.31 1.98h-.798c-1.344 0-1.84-.66-1.489-1.98l.49-1.838h-4.503l-.452 1.697c-1.106 4.147.139 6.22 3.735 6.22h2.768c3.627 0 5.948-1.9 6.962-5.702l1.923-7.211c.318-1.194.424-2.003.319-2.427a2.221 2.221 0 0 0-.626-1.084c-.312-.298-.865-.714-1.66-1.25l-3.653-2.309c-.471-.345-.802-.628-.993-.848-.193-.22-.204-.644-.036-1.273l1.496-5.608c.36-1.35 1.18-2.027 2.463-2.027h.704c1.313 0 1.79.676 1.43 2.027l-.792 2.97h4.503l.88-3.3c1.03-3.865-.253-5.797-3.849-5.797zM332.207 459.413h11.163l1.094-4.1h-6.661l3.004-11.265h5.91l1.094-4.1h-5.91l2.74-10.275h6.66l1.094-4.1h-11.164zM382.996 425.573h-7.833l-9.024 33.84h8.771c3.596 0 5.83-1.634 6.702-4.902l5.982-22.434c1.157-4.336-.376-6.504-4.598-6.504zm.083 6.55l-5.782 21.681c-.268 1.006-.997 1.508-2.185 1.508h-3.377l6.837-25.639h3.143c1.345 0 1.8.818 1.364 2.45zM401.71 459.413h4.504l9.024-33.84h-4.503zM432.597 429.673h4.316l-7.931 29.74h4.503l7.93-29.74h4.316l1.094-4.1H433.69zM460.568 459.413h4.503l9.025-33.84h-4.504zM505.377 425.573h-4.315c-3.597 0-5.91 1.932-6.94 5.797l-5.945 22.293c-1.023 3.834.28 5.75 3.907 5.75h4.222c3.627 0 5.952-1.916 6.975-5.75l5.945-22.293c1.03-3.865-.253-5.797-3.849-5.797zm-.73 6.08l-5.782 21.68c-.351 1.32-1.122 1.98-2.31 1.98h-2.298c-1.345 0-1.841-.66-1.49-1.98l5.782-21.68c.352-1.32 1.185-1.98 2.498-1.98h2.111c1.344 0 1.841.66 1.49 1.98zM541.672 425.573l-4.361 16.354-.47-16.354h-4.503l-9.025 33.84h4.504l5.907-22.152.721 15.412-1.797 6.74h4.503l9.025-33.84z"/><g><path fill="#42484C" d="M603.168 351.197c1.532 0 2.974.4 4.328 1.199a9.103 9.103 0 0 1 3.292 3.307A8.83 8.83 0 0 1 612 360.21a8.868 8.868 0 0 1-1.212 4.52 8.845 8.845 0 0 1-3.32 3.279 8.826 8.826 0 0 1-4.49 1.2 8.896 8.896 0 0 1-4.52-1.213 8.852 8.852 0 0 1-3.307-3.282 8.745 8.745 0 0 1-1.226-4.491c0-1.712.455-3.29 1.367-4.737.876-1.387 2.075-2.476 3.6-3.267a9.183 9.183 0 0 1 4.276-1.021zm.012 1.492c-1.412 0-2.754.38-4.02 1.136a7.285 7.285 0 0 0-2.784 2.962 7.468 7.468 0 0 0-.817 3.422c0 1.352.346 2.621 1.034 3.803a7.366 7.366 0 0 0 2.744 2.731 7.203 7.203 0 0 0 3.64.972 7.136 7.136 0 0 0 3.625-.972 7.278 7.278 0 0 0 2.744-2.718 7.52 7.52 0 0 0 1.021-3.816c0-2.223-.83-4.098-2.488-5.63a7.111 7.111 0 0 0-2.566-1.52c-.75-.245-1.46-.37-2.133-.37zm-3.625 2.286h2.146c1.149 0 1.99.05 2.526.152s.971.293 1.301.576c.649.543.972 1.34.972 2.386 0 1.66-.761 2.676-2.286 3.052l3.205 4.288h-2.847l-2.719-3.93v3.93h-2.298v-10.454zm2.298 1.877v2.744h.218c.731 0 1.217-.073 1.455-.218.373-.22.56-.6.56-1.136 0-.519-.135-.882-.408-1.084-.273-.206-.748-.306-1.43-.306h-.395z"/></g></svg>