<svg id="artwork" xmlns="http://www.w3.org/2000/svg" viewBox="0 0 892.9 281.5"><style>.st0{fill:#fff}</style><title>logo-pier1</title><path class="st0" d="M208.6 95.5c0 8.1-2.4 14.5-10.3 15.7v11.4h9.1v63.1H221V95.5h-12.4zm-108.1 90.2h13.3v-74.5h-13.3v34.6zm0-77.2h13.3v-13h-13.3v8.1zm45.5 4.3c-1.4-.7-3-1.2-4.6-1.4-1.5-.2-2.9-.2-4.4-.2h-2.3v8l.3-.1c.7-.1 1.3-.1 2 0 2.5.4 2.3 3 2.3 3v16.2c.1 1.4-1 2.6-2.3 2.8h-2.4v8.7h18v-23.9c.1-7.6-3.1-11.1-6.6-13.1m-19.9-.1c-3.6 2-6.7 5.6-6.7 13.2v45c0 7.6 3.1 11.1 6.7 13.2 1.4.7 3 1.2 4.6 1.4.6.1 1.3.1 2 .2v-74.5c-.7 0-1.3.1-2 .2-1.6.2-3.2.6-4.6 1.3m13.2 62.1s.2 2.7-2.3 3c-.7.1-1.3.1-2 0l-.3-.1v8h2.3c1.5 0 2.9 0 4.4-.2 1.6-.2 3.1-.7 4.6-1.4 3.6-2 6.7-5.6 6.7-13.2v-10h-13.3v13.9zm40.3-64.1c-2 0-4 .8-5.5 2.1v5.8c4.4-1 3.9 2 3.9 4.8v8.7h12.3v-7.5c-.1-10.7-3.1-14.3-10.7-13.9m-20.8 75h13.4v-74.6h-13.4v74.6zm-100.2 0h14.6V95.5H58.6v90.2zm28.5-88.4c-1.7-.8-3.5-1.4-5.4-1.6-1.2-.2-4.1-.2-5.8-.2h-.8v8.5c3.3-.4 4.8.4 5.5 1.4.4.7.6 1.5.6 2.3v30c0 .8-.2 1.6-.6 2.3-.7 1-2.2 1.8-5.5 1.4v8.5h.8c1.7 0 4.5-.1 5.8-.2 1.9-.2 3.7-.8 5.4-1.6 4.2-2.4 7.9-6.5 7.9-15.4V113c0-9.1-3.7-13.3-7.9-15.7m141.3-1.8v.5H227v3.8h-.6V96h-1.3v-.6h3.3zm4.3 4.4l-.2-2.6v-1.2c-.1.4-.2.9-.4 1.3l-.9 2.5h-.5l-.9-2.6-.3-1.2v1.2l-.2 2.6h-.6l.3-4.4h.9l.9 2.4c.1.3.2.7.3 1.1.1-.4.2-.8.3-1.1l.9-2.4h.9l.3 4.4h-.8z"/><path class="st0" d="M276.4 5.1v271.4H5.1V5.1h271.3m5.1-5.1H0v281.5h281.5V0zm87 109.1c0-6.1-.2-7.7-5.4-7.7-12.9 0-17.6 4.2-21.4 7.4-1 .9-2.5 2.5-4 2.5-1.7 0-2.5-1.2-2.5-2.7 0-2.7.6-5.2 1.2-9 .6-3.6 1.1-4.5 4.3-4.5h66.6c3.2 0 3.7.9 4.3 4.5.6 3.8 1.2 6.3 1.2 9 0 1.5-.7 2.7-2.5 2.7-1.5 0-3-1.6-4-2.5-3.8-3.2-8.5-7.4-21.4-7.4-5.2 0-5.4 1.6-5.4 7.7v62.5c0 6.2 0 6.8 2.2 7.5 3.6 1.2 5.2 1.6 5.2 3.7 0 2.7-2.4 2.9-4.5 2.9h-17.2c-2.1 0-4.5-.2-4.5-2.9 0-2 1.5-2.5 3.7-3.1 3.8-1.1 3.8-2.4 3.8-9.2l.3-61.4zm54.9-3.4c0-4.1-2.4-4.6-4.7-5.4-.9-.2-2-.7-2-1.9 0-1.5 1.4-2 2.5-2.6 2.2-1.2 8.3-3.8 10.6-3.8 2.9 0 2.9 2.7 2.9 5.2v37.1c5.5-5.1 12.7-8 20.2-8 6-.1 11.8 2.3 16 6.7 4.5 4.9 5.1 10.8 5.1 17.2v20.3c0 6.8.5 8.5 2.2 9.2 3 1.1 4.1 1.6 4.1 3.2-.1 1.7-1.5 2.9-3.1 2.9h-13.6c-2.1 0-4.6.9-4.6-2.9 0-1.4.9-1.9 2-2.5l1.2-.6c2.1-1 2.5-3 2.5-9.3v-22.6c0-9.4-5.1-14.7-14.1-14.7-7.5 0-12.5 2.9-17.8 7.9v29.4c0 6.6 0 8.4 2.9 9.4 2.5.9 3.7 1.4 3.7 3 0 1.9-1.5 2.9-3.2 2.9h-14.5c-2.1 0-4.7 0-4.7-2.9 0-1.5 1-2 3.3-2.9s3.2-2 3.2-9.5l-.1-64.8zm69 40.4c0-5.2 0-8.8-4.6-9.6-1.9-.4-3.3-.9-3.3-2.4s.5-2.4 7.8-5.7c1.4-.6 4.2-2.1 5.7-2.1 1.9 0 3.7 0 3.7 15.5v28.7c0 7 .1 8.4 3.1 9.5 2 .7 3.2 1.2 3.2 3 0 2.5-1.9 2.7-4.1 2.7h-14c-2 0-4.2-.2-4.2-2.7 0-1.6 1-2.2 2.3-2.6 4.2-1.1 4.3-3 4.3-8l.1-26.3zm-4-36.2c0-3.7 2.9-6.7 6.6-6.7h.4c3.6-.1 6.5 2.7 6.7 6.2v.2c0 4.3-3 7.1-7.2 7.1-3.8.1-6.4-3-6.5-6.8zm45.7 71.7c5.9 0 12.9-3.5 12.9-10.3 0-15.7-33-4.9-33-27.4 0-9.5 8.3-17.7 20.8-17.7 5.4 0 10.7 1.3 15.3 4 2.3 1.4 2.5 2.9 2.5 5.6 0 1.2.5 5.6-1.6 5.6-3.6 0-6.6-9.3-17.6-9.3-5.5 0-11.6 2.7-11.6 8.9 0 13.7 33.9 5.3 33.9 26.6 0 12.5-11.4 19.9-22.9 19.9-9 0-21-5.6-21-13 0-1.6 1.4-3.6 3.1-3.6 5 0 5 5.8 9.3 7.8 3 1.5 7 2.9 9.9 2.9zm72.4-35.5c0-5.2 0-8.8-4.6-9.6-1.9-.4-3.3-.9-3.3-2.4s.5-2.4 7.8-5.7c1.4-.6 4.2-2.1 5.7-2.1 1.9 0 3.7 0 3.7 15.5v28.7c0 7 .1 8.4 3.1 9.5 2 .7 3.2 1.2 3.2 3 0 2.5-1.9 2.7-4.1 2.7h-14c-2 0-4.2-.2-4.2-2.7 0-1.6 1-2.2 2.3-2.6 4.2-1.1 4.3-3 4.3-8l.1-26.3zm-4-36.2c0-3.7 2.9-6.7 6.6-6.7h.3c3.6-.1 6.5 2.7 6.7 6.2v.2c0 4.3-3 7.1-7.2 7.1-3.7.1-6.3-3-6.4-6.8zm45.7 71.7c5.9 0 12.9-3.5 12.9-10.3 0-15.7-33-4.9-33-27.4 0-9.5 8.3-17.7 20.8-17.7 5.4 0 10.7 1.3 15.3 4 2.3 1.4 2.5 2.9 2.5 5.6 0 1.2.5 5.6-1.6 5.6-3.6 0-6.6-9.3-17.6-9.3-5.5 0-11.6 2.7-11.6 8.9 0 13.7 33.9 5.3 33.9 26.6 0 12.5-11.4 19.9-22.9 19.9-9 0-21-5.6-21-13 0-1.6 1.4-3.6 3.1-3.6 5 0 5 5.8 9.3 7.8 2.9 1.5 6.9 2.9 9.9 2.9zm156.6-11.1c0 6.6 0 8.4 2.8 9.4 2.5.9 3.7 1.4 3.7 3 0 1.9-1.5 2.9-3.2 2.9h-14.5c-2.1 0-4.7 0-4.7-2.9 0-1.5 1-2 3.3-2.9s3.2-2 3.2-9.5V151c0-8.9-1.5-17.9-12.4-17.9-4.1 0-9 2.1-12.5 5.2-3.7 3.5-4 6.9-4 11.8v20.4c0 6.6 0 8.4 2.8 9.4 2.5.9 3.7 1.4 3.7 3 0 1.9-1.5 2.9-3.2 2.9h-14.5c-2.1 0-4.7 0-4.7-2.9 0-1.5 1-2 3.3-2.9s3.2-2 3.2-9.5V151c0-8.9-1.5-17.9-12.4-17.9-4.1 0-9 2.1-12.5 5.2-3.7 3.5-4 6.9-4 11.8v20.4c0 6.6 0 8.4 2.8 9.4 2.5.9 3.7 1.4 3.7 3 0 1.9-1.5 2.9-3.2 2.9h-14.4c-2.1 0-4.7 0-4.7-2.9 0-1.5 1-2 3.3-2.9s3.2-2 3.2-9.5v-25c0-5.8-.4-7.9-2.6-8.7-2.5-.9-4.2-1.4-4.2-2.7 0-1.9 1.9-3.1 3.1-4.1 1.5-1.1 4.3-3.7 6.3-3.7 3.1 0 4.3 3.7 5.2 10.8 5.8-7.3 12.1-10.8 21.7-10.8 6.7 0 12.8 4.3 16.3 10.9 4.6-6.7 12.2-10.8 20.3-10.9 5.7-.1 11.1 2.2 14.8 6.4 4 4.6 4.6 11.4 4.6 17.3l.4 20.5zm40.4 10c13.7 0 17.9-10.4 21.3-10.4 1.3 0 2.3 1 2.3 2.2 0 3.5-5.2 7.8-7.8 9.5-5.2 3.6-11.4 5.6-17.8 5.7-16.2 0-29.2-11.6-29.2-28.2-.1-18.1 14.5-32.9 32.6-33h.2c12.6 0 20.3 7.9 20.3 15.7 0 8.9-7.4 14.1-14.8 17-7.9 3.1-16.8 4.1-27.6 5.2 1.8 10.1 10.6 16.3 20.5 16.3zm12-38.7c0-6.6-5.1-9.4-11-9.4-15.2 0-22.4 12.6-22.3 26.5 10.4-1.1 33.3-3.3 33.3-17.1zm22.5 38.1c0-3.5 2.9-6.4 6.4-6.4h.2c3.7 0 6.6 2.9 6.7 6.5v.3c-.1 3.6-3.1 6.4-6.7 6.4s-6.5-2.9-6.6-6.5v-.3z"/></svg>