<?xml version="1.0" encoding="utf-8"?>
<!-- Generator: Adobe Illustrator 18.1.1, SVG Export Plug-In . SVG Version: 6.00 Build 0)  -->
<!DOCTYPE svg PUBLIC "-//W3C//DTD SVG 1.1//EN" "http://www.w3.org/Graphics/SVG/1.1/DTD/svg11.dtd">
<svg version="1.1" id="Layer_1" xmlns="http://www.w3.org/2000/svg" xmlns:xlink="http://www.w3.org/1999/xlink" x="0px" y="0px"
	 width="300px" height="600px" viewBox="70 0 300 600" enable-background="new 70 0 300 600" xml:space="preserve">
<g>
	<path fill="#8C8C8C" d="M89,68.4h9.3v2.3h-6.7v3.3h5.7v2.3h-5.7V81H89V68.4z"/>
	<path fill="#8C8C8C" d="M99.2,69.6c0-0.8,0.6-1.4,1.4-1.4s1.4,0.6,1.4,1.4s-0.6,1.4-1.4,1.4S99.2,70.3,99.2,69.6z M99.5,72h2.2v9
		h-2.2V72z"/>
	<path fill="#8C8C8C" d="M103.4,72h2.2v0.7c0.6-0.6,1.4-0.9,2.3-0.9c2.3,0,3.8,1.8,3.8,4.1V81h-2.2v-5.1c0-1.1-0.8-2-1.9-2
		c-1.1,0-1.9,0.9-1.9,2V81h-2.2V72z"/>
	<path fill="#8C8C8C" d="M117.4,71.8c1,0,1.8,0.3,2.5,0.9v-3.5h2.2V81h-2.2v-0.8c-0.8,0.7-1.5,0.9-2.5,0.9c-2.6,0-4.5-2.1-4.5-4.7
		S114.7,71.8,117.4,71.8z M119.9,77.9v-2.8c-0.7-0.9-1.5-1.2-2.3-1.2c-1.4,0-2.5,1.1-2.5,2.6s1.1,2.6,2.5,2.6
		C118.3,79,119.2,78.8,119.9,77.9z"/>
	<path fill="#8C8C8C" d="M127,81.4c0.6,0.4,1,0.4,1.3,0.4c0.6,0,0.9-0.3,1.1-0.6l0.1-0.1l-3.4-9.1h2.6l2.1,6.4l2.1-6.4h2.5l-3.3,9
		c-0.8,2.3-2.2,2.9-3.5,2.9c-1,0-1.9-0.3-2.5-0.7L127,81.4z"/>
	<path fill="#8C8C8C" d="M135.4,76.5c0-2.6,2.1-4.7,4.7-4.7c2.6,0,4.7,2.1,4.7,4.7c0,2.7-2.1,4.7-4.7,4.7S135.4,79.2,135.4,76.5z
		 M142.6,76.5c0-1.5-1.1-2.6-2.4-2.6c-1.3,0-2.4,1.1-2.4,2.6c0,1.5,1.1,2.6,2.4,2.6C141.5,79,142.6,78,142.6,76.5z"/>
	<path fill="#8C8C8C" d="M146,77.3V72h2.2v5.3c0,1.1,0.8,1.8,1.9,1.8s1.9-0.8,1.9-1.8V72h2.2v5.3c0,2.3-1.9,3.9-4.1,3.9
		C147.9,81.1,146,79.6,146,77.3z"/>
	<path fill="#8C8C8C" d="M155.9,72h2.2v0.9c0.5-0.7,1.3-1.1,2.3-1.1h0.3v2.3H160c-1.3,0-1.9,0.8-1.9,1.9v5h-2.2V72z"/>
	<path fill="#8C8C8C" d="M169.5,81.1c-1,0-1.8-0.3-2.5-0.9v3.5h-2.2V72h2.2v0.8c0.7-0.6,1.5-0.9,2.5-0.9c2.6,0,4.5,2.1,4.5,4.7
		S172.1,81.1,169.5,81.1z M166.9,75.1v2.8c0.7,0.9,1.5,1.2,2.3,1.2c1.4,0,2.5-1.1,2.5-2.6s-1.1-2.6-2.5-2.6
		C168.5,73.9,167.6,74.2,166.9,75.1z"/>
	<path fill="#8C8C8C" d="M175.2,69.3h2.2v3.4c0.6-0.6,1.4-0.9,2.3-0.9c2.3,0,3.8,1.8,3.8,4.1V81h-2.2v-5.1c0-1.1-0.8-2-1.9-2
		c-1.1,0-1.9,0.9-1.9,2V81h-2.2V69.3z"/>
	<path fill="#8C8C8C" d="M184.6,76.5c0-2.6,2.1-4.7,4.7-4.7c2.6,0,4.7,2.1,4.7,4.7c0,2.7-2.1,4.7-4.7,4.7S184.6,79.2,184.6,76.5z
		 M191.8,76.5c0-1.5-1.1-2.6-2.4-2.6c-1.3,0-2.4,1.1-2.4,2.6c0,1.5,1.1,2.6,2.4,2.6C190.7,79,191.8,78,191.8,76.5z"/>
	<path fill="#8C8C8C" d="M194.5,72h1.3v-2.2h2.2V72h2.2v1.9H198v3.6c0,0.8,0.5,1.3,1.3,1.3h0.9V81h-1.3c-1.8,0-3.2-1.2-3.2-3v-4
		h-1.3V72z"/>
	<path fill="#8C8C8C" d="M200.8,76.5c0-2.6,2.1-4.7,4.7-4.7c2.6,0,4.7,2.1,4.7,4.7c0,2.7-2.1,4.7-4.7,4.7S200.8,79.2,200.8,76.5z
		 M208,76.5c0-1.5-1.1-2.6-2.4-2.6c-1.3,0-2.4,1.1-2.4,2.6c0,1.5,1.1,2.6,2.4,2.6C206.9,79,208,78,208,76.5z"/>
	<path fill="#8C8C8C" d="M211.1,80.2l-0.3-0.2l1.1-1.7l0.3,0.2c0.6,0.3,1.6,0.8,2.6,0.8c0.9,0,1.4-0.3,1.4-0.7
		c0-0.7-0.8-0.8-2.1-1.1c-1.8-0.5-3-1.3-3-2.8c0-1.4,1.4-2.8,3.7-2.8c1.4,0,2.6,0.3,3.3,0.7l0.4,0.2l-1.1,1.7l-0.4-0.1
		c-0.4-0.2-1.3-0.5-2.3-0.5c-0.7,0-1.4,0.2-1.4,0.7c0,0.5,0.5,0.7,1.7,0.9c2,0.5,3.5,1.1,3.5,2.9c0,1.7-1.4,2.9-3.8,2.9
		C213.3,81.1,212.1,80.7,211.1,80.2z"/>
	<path fill="#8C8C8C" d="M228.1,81.1c-1,0-1.8-0.3-2.5-0.9V81h-2.2V69.3h2.2v3.5c0.7-0.6,1.5-0.9,2.5-0.9c2.6,0,4.5,2.1,4.5,4.7
		S230.8,81.1,228.1,81.1z M225.6,75.1v2.8c0.7,0.9,1.5,1.2,2.3,1.2c1.4,0,2.5-1.1,2.5-2.6s-1.1-2.6-2.5-2.6
		C227.2,73.9,226.3,74.2,225.6,75.1z"/>
	<path fill="#8C8C8C" d="M233.6,81.4c0.6,0.4,1,0.4,1.3,0.4c0.6,0,0.9-0.3,1.1-0.6l0.1-0.1l-3.4-9.1h2.6l2.1,6.4l2.1-6.4h2.5l-3.3,9
		c-0.8,2.3-2.2,2.9-3.5,2.9c-1,0-1.9-0.3-2.5-0.7L233.6,81.4z"/>
	<path fill="#8C8C8C" d="M250.7,81.1c-1,0-1.8-0.3-2.5-0.9v3.5h-2.2V72h2.2v0.8c0.7-0.6,1.5-0.9,2.5-0.9c2.6,0,4.5,2.1,4.5,4.7
		S253.3,81.1,250.7,81.1z M248.2,75.1v2.8c0.7,0.9,1.5,1.2,2.3,1.2c1.4,0,2.5-1.1,2.5-2.6s-1.1-2.6-2.5-2.6
		C249.7,73.9,248.8,74.2,248.2,75.1z"/>
	<path fill="#8C8C8C" d="M255.9,76.4c0-2.6,2.2-4.6,4.7-4.6c2.6,0,4.7,2,4.7,4.6v0.7h-7c0.3,1.1,1.2,1.9,2.4,1.9
		c0.8,0,1.6-0.4,2.1-1.1l2,1c-0.8,1.4-2.3,2.3-4.1,2.3C258.1,81.1,255.9,79.1,255.9,76.4z M258.3,75.5h4.6c-0.3-1.1-1.2-1.8-2.3-1.8
		C259.6,73.8,258.7,74.5,258.3,75.5z"/>
	<path fill="#8C8C8C" d="M266.4,72h2.2v0.9c0.5-0.7,1.3-1.1,2.3-1.1h0.3v2.3h-0.6c-1.3,0-1.9,0.8-1.9,1.9v5h-2.2V72z"/>
	<path fill="#8C8C8C" d="M271.8,80.2l-0.3-0.2l1.1-1.7l0.3,0.2c0.6,0.3,1.6,0.8,2.6,0.8c0.9,0,1.4-0.3,1.4-0.7
		c0-0.7-0.8-0.8-2.1-1.1c-1.8-0.5-3-1.3-3-2.8c0-1.4,1.4-2.8,3.7-2.8c1.4,0,2.6,0.3,3.3,0.7l0.4,0.2l-1.1,1.7l-0.4-0.1
		c-0.4-0.2-1.3-0.5-2.3-0.5c-0.7,0-1.4,0.2-1.4,0.7c0,0.5,0.5,0.7,1.7,0.9c2,0.5,3.5,1.1,3.5,2.9c0,1.7-1.4,2.9-3.8,2.9
		C274.1,81.1,272.8,80.7,271.8,80.2z"/>
	<path fill="#8C8C8C" d="M280.1,76.5c0-2.6,2.1-4.7,4.7-4.7c2.6,0,4.7,2.1,4.7,4.7c0,2.7-2.1,4.7-4.7,4.7
		C282.2,81.1,280.1,79.2,280.1,76.5z M287.3,76.5c0-1.5-1.1-2.6-2.4-2.6c-1.3,0-2.4,1.1-2.4,2.6c0,1.5,1.1,2.6,2.4,2.6
		C286.2,79,287.3,78,287.3,76.5z"/>
	<path fill="#8C8C8C" d="M290.8,72h2.2v0.7c0.6-0.6,1.3-0.9,2.3-0.9c2.3,0,3.8,1.8,3.8,4.1V81h-2.2v-5.1c0-1.1-0.8-2-1.9-2
		c-1.1,0-1.9,0.9-1.9,2V81h-2.2V72z"/>
	<path fill="#8C8C8C" d="M300.8,78.4h2.6c-0.1,1.7-0.6,3.3-1.3,4.8h-2.3C300.5,81.6,300.8,80,300.8,78.4z"/>
	<path fill="#8C8C8C" d="M313.4,81.1c-1,0-1.8-0.3-2.5-0.9v3.5h-2.2V72h2.2v0.8c0.7-0.6,1.5-0.9,2.5-0.9c2.6,0,4.5,2.1,4.5,4.7
		S316,81.1,313.4,81.1z M310.9,75.1v2.8c0.7,0.9,1.5,1.2,2.3,1.2c1.4,0,2.5-1.1,2.5-2.6s-1.1-2.6-2.5-2.6
		C312.4,73.9,311.5,74.2,310.9,75.1z"/>
	<path fill="#8C8C8C" d="M319.1,69.3h2.2V81h-2.2V69.3z"/>
	<path fill="#8C8C8C" d="M327.1,71.8c1,0,1.8,0.3,2.5,0.9V72h2.2v9h-2.2v-0.8c-0.8,0.7-1.5,0.9-2.5,0.9c-2.6,0-4.5-2.1-4.5-4.7
		S324.4,71.8,327.1,71.8z M329.6,77.9v-2.8c-0.7-0.9-1.5-1.2-2.3-1.2c-1.4,0-2.5,1.1-2.5,2.6s1.1,2.6,2.5,2.6
		C328.1,79,328.9,78.8,329.6,77.9z"/>
	<path fill="#8C8C8C" d="M337.8,79c0.9,0,1.6-0.5,2.1-1.2l0.2-0.3l1.9,1.1l-0.3,0.5c-0.8,1.2-2.2,2-3.9,2c-2.6,0-4.7-2.1-4.7-4.7
		s2.2-4.7,4.7-4.7c1.6,0,3.1,0.8,3.9,2l0.3,0.5l-1.9,1.1l-0.2-0.3c-0.5-0.7-1.2-1.2-2.1-1.2c-1.3,0-2.4,1.1-2.4,2.6
		C335.4,78,336.5,79,337.8,79z"/>
	<path fill="#8C8C8C" d="M342.5,76.4c0-2.6,2.2-4.6,4.7-4.6c2.6,0,4.7,2,4.7,4.6v0.7h-7c0.3,1.1,1.2,1.9,2.4,1.9
		c0.8,0,1.6-0.4,2.1-1.1l2,1c-0.8,1.4-2.3,2.3-4.1,2.3C344.7,81.1,342.5,79.1,342.5,76.4z M344.9,75.5h4.6c-0.3-1.1-1.2-1.8-2.3-1.8
		C346.2,73.8,345.3,74.5,344.9,75.5z"/>
	<path fill="#8C8C8C" d="M102.8,92.8c1,0,1.8,0.3,2.5,0.9V93h2.2v9h-2.2v-0.8c-0.8,0.7-1.5,0.9-2.5,0.9c-2.6,0-4.5-2.1-4.5-4.7
		S100.2,92.8,102.8,92.8z M105.4,98.9v-2.8c-0.7-0.9-1.5-1.2-2.3-1.2c-1.4,0-2.5,1.1-2.5,2.6s1.1,2.6,2.5,2.6
		C103.8,100,104.7,99.8,105.4,98.9z"/>
	<path fill="#8C8C8C" d="M109.4,93h2.2v0.7c0.6-0.6,1.4-0.9,2.3-0.9c2.3,0,3.8,1.8,3.8,4.1v5.1h-2.2v-5.1c0-1.1-0.8-2-1.9-2
		c-1.1,0-1.9,0.9-1.9,2v5.1h-2.2V93z"/>
	<path fill="#8C8C8C" d="M123.3,92.8c1,0,1.8,0.3,2.5,0.9v-3.5h2.2V102h-2.2v-0.8c-0.8,0.7-1.5,0.9-2.5,0.9c-2.6,0-4.5-2.1-4.5-4.7
		S120.6,92.8,123.3,92.8z M125.8,98.9v-2.8c-0.7-0.9-1.5-1.2-2.3-1.2c-1.4,0-2.5,1.1-2.5,2.6s1.1,2.6,2.5,2.6
		C124.3,100,125.1,99.8,125.8,98.9z"/>
	<path fill="#8C8C8C" d="M137.5,100c0.9,0,1.6-0.5,2.1-1.2l0.2-0.3l1.9,1.1l-0.3,0.5c-0.8,1.2-2.2,2-3.9,2c-2.6,0-4.7-2.1-4.7-4.7
		s2.2-4.7,4.7-4.7c1.6,0,3.1,0.8,3.9,2l0.3,0.5l-1.9,1.1l-0.2-0.3c-0.5-0.7-1.2-1.2-2.1-1.2c-1.3,0-2.4,1.1-2.4,2.6
		C135.1,99,136.2,100,137.5,100z"/>
	<path fill="#8C8C8C" d="M142.2,97.5c0-2.6,2.1-4.7,4.7-4.7s4.7,2.1,4.7,4.7c0,2.7-2.1,4.7-4.7,4.7S142.2,100.2,142.2,97.5z
		 M149.4,97.5c0-1.5-1.1-2.6-2.4-2.6c-1.3,0-2.4,1.1-2.4,2.6c0,1.5,1.1,2.6,2.4,2.6C148.3,100,149.4,99,149.4,97.5z"/>
	<path fill="#8C8C8C" d="M152.2,93.5h1.1V93c0-1.4,0.9-2.7,2.7-2.7h1.5v1.9h-1c-0.7,0-1,0.3-1,1v0.3h1.9v1.9h-1.9v6.6h-2.2v-6.6
		h-1.1V93.5z"/>
	<path fill="#8C8C8C" d="M157.8,93.5h1.1V93c0-1.4,0.9-2.7,2.7-2.7h1.5v1.9h-1c-0.7,0-1,0.3-1,1v0.3h1.9v1.9h-1.9v6.6h-2.2v-6.6
		h-1.1V93.5z"/>
	<path fill="#8C8C8C" d="M163.4,97.4c0-2.6,2.2-4.6,4.7-4.6c2.6,0,4.7,2,4.7,4.6v0.7h-7c0.3,1.1,1.2,1.9,2.4,1.9
		c0.8,0,1.6-0.4,2.1-1.1l2,1c-0.8,1.4-2.3,2.3-4.1,2.3C165.5,102.1,163.4,100.1,163.4,97.4z M165.8,96.5h4.6
		c-0.3-1.1-1.2-1.8-2.3-1.8C167,94.8,166.1,95.5,165.8,96.5z"/>
	<path fill="#8C8C8C" d="M173.4,97.4c0-2.6,2.2-4.6,4.7-4.6c2.6,0,4.7,2,4.7,4.6v0.7h-7c0.3,1.1,1.2,1.9,2.4,1.9
		c0.8,0,1.6-0.4,2.1-1.1l2,1c-0.8,1.4-2.3,2.3-4.1,2.3C175.6,102.1,173.4,100.1,173.4,97.4z M175.8,96.5h4.6
		c-0.3-1.1-1.2-1.8-2.3-1.8C177.1,94.8,176.1,95.5,175.8,96.5z"/>
	<path fill="#8C8C8C" d="M186.6,93h2.6l1.6,5.7l1.7-5.7h2.4l1.7,5.7l1.5-5.7h2.5l-2.7,9h-2.5l-1.8-5.8l-1.7,5.8h-2.5L186.6,93z"/>
	<path fill="#8C8C8C" d="M201.2,90.6c0-0.8,0.6-1.4,1.4-1.4s1.4,0.6,1.4,1.4s-0.6,1.4-1.4,1.4S201.2,91.3,201.2,90.6z M201.5,93h2.2
		v9h-2.2V93z"/>
	<path fill="#8C8C8C" d="M204.8,93h1.3v-2.2h2.2V93h2.2v1.9h-2.2v3.6c0,0.8,0.5,1.3,1.3,1.3h0.9v2.1h-1.3c-1.8,0-3.2-1.2-3.2-3v-4
		h-1.3V93z"/>
	<path fill="#8C8C8C" d="M211.7,90.3h2.2v3.4c0.6-0.6,1.4-0.9,2.3-0.9c2.3,0,3.8,1.8,3.8,4.1v5.1h-2.2v-5.1c0-1.1-0.8-2-1.9-2
		c-1.1,0-1.9,0.9-1.9,2v5.1h-2.2V90.3z"/>
	<path fill="#8C8C8C" d="M224.7,95.7c0-3.6,3-6.5,6.5-6.5c2.4,0,4.3,1.1,5.5,2.7l0.3,0.4l-2.2,1.2l-0.3-0.3
		c-0.7-0.9-1.8-1.6-3.2-1.6c-2.2,0-3.9,1.8-3.9,4c0,2.3,1.7,4.1,3.9,4.1c1.2,0,2.4-0.5,3.4-1.6v-0.6h-2.6v-2.1h5v6.6h-2.3v-1.1
		c-1,0.8-2.1,1.3-3.7,1.3C227.5,102.1,224.7,99.3,224.7,95.7z"/>
	<path fill="#8C8C8C" d="M238.1,97.5c0-2.6,2.1-4.7,4.7-4.7s4.7,2.1,4.7,4.7c0,2.7-2.1,4.7-4.7,4.7S238.1,100.2,238.1,97.5z
		 M245.3,97.5c0-1.5-1.1-2.6-2.4-2.6c-1.3,0-2.4,1.1-2.4,2.6c0,1.5,1.1,2.6,2.4,2.6S245.3,99,245.3,97.5z"/>
	<path fill="#8C8C8C" d="M248.3,97.5c0-2.6,2.1-4.7,4.7-4.7c2.6,0,4.7,2.1,4.7,4.7c0,2.7-2.1,4.7-4.7,4.7
		C250.4,102.1,248.3,100.2,248.3,97.5z M255.5,97.5c0-1.5-1.1-2.6-2.4-2.6c-1.3,0-2.4,1.1-2.4,2.6c0,1.5,1.1,2.6,2.4,2.6
		C254.4,100,255.5,99,255.5,97.5z"/>
	<path fill="#8C8C8C" d="M258.5,97c0-2.4,1.8-4.2,4.5-4.2c0.8,0,1.7,0.3,2.4,0.8V93h2.2v7.6c0,2.6-2,4.3-4.6,4.3
		c-1.7,0-3.1-0.7-3.9-1.7l-0.2-0.2l1.8-1.3l0.2,0.2c0.5,0.5,1.2,0.9,2.1,0.9c1.3,0,2.4-0.7,2.4-2.1v-0.4c-0.8,0.6-1.6,0.8-2.4,0.8
		C260.3,101.2,258.5,99.4,258.5,97z M265.4,98.1v-2.3c-0.8-0.7-1.5-1-2.3-1c-1.3,0-2.3,0.9-2.3,2.1c0,1.2,1,2.1,2.3,2.1
		C263.9,99.1,264.6,98.8,265.4,98.1z"/>
	<path fill="#8C8C8C" d="M269.3,90.3h2.2V102h-2.2V90.3z"/>
	<path fill="#8C8C8C" d="M272.8,97.4c0-2.6,2.2-4.6,4.7-4.6c2.6,0,4.7,2,4.7,4.6v0.7h-7c0.3,1.1,1.2,1.9,2.4,1.9
		c0.8,0,1.6-0.4,2.1-1.1l2,1c-0.8,1.4-2.3,2.3-4.1,2.3C275,102.1,272.8,100.1,272.8,97.4z M275.2,96.5h4.6c-0.3-1.1-1.2-1.8-2.3-1.8
		C276.5,94.8,275.6,95.5,275.2,96.5z"/>
	<path fill="#8C8C8C" d="M287.1,89.4h5.5c2.7,0,4.4,1.8,4.4,4.2c0,2.3-1.7,4.1-4.4,4.1h-3v4.3h-2.6V89.4z M289.7,91.6v3.8h2.7
		c1.2,0,2-0.9,2-1.9c0-1-0.7-1.9-2-1.9H289.7z"/>
	<path fill="#8C8C8C" d="M298.2,90.3h2.2v3.4c0.6-0.6,1.4-0.9,2.3-0.9c2.3,0,3.8,1.8,3.8,4.1v5.1h-2.2v-5.1c0-1.1-0.8-2-1.9-2
		c-1.1,0-1.9,0.9-1.9,2v5.1h-2.2V90.3z"/>
	<path fill="#8C8C8C" d="M307.6,97.5c0-2.6,2.1-4.7,4.7-4.7c2.6,0,4.7,2.1,4.7,4.7c0,2.7-2.1,4.7-4.7,4.7
		C309.8,102.1,307.6,100.2,307.6,97.5z M314.8,97.5c0-1.5-1.1-2.6-2.4-2.6c-1.3,0-2.4,1.1-2.4,2.6c0,1.5,1.1,2.6,2.4,2.6
		C313.7,100,314.8,99,314.8,97.5z"/>
	<path fill="#8C8C8C" d="M317.5,93h1.3v-2.2h2.2V93h2.2v1.9H321v3.6c0,0.8,0.5,1.3,1.3,1.3h0.9v2.1h-1.3c-1.8,0-3.2-1.2-3.2-3v-4
		h-1.3V93z"/>
	<path fill="#8C8C8C" d="M323.8,97.5c0-2.6,2.1-4.7,4.7-4.7c2.6,0,4.7,2.1,4.7,4.7c0,2.7-2.1,4.7-4.7,4.7
		C325.9,102.1,323.8,100.2,323.8,97.5z M331,97.5c0-1.5-1.1-2.6-2.4-2.6c-1.3,0-2.4,1.1-2.4,2.6c0,1.5,1.1,2.6,2.4,2.6
		C329.9,100,331,99,331,97.5z"/>
	<path fill="#8C8C8C" d="M334.1,101.2l-0.3-0.2l1.1-1.7l0.3,0.2c0.6,0.3,1.6,0.8,2.6,0.8c0.9,0,1.3-0.3,1.3-0.7
		c0-0.7-0.8-0.8-2.1-1.1c-1.8-0.5-3-1.3-3-2.8c0-1.4,1.4-2.8,3.7-2.8c1.4,0,2.6,0.3,3.3,0.7l0.4,0.2l-1.1,1.7l-0.4-0.1
		c-0.4-0.2-1.3-0.5-2.3-0.5c-0.7,0-1.3,0.2-1.3,0.7c0,0.5,0.5,0.7,1.7,0.9c2,0.5,3.5,1.1,3.5,2.9c0,1.7-1.4,2.9-3.8,2.9
		C336.3,102.1,335.1,101.7,334.1,101.2z"/>
</g>
</svg>
