<?xml version="1.0" encoding="utf-8"?>
<!-- Generator: Adobe Illustrator 18.1.1, SVG Export Plug-In . SVG Version: 6.00 Build 0)  -->
<!DOCTYPE svg PUBLIC "-//W3C//DTD SVG 1.1//EN" "http://www.w3.org/Graphics/SVG/1.1/DTD/svg11.dtd">
<svg version="1.1" id="Layer_1" xmlns="http://www.w3.org/2000/svg" xmlns:xlink="http://www.w3.org/1999/xlink" x="0px" y="0px"
	 width="300px" height="600px" viewBox="70 0 300 600" enable-background="new 70 0 300 600" xml:space="preserve">
<g>
	<path fill="#8C8C8C" d="M148.6,72.5h3.1v1.3c0.7-0.9,1.7-1.5,3.2-1.5h0.4v3.1h-0.9c-1.7,0-2.7,1.2-2.7,2.7V85h-3.1V72.5z"/>
	<path fill="#8C8C8C" d="M155.4,78.7c0-3.6,3-6.4,6.5-6.4c3.7,0,6.6,2.8,6.6,6.4v1h-9.8c0.4,1.5,1.7,2.6,3.3,2.6
		c1.2,0,2.2-0.6,2.9-1.5l2.7,1.3c-1.1,1.9-3.2,3.1-5.7,3.1C158.5,85.3,155.4,82.4,155.4,78.7z M158.8,77.5h6.4
		c-0.4-1.5-1.7-2.4-3.2-2.4C160.5,75,159.3,76,158.8,77.5z"/>
	<path fill="#8C8C8C" d="M175.3,72.3c1.4,0,2.5,0.4,3.5,1.3v-1h3.1V85h-3.1v-1c-1,0.9-2.1,1.3-3.5,1.3c-3.6,0-6.2-2.8-6.2-6.5
		S171.7,72.3,175.3,72.3z M178.8,80.7v-3.9c-0.9-1.2-2.1-1.6-3.1-1.6c-1.9,0-3.4,1.5-3.4,3.6s1.5,3.6,3.4,3.6
		C176.7,82.3,177.9,82,178.8,80.7z"/>
	<path fill="#8C8C8C" d="M189.6,72.3c1.4,0,2.5,0.4,3.5,1.3v-4.8h3.1V85h-3.1v-1c-1,0.9-2.1,1.3-3.5,1.3c-3.6,0-6.2-2.8-6.2-6.5
		S185.9,72.3,189.6,72.3z M193.1,80.7v-3.9c-0.9-1.2-2.1-1.6-3.1-1.6c-1.9,0-3.4,1.5-3.4,3.6s1.5,3.6,3.4,3.6
		C191,82.3,192.2,82,193.1,80.7z"/>
	<path fill="#8C8C8C" d="M198.3,85.6c0.8,0.5,1.4,0.6,1.8,0.6c0.8,0,1.3-0.4,1.5-0.9l0.1-0.2L197,72.5h3.6l2.9,8.8l2.9-8.8h3.5
		L205.4,85c-1.1,3.2-3,4-4.8,4c-1.3,0-2.6-0.4-3.5-1L198.3,85.6z"/>
	<path fill="#8C8C8C" d="M214.8,73.2h1.5v-0.7c0-1.9,1.3-3.8,3.8-3.8h2.1v2.6h-1.4c-0.9,0-1.3,0.5-1.3,1.4v0.4h2.6v2.7h-2.6V85h-3.1
		v-9.1h-1.5V73.2z"/>
	<path fill="#8C8C8C" d="M222.2,78.8c0-3.6,2.9-6.5,6.6-6.5c3.6,0,6.6,2.9,6.6,6.5c0,3.7-3,6.5-6.6,6.5
		C225.2,85.3,222.2,82.5,222.2,78.8z M232.1,78.8c0-2.1-1.5-3.6-3.4-3.6c-1.8,0-3.4,1.5-3.4,3.6c0,2.1,1.5,3.6,3.4,3.6
		C230.6,82.3,232.1,80.9,232.1,78.8z"/>
	<path fill="#8C8C8C" d="M236.7,72.5h3.1v1.3c0.7-0.9,1.8-1.5,3.2-1.5h0.3v3.1h-0.9c-1.7,0-2.7,1.2-2.7,2.7V85h-3.1V72.5z"/>
	<path fill="#8C8C8C" d="M249.3,85.6c0.8,0.5,1.4,0.6,1.8,0.6c0.8,0,1.3-0.4,1.5-0.9l0.1-0.2l-4.7-12.7h3.6l2.9,8.8l2.9-8.8h3.5
		L256.3,85c-1.2,3.2-3,4-4.8,4c-1.3,0-2.6-0.4-3.5-1L249.3,85.6z"/>
	<path fill="#8C8C8C" d="M260.5,78.8c0-3.6,2.9-6.5,6.6-6.5c3.6,0,6.6,2.9,6.6,6.5c0,3.7-3,6.5-6.6,6.5
		C263.4,85.3,260.5,82.5,260.5,78.8z M270.4,78.8c0-2.1-1.5-3.6-3.4-3.6c-1.8,0-3.4,1.5-3.4,3.6c0,2.1,1.5,3.6,3.4,3.6
		C268.9,82.3,270.4,80.9,270.4,78.8z"/>
	<path fill="#8C8C8C" d="M274.8,79.9v-7.4h3.1v7.3c0,1.5,1.1,2.5,2.6,2.5s2.6-1,2.6-2.5v-7.3h3.1v7.4c0,3.2-2.6,5.4-5.7,5.4
		C277.4,85.3,274.8,83.1,274.8,79.9z"/>
	<path fill="#8C8C8C" d="M287.8,81.5h3.6c-0.2,2.3-0.8,4.5-1.8,6.6h-3.1C287.3,85.9,287.8,83.7,287.8,81.5z"/>
	<path fill="#8C8C8C" d="M153.4,108.8c-1.4,0-2.5-0.4-3.5-1.3v1h-3.1V92.3h3.1v4.8c1-0.9,2.1-1.3,3.5-1.3c3.6,0,6.2,2.8,6.2,6.5
		S157,108.8,153.4,108.8z M149.8,100.3v3.9c0.9,1.2,2.1,1.6,3.1,1.6c1.9,0,3.4-1.5,3.4-3.6s-1.5-3.6-3.4-3.6
		C152,98.7,150.8,99.1,149.8,100.3z"/>
	<path fill="#8C8C8C" d="M166.5,95.8c1.4,0,2.5,0.4,3.5,1.3v-1h3.1v12.5H170v-1c-1,0.9-2.1,1.3-3.5,1.3c-3.6,0-6.2-2.8-6.2-6.5
		S162.8,95.8,166.5,95.8z M170,104.2v-3.9c-0.9-1.2-2.1-1.6-3.1-1.6c-1.9,0-3.4,1.5-3.4,3.6s1.5,3.6,3.4,3.6
		C167.9,105.8,169.1,105.5,170,104.2z"/>
	<path fill="#8C8C8C" d="M175.2,96h3.1v1.3c0.7-0.9,1.7-1.5,3.2-1.5h0.4v3.1H181c-1.7,0-2.7,1.2-2.7,2.7v6.9h-3.1V96z"/>
	<path fill="#8C8C8C" d="M182.3,92.7c0-1,0.9-1.9,1.9-1.9s1.9,0.9,1.9,1.9s-0.9,1.9-1.9,1.9S182.3,93.7,182.3,92.7z M182.7,96h3.1
		v12.5h-3.1V96z"/>
	<path fill="#8C8C8C" d="M187.3,107.4l-0.4-0.2l1.5-2.4l0.5,0.2c0.9,0.5,2.2,1,3.7,1c1.2,0,1.9-0.4,1.9-1c0-0.9-1.1-1-3-1.5
		c-2.5-0.6-4.2-1.8-4.2-3.9c0-2,1.9-3.8,5.1-3.8c1.9,0,3.5,0.5,4.6,1l0.6,0.3l-1.5,2.3l-0.5-0.2c-0.5-0.2-1.8-0.6-3.1-0.6
		c-0.9,0-1.9,0.3-1.9,1c0,0.6,0.7,0.9,2.3,1.3c2.7,0.6,4.8,1.5,4.8,4c0,2.3-2,4-5.3,4C190.4,108.8,188.6,108.2,187.3,107.4z"/>
	<path fill="#8C8C8C" d="M198.3,96h1.7v-3h3.1v3h3.1v2.7h-3.1v5c0,1.1,0.7,1.8,1.8,1.8h1.2v2.9h-1.7c-2.5,0-4.4-1.6-4.4-4.2v-5.6
		h-1.7V96z"/>
	<path fill="#8C8C8C" d="M212.7,95.8c1.4,0,2.5,0.4,3.5,1.3v-1h3.1v12.5h-3.1v-1c-1,0.9-2.1,1.3-3.5,1.3c-3.6,0-6.2-2.8-6.2-6.5
		S209.1,95.8,212.7,95.8z M216.2,104.2v-3.9c-0.9-1.2-2.1-1.6-3.1-1.6c-1.9,0-3.4,1.5-3.4,3.6s1.5,3.6,3.4,3.6
		C214.1,105.8,215.3,105.5,216.2,104.2z"/>
	<path fill="#8C8C8C" d="M231.6,95.8c1.4,0,2.5,0.4,3.5,1.3v-1h3.1v12.5h-3.1v-1c-1,0.9-2.1,1.3-3.5,1.3c-3.7,0-6.2-2.8-6.2-6.5
		S228,95.8,231.6,95.8z M235.2,104.2v-3.9c-0.9-1.2-2.1-1.6-3.1-1.6c-1.9,0-3.4,1.5-3.4,3.6s1.5,3.6,3.4,3.6
		C233,105.8,234.2,105.5,235.2,104.2z"/>
	<path fill="#8C8C8C" d="M240.3,96h3.1v1.3c0.7-0.9,1.7-1.5,3.2-1.5h0.4v3.1h-0.9c-1.8,0-2.7,1.2-2.7,2.7v6.9h-3.1V96z"/>
	<path fill="#8C8C8C" d="M247.4,96h1.7v-3h3.1v3h3.1v2.7h-3.1v5c0,1.1,0.7,1.8,1.8,1.8h1.2v2.9h-1.8c-2.5,0-4.4-1.6-4.4-4.2v-5.6
		h-1.7V96z"/>
	<path fill="#8C8C8C" d="M256.2,92.7c0-1,0.9-1.9,1.9-1.9s1.9,0.9,1.9,1.9s-0.9,1.9-1.9,1.9S256.2,93.7,256.2,92.7z M256.6,96h3.1
		v12.5h-3.1V96z"/>
	<path fill="#8C8C8C" d="M261.2,107.4l-0.4-0.2l1.5-2.4l0.5,0.2c0.9,0.5,2.2,1,3.7,1c1.2,0,1.9-0.4,1.9-1c0-0.9-1.1-1-3-1.5
		c-2.5-0.6-4.2-1.8-4.2-3.9c0-2,1.9-3.8,5.1-3.8c2,0,3.5,0.5,4.6,1l0.6,0.3l-1.5,2.3l-0.5-0.2c-0.6-0.2-1.8-0.6-3.2-0.6
		c-0.9,0-1.9,0.3-1.9,1c0,0.6,0.7,0.9,2.3,1.3c2.7,0.6,4.8,1.5,4.8,4c0,2.3-2,4-5.3,4C264.3,108.8,262.5,108.2,261.2,107.4z"/>
	<path fill="#8C8C8C" d="M272.2,96h1.8v-3h3.1v3h3.1v2.7H277v5c0,1.1,0.7,1.8,1.8,1.8h1.2v2.9h-1.8c-2.5,0-4.4-1.6-4.4-4.2v-5.6
		h-1.8V96z"/>
	<path fill="#8C8C8C" d="M286.6,95.8c1.4,0,2.5,0.4,3.5,1.3v-1h3.1v12.5h-3.1v-1c-1.1,0.9-2.2,1.3-3.5,1.3c-3.6,0-6.2-2.8-6.2-6.5
		S283,95.8,286.6,95.8z M290.1,104.2v-3.9c-0.9-1.2-2.2-1.6-3.1-1.6c-1.9,0-3.4,1.5-3.4,3.6s1.5,3.6,3.4,3.6
		C288,105.8,289.2,105.5,290.1,104.2z"/>
</g>
</svg>
