<svg xmlns="http://www.w3.org/2000/svg" viewBox="0 0 752.882 156.0205"><g fill="#FFF"><path d="M124.573 0L140.8 23.056h-32.453zM405.234 23.778l-12.904 30.63-13.441-30.63h-14.09L351.474 54.02 338.78 23.78h-21.434l26.545 60.172h13.43l13.597-30.298 13.327 30.298h14.404l26.305-60.173zM703.97 23.778v21.154h-36.887V23.778h-20.58v60.173h20.58V60.71h36.888v23.24h20.471V23.778zM449.42 23.778l-40.4 60.173h22.364l25.044-38.755 24.843 38.755h23.033l-39.333-60.173zM169.345 23.778h-22.712l-22.965 36.635-22.54-36.635H77.843l38.01 60.173h14.038zM488.422 23.778v15.78h26.173V83.95h20.58V39.557h20.679l10.445-15.779zM69.529 24.752c-2.137-.653-4.532-.974-7.11-.974H16.89C6.474 23.778 0 29.004 0 37.415v32.9c0 4.926 2.51 8.96 7.059 11.367l.871.458 12.547-12.674V39.557h38.366v28.546h-28.2L14.782 83.95h47.636c10.009 0 17-5.604 17-13.637V39.122L69.986 24.89l-.458-.138zM620.937 23.778h-41.099c-1.083 0-2.183.069-3.266.206l-.613.069-1.793 2.739v-.011l-11.207 17.096v26.437c0 8.033 6.938 13.637 16.88 13.637h41.098c9.689 0 16.994-5.856 16.994-13.637V59.978h-20.575v8.125h-33.937V39.557h33.937v7.025h20.575v-9.087c0-8.331-6.67-13.717-16.994-13.717zM168.193 38.801v45.15h63.817V68.103h-43.236v-7.575h29.158V46.742h-29.158v-7.185h43.236V23.778h-53.326zM298.387 61.364c7.34-.309 15.235-3.85 15.235-10.92l-.022-14.336c0-7.608-5.925-12.33-15.464-12.33h-57.09V83.95h20.5V39.225h31.071c.574 0 .94.023 1.158.057.011.161.011.401.011.63v8.802c0 .149-.005.228-.01.274l-.013.023c-.245.184-.756.218-1.145.218h-21.762V61.33l25.262 22.62h28.156l-25.887-22.586z"/><path d="M456.68 107.007L440.46 83.95h32.44z"/></g><path fill="#FFF" d="M88.1 114.39h-5.308c-4.424 0-7.27 2.378-8.538 7.132l-7.313 27.425c-1.258 4.716.344 7.074 4.807 7.074h5.194c4.462 0 7.322-2.357 8.58-7.074l7.314-27.425c1.267-4.754-.311-7.131-4.735-7.131zm-.897 7.48l-7.113 26.671c-.433 1.624-1.38 2.436-2.842 2.436H74.42c-1.654 0-2.264-.812-1.831-2.436l7.112-26.67c.433-1.624 1.458-2.436 3.074-2.436h2.596c1.654 0 2.265.812 1.832 2.435zM136.74 114.39H125.89l-11.102 41.63h5.54l4.484-16.814h3.347l-.849 16.815h5.252l.756-17.337c2.45-.965 4.16-3.265 5.13-6.9l2.736-10.262c1.268-4.754-.214-7.131-4.445-7.131zm-1.342 8.06l-2.396 8.987c-.537 2.01-1.632 3.015-3.286 3.015h-3.635l4.004-15.017h3.636c1.654 0 2.213 1.006 1.677 3.015zM163.154 156.02h5.54l11.101-41.63h-5.54zM221.193 114.39h-3.808c-4.27 0-7.04 2.378-8.308 7.132l-7.329 27.483c-1.247 4.678.265 7.016 4.535 7.016h10.849l5.411-20.293h-8.425l-1.345 5.044h2.885l-2.72 10.205h-3.752c-1.616 0-2.156-1.005-1.62-3.015l6.804-25.512c.536-2.01 1.612-3.015 3.227-3.015h1.385c1.577 0 2.098 1.006 1.562 3.015l-.99 3.71h5.54l1.206-4.522c1.289-4.831-.414-7.247-5.107-7.247zM248.247 156.02h5.54l11.102-41.63h-5.54zM303.639 134.51l-.579-20.12h-5.54l-11.101 41.63h5.54l7.267-27.25.887 18.96-2.21 8.29h5.54l11.1-41.63h-5.539zM355.714 114.39h-3.463c-4.424 0-7.27 2.378-8.538 7.132l-2.273 8.523c-.288 1.083-.408 1.963-.357 2.639.05.676.278 1.227.684 1.652.406.426 1.104.948 2.093 1.565l4.463 2.958c.579.425.986.773 1.222 1.043.235.27.25.793.044 1.566l-1.886 7.073c-.433 1.624-1.381 2.436-2.843 2.436h-.98c-1.655 0-2.265-.812-1.832-2.436l.603-2.261h-5.54l-.557 2.087c-1.36 5.103.171 7.654 4.596 7.654h3.404c4.462 0 7.317-2.338 8.565-7.016l2.365-8.871c.392-1.468.522-2.464.393-2.986a2.733 2.733 0 0 0-.77-1.334c-.384-.366-1.064-.878-2.042-1.536l-4.494-2.841c-.58-.425-.987-.773-1.222-1.044-.237-.27-.25-.791-.044-1.565l1.84-6.9c.443-1.661 1.453-2.493 3.03-2.493h.866c1.616 0 2.202.832 1.759 2.493l-.974 3.653h5.54l1.082-4.059c1.268-4.754-.311-7.131-4.734-7.131zM408.68 156.02h13.734l1.345-5.044h-8.194l3.696-13.857h7.27l1.346-5.044h-7.271l3.37-12.64h8.195l1.345-5.044h-13.734zM471.162 114.39h-9.637l-11.102 41.63h10.791c4.424 0 7.172-2.009 8.245-6.03l7.36-27.598c1.422-5.334-.464-8.001-5.657-8.001zm.101 8.06l-7.112 26.67c-.33 1.238-1.226 1.856-2.688 1.856h-4.155l8.412-31.541h3.866c1.654 0 2.213 1.006 1.677 3.015zM494.184 156.02h5.54l11.102-41.63h-5.54zM532.18 119.435h5.31l-9.757 36.585h5.54l9.756-36.585h5.31l1.345-5.044h-16.158zM566.59 156.02h5.54l11.102-41.63h-5.54zM621.715 114.39h-5.31c-4.423 0-7.27 2.378-8.537 7.132l-7.313 27.425c-1.258 4.716.344 7.074 4.807 7.074h5.193c4.463 0 7.323-2.357 8.58-7.074l7.314-27.425c1.268-4.754-.31-7.131-4.734-7.131zm-.898 7.48l-7.113 26.671c-.433 1.624-1.38 2.436-2.842 2.436h-2.828c-1.654 0-2.264-.812-1.832-2.436l7.113-26.67c.433-1.624 1.457-2.436 3.073-2.436h2.597c1.654 0 2.265.812 1.832 2.435zM666.365 114.39L661 134.51l-.579-20.12h-5.54l-11.101 41.63h5.54l7.267-27.25.888 18.96-2.212 8.29h5.54l11.102-41.63zM742.016 22.893c1.885 0 3.66.493 5.325 1.476a11.199 11.199 0 0 1 4.05 4.068 10.864 10.864 0 0 1 1.491 5.544c0 1.986-.496 3.84-1.49 5.559a10.88 10.88 0 0 1-4.085 4.034 10.858 10.858 0 0 1-5.525 1.476c-1.98 0-3.834-.496-5.559-1.491a10.89 10.89 0 0 1-4.068-4.038 10.759 10.759 0 0 1-1.51-5.525c0-2.106.561-4.047 1.682-5.827 1.078-1.706 2.554-3.046 4.43-4.019 1.622-.838 3.375-1.257 5.26-1.257zm.016 1.836c-1.737 0-3.388.468-4.946 1.398a8.962 8.962 0 0 0-3.425 3.643 9.188 9.188 0 0 0-1.004 4.21c0 1.664.425 3.225 1.272 4.679a9.061 9.061 0 0 0 3.375 3.36 8.86 8.86 0 0 0 4.478 1.195c1.59 0 3.077-.397 4.46-1.195a8.954 8.954 0 0 0 3.376-3.345 9.252 9.252 0 0 0 1.256-4.693c0-2.735-1.023-5.042-3.061-6.927a8.747 8.747 0 0 0-3.157-1.87c-.924-.301-1.796-.455-2.624-.455zm-4.46 2.812h2.64c1.413 0 2.448.061 3.107.188.66.126 1.195.36 1.602.708.797.668 1.195 1.648 1.195 2.935 0 2.042-.937 3.292-2.812 3.754l3.942 5.276h-3.502l-3.345-4.835v4.835h-2.827V27.541zm2.827 2.31v3.375h.268c.9 0 1.497-.09 1.79-.268.459-.27.69-.739.69-1.398 0-.637-.167-1.084-.502-1.333-.336-.253-.921-.376-1.759-.376h-.486z"/></svg>