<svg xmlns="http://www.w3.org/2000/svg" viewBox="0 0 361.1641 106.8418"><path fill="#272b5f" d="M41.776 2.636c-23.526 0-38.89 19.332-38.89 37.335 0 10.324 2.522 15.493 5.273 20.408 3.475-9.37 10.444-27.97 10.444-27.97s3.245-1.683 3.245-1.438l4.679-11.891 3.008-1.561 3.713-7.93 8.167 1.329L57.98 20.17l18.612 5.166c-4.803-12.26-18.367-22.7-34.816-22.7m-.24 79.71c-10.208 0-22.686-3.597-31.697-14.634h63.268c-7.325 9.474-19.923 14.635-31.57 14.635m12.486-16.565h-5.758l10.676-13.315 1.081 2.035-6 11.28zm5.642-42.373l-18.37-10.686-6.721-1.21v4.93l5.16 4.796-7.203-.594s.247.362 6.242 6.72l27.373 4.567 4.804 3.121-12.486.597-5.168 18.852-16.925 11.28H25.333l3.715-7.323-.593-.237-9.974 7.56h-2.395l10.201-14.281c.484-4.095.24-2.285.85-9.605L25.57 39.73l-4.087 15.846-8.522 10.207h-2.164l5.053-7.076 7.08-21.74-1.807.846-3.118 8.648-2.155 1.194s-5.052 12.247-7.69 18.252C4.324 60.38 0 52.937 0 39.971 0 20.525 16.68 0 41.776 0 65.904 0 78.752 19.21 80.91 29.163L59.665 23.41zM71.55 51.5l-3.483 3-6.973 11.281h-4.552l4.552-8.045 3.603-3 5.173-14.531 5.52 2.282-3.84 9.013zm3.23 14.281h-9.237l8.76-13.802 2.647-9.005 5.528 1.92c-.492 6.958-2.774 14.053-7.697 20.887M63.507 49.216l-2.766.492.724-5.527-.724-1.086.724-6.25 7.07 2.884-5.028 9.487zm56.956-20.824h-2.88v19.509h2.88c6.66 0 7.865-4.749 7.865-9.61 0-4.86-1.206-9.899-7.865-9.899m89.665 22.095c0-3.492-.472-9.422-4.978-9.422-5.106 0-5.168 8.516-5.168 12.535 0 3.483.25 11.706 4.989 11.706 1.797 0 3.3-1.135 4.029-2.83.477-1.196 1.128-2.996 1.128-6.182v-5.807zm25.821-10.206c-4.931 0-5.004 7.672-5.113 10.484h9.837c.072-3.041-.17-10.484-4.724-10.484m95.836 12.116c-5.325 1.034-8.273 2.399-8.273 7.862 0 3.188 1.612 4.808 3.41 4.808 2.531 0 3.428-1.492 3.967-2.592.604-1.075.896-3.407.896-5.576v-4.502zm-211.322-2.514h-2.88v12.244c0 1.255.124 2.28.713 2.94.552.536 1.506.84 3.248.84h1.501v1.805h-19.034v-1.805h1.69c1.43 0 2.632-.253 3.243-.722.594-.55.896-1.438.896-3.058V32.53c0-1.922-.302-3.243-1.263-3.717-.59-.347-1.733-.422-3.293-.422h-1.273v-1.808h16.452c8.397 0 15.662 3.009 15.662 11.707 0 8.284-7.145 11.592-15.662 11.592m34.991-4.084c-2.102 0-3.365-1.5-3.365-2.704 0-.425 0-.904.302-1.553h-.06c-2.891 2.394-3.543 11.517-3.543 15.06v4.324c0 1.862 0 3.36.55 4.141.534.775 1.912.84 2.696.84h2.689v1.805h-18.96v-1.805h1.81c1.905 0 2.871-.304 3.35-1.089.667-1.071.55-3.952.55-3.952V49.883c0-3.6-.127-6.3-.55-7.26-.479-1.034-1.198-1.264-2.818-1.264h-.66v-1.804h10.204l.298 7.197h.062c.297-3.473 2.342-8.029 7.028-8.029 2.512 0 4.085 1.194 4.085 3.538 0 1.79-1.329 3.595-3.668 3.538m24.237 21.913l-.107-4.404s-.07.202-.07 0c-.714 2.295-3.777 5.232-7.857 5.232-6.778 0-8.283-3.947-8.283-9.17V47.244c0-3.548-.118-4.869-.362-5.225-.17-.305-.472-.66-2.035-.66h-.43v-1.804h10.214v20.59c0 4.49 2.457 4.61 3.658 4.61 2.042 0 3.66-1.797 4.256-4.193.358-1.39.358-2.934.358-4.5v-8.818c0-2.464.072-4.504-.472-5.1-.482-.555-1.141-.785-3.001-.785h-.602v-1.804h11.402v21.37c0 1.863.13 3.361.664 4.142.535.775 1.383.84 2.222.84h1.076v1.805h-10.63zm31.224 0l-.13-4.404c-.521 1.877-3.243 5.232-7.86 5.232-8.883 0-11.225-8.099-11.225-14.94 0-6.78 4.087-14.877 12.19-14.877 4.026 0 5.647 1.615 6.238 2.819v-8.76c0-1.564 0-2.71-.901-3.618-.536-.538-1.378-.772-2.764-.772h-.541v-1.808l11.524-.889V62.32c0 1.967.31 2.56.794 2.987.536.416 1.55.601 2.634.601h.776v1.805h-10.735zm19.868-15.013s-.177 2.939.412 6.37c.599 3.406 2.045 7.01 6.057 7.01 5.59 0 8.229-4.918 8.229-7.976h2.337c0 4.024-3.892 10.437-11.58 10.437-8.995 0-13.441-6.358-13.441-14.94 0-8.877 5.821-14.877 13.204-14.877 8.756 0 12.184 6.354 12.184 13.976h-17.402zm38.711 15.013v-20.96c0-4.129-1.985-4.434-3.6-4.434-1.157 0-2.467.657-3.36 2.1-.79 1.326-1.215 3.717-1.215 6.07v10.378c0 2.399-.101 3.595.425 4.201.484.536 1.144.84 2.704.84h.836v1.805h-15.306v-1.805h.906c1.325 0 2.165-.304 2.636-.84.544-.606.43-1.802.43-4.2V46.4c0-1.86.055-3.425-.495-4.21-.592-.78-1.49-.83-2.334-.83h-1.143v-1.805h10.682l.128 4.381h.065c1.016-2.639 3.595-5.213 7.915-5.213 6.486 0 8.051 3.538 8.051 9.412v12.79c0 2.34-.062 3.361.467 4.142.547.775 1.566.84 2.349.84h1.141v1.805h-11.282zm28.744-2.714c-1.191 2.522-3.48 3.542-6.898 3.542-6.07 0-7.086-4.37-7.086-7.856V41.41h-5.041v-1.855h.48c6.538 0 10.016-8.7 10.016-12.97h1.862v12.97h5.64v1.855h-5.522v20.165c0 1.935.248 3.792 2.347 3.792.903 0 1.503-.419 1.922-1.08 1.134-1.63 1.089-4.872 1.089-7.017h2.212c0 3.291-.24 6.038-1.02 7.728m1.562 2.714v-1.805h.893c.844 0 1.813-.065 2.347-.84.542-.78.542-2.41.542-4.271V45.744c0-1.203.122-2.884-.911-3.725-.597-.53-1.733-.61-2.817-.61h-.596v-1.854h11.699v21.24c0 1.861-.052 3.491.545 4.272.546.775 1.438.84 2.28.84h1.137v1.805H299.8zm32.646 0c.055 0-.057-4.58-.125-4.58-.471 2.346-4.074 5.408-8.1 5.408-6.293 0-8.285-4.434-8.285-7.26 0-6.66 6.673-8.883 15.848-10.685v-4.74c0-3.232-1.375-5.155-5.638-5.155-2.873 0-5.347 1.743-5.702 2.757v.127c.355-.554 1.139-.724 1.739-.724 2.101 0 3.546 1.19 3.546 3.29 0 1.633-1.689 3.431-4.016 3.431-1.928 0-4.215-1.263-4.215-4.207 0-3.964 4.632-6.65 10.568-6.65 5.276 0 11.043 1.482 11.043 9.711v13.81c0 2.041.297 2.703.786 3.06.538.417 1.264.602 2.043.602h.581v1.805h-10.073zm-25.384-32.54a4.555 4.555 0 0 1-4.556-4.563c0-2.522 2.032-4.491 4.556-4.491 2.52 0 4.562 1.97 4.562 4.49a4.564 4.564 0 0 1-4.562 4.565m36.426 32.539v-1.805h.363c.779 0 1.625-.185 2.162-.601.476-.426.781-.845.781-2.987V32.781c0-.849 0-2.709-.911-3.618-.531-.537-1.548-.77-2.207-.77h-1.083v-1.809l11.53-.889V62.32c0 1.967.291 2.56.777 2.987.537.416 1.554.601 2.695.601h.481v1.805H343.49zM130.672 84.653h1.91v-2.272h-1.91v2.272zm23.779 14.52c-.701 0-1.156-.373-1.156-1.02 0-.617.347-1.074 1.102-1.289.748.215 1.338.378 2.465.378 2.814 0 5.096-2.117 5.096-4.882 0-1.283-.564-2.36-.968-2.839.485-.243 1.343-.378 2.145-.378v-1.931c-1.044.107-2.17.642-3.002 1.236-.91-.646-1.958-.967-3.46-.967-2.975 0-5.282 1.93-5.282 4.88 0 1.529.588 2.896 1.904 3.888-1.069.675-1.876 1.18-1.876 2.389 0 .834.67 1.659 1.74 1.984-1.498.778-2.361 1.45-2.361 2.84 0 2.306 2.093 3.38 6.012 3.38 4.34 0 6.351-1.716 6.351-3.755 0-2.736-2.116-3.914-8.71-3.914zm-1.24-6.813c0-1.824 1.186-3.217 3.38-3.217 2.366 0 3.542 1.286 3.542 3.33 0 1.656-1.127 3.108-3.323 3.108-2.146 0-3.598-1.37-3.598-3.22zm3.917 12.82c-3.86 0-4.504-.698-4.504-1.746 0-.99.858-2.331 3.888-2.331 3.405 0 4.798.699 4.827 2.064-.029 1.367-1.904 2.014-4.211 2.014zm165.706-6.007c-.698 0-1.151-.373-1.151-1.02 0-.617.348-1.074 1.095-1.289.753.215 1.341.378 2.47.378 2.816 0 5.096-2.117 5.096-4.882 0-1.283-.564-2.36-.967-2.839.482-.243 1.342-.378 2.151-.378v-1.931c-1.052.107-2.176.642-3.01 1.236-.912-.646-1.958-.967-3.458-.967-2.977 0-5.284 1.93-5.284 4.88 0 1.529.592 2.896 1.907 3.888-1.075.675-1.876 1.18-1.876 2.389 0 .834.665 1.659 1.74 1.984-1.506.778-2.36 1.45-2.36 2.84 0 2.306 2.09 3.38 6.004 3.38 4.347 0 6.36-1.716 6.36-3.755 0-2.736-2.118-3.914-8.717-3.914zm-1.233-6.813c0-1.824 1.177-3.217 3.378-3.217 2.357 0 3.54 1.286 3.54 3.33 0 1.656-1.127 3.108-3.328 3.108-2.141 0-3.59-1.37-3.59-3.22zm3.914 12.82c-3.863 0-4.508-.698-4.508-1.746 0-.99.863-2.331 3.892-2.331 3.406 0 4.798.699 4.83 2.064-.032 1.367-1.91 2.014-4.214 2.014zm-116.226-6.997c-.885.935-2.545 2.114-3.994 2.114-1.396 0-2.28-.616-2.28-2.464V87.747h-1.932v10.139c0 3.004 1.96 4.075 4.022 4.075 1.585 0 3.033-.91 4.133-2.145h.051v1.876h1.934V87.747h-1.934v10.436zm30.117 1.955c-3.218 0-5.417-2.519-5.417-8.122 0-5.558 2.2-8.13 4.991-8.13 2.893 0 4.126 1.664 4.825 4.4l1.983-.592c-.858-3.539-2.948-5.632-6.542-5.632-4.666 0-7.402 3.65-7.402 9.954 0 6.784 3.054 9.945 7.402 9.945 3.97 0 5.953-2.467 6.81-6.058l-1.928-.375c-.593 2.358-1.748 4.61-4.722 4.61zm-21.935-9.63h-.056v-2.761h-1.929v13.945h1.93v-7.72c.911-2.87 2.172-4.45 4.589-4.506v-1.93c-2.312 0-3.46 1.071-4.534 2.973zm38.133-3.027c-1.582 0-3.03.911-4.132 2.143h-.054v-7.295h-1.928v19.363h1.928v-10.43c.888-.935 2.552-2.119 4.004-2.119 1.389 0 2.27.618 2.27 2.467v10.082h1.933V91.56c0-3.01-1.958-4.079-4.02-4.079zm56.636 0c-1.58 0-3.027.911-4.13 2.143h-.056v-1.877h-1.924v13.945h1.924v-10.43c.888-.935 2.55-2.119 3.999-2.119 1.393 0 2.28.618 2.28 2.467v10.082h1.935V91.56c0-3.01-1.963-4.079-4.028-4.079zm-38.643 4.181c0-3.055-2.469-4.18-4.827-4.18-2.628 0-4.346 1.337-5.227 2.947l1.688.886c.373-.943 1.42-2.172 3.568-2.172 1.661 0 2.866.698 2.866 2.551v.746c-6.194 1.101-8.525 2.63-8.525 5.688 0 2.55 1.821 3.833 3.968 3.833 2.09 0 3.648-1.126 4.614-2.197l.214 1.928h1.981c-.19-.72-.32-1.47-.32-3.002v-7.028zm-1.932 6.333c-1.126 1.283-2.895 2.302-4.286 2.302-1.077 0-2.31-.855-2.31-2.145 0-1.93 2.173-3.215 6.596-3.993v3.836zm13.974 3.697h1.933V82.33h-1.933v19.363zm-7.46 0h1.935V82.33h-1.934v19.363zM183.974 82.33l-4.666 8.879-4.668-8.879h-2.356l5.95 11.212v8.151h2.146v-8.151l5.955-11.212h-2.361zm-53.313 19.363h1.934V87.747h-1.934v13.945zm13.196-14.21c-1.583 0-3.028.91-4.13 2.142h-.055v-1.877h-1.93v13.945h1.93v-10.43c.887-.935 2.546-2.119 3.995-2.119 1.397 0 2.28.618 2.28 2.467v10.082h1.931V91.56c0-3.01-1.954-4.079-4.021-4.079zm48.138 0c-3.806 0-5.713 3.218-5.713 7.242 0 4.021 1.907 7.237 5.713 7.237 3.805 0 5.711-3.216 5.711-7.237 0-4.024-1.906-7.243-5.71-7.243zm0 12.815c-2.305 0-3.784-1.982-3.784-5.573 0-3.598 1.478-5.58 3.784-5.58 2.308 0 3.782 1.982 3.782 5.58 0 3.591-1.474 5.573-3.782 5.573zm147.201 0c-2.31 0-4.132-2.145-4.132-5.2h9.063v-1.29c0-4.449-2.413-6.326-5.307-6.326-3.436 0-5.685 2.733-5.685 7.243 0 5.092 2.947 7.237 6.061 7.237 3.161 0 4.446-1.664 5.36-3.243l-1.5-.78c-.805 1.448-2.148 2.359-3.86 2.359zm-.326-11.153c2.092 0 3.327 1.715 3.327 4.292h-7.082c.161-2.577 1.424-4.293 3.755-4.293zM122.83 90.51h-.054v-2.762h-1.926v13.945h1.926v-7.72c.915-2.87 2.173-4.45 4.59-4.506v-1.93c-2.309 0-3.461 1.071-4.536 2.973zm174.635 9.788c-2.306 0-4.128-2.145-4.128-5.2h9.063v-1.29c0-4.449-2.414-6.326-5.308-6.326-3.436 0-5.688 2.733-5.688 7.243 0 5.092 2.952 7.237 6.06 7.237 3.164 0 4.452-1.664 5.365-3.243l-1.505-.78c-.799 1.448-2.14 2.359-3.86 2.359zm-.321-11.153c2.091 0 3.326 1.715 3.326 4.292h-7.081c.16-2.577 1.422-4.293 3.755-4.293zm-183.86 2.466l-.025-.05c2.332-.803 3.272-2.333 3.272-4.454 0-2.63-2.038-4.777-5.415-4.777h-7.137v19.363h6.007c5.254 0 7.03-2.306 7.03-5.2 0-2.416-1.56-4.347-3.732-4.882zm-7.161-7.453h4.612c2.47 0 3.651 1.018 3.651 3.198 0 1.628-1.261 3.297-4.506 3.297h-3.757v-6.495zm4.025 15.714h-4.025v-7.397h3.702c3.057 0 5.042 1.443 5.042 3.91 0 2.416-1.558 3.487-4.719 3.487zm238.324-8.663c0-1.232.884-2.064 2.523-2.064 1.5 0 2.52.644 3.595 1.957l1.338-1.178c-.939-1.426-2.95-2.416-4.773-2.442-2.683-.029-4.534 1.338-4.615 3.754-.161 5.098 8.1 3.22 8.1 6.76 0 1.178-.914 2.302-3.004 2.302-1.742 0-3.082-.825-3.996-2.145l-1.53 1.156c1.29 1.714 3.407 2.653 5.58 2.653 2.523 0 4.882-1.37 4.882-4.075 0-5.203-8.1-3.647-8.1-6.678z"/><path fill="#6D6E71" d="M358.269 82.441c1.56 0 2.895 1.212 2.895 2.857 0 1.66-1.336 2.872-2.895 2.872-1.575 0-2.91-1.212-2.91-2.872 0-1.645 1.335-2.857 2.91-2.857zm0 .463c-1.328 0-2.355 1.028-2.355 2.394 0 1.397 1.027 2.409 2.355 2.409 1.312 0 2.34-1.012 2.34-2.41 0-1.365-1.028-2.393-2.34-2.393zm-.61 4.054h-.51v-3.305h1.267c.787 0 1.173.293 1.173.942 0 .594-.37.85-.864.91l.941 1.453h-.556l-.88-1.437h-.57v1.437zm0-1.853h.602c.618 0 .82-.178.82-.54 0-.317-.156-.495-.735-.495h-.687v1.035z"/></svg>