<svg xmlns="http://www.w3.org/2000/svg" viewBox="0 0 392.2 49.4"><path d="M184.1 0c-1 0-1.7.8-1.7 1.7V14h32.3L199.9 0h-15.8zm31.7 17.7c0-1-.8-1.7-1.7-1.7h-12.2v32.3l14-14.7-.1-15.9zm-17.7 31.7c1 0 1.7-.8 1.7-1.7V35.4h-32.3l14.7 14h15.9zm-31.7-17.7c0 1 .8 1.7 1.7 1.7h12.2V1.2l-14 14.7.1 15.8z" fill="#0179C1"/><path d="M51.3 21.8H35.7V10.6H30v28.2h5.7V26.7h15.6v12.1H57V10.6h-5.7m97.3 23.2h-16v-7.1h15.5v-4.8h-15.5v-6.5h16l3.1-4.8h-24.8v28.2h24.9M10 15.6h13.5l3.2-5H8.9C3 10.6 0 14.2 0 19.4v10.5c0 6 3.8 8.9 8.9 8.9h17.8l-3.3-5.2H10c-2.9 0-4.1-1-4.1-4.2v-9.6c0-3 1-4.2 4.1-4.2zm104.2 6.1h-11.3c-1.3 0-2.1-.3-2.1-2.2v-2c0-1.6.6-2.2 2.1-2.2h14.8l3.1-4.9H102c-3.4 0-6.9 2.1-6.9 7.3v1.4c0 5.5 3.4 7.6 6.7 7.6h11.8c1.2 0 2.2.2 2.2 2.3v2.4c0 1.9-1 2.3-2.3 2.3H98l-3.2 5h19.1c4.6 0 7.7-2.3 7.7-7.6v-1.9c0-5-2.9-7.5-7.4-7.5zM73.5 10.6L60.1 38.8h6.3L69 33h14.5l2.6 5.8h6.4L79.1 10.6h-5.6zm-2.3 17.6l5.1-11.7 5.1 11.7H71.2zM245.8 29.4c0 1.6-.6 2.8-1.7 3.7-1.2.9-2.7 1.4-4.6 1.4-2.3 0-4.1-.3-5.3-.8v-1.3c1.4.6 3.1.9 5.2.9 1.6 0 2.8-.4 3.7-1.1.9-.7 1.4-1.6 1.4-2.8 0-.7-.2-1.3-.5-1.8s-.8-.9-1.5-1.3-1.7-.8-3-1.3c-1.9-.7-3.3-1.4-4-2.2-.7-.8-1.1-1.8-1.1-3.1 0-1.4.6-2.6 1.7-3.5 1.1-.9 2.5-1.3 4.3-1.3 1.8 0 3.4.3 5 1l-.5 1.1c-1.6-.7-3.1-1-4.5-1s-2.5.3-3.3 1c-.8.6-1.2 1.5-1.2 2.6 0 .7.1 1.3.4 1.7.3.4.7.9 1.2 1.2.6.4 1.6.8 3 1.3 1.5.5 2.6 1 3.3 1.5.7.5 1.3 1 1.6 1.6.3.9.4 1.7.4 2.5zm19.5-4.6c0 3-.8 5.4-2.2 7.1-1.5 1.7-3.6 2.6-6.2 2.6s-4.7-.9-6.2-2.6c-1.5-1.7-2.2-4.1-2.2-7.1s.8-5.4 2.3-7.1c1.5-1.7 3.6-2.6 6.2-2.6s4.7.9 6.2 2.6c1.4 1.7 2.1 4.1 2.1 7.1zm-15.4 0c0 2.7.6 4.8 1.8 6.3 1.2 1.5 2.9 2.2 5.2 2.2 2.3 0 4-.7 5.2-2.2 1.2-1.5 1.8-3.6 1.8-6.3 0-2.7-.6-4.8-1.8-6.3-1.2-1.5-2.9-2.2-5.2-2.2-2.2 0-4 .7-5.2 2.2-1.2 1.5-1.8 3.6-1.8 6.3zm31.5.9l5.5-10.3h1.4L282.1 27v7.3h-1.4v-7.2l-6.3-11.7h1.5l5.5 10.3zm24.5-.9c0 3-.7 5.4-2.2 7.1-1.5 1.7-3.6 2.6-6.2 2.6s-4.7-.9-6.2-2.6c-1.5-1.7-2.3-4.1-2.3-7.1s.8-5.4 2.3-7.1c1.5-1.7 3.6-2.6 6.2-2.6s4.7.9 6.2 2.6c1.4 1.7 2.2 4.1 2.2 7.1zm-15.5 0c0 2.7.6 4.8 1.8 6.3 1.2 1.5 2.9 2.2 5.2 2.2 2.3 0 4-.7 5.2-2.2 1.2-1.5 1.8-3.6 1.8-6.3 0-2.7-.6-4.8-1.8-6.3-1.2-1.5-2.9-2.2-5.2-2.2-2.2 0-4 .7-5.2 2.2-1.2 1.5-1.8 3.6-1.8 6.3zm33.3-9.4v12.2c0 2.2-.6 3.9-1.9 5.1-1.3 1.2-3 1.8-5.3 1.8-2.2 0-3.9-.6-5.1-1.8-1.2-1.2-1.8-2.9-1.8-5.1V15.4h1.3v12.2c0 1.8.5 3.2 1.5 4.2s2.4 1.5 4.3 1.5c1.8 0 3.2-.5 4.2-1.5s1.5-2.4 1.5-4.1V15.4h1.3zm20.6.9c-2.4 0-4.2.8-5.6 2.3-1.4 1.5-2 3.6-2 6.2 0 2.7.6 4.8 1.9 6.3 1.3 1.5 3.1 2.2 5.5 2.2 1.6 0 3-.2 4.4-.6v1.2c-1.3.4-2.8.7-4.7.7-2.7 0-4.7-.9-6.3-2.6-1.5-1.7-2.3-4.1-2.3-7.2 0-1.9.4-3.6 1.1-5.1.7-1.5 1.8-2.6 3.1-3.4 1.4-.8 3-1.2 4.8-1.2 1.8 0 3.5.3 5 1l-.5 1.2c-1.4-.6-2.9-1-4.4-1zm18.1 11.3h-7.7l-2.6 6.7h-1.5l7.6-19h.8l7.4 19h-1.5l-2.5-6.7zm-7.2-1.2h6.8l-2.6-6.8c-.2-.5-.5-1.3-.8-2.2-.2.8-.5 1.6-.8 2.3l-2.6 6.7zm27.8 7.9h-1.3l-11.2-16.8h-.1c.1 2 .2 3.5.2 4.5v12.3h-1.3V15.4h1.3l11.2 16.8h.1c-.1-1.6-.1-3-.1-4.4V15.4h1.3v18.9zM386.5 17.9c0-.5.1-1 .4-1.4.3-.4.6-.8 1-1 .4-.3.9-.4 1.4-.4.5 0 1 .1 1.4.4.4.3.8.6 1 1 .3.4.4.9.4 1.4 0 .5-.1 1-.4 1.4-.2.4-.6.8-1 1-.4.3-.9.4-1.4.4-.5 0-1-.1-1.4-.4-.4-.3-.8-.6-1-1-.3-.4-.4-.9-.4-1.4zm.4 0c0 .4.1.8.3 1.2.2.4.5.7.9.9.4.2.8.3 1.2.3.4 0 .8-.1 1.2-.3.4-.2.7-.5.9-.9.2-.4.3-.8.3-1.2 0-.4-.1-.8-.3-1.2s-.5-.7-.9-.9c-.4-.2-.8-.3-1.2-.3-.4 0-.8.1-1.2.3-.4.2-.7.5-.9.9-.2.4-.3.8-.3 1.2zm3.6-.7c0 .2-.1.4-.2.5-.1.2-.3.3-.5.3l.9 1.5h-.6l-.8-1.3h-.5v1.3h-.6v-3.4h1c.4 0 .7.1.9.2.3.3.4.6.4.9zm-1.6.6h.4c.2 0 .4-.1.5-.2.1-.1.2-.2.2-.4s-.1-.3-.2-.4c-.1-.1-.3-.1-.5-.1h-.4v1.1z"/></svg>