<?xml version="1.0" encoding="utf-8"?>
<!-- Generator: Adobe Illustrator 18.1.1, SVG Export Plug-In . SVG Version: 6.00 Build 0)  -->
<!DOCTYPE svg PUBLIC "-//W3C//DTD SVG 1.1//EN" "http://www.w3.org/Graphics/SVG/1.1/DTD/svg11.dtd">
<svg version="1.1" id="Layer_1" xmlns="http://www.w3.org/2000/svg" xmlns:xlink="http://www.w3.org/1999/xlink" x="0px" y="0px"
	 viewBox="0 0 392.2 49.4" enable-background="new 0 0 392.2 49.4" xml:space="preserve">
<g>
	<g>
		<path fill="#0179C1" d="M184.1,0c-1,0-1.7,0.8-1.7,1.7V14h32.3L199.9,0L184.1,0z"/>
		<path fill="#0179C1" d="M215.8,17.7c0-1-0.8-1.7-1.7-1.7h-12.2v32.3l14-14.7L215.8,17.7z"/>
		<path fill="#0179C1" d="M198.1,49.4c1,0,1.7-0.8,1.7-1.7V35.4h-32.3l14.7,14L198.1,49.4z"/>
		<path fill="#0179C1" d="M166.4,31.7c0,1,0.8,1.7,1.7,1.7h12.2V1.2l-14,14.7L166.4,31.7z"/>
	</g>
	<g>
		<polygon points="51.3,21.8 35.7,21.8 35.7,10.6 30,10.6 30,38.8 35.7,38.8 35.7,26.7 51.3,26.7 51.3,38.8 57,38.8 57,10.6 
			51.3,10.6 		"/>
		<polygon points="148.6,33.8 132.6,33.8 132.6,26.7 148.1,26.7 148.1,21.9 132.6,21.9 132.6,15.4 148.6,15.4 151.7,10.6 
			126.9,10.6 126.9,38.8 151.8,38.8 		"/>
		<path d="M10,15.6h13.5l3.2-5H8.9C3,10.6,0,14.2,0,19.4v10.5c0,6,3.8,8.9,8.9,8.9h17.8l-3.3-5.2H10c-2.9,0-4.1-1-4.1-4.2v-9.6
			C5.9,16.8,6.9,15.6,10,15.6z"/>
		<path d="M114.2,21.7h-11.3c-1.3,0-2.1-0.3-2.1-2.2l0-2c0-1.6,0.6-2.2,2.1-2.2l14.8,0l3.1-4.9l-18.8,0c-3.4,0-6.9,2.1-6.9,7.3v1.4
			c0,5.5,3.4,7.6,6.7,7.6h11.8c1.2,0,2.2,0.2,2.2,2.3l0,2.4c0,1.9-1,2.3-2.3,2.3H98l-3.2,5h19.1c4.6,0,7.7-2.3,7.7-7.6v-1.9
			C121.6,24.2,118.7,21.7,114.2,21.7z"/>
		<path d="M73.5,10.6L60.1,38.8h6.3L69,33h14.5l2.6,5.8h6.4L79.1,10.6H73.5z M71.2,28.2l5.1-11.7l5.1,11.7H71.2z"/>
	</g>
	<g>
		<path d="M245.8,29.4c0,1.6-0.6,2.8-1.7,3.7c-1.2,0.9-2.7,1.4-4.6,1.4c-2.3,0-4.1-0.3-5.3-0.8v-1.3c1.4,0.6,3.1,0.9,5.2,0.9
			c1.6,0,2.8-0.4,3.7-1.1c0.9-0.7,1.4-1.6,1.4-2.8c0-0.7-0.2-1.3-0.5-1.8c-0.3-0.5-0.8-0.9-1.5-1.3c-0.7-0.4-1.7-0.8-3-1.3
			c-1.9-0.7-3.3-1.4-4-2.2c-0.7-0.8-1.1-1.8-1.1-3.1c0-1.4,0.6-2.6,1.7-3.5c1.1-0.9,2.5-1.3,4.3-1.3c1.8,0,3.4,0.3,5,1l-0.5,1.1
			c-1.6-0.7-3.1-1-4.5-1c-1.4,0-2.5,0.3-3.3,1c-0.8,0.6-1.2,1.5-1.2,2.6c0,0.7,0.1,1.3,0.4,1.7c0.3,0.4,0.7,0.9,1.2,1.2
			c0.6,0.4,1.6,0.8,3,1.3c1.5,0.5,2.6,1,3.3,1.5c0.7,0.5,1.3,1,1.6,1.6C245.7,27.8,245.8,28.6,245.8,29.4z"/>
		<path d="M265.3,24.8c0,3-0.8,5.4-2.2,7.1c-1.5,1.7-3.6,2.6-6.2,2.6c-2.6,0-4.7-0.9-6.2-2.6c-1.5-1.7-2.2-4.1-2.2-7.1
			c0-3,0.8-5.4,2.3-7.1c1.5-1.7,3.6-2.6,6.2-2.6c2.6,0,4.7,0.9,6.2,2.6C264.6,19.4,265.3,21.8,265.3,24.8z M249.9,24.8
			c0,2.7,0.6,4.8,1.8,6.3c1.2,1.5,2.9,2.2,5.2,2.2c2.3,0,4-0.7,5.2-2.2c1.2-1.5,1.8-3.6,1.8-6.3c0-2.7-0.6-4.8-1.8-6.3
			c-1.2-1.5-2.9-2.2-5.2-2.2c-2.2,0-4,0.7-5.2,2.2C250.5,20,249.9,22.1,249.9,24.8z"/>
		<path d="M281.4,25.7l5.5-10.3h1.4L282.1,27v7.3h-1.4v-7.2l-6.3-11.7h1.5L281.4,25.7z"/>
		<path d="M305.9,24.8c0,3-0.7,5.4-2.2,7.1c-1.5,1.7-3.6,2.6-6.2,2.6c-2.6,0-4.7-0.9-6.2-2.6c-1.5-1.7-2.3-4.1-2.3-7.1
			c0-3,0.8-5.4,2.3-7.1c1.5-1.7,3.6-2.6,6.2-2.6c2.6,0,4.7,0.9,6.2,2.6C305.1,19.4,305.9,21.8,305.9,24.8z M290.4,24.8
			c0,2.7,0.6,4.8,1.8,6.3c1.2,1.5,2.9,2.2,5.2,2.2c2.3,0,4-0.7,5.2-2.2c1.2-1.5,1.8-3.6,1.8-6.3c0-2.7-0.6-4.8-1.8-6.3
			c-1.2-1.5-2.9-2.2-5.2-2.2c-2.2,0-4,0.7-5.2,2.2C291,20,290.4,22.1,290.4,24.8z"/>
		<path d="M323.7,15.4v12.2c0,2.2-0.6,3.9-1.9,5.1c-1.3,1.2-3,1.8-5.3,1.8c-2.2,0-3.9-0.6-5.1-1.8c-1.2-1.2-1.8-2.9-1.8-5.1V15.4
			h1.3v12.2c0,1.8,0.5,3.2,1.5,4.2c1,1,2.4,1.5,4.3,1.5c1.8,0,3.2-0.5,4.2-1.5c1-1,1.5-2.4,1.5-4.1V15.4H323.7z"/>
		<path d="M344.3,16.3c-2.4,0-4.2,0.8-5.6,2.3c-1.4,1.5-2,3.6-2,6.2c0,2.7,0.6,4.8,1.9,6.3c1.3,1.5,3.1,2.2,5.5,2.2
			c1.6,0,3-0.2,4.4-0.6v1.2c-1.3,0.4-2.8,0.7-4.7,0.7c-2.7,0-4.7-0.9-6.3-2.6c-1.5-1.7-2.3-4.1-2.3-7.2c0-1.9,0.4-3.6,1.1-5.1
			c0.7-1.5,1.8-2.6,3.1-3.4c1.4-0.8,3-1.2,4.8-1.2c1.8,0,3.5,0.3,5,1l-0.5,1.2C347.3,16.7,345.8,16.3,344.3,16.3z"/>
		<path d="M362.4,27.6h-7.7l-2.6,6.7h-1.5l7.6-19h0.8l7.4,19h-1.5L362.4,27.6z M355.2,26.4h6.8l-2.6-6.8c-0.2-0.5-0.5-1.3-0.8-2.2
			c-0.2,0.8-0.5,1.6-0.8,2.3L355.2,26.4z"/>
		<path d="M383,34.3h-1.3l-11.2-16.8h-0.1c0.1,2,0.2,3.5,0.2,4.5v12.3h-1.3V15.4h1.3l11.2,16.8h0.1c-0.1-1.6-0.1-3-0.1-4.4V15.4h1.3
			V34.3z"/>
	</g>
</g>
<g>
	<path d="M386.5,17.9c0-0.5,0.1-1,0.4-1.4c0.3-0.4,0.6-0.8,1-1c0.4-0.3,0.9-0.4,1.4-0.4c0.5,0,1,0.1,1.4,0.4c0.4,0.3,0.8,0.6,1,1
		c0.3,0.4,0.4,0.9,0.4,1.4c0,0.5-0.1,1-0.4,1.4c-0.2,0.4-0.6,0.8-1,1c-0.4,0.3-0.9,0.4-1.4,0.4c-0.5,0-1-0.1-1.4-0.4
		c-0.4-0.3-0.8-0.6-1-1C386.6,18.9,386.5,18.4,386.5,17.9z M386.9,17.9c0,0.4,0.1,0.8,0.3,1.2c0.2,0.4,0.5,0.7,0.9,0.9
		c0.4,0.2,0.8,0.3,1.2,0.3c0.4,0,0.8-0.1,1.2-0.3c0.4-0.2,0.7-0.5,0.9-0.9c0.2-0.4,0.3-0.8,0.3-1.2c0-0.4-0.1-0.8-0.3-1.2
		s-0.5-0.7-0.9-0.9c-0.4-0.2-0.8-0.3-1.2-0.3c-0.4,0-0.8,0.1-1.2,0.3c-0.4,0.2-0.7,0.5-0.9,0.9C387,17.1,386.9,17.5,386.9,17.9z
		 M390.5,17.2c0,0.2-0.1,0.4-0.2,0.5c-0.1,0.2-0.3,0.3-0.5,0.3l0.9,1.5h-0.6l-0.8-1.3h-0.5v1.3h-0.6v-3.4h1c0.4,0,0.7,0.1,0.9,0.2
		C390.4,16.6,390.5,16.9,390.5,17.2z M388.9,17.8h0.4c0.2,0,0.4-0.1,0.5-0.2c0.1-0.1,0.2-0.2,0.2-0.4c0-0.2-0.1-0.3-0.2-0.4
		c-0.1-0.1-0.3-0.1-0.5-0.1h-0.4V17.8z"/>
</g>
</svg>
