<svg id="Layer_3" xmlns="http://www.w3.org/2000/svg" viewBox="0 0 230.4 130"><style>.st0{fill:#fff}.st1{fill:#e90e7f}.st2{fill:none}</style><title>headline</title><path class="st0" d="M2 .2h21.9V6h-6.6v22.6H8.6V6.1H2V.2zm48.4 0v21.7c0 5.5-2.8 7-7.2 7H35c-4.3 0-7.3-1.4-7.3-7V.2h8.6v18.5c0 1.9 0 4.5 3.1 4.5s3-2.6 3-4.5V.2h8zm4.2 0h13.1l6.1 19.4h.1V.2h8.6v28.5H69.2l-6-19.2h-.1v19.2h-8.6V.2zm32 0H103V6h-7.8v5.3h7.8V17h-7.8v5.8h7.8v5.8H86.6V.2zm34.7 0h8.7v28.5h-8.6L121.3.2zm12.8 0h13.1l6.1 19.4h.1V.2h8.6v28.5h-13.2l-6-19.2h-.1v19.2H134l.1-28.5zm45.4 0h21.9V6h-6.6v22.6h-8.6V6.1h-6.6l-.1-5.9zm33 28.7c-4.3 0-7.4-1.4-7.4-7V7c0-5.5 2.9-7 7.4-7h8.5c4.2 0 7.2 1.3 7.2 7v14.9c0 5.5-2.7 7-7.2 7h-8.5zm7.1-19.8c0-1.9-.8-3.5-2.9-3.5-3 0-3 2.9-3 3.8v10.4c0 1 .1 3.6 3 3.6 1.4 0 2.9-.8 2.9-3.3v-11z"/><path class="st1" d="M2.8 36.2H16l6 19.4h.1V36.2h8.6v28.5H17.5l-6-19.2h-.1v19.2H2.8V36.2zm32.1 0h16.4V42h-7.8v5.3h7.8V53h-7.8v5.8h7.8v5.8H34.9V36.2zm20.1 0h8.6l2.7 18.1h.1l2.9-18.1h11.5l2.8 19h.1l3.1-18.9h8.1l-4.7 28.5H78l-3-19.9-3.3 19.9H59.3L55 36.2zm63.1 0h14.5l6.3 28.5H130l-1.2-5.6H121l-1.3 5.6h-8l6.4-28.5zm6.9 5.5l-2.6 11.5h5.1L125 41.7zm17.7-5.5h15.8c4.4 0 7.2 1.3 7.2 7.2 0 3.8-1.6 5.4-2.3 6-.8.6-1.7.9-2.7 1v.1c4.8.9 4.9 4.7 4.9 7.2-.1 2.3.2 4.7.9 6.9h-8.7c-.5-2.1-.7-4.3-.7-6.5 0-3.2-.4-4.9-3.8-4.9h-2v11.4h-8.6V36.2zm8.6 5.9v5.6h2.1c1 0 3.6 0 3.6-2.9 0-2.7-2.7-2.7-3.3-2.7h-2.4zm18.2-5.9h21.9V42h-6.6v22.6h-8.6V42.1h-6.6l-.1-5.9z"/><path class="st2" d="M142.9 74.5v1.2h.4l-.4-1.2zm-79.6 0v1.2h.5l-.4-1.2zm153.6-3.8c-3 0-3 2.9-3 3.8v1.2h5.9v-1.6c-.1-1.9-.9-3.4-2.9-3.4z"/><path class="st0" d="M17.4 71.1H24v-5.8H2.2v5.8h6.6v4.6h8.6zm25-5.8h8.1v10.5h-8.1zm-14.7 0h8.6v10.5h-8.6zm46.2 0h8.6v10.5h-8.6zm-10.6 9.2h.1l.4 1.2h7.3l-3.3-10.4H54.7v10.4h8.6zm32.1-3.4h7.8v-5.8H86.8v10.4h8.6zm26.1-5.8h8.6v10.5h-8.6zm21.4 9.2l.4 1.2h7.3l-3.3-10.4h-13.1v10.4h8.7zm10.6-9.2h8.6v10.5h-8.6zm41.4 5.8h6.6v-5.8h-21.8v5.8h6.6v4.6h8.6zm19 3.4c0-.9 0-3.8 3-3.8 2 0 2.9 1.5 2.9 3.5v1.6h8.6V72c0-5.7-3-7-7.2-7h-8.5c-4.5 0-7.4 1.6-7.4 7v3.7h8.6v-1.2zM10.8 75.7h8.6v3.8h-8.6z"/><path class="st0" d="M29.7 75.7h8.6v3.8h-8.6zm14.7 0h8.1v3.8h-8.1zm12.3 0h8.6v3.8h-8.6zm19.2 0h8.6v3.8h-8.6zm-2.8 0h-7.3l1.2 3.8h7.2zm24.3.7v-.7h-8.6v3.8h16.4v-3.1zm26.1-.7h8.6v3.8h-8.6zm12.7 0h8.6v3.8h-8.6zm16.4 0h-7.3l1.2 3.8h7.3zm2.9 0h8.6v3.8h-8.6zm32.8 0h8.6v3.8h-8.6zm19 0h8.6v3.8h-8.6zm14.4 0h8.6v3.8h-8.6z"/><path class="st2" d="M39.4 88.3c3 0 3-2.6 3-4.5v-4.3h-6.1v4.3c.1 1.9.1 4.5 3.1 4.5zm177.5.1c1.4 0 2.9-.8 2.9-3.3v-5.6h-5.9v5.3c0 1 .1 3.6 3 3.6zm-63.4-3.7v-5.2h-1.7l1.6 5.2zm-79.6 0v-5.2h-1.7l1.7 5.2z"/><path class="st0" d="M8.8 79.5h8.6V90H8.8zm41.7 7.4v-7.5h-8.1v4.3c0 1.9 0 4.5-3 4.5s-3.1-2.6-3.1-4.5v-4.3h-8.6v7.5c0 1 .1 2 .4 3h22c.3-.9.4-1.9.4-3zm4.2-7.4h8.6V90h-8.6zm27.9 0h-8.7v5.2l-1.7-5.2H65L68.2 90h14.4zm20.6 8.4h-7.8v-5.8h7.8v-2.6H86.8V90h16.4zm18.3-8.4h8.6V90h-8.6zm40.6 0h-8.6v5.2h-.1l-1.6-5.2h-7.3l3.2 10.5h14.4zm-27.9 0h8.6V90h-8.6zm52.1 0h8.6V90h-8.6zm42.1 7.5v-7.5h-8.6v5.6c0 2.5-1.4 3.3-2.9 3.3-2.8 0-3-2.6-3-3.6v-5.3h-8.6V87c0 1 .1 2 .4 3H228c.3-1 .4-2 .4-3zM5.8 90h8.6v3.8H5.8zM32 94h8.2c3.5 0 6-.9 6.9-4h-22c1 3.1 3.6 4 6.9 4zm19.7-4h8.6v3.8h-8.6zm27.9 3.7V90H65.2l1.2 3.7zm4.2-3.7h16.4v3.8H83.8zm34.7 0h8.6v3.8h-8.6zm40.6 3.7V90h-14.4l1.2 3.7zM131.2 90h8.6v3.8h-8.6zm52.1 0h8.6v3.8h-8.6zm26.3 4h8.6c3.5 0 5.9-.9 6.8-4h-22.3c.9 3.1 3.5 4 6.9 4z"/><path class="st1" d="M19.1 101.3H6v2.9h14zm6.1 0h8.6v3h-8.6zm12.9 0h16.4v3H38.1zm51.9 0l-.5 2.9h8.1l.5-2.9zm-6 0H72.4l-.5 2.9h12.5zm-17.3 0h-8.6l.5 2.9h8.6zm54.6 0l-.7 2.9h15.8l-.6-2.9zm40.3 0h-15.8v3H168c-1.1-2.4-3.3-3-6.4-3zm11 0h21.9v3h-21.9z"/><path class="st2" d="M153.4 118.3h-2v3.2h5.7c-.2-2.1-1-3.2-3.7-3.2zm3.8-8.5c0-2.7-2.7-2.7-3.3-2.7h-2.5v5.6h2.1c1 0 3.7 0 3.7-2.9zm-145.6.7v11h3.5l-3.4-11zm63.5-.7l-1.9 11.7h3.7l-1.7-11.7zm50-3.1l-2.5 11.5h5.1l-2.5-11.5zm-41.2 13.5l2.6-16h-5.1l2.4 16zm-61.7.5v-16.5H17l5.2 16.5zm44.3-1.3l2.4-15.2h-4.7l2.2 15.2z"/><path class="st1" d="M11.6 110.5h.1l3.4 11h15.8v-17.3h-8.7v16.5L17 104.2H3v17.3h8.6zm32.1 7.6h7.8v-5.7h-7.8v-5.3h7.8v-2.9H35.1v17.3h8.6zm31.4-8.3h.1l1.7 11.7h14.8l2.9-17.3h-8.1l-2.6 16h-.1l-2.4-16H68.9l-2.4 15.2h-.1l-2.2-15.2h-8.6l2.6 17.3h15zm58.3-5.6h-15.8l-3.9 17.2h23.5l-3.8-17.2zm-10.9 14l2.6-11.5h.1l2.5 11.5h-5.2zm28.9.1h2c2.7 0 3.5 1.1 3.7 3.2h8.6c-.1-2.4-.8-5.2-4.8-5.9v-.1c1-.1 1.9-.4 2.7-1 .7-.5 2.3-2.1 2.3-6 .1-1.5-.2-2.9-.8-4.3h-22.3v17.2h8.6v-3.1zm0-11.2h2.5c.6 0 3.3 0 3.3 2.7 0 2.9-2.7 2.9-3.6 2.9h-2.1v-5.6zm33.5 0h6.6v-2.9h-21.9v2.9h6.7v14.4h8.6z"/><path class="st1" d="M14.6 129.7h13.3v-8.2H12.1zM0 121.5h8.6v8.2H0zm48.5 8.2v-5.8h-7.8v-2.4h-8.6v8.2zm20.4 0l1.3-8.2h-15l1.2 8.2zm6.2 0h12.2l1.4-8.2H73.9zm41.8 0l1.3-5.6h7.8l1.2 5.6h8.9l-1.8-8.2h-23.6l-1.8 8.2zm37.3-6.5c0 2.2.2 4.4.7 6.5h8.7c-.7-2.2-1-4.6-.9-6.9v-1.3h-8.6c.1.5.1 1.1.1 1.7zm-14.4-1.7h8.6v8.2h-8.6zm33.5 0h8.6v8.2h-8.6z"/></svg>