<svg xmlns="http://www.w3.org/2000/svg" viewBox="0 0 320 61"><g fill="#FFF"><path d="M88.573 18.455h11.511c3.324 0 5.143 1.798 5.143 5.11v2.891c0 1.903-.91 3.243-2.59 3.842 2.065.423 3.115 1.833 3.115 3.913v3.7c0 3.314-1.785 5.111-5.144 5.111H88.573V18.455zm4.548 3.877v6.098h6.298c.84 0 1.294-.423 1.294-1.234v-3.56c0-.881-.454-1.304-1.364-1.304h-6.228zm0 9.94v6.874h6.753c.91 0 1.364-.423 1.364-1.34V33.54c0-.846-.454-1.27-1.33-1.27h-6.787zM128.28 18.455v19.527c0 3.348-1.82 5.181-5.144 5.181h-6.892c-3.324 0-5.144-1.833-5.144-5.18V18.454h4.549v19.35c0 .918.454 1.376 1.364 1.376h5.353c.91 0 1.365-.458 1.365-1.375V18.455h4.549zM139.332 43.023v-8.53l-5.773-9.13c-.21-.281-.56-1.057-.56-2.15v-4.758h4.548v4.194c0 .74.07 1.234.35 1.657l3.849 6.063 3.673-5.746c.28-.458.42-.952.42-1.657v-4.511h4.339v4.758c0 1.128-.385 1.869-.595 2.15l-5.703 8.953v8.706h-4.548zM167.212 27.161v15.861h-4.269V18.455h4.199l8.711 15.826V18.455h4.269v24.568h-4.163l-8.747-15.862zM191.103 43.163c-3.323 0-5.142-1.833-5.142-5.18V23.494c0-3.349 1.82-5.181 5.142-5.181h6.893c3.324 0 5.144 1.832 5.144 5.181v14.487c0 3.348-1.82 5.181-5.144 5.181h-6.893zm-.594-5.322c0 .917.49 1.41 1.364 1.41h5.354c.91 0 1.364-.493 1.364-1.375V23.601c0-.916-.454-1.375-1.364-1.375h-5.354c-.91 0-1.364.459-1.364 1.375v14.24zM232.98 18.455v5.64c0 .916-.28 1.797-.35 2.114l-4.62 16.813h-4.513l-3.009-10.856-2.973 10.856h-4.55l-4.617-16.813c-.07-.317-.35-1.198-.35-2.115v-5.64h4.338v5.076c0 .811.07 1.163.175 1.622l2.904 11.56 2.834-11.56c.106-.459.21-.81.21-1.622v-5.075h4.094v5.252c0 .493.105 1.057.21 1.445l2.834 11.56 2.869-11.56c.105-.459.175-.81.175-1.622v-5.075h4.339z"/></g></svg>