<svg xmlns="http://www.w3.org/2000/svg" viewBox="0 0 751.2801 107.0066"><g fill="#FFF"><path d="M124.573 0L140.8 23.056h-32.453zM405.234 23.778l-12.904 30.63-13.441-30.63h-14.09L351.474 54.02 338.78 23.78h-21.434l26.545 60.172h13.43l13.597-30.298 13.327 30.298h14.404l26.305-60.173zM703.97 23.778v21.154h-36.887V23.778h-20.58v60.173h20.58V60.71h36.888v23.24h20.471V23.778zM449.42 23.778l-40.4 60.173h22.364l25.044-38.755 24.843 38.755h23.033l-39.333-60.173zM169.345 23.778h-22.712l-22.965 36.635-22.54-36.635H77.843l38.01 60.173h14.038zM488.422 23.778v15.78h26.173V83.95h20.58V39.557h20.679l10.445-15.779zM69.529 24.752c-2.137-.653-4.532-.974-7.11-.974H16.89C6.474 23.778 0 29.004 0 37.415v32.9c0 4.926 2.51 8.96 7.059 11.367l.871.458 12.547-12.674V39.557h38.366v28.546h-28.2L14.782 83.95h47.636c10.009 0 17-5.604 17-13.637V39.122L69.986 24.89l-.458-.138zM620.937 23.778h-41.099c-1.083 0-2.183.069-3.266.206l-.613.069-1.793 2.739v-.011l-11.207 17.096v26.437c0 8.033 6.938 13.637 16.88 13.637h41.098c9.689 0 16.994-5.856 16.994-13.637V59.978h-20.575v8.125h-33.937V39.557h33.937v7.025h20.575v-9.087c0-8.331-6.67-13.717-16.994-13.717zM168.193 38.801v45.15h63.817V68.103h-43.236v-7.575h29.158V46.742h-29.158v-7.185h43.236V23.778h-53.326zM298.387 61.364c7.34-.309 15.235-3.85 15.235-10.92l-.022-14.336c0-7.608-5.925-12.33-15.464-12.33h-57.09V83.95h20.5V39.225h31.071c.574 0 .94.023 1.158.057.011.161.011.401.011.63v8.802c0 .149-.005.228-.01.274l-.013.023c-.245.184-.756.218-1.145.218h-21.762V61.33l25.262 22.62h28.156l-25.887-22.586z"/><path d="M456.68 107.007L440.46 83.95h32.44z"/></g><path fill="#FFF" d="M740.701 22.877c1.835 0 3.562.48 5.185 1.436 1.67.99 2.983 2.31 3.943 3.961a10.578 10.578 0 0 1 1.451 5.398c0 1.934-.483 3.739-1.451 5.412a10.593 10.593 0 0 1-3.976 3.928 10.571 10.571 0 0 1-5.38 1.437c-1.928 0-3.733-.483-5.412-1.452a10.604 10.604 0 0 1-3.961-3.93 10.475 10.475 0 0 1-1.47-5.38c0-2.051.546-3.94 1.638-5.674 1.05-1.66 2.485-2.965 4.312-3.913 1.58-.815 3.286-1.223 5.121-1.223zm.015 1.787c-1.691 0-3.298.456-4.816 1.361a8.726 8.726 0 0 0-3.334 3.548 8.945 8.945 0 0 0-.978 4.099c0 1.62.414 3.14 1.239 4.555a8.823 8.823 0 0 0 3.286 3.271 8.628 8.628 0 0 0 4.36 1.164 8.546 8.546 0 0 0 4.342-1.164 8.716 8.716 0 0 0 3.287-3.256 9.007 9.007 0 0 0 1.223-4.57c0-2.663-.996-4.909-2.98-6.744a8.516 8.516 0 0 0-3.074-1.82c-.9-.294-1.748-.444-2.555-.444zm-4.342 2.738h2.57c1.376 0 2.384.06 3.026.183.641.123 1.163.35 1.559.69.776.65 1.163 1.604 1.163 2.857 0 1.988-.911 3.206-2.737 3.655l3.838 5.137h-3.41l-3.256-4.708v4.708h-2.753V27.402zm2.753 2.249v3.286h.26c.876 0 1.458-.087 1.743-.26.447-.265.672-.72.672-1.362 0-.62-.162-1.056-.49-1.299-.326-.245-.896-.365-1.711-.365h-.474z"/></svg>