<?xml version="1.0" encoding="utf-8"?>
<!-- Generator: Adobe Illustrator 18.1.1, SVG Export Plug-In . SVG Version: 6.00 Build 0)  -->
<!DOCTYPE svg PUBLIC "-//W3C//DTD SVG 1.1//EN" "http://www.w3.org/Graphics/SVG/1.1/DTD/svg11.dtd">
<svg version="1.1" id="Layer_1" xmlns="http://www.w3.org/2000/svg" xmlns:xlink="http://www.w3.org/1999/xlink" x="0px" y="0px"
	 width="300px" height="600px" viewBox="0 0 300 600" style="enable-background:new 0 0 300 600;" xml:space="preserve">
<style type="text/css">
	.st0{fill:#8C8C8C;}
</style>
<g>
	<path class="st0" d="M83.6,54.6h3.1v1.3c0.7-1,1.8-1.5,3.2-1.5h0.4v3.2h-0.9c-1.8,0-2.7,1.2-2.7,2.7v6.9h-3.1V54.6z"/>
	<path class="st0" d="M90.3,60.8c0-3.7,3-6.5,6.5-6.5c3.7,0,6.6,2.8,6.6,6.5v1h-9.8c0.4,1.5,1.7,2.6,3.3,2.6c1.2,0,2.2-0.6,2.9-1.5
		l2.7,1.3c-1.1,1.9-3.2,3.1-5.7,3.1C93.3,67.3,90.3,64.5,90.3,60.8z M93.7,59.5h6.5c-0.4-1.5-1.7-2.5-3.2-2.5
		C95.4,57.1,94.1,58,93.7,59.5z"/>
	<path class="st0" d="M110,54.3c1.4,0,2.5,0.4,3.5,1.3v-1.1h3.1v12.5h-3.1V66c-1.1,0.9-2.2,1.3-3.5,1.3c-3.7,0-6.2-2.9-6.2-6.5
		C103.8,57.2,106.4,54.3,110,54.3z M113.6,62.8v-3.9c-0.9-1.2-2.2-1.6-3.1-1.6c-1.9,0-3.4,1.5-3.4,3.6c0,2.1,1.5,3.6,3.4,3.6
		C111.4,64.4,112.6,64,113.6,62.8z"/>
	<path class="st0" d="M124.2,54.3c1.4,0,2.5,0.4,3.5,1.3v-4.8h3.1v16.3h-3.1V66c-1.1,0.9-2.2,1.3-3.5,1.3c-3.7,0-6.2-2.9-6.2-6.5
		C117.9,57.2,120.5,54.3,124.2,54.3z M127.7,62.8v-3.9c-0.9-1.2-2.2-1.6-3.1-1.6c-1.9,0-3.4,1.5-3.4,3.6c0,2.1,1.5,3.6,3.4,3.6
		C125.5,64.4,126.8,64,127.7,62.8z"/>
	<path class="st0" d="M132.7,67.7c0.8,0.5,1.5,0.6,1.8,0.6c0.8,0,1.3-0.4,1.5-0.9l0.1-0.2l-4.7-12.7h3.6l2.9,8.9l2.9-8.9h3.5
		l-4.6,12.5c-1.2,3.2-3.1,4-4.9,4c-1.4,0-2.6-0.4-3.5-1L132.7,67.7z"/>
	<path class="st0" d="M149.2,55.3h1.5v-0.7c0-1.9,1.3-3.8,3.8-3.8h2.1v2.7h-1.5c-0.9,0-1.4,0.5-1.4,1.4v0.4h2.6v2.7h-2.6v9.1h-3.1
		v-9.1h-1.5V55.3z"/>
	<path class="st0" d="M156.5,60.8c0-3.6,3-6.5,6.6-6.5c3.6,0,6.6,2.9,6.6,6.5c0,3.7-3,6.5-6.6,6.5S156.5,64.6,156.5,60.8z
		 M166.4,60.8c0-2.1-1.5-3.6-3.4-3.6c-1.9,0-3.4,1.5-3.4,3.6c0,2.1,1.5,3.6,3.4,3.6S166.4,62.9,166.4,60.8z"/>
	<path class="st0" d="M170.8,54.6h3.1v1.3c0.7-1,1.8-1.5,3.2-1.5h0.4v3.2h-0.9c-1.8,0-2.7,1.2-2.7,2.7v6.9h-3.1V54.6z"/>
	<path class="st0" d="M182.3,54.6h1.8v-3h3.1v3h3.1v2.7h-3.1v5.1c0,1.1,0.7,1.9,1.8,1.9h1.2v2.9h-1.8c-2.5,0-4.4-1.6-4.4-4.2v-5.6
		h-1.8V54.6z"/>
	<path class="st0" d="M191.6,50.8h3.1v4.8c0.8-0.8,1.9-1.3,3.2-1.3c3.1,0,5.2,2.5,5.2,5.7v7H200V60c0-1.5-1.2-2.7-2.7-2.7
		c-1.5,0-2.7,1.3-2.7,2.7v7.1h-3.1V50.8z"/>
	<path class="st0" d="M204.2,60.8c0-3.7,3-6.5,6.5-6.5c3.7,0,6.6,2.8,6.6,6.5v1h-9.8c0.4,1.5,1.7,2.6,3.3,2.6c1.2,0,2.3-0.6,2.9-1.5
		l2.7,1.3c-1.1,1.9-3.2,3.1-5.7,3.1C207.2,67.3,204.2,64.5,204.2,60.8z M207.5,59.5h6.5c-0.4-1.5-1.7-2.5-3.2-2.5
		C209.3,57.1,208,58,207.5,59.5z"/>
	<path class="st0" d="M55.5,87.9c1.2,0,2.3-0.7,2.9-1.7l0.3-0.5l2.6,1.6l-0.5,0.7c-1.1,1.7-3.1,2.8-5.4,2.8c-3.6,0-6.6-2.9-6.6-6.5
		c0-3.6,3-6.5,6.6-6.5c2.3,0,4.3,1.1,5.4,2.8l0.5,0.7l-2.6,1.6l-0.3-0.5c-0.6-0.9-1.7-1.7-2.9-1.7c-1.9,0-3.4,1.5-3.4,3.6
		C52.1,86.4,53.6,87.9,55.5,87.9z"/>
	<path class="st0" d="M62.2,74.3h3.1v16.3h-3.1V74.3z"/>
	<path class="st0" d="M66.6,84.4c0-3.6,3-6.5,6.6-6.5s6.6,2.9,6.6,6.5c0,3.7-3,6.5-6.6,6.5C69.5,90.9,66.6,88.1,66.6,84.4z
		 M76.5,84.4c0-2.1-1.6-3.6-3.4-3.6c-1.9,0-3.4,1.5-3.4,3.6c0,2.1,1.5,3.6,3.4,3.6C75,87.9,76.5,86.5,76.5,84.4z"/>
	<path class="st0" d="M80.2,89.5l-0.4-0.2l1.6-2.4l0.5,0.3c0.9,0.5,2.2,1.1,3.7,1.1c1.2,0,1.9-0.4,1.9-1c0-0.9-1.1-1.1-3-1.5
		c-2.6-0.6-4.2-1.8-4.2-4c0-2,1.9-3.9,5.1-3.9c2,0,3.6,0.5,4.6,1l0.6,0.3l-1.5,2.3l-0.5-0.2c-0.5-0.2-1.9-0.7-3.2-0.7
		c-0.9,0-1.9,0.3-1.9,1c0,0.7,0.7,0.9,2.3,1.3c2.7,0.6,4.9,1.5,4.9,4c0,2.3-2,4.1-5.3,4.1C83.3,90.9,81.6,90.3,80.2,89.5z"/>
	<path class="st0" d="M91.1,84.3c0-3.7,3-6.5,6.5-6.5c3.7,0,6.6,2.8,6.6,6.5v1h-9.8c0.4,1.5,1.7,2.6,3.3,2.6c1.2,0,2.2-0.6,2.9-1.5
		l2.7,1.3c-1.1,1.9-3.2,3.1-5.7,3.1C94.1,90.9,91.1,88,91.1,84.3z M94.5,83.1h6.5c-0.4-1.5-1.7-2.5-3.2-2.5
		C96.2,80.6,94.9,81.6,94.5,83.1z"/>
	<path class="st0" d="M104.6,89.5l-0.4-0.2l1.6-2.4l0.5,0.3c0.9,0.5,2.2,1.1,3.7,1.1c1.2,0,1.9-0.4,1.9-1c0-0.9-1.1-1.1-3-1.5
		c-2.6-0.6-4.2-1.8-4.2-4c0-2,1.9-3.9,5.1-3.9c2,0,3.6,0.5,4.6,1l0.6,0.3l-1.5,2.3l-0.5-0.2c-0.5-0.2-1.9-0.7-3.2-0.7
		c-0.9,0-1.9,0.3-1.9,1c0,0.7,0.7,0.9,2.3,1.3c2.7,0.6,4.9,1.5,4.9,4c0,2.3-2,4.1-5.3,4.1C107.7,90.9,106,90.3,104.6,89.5z"/>
	<path class="st0" d="M115.4,78.1h1.8v-3h3.1v3h3.1v2.7h-3.1v5.1c0,1.1,0.7,1.9,1.8,1.9h1.2v2.9h-1.8c-2.6,0-4.4-1.6-4.4-4.2v-5.6
		h-1.8V78.1z"/>
	<path class="st0" d="M136.1,90.9c-1.4,0-2.5-0.4-3.5-1.3v1.1h-3.1V74.3h3.1v4.8c1-0.9,2.2-1.3,3.5-1.3c3.7,0,6.2,2.9,6.2,6.5
		S139.7,90.9,136.1,90.9z M132.5,82.4v3.9c0.9,1.3,2.2,1.6,3.1,1.6c1.9,0,3.4-1.5,3.4-3.6s-1.5-3.6-3.4-3.6
		C134.7,80.8,133.5,81.2,132.5,82.4z"/>
	<path class="st0" d="M149,77.9c1.4,0,2.5,0.4,3.5,1.3v-1.1h3.1v12.5h-3.1v-1.1c-1.1,0.9-2.2,1.3-3.5,1.3c-3.7,0-6.2-2.9-6.2-6.5
		S145.4,77.9,149,77.9z M152.6,86.3v-3.9c-0.9-1.2-2.2-1.6-3.1-1.6c-1.9,0-3.4,1.5-3.4,3.6s1.5,3.6,3.4,3.6
		C150.4,87.9,151.6,87.6,152.6,86.3z"/>
	<path class="st0" d="M157.6,78.1h3.1v1.3c0.7-1,1.8-1.5,3.2-1.5h0.4V81h-0.9c-1.8,0-2.7,1.2-2.7,2.7v6.9h-3.1V78.1z"/>
	<path class="st0" d="M169.3,84.4c0-3.6,3-6.5,6.6-6.5c3.6,0,6.6,2.9,6.6,6.5c0,3.7-3,6.5-6.6,6.5S169.3,88.1,169.3,84.4z
		 M179.2,84.4c0-2.1-1.5-3.6-3.4-3.6c-1.9,0-3.4,1.5-3.4,3.6c0,2.1,1.5,3.6,3.4,3.6S179.2,86.5,179.2,84.4z"/>
	<path class="st0" d="M183.7,78.1h3.1v1.3c0.7-1,1.8-1.5,3.2-1.5h0.4V81h-0.9c-1.8,0-2.7,1.2-2.7,2.7v6.9h-3.1V78.1z"/>
	<path class="st0" d="M202.7,90.9c-1.4,0-2.5-0.4-3.5-1.3v1.1h-3.1V74.3h3.1v4.8c1-0.9,2.1-1.3,3.5-1.3c3.7,0,6.2,2.9,6.2,6.5
		S206.3,90.9,202.7,90.9z M199.2,82.4v3.9c0.9,1.3,2.1,1.6,3.1,1.6c1.9,0,3.4-1.5,3.4-3.6s-1.5-3.6-3.4-3.6
		C201.3,80.8,200.1,81.2,199.2,82.4z"/>
	<path class="st0" d="M215.7,77.9c1.4,0,2.5,0.4,3.5,1.3v-1.1h3.1v12.5h-3.1v-1.1c-1.1,0.9-2.2,1.3-3.5,1.3c-3.7,0-6.2-2.9-6.2-6.5
		S212,77.9,215.7,77.9z M219.2,86.3v-3.9c-0.9-1.2-2.2-1.6-3.1-1.6c-1.9,0-3.4,1.5-3.4,3.6s1.5,3.6,3.4,3.6
		C217,87.9,218.3,87.6,219.2,86.3z"/>
	<path class="st0" d="M224.2,78.1h3.1v1.3c0.7-1,1.8-1.5,3.2-1.5h0.4V81H230c-1.8,0-2.7,1.2-2.7,2.7v6.9h-3.1V78.1z"/>
	<path class="st0" d="M231.6,78.1h3.1v1.3c0.7-1,1.8-1.5,3.2-1.5h0.4V81h-0.9c-1.8,0-2.7,1.2-2.7,2.7v6.9h-3.1V78.1z"/>
	<path class="st0" d="M238.2,84.3c0-3.7,3-6.5,6.5-6.5c3.7,0,6.6,2.8,6.6,6.5v1h-9.8c0.4,1.5,1.7,2.6,3.3,2.6c1.2,0,2.3-0.6,2.9-1.5
		l2.7,1.3c-1.1,1.9-3.2,3.1-5.7,3.1C241.2,90.9,238.2,88,238.2,84.3z M241.6,83.1h6.5c-0.4-1.5-1.7-2.5-3.2-2.5
		C243.3,80.6,242,81.6,241.6,83.1z"/>
</g>
</svg>
