<?xml version="1.0" encoding="utf-8"?>
<!-- Generator: Adobe Illustrator 18.1.1, SVG Export Plug-In . SVG Version: 6.00 Build 0)  -->
<!DOCTYPE svg PUBLIC "-//W3C//DTD SVG 1.1//EN" "http://www.w3.org/Graphics/SVG/1.1/DTD/svg11.dtd">
<svg version="1.1" id="Layer_1" xmlns="http://www.w3.org/2000/svg" xmlns:xlink="http://www.w3.org/1999/xlink" x="0px" y="0px"
	 width="300px" height="600px" viewBox="0 0 300 600" style="enable-background:new 0 0 300 600;" xml:space="preserve">
<style type="text/css">
	.st0{fill:#8C8C8C;}
</style>
<g>
	<path class="st0" d="M49.6,50.4h10.5v2.3h-4V63h-2.6V52.7h-4V50.4z"/>
	<path class="st0" d="M61,51.3h2.2v3.4c0.6-0.6,1.4-0.9,2.3-0.9c2.3,0,3.8,1.8,3.8,4.1V63h-2.2v-5.1c0-1.1-0.8-2-1.9-2
		c-1.1,0-1.9,0.9-1.9,2V63H61V51.3z"/>
	<path class="st0" d="M70.4,58.5c0-2.6,2.2-4.6,4.7-4.6c2.6,0,4.7,2,4.7,4.6v0.7h-7c0.3,1.1,1.2,1.9,2.4,1.9c0.8,0,1.6-0.4,2.1-1.1
		l2,1c-0.8,1.4-2.3,2.3-4.1,2.3C72.6,63.2,70.4,61.2,70.4,58.5z M72.9,57.6h4.6c-0.3-1.1-1.2-1.8-2.3-1.8
		C74.1,55.8,73.2,56.5,72.9,57.6z"/>
	<path class="st0" d="M84.2,51.6c0-0.8,0.6-1.4,1.4-1.4s1.4,0.6,1.4,1.4S86.4,53,85.6,53S84.2,52.4,84.2,51.6z M84.5,54h2.2v9h-2.2
		V54z"/>
	<path class="st0" d="M88.5,54h2.2v0.7c0.6-0.6,1.4-0.9,2.3-0.9c2.3,0,3.8,1.8,3.8,4.1V63h-2.2v-5.1c0-1.1-0.8-2-1.9-2
		c-1.1,0-1.9,0.9-1.9,2V63h-2.2V54z"/>
	<path class="st0" d="M97.8,54.5h1.1V54c0-1.4,0.9-2.7,2.7-2.7h1.5v1.9h-1c-0.7,0-1,0.3-1,1v0.3h1.9v1.9h-1.9V63h-2.2v-6.6h-1.1
		V54.5z"/>
	<path class="st0" d="M103.3,58.5c0-2.6,2.1-4.7,4.7-4.7c2.6,0,4.7,2.1,4.7,4.7c0,2.7-2.1,4.7-4.7,4.7S103.3,61.2,103.3,58.5z
		 M110.4,58.5c0-1.5-1.1-2.6-2.4-2.6c-1.3,0-2.4,1.1-2.4,2.6c0,1.5,1.1,2.6,2.4,2.6C109.4,61.1,110.4,60,110.4,58.5z"/>
	<path class="st0" d="M114,54h2.2v0.9c0.5-0.7,1.3-1.1,2.3-1.1h0.3v2.3h-0.6c-1.3,0-1.9,0.8-1.9,1.9v5H114V54z"/>
	<path class="st0" d="M119.7,54h2.2v0.8c0.6-0.6,1.4-1,2.3-1c1.2,0,2.1,0.6,2.6,1.4c0.6-0.9,1.5-1.4,2.7-1.4c2.3,0,3.5,1.8,3.5,3.8
		V63h-2.2v-5.3c0-1.1-0.7-1.8-1.7-1.8c-1,0-1.7,0.8-1.7,1.8V63h-2.2v-5.3c0-1.1-0.7-1.8-1.7-1.8c-1,0-1.7,0.8-1.7,1.8V63h-2.2V54z"
		/>
	<path class="st0" d="M138.7,53.8c1,0,1.8,0.3,2.5,0.9V54h2.2v9h-2.2v-0.8c-0.8,0.7-1.5,0.9-2.5,0.9c-2.6,0-4.5-2.1-4.5-4.7
		C134.2,55.9,136,53.8,138.7,53.8z M141.2,59.9v-2.8c-0.7-0.9-1.5-1.2-2.3-1.2c-1.4,0-2.5,1.1-2.5,2.6c0,1.5,1.1,2.6,2.5,2.6
		C139.7,61.1,140.5,60.8,141.2,59.9z"/>
	<path class="st0" d="M144.5,54h1.3v-2.2h2.2V54h2.2v1.9H148v3.6c0,0.8,0.5,1.3,1.3,1.3h0.9V63H149c-1.8,0-3.2-1.2-3.2-3v-4h-1.3V54
		z"/>
	<path class="st0" d="M151.2,51.6c0-0.8,0.6-1.4,1.4-1.4s1.4,0.6,1.4,1.4s-0.6,1.4-1.4,1.4S151.2,52.4,151.2,51.6z M151.5,54h2.2v9
		h-2.2V54z"/>
	<path class="st0" d="M154.9,58.5c0-2.6,2.1-4.7,4.7-4.7c2.6,0,4.7,2.1,4.7,4.7c0,2.7-2.1,4.7-4.7,4.7S154.9,61.2,154.9,58.5z
		 M162.1,58.5c0-1.5-1.1-2.6-2.4-2.6c-1.3,0-2.4,1.1-2.4,2.6c0,1.5,1.1,2.6,2.4,2.6C161,61.1,162.1,60,162.1,58.5z"/>
	<path class="st0" d="M165.6,54h2.2v0.7c0.6-0.6,1.4-0.9,2.3-0.9c2.3,0,3.8,1.8,3.8,4.1V63h-2.2v-5.1c0-1.1-0.8-2-1.9-2
		c-1.1,0-1.9,0.9-1.9,2V63h-2.2V54z"/>
	<path class="st0" d="M178.7,63.5c0.6,0.4,1,0.4,1.3,0.4c0.6,0,0.9-0.3,1.1-0.6l0.1-0.1l-3.4-9.1h2.6l2.1,6.4l2.1-6.4h2.5l-3.3,9
		c-0.8,2.3-2.2,2.9-3.5,2.9c-1,0-1.9-0.3-2.5-0.7L178.7,63.5z"/>
	<path class="st0" d="M187.1,58.5c0-2.6,2.1-4.7,4.7-4.7c2.6,0,4.7,2.1,4.7,4.7c0,2.7-2.1,4.7-4.7,4.7S187.1,61.2,187.1,58.5z
		 M194.3,58.5c0-1.5-1.1-2.6-2.4-2.6c-1.3,0-2.4,1.1-2.4,2.6c0,1.5,1.1,2.6,2.4,2.6C193.2,61.1,194.3,60,194.3,58.5z"/>
	<path class="st0" d="M197.7,59.3V54h2.2v5.3c0,1.1,0.8,1.8,1.9,1.8c1.1,0,1.9-0.8,1.9-1.8V54h2.2v5.3c0,2.3-1.9,3.9-4.1,3.9
		S197.7,61.6,197.7,59.3z"/>
	<path class="st0" d="M211,54h2.2v0.7c0.6-0.6,1.4-0.9,2.3-0.9c2.3,0,3.8,1.8,3.8,4.1V63h-2.2v-5.1c0-1.1-0.8-2-1.9-2
		c-1.1,0-1.9,0.9-1.9,2V63H211V54z"/>
	<path class="st0" d="M220.5,58.5c0-2.6,2.2-4.6,4.7-4.6c2.6,0,4.7,2,4.7,4.6v0.7h-7c0.3,1.1,1.2,1.9,2.4,1.9c0.8,0,1.6-0.4,2.1-1.1
		l2,1c-0.8,1.4-2.3,2.3-4.1,2.3C222.6,63.2,220.5,61.2,220.5,58.5z M222.9,57.6h4.6c-0.3-1.1-1.2-1.8-2.3-1.8
		C224.1,55.8,223.2,56.5,222.9,57.6z"/>
	<path class="st0" d="M230.5,58.5c0-2.6,2.2-4.6,4.7-4.6c2.6,0,4.7,2,4.7,4.6v0.7h-7c0.3,1.1,1.2,1.9,2.4,1.9c0.8,0,1.6-0.4,2.1-1.1
		l2,1c-0.8,1.4-2.3,2.3-4.1,2.3C232.7,63.2,230.5,61.2,230.5,58.5z M232.9,57.6h4.6c-0.3-1.1-1.2-1.8-2.3-1.8
		C234.2,55.8,233.2,56.5,232.9,57.6z"/>
	<path class="st0" d="M245,53.8c1,0,1.8,0.3,2.5,0.9v-3.5h2.2V63h-2.2v-0.8c-0.8,0.7-1.5,0.9-2.5,0.9c-2.6,0-4.5-2.1-4.5-4.7
		C240.5,55.9,242.4,53.8,245,53.8z M247.5,59.9v-2.8c-0.7-0.9-1.5-1.2-2.3-1.2c-1.4,0-2.5,1.1-2.5,2.6c0,1.5,1.1,2.6,2.5,2.6
		C246,61.1,246.9,60.8,247.5,59.9z"/>
	<path class="st0" d="M33.5,75.1H36l1.6,5.7l1.7-5.7h2.4l1.7,5.7l1.5-5.7h2.5l-2.7,9h-2.5l-1.8-5.8l-1.7,5.8h-2.5L33.5,75.1z"/>
	<path class="st0" d="M48.4,72.3h2.2v3.4c0.6-0.6,1.4-0.9,2.3-0.9c2.3,0,3.8,1.8,3.8,4.1v5.1h-2.2v-5.1c0-1.1-0.8-2-1.9-2
		c-1.1,0-1.9,0.9-1.9,2v5.1h-2.2V72.3z"/>
	<path class="st0" d="M57.8,79.5c0-2.6,2.2-4.6,4.7-4.6c2.6,0,4.7,2,4.7,4.6v0.7h-7c0.3,1.1,1.2,1.9,2.4,1.9c0.8,0,1.6-0.4,2.1-1.1
		l2,1c-0.8,1.4-2.3,2.3-4.1,2.3C60,84.2,57.8,82.2,57.8,79.5z M60.2,78.6h4.6c-0.3-1.1-1.2-1.8-2.3-1.8
		C61.5,76.9,60.6,77.5,60.2,78.6z"/>
	<path class="st0" d="M68.3,75.1h2.2v0.7c0.6-0.6,1.4-0.9,2.3-0.9c2.3,0,3.8,1.8,3.8,4.1v5.1h-2.2v-5.1c0-1.1-0.8-2-1.9-2
		c-1.1,0-1.9,0.9-1.9,2v5.1h-2.2V75.1z"/>
	<path class="st0" d="M81.4,84.5c0.6,0.4,1,0.4,1.3,0.4c0.6,0,0.9-0.3,1.1-0.6l0.1-0.1l-3.4-9.1h2.6l2.1,6.4l2.1-6.4h2.5l-3.3,9
		c-0.8,2.3-2.2,2.9-3.5,2.9c-1,0-1.9-0.3-2.5-0.7L81.4,84.5z"/>
	<path class="st0" d="M89.8,79.6c0-2.6,2.1-4.7,4.7-4.7c2.6,0,4.7,2.1,4.7,4.7c0,2.7-2.1,4.7-4.7,4.7S89.8,82.2,89.8,79.6z M97,79.6
		c0-1.5-1.1-2.6-2.4-2.6c-1.3,0-2.4,1.1-2.4,2.6c0,1.5,1.1,2.6,2.4,2.6C95.9,82.1,97,81.1,97,79.6z"/>
	<path class="st0" d="M100.4,80.4v-5.3h2.2v5.3c0,1.1,0.8,1.8,1.9,1.8s1.9-0.8,1.9-1.8v-5.3h2.2v5.3c0,2.3-1.9,3.9-4.1,3.9
		C102.3,84.2,100.4,82.7,100.4,80.4z"/>
	<path class="st0" d="M113.8,75.1h2.2v0.7c0.6-0.6,1.4-0.9,2.3-0.9c2.3,0,3.8,1.8,3.8,4.1v5.1h-2.2v-5.1c0-1.1-0.8-2-1.9-2
		c-1.1,0-1.9,0.9-1.9,2v5.1h-2.2V75.1z"/>
	<path class="st0" d="M123.2,79.5c0-2.6,2.2-4.6,4.7-4.6c2.6,0,4.7,2,4.7,4.6v0.7h-7c0.3,1.1,1.2,1.9,2.4,1.9c0.8,0,1.6-0.4,2.1-1.1
		l2,1c-0.8,1.4-2.3,2.3-4.1,2.3C125.4,84.2,123.2,82.2,123.2,79.5z M125.6,78.6h4.6c-0.3-1.1-1.2-1.8-2.3-1.8
		C126.9,76.9,125.9,77.5,125.6,78.6z"/>
	<path class="st0" d="M133.2,79.5c0-2.6,2.2-4.6,4.7-4.6c2.6,0,4.7,2,4.7,4.6v0.7h-7c0.3,1.1,1.2,1.9,2.4,1.9c0.8,0,1.6-0.4,2.1-1.1
		l2,1c-0.8,1.4-2.3,2.3-4.1,2.3C135.4,84.2,133.2,82.2,133.2,79.5z M135.6,78.6h4.6c-0.3-1.1-1.2-1.8-2.3-1.8
		C136.9,76.9,136,77.5,135.6,78.6z"/>
	<path class="st0" d="M147.7,74.9c1,0,1.8,0.3,2.5,0.9v-3.5h2.2v11.7h-2.2v-0.8c-0.8,0.7-1.5,0.9-2.5,0.9c-2.6,0-4.5-2.1-4.5-4.7
		C143.2,76.9,145.1,74.9,147.7,74.9z M150.3,81v-2.8c-0.7-0.9-1.5-1.2-2.3-1.2c-1.4,0-2.5,1.1-2.5,2.6c0,1.5,1.1,2.6,2.5,2.6
		C148.7,82.1,149.6,81.9,150.3,81z"/>
	<path class="st0" d="M157.5,72.7c0-0.8,0.6-1.4,1.4-1.4s1.4,0.6,1.4,1.4s-0.6,1.4-1.4,1.4S157.5,73.4,157.5,72.7z M157.8,75.1h2.2
		v9h-2.2V75.1z"/>
	<path class="st0" d="M161.1,75.1h1.3v-2.2h2.2v2.2h2.2V77h-2.2v3.6c0,0.8,0.5,1.3,1.3,1.3h0.9v2.1h-1.3c-1.8,0-3.2-1.2-3.2-3v-4
		h-1.3V75.1z"/>
	<path class="st0" d="M170.7,75.1h2.6l1.6,5.7l1.7-5.7h2.4l1.7,5.7l1.5-5.7h2.5l-2.7,9h-2.5l-1.8-5.8l-1.7,5.8h-2.5L170.7,75.1z"/>
	<path class="st0" d="M185.3,72.7c0-0.8,0.6-1.4,1.4-1.4s1.4,0.6,1.4,1.4s-0.6,1.4-1.4,1.4S185.3,73.4,185.3,72.7z M185.6,75.1h2.2
		v9h-2.2V75.1z"/>
	<path class="st0" d="M188.9,75.1h1.3v-2.2h2.2v2.2h2.2V77h-2.2v3.6c0,0.8,0.5,1.3,1.3,1.3h0.9v2.1h-1.3c-1.8,0-3.2-1.2-3.2-3v-4
		h-1.3V75.1z"/>
	<path class="st0" d="M195.8,72.3h2.2v3.4c0.6-0.6,1.4-0.9,2.3-0.9c2.3,0,3.8,1.8,3.8,4.1v5.1h-2.2v-5.1c0-1.1-0.8-2-1.9-2
		c-1.1,0-1.9,0.9-1.9,2v5.1h-2.2V72.3z"/>
	<path class="st0" d="M208.8,77.8c0-3.6,3-6.5,6.5-6.5c2.4,0,4.3,1.1,5.5,2.7l0.3,0.4l-2.2,1.2l-0.3-0.3c-0.7-0.9-1.8-1.6-3.2-1.6
		c-2.2,0-3.9,1.8-3.9,4c0,2.3,1.7,4.1,3.9,4.1c1.2,0,2.4-0.5,3.4-1.6v-0.6h-2.6v-2.1h5v6.6h-2.3v-1.1c-1,0.8-2.1,1.3-3.7,1.3
		C211.6,84.2,208.8,81.3,208.8,77.8z"/>
	<path class="st0" d="M222.2,79.6c0-2.6,2.1-4.7,4.7-4.7s4.7,2.1,4.7,4.7c0,2.7-2.1,4.7-4.7,4.7S222.2,82.2,222.2,79.6z M229.4,79.6
		c0-1.5-1.1-2.6-2.4-2.6c-1.3,0-2.4,1.1-2.4,2.6c0,1.5,1.1,2.6,2.4,2.6C228.3,82.1,229.4,81.1,229.4,79.6z"/>
	<path class="st0" d="M232.4,79.6c0-2.6,2.1-4.7,4.7-4.7c2.6,0,4.7,2.1,4.7,4.7c0,2.7-2.1,4.7-4.7,4.7S232.4,82.2,232.4,79.6z
		 M239.6,79.6c0-1.5-1.1-2.6-2.4-2.6c-1.3,0-2.4,1.1-2.4,2.6c0,1.5,1.1,2.6,2.4,2.6C238.5,82.1,239.6,81.1,239.6,79.6z"/>
	<path class="st0" d="M242.6,79.1c0-2.4,1.8-4.2,4.5-4.2c0.8,0,1.7,0.3,2.4,0.8v-0.7h2.2v7.6c0,2.6-2,4.3-4.6,4.3
		c-1.7,0-3.1-0.7-3.9-1.7l-0.2-0.2l1.8-1.3L245,84c0.5,0.5,1.2,0.9,2.1,0.9c1.3,0,2.4-0.7,2.4-2.1v-0.4c-0.8,0.6-1.6,0.8-2.4,0.8
		C244.4,83.3,242.6,81.4,242.6,79.1z M249.5,80.2v-2.3c-0.8-0.7-1.5-1-2.3-1c-1.3,0-2.3,0.9-2.3,2.1s1,2.1,2.3,2.1
		C248,81.2,248.7,80.9,249.5,80.2z"/>
	<path class="st0" d="M253.4,72.3h2.2v11.7h-2.2V72.3z"/>
	<path class="st0" d="M256.9,79.5c0-2.6,2.2-4.6,4.7-4.6c2.6,0,4.7,2,4.7,4.6v0.7h-7c0.3,1.1,1.2,1.9,2.4,1.9c0.8,0,1.6-0.4,2.1-1.1
		l2,1c-0.8,1.4-2.3,2.3-4.1,2.3C259.1,84.2,256.9,82.2,256.9,79.5z M259.3,78.6h4.6c-0.3-1.1-1.2-1.8-2.3-1.8
		C260.6,76.9,259.7,77.5,259.3,78.6z"/>
</g>
</svg>
