<svg id="Layer_1" data-name="Layer 1" xmlns="http://www.w3.org/2000/svg" viewBox="0 0 60 40"><defs><style>.cls-1{fill:#a5a0aa}.cls-2{fill:#fff}</style></defs><title>controls</title><path class="cls-1" d="M6.32 13H6a1 1 0 0 1-1-1V4a1 1 0 0 1 1-1h.31a1 1 0 0 1 1 1v8a1 1 0 0 1-.99 1zm6.13 0h-.31a1 1 0 0 1-1-1V4a1 1 0 0 1 1-1h.31a1 1 0 0 1 1 1v8a1 1 0 0 1-1 1z" id="pause"/><path id="play" class="cls-1" d="M25 3v10l7.86-5L25 3z"/><path id="replay" class="cls-1" d="M55 8a5 5 0 0 0-10 0v.67h1.34V8A3.66 3.66 0 1 1 50 11.66h-.77l1.49-1.49-.95-.95-2.15 2.15-.95.95.95.95 2.15 2.15.95-.95L49.25 13H50a5 5 0 0 0 5-5z"/><path class="cls-2" d="M6.32 33H6a1 1 0 0 1-1-1v-8a1 1 0 0 1 1-1h.31a1 1 0 0 1 1 1v8a1 1 0 0 1-.99 1zm6.13 0h-.31a1 1 0 0 1-1-1v-8a1 1 0 0 1 1-1h.31a1 1 0 0 1 1 1v8a1 1 0 0 1-1 1z" id="pause-2" data-name="pause"/><path id="play-2" data-name="play" class="cls-2" d="M25 23v10l7.86-5L25 23z"/><path id="replay-2" data-name="replay" class="cls-2" d="M55 28a5 5 0 0 0-10 0v.67h1.34V28A3.66 3.66 0 1 1 50 31.66h-.77l1.49-1.49-.95-.95-2.15 2.15-.95.95.95.95 2.15 2.15.95-.95L49.25 33H50a5 5 0 0 0 5-5z"/></svg>