<svg id="Layer_1" data-name="Layer 1" xmlns="http://www.w3.org/2000/svg" viewBox="0 0 1090.86 258.55"><defs><style>.cls-1{fill:#002f6c}</style></defs><title>logo-youInvest</title><path d="M720.15 185h-21.27v1.82h6.78v35.29c0 10.61-2.95 13.59-9.5 13.59-4.13 0-4.81-3.13-4.81-4.75 0-3.86-.22-6.22-3.73-6.22s-3.95 3.57-3.95 4.66c0 4.86 3.77 8.58 13.42 8.58 11.51 0 16.06-3.89 16.06-16.8v-34.39h7zm1.43 44.76a3.94 3.94 0 0 0-3 1.19 4 4 0 0 0-1.23 3 3.8 3.8 0 0 0 1.23 2.9 4.05 4.05 0 0 0 3 1.2 4.12 4.12 0 0 0 3-1.2 3.83 3.83 0 0 0 1.22-2.9 4.11 4.11 0 0 0-4.21-4.15m45.58-.04a4.09 4.09 0 0 0-4.17 4.15 3.81 3.81 0 0 0 1.2 2.9 4.33 4.33 0 0 0 6 0 3.82 3.82 0 0 0 1.22-2.9 4 4 0 0 0-1.22-3 4.09 4.09 0 0 0-3-1.19M753.95 185h-20.83v1.81h6.11v40.26c0 3.17-.19 3.32-.54 4.24a4.22 4.22 0 0 1-2.51 2.36 12.59 12.59 0 0 1-4.27.66v2.33h22.41v-2.33a14.86 14.86 0 0 1-4.3-.6 4.33 4.33 0 0 1-2.63-2.36 7.71 7.71 0 0 1-.56-3.29v-13.1h5.55c16.11 0 20.64-6.36 20.64-15S770.26 185 753.95 185m-2.85 28h-4.26v-26h3.86c12.43 0 15.15 5.11 15.15 13.4S761 213 751.1 213m86.03 18.16a11.55 11.55 0 0 1-.44-3.51v-40.86h5.4V185h-13.15l-15.86 39.48a.4.4 0 0 1-.36.23.39.39 0 0 1-.38-.23s-16.67-39-16.86-39.48h-14.62v1.81h6.06v39.26l-.14 3.65a5.45 5.45 0 0 1-.87 2.5 4.52 4.52 0 0 1-2.35 1.67 10.78 10.78 0 0 1-3 .41v2.35h14.86v-2.33a7.66 7.66 0 0 1-2.5-.42 4.52 4.52 0 0 1-2.4-1.64 5.6 5.6 0 0 1-.89-2.54l-.17-3.65v-33.86h.86s18.82 43.95 19 44.43h1.57l17.82-43.95h.46v34.95a11.83 11.83 0 0 1-.46 3.62 4.12 4.12 0 0 1-2.21 2.41 10.58 10.58 0 0 1-3.7.65v2.33h20.33v-2.33a11 11 0 0 1-3.74-.68 4.14 4.14 0 0 1-2.27-2.48m27.34-32.36c-10.84 0-17.65 7.19-17.65 19.75 0 18.39 14.32 19.61 17.4 19.61 6.12 0 17.72-3.81 17.72-20 0-12.57-7.43-19.4-17.48-19.4m-.14 37.08c-8.15 0-9.41-4.07-9.41-17.13 0-10.09.63-17.66 9.41-17.66 9.49 0 9.53 7.84 9.53 17 0 13.21-2.25 17.76-9.53 17.76m45.99-36.45c-6.48 0-8.72 3.83-10.51 7.74a4.81 4.81 0 0 0-.52 0l-1.3-7.4h-12.3v1.95h6.76v25.43c0 2.52-.13 4.49-.77 5.55-.75 1.23-2.31 1.7-4.9 1.7h-1.09v2.33h21v-2.33h-1.14c-2.76 0-4.17-.6-4.91-1.8s-1-2.84-1-5.46v-13.18c0-4.46 3.58-9.55 7.61-9.55 4.21 0 4.36 6 8.88 3.88 3.23-1.55 2.51-8.86-5.9-8.86m83.89 33.5c-2.25 0-3-1.25-3.13-3.34l-.13-4.73v-15.46c0-3.34-.54-5.59-2.51-7.55s-5.69-3-11.11-3c-5.21 0-9.07 1-11.54 2.85s-3.33 3.52-3.33 5.93a3 3 0 0 0 .93 2.45 3.29 3.29 0 0 0 2.29.82c2.09 0 3.26-1.06 3.7-3.81a7.16 7.16 0 0 1 1.77-4.27c1.07-1.13 2.75-1.69 5-1.69 2.64 0 4.51.71 5.55 2.13a9 9 0 0 1 1.47 5.39v6.19c-6.74.61-22.65 1.89-21.94 14a9.73 9.73 0 0 0 9.84 8.9c6 0 9.76-3.4 12.33-6.12a7 7 0 0 0 7.16 5.66c4.9 0 7.82-2.4 8.16-8.4h-1.26c-.33 2.61-1.94 4-3.27 4m-11-3.91a.3.3 0 0 1-.13.29l-.16.15c-3.6 3.27-6.36 4.44-8.37 4.44-5.15 0-5.92-4.3-5.92-6.45 0-6.88 9.42-10.31 14.58-10.31zm54.01 3.73c.9 1.15 2.22 1.53 4.45 1.68v2.33H1024v-2.31a6 6 0 0 0 2.91-.81 3.57 3.57 0 0 0 1.34-2.6 31 31 0 0 0 .2-4.42v-12.08c0-2.93-.2-6.62-1.19-8.61-.88-1.77-2.37-2.65-5.13-2.65a8.21 8.21 0 0 0-7.33 4.12c-1.39 2.44-1.37 6.38-1.37 10.46v9.75c0 2.51.32 4.23 1 5.23s1.89 1.43 3.72 1.58v2.34H1000v-2.32a9.72 9.72 0 0 0 3.17-.52 3.47 3.47 0 0 0 2.12-2.36 15.74 15.74 0 0 0 .45-4.34v-25.48H1000v-1.92h11.47l1.28 6.69h.58c1.47-2.87 4.67-7.13 12.06-7.13a12.34 12.34 0 0 1 5.56 1.22 9.06 9.06 0 0 1 3.81 3.73 12.93 12.93 0 0 1 1.22 6.19v16.75c.02 1.85.21 4.33 1.11 5.48zm-82.19-35.32c-1.08.34-1.8 1.31-2.18 2.94s-.86 2.37-1.62 2.62a3.53 3.53 0 0 1-2.62-.19c-1.88-1.75-5.5-3.88-11.86-3.88-10.24 0-14.76 7.3-14.76 14 0 7.79 3 11.57 9.58 13 .4.08.4.53.05.61-5.62 1.13-10.6 2.78-10.6 8.12a6.07 6.07 0 0 0 4.21 5.95c2.62 1.06 6.29 1.61 10.89 1.69 4 0 6.88.19 8.75.41a9.94 9.94 0 0 1 4.77 1.66 4.92 4.92 0 0 1 1.85 4.13c0 2.47-1.32 4.46-4 5.93-2.45 1.37-5.8 2.08-10 2.08-3.57 0-6.5-.38-9.14-2a4.89 4.89 0 0 1-1.93-5.31c.37-1.73-.26-3.56-2.27-3.9a3.35 3.35 0 0 0-3.14 1.42 6 6 0 0 0-.81 3.37c0 4.39 3.4 6.45 6 7.22a31.45 31.45 0 0 0 10.22 1.5c4.82 0 8.73-.74 11.53-2.17a12.71 12.71 0 0 0 5.8-5.13 12.48 12.48 0 0 0 1.62-6 11 11 0 0 0-1.71-6.42c-3.66-5-8.85-4.38-20.54-4.94-5.62 0-6.71-1-6.71-2.74 0-2.54 2.09-3.53 10.22-4.78s15.47-4.18 15.47-14a16.61 16.61 0 0 0-1.45-6.92 8.67 8.67 0 0 0 4.61-.09 5.15 5.15 0 0 0 3.87-6c-.52-2.26-2.18-2.72-4.17-2.1m-18.09 26.91c-4.78 0-7.52-1.74-7.52-11.47 0-6.86 2.4-12 7.52-12 6 0 7.72 4.65 7.72 11.83 0 10.27-3.24 11.61-7.72 11.61"/><path class="cls-1" d="M48.27 55L75.83 1.83h20.7L57.75 73.12v45.16H38.63V73.76L0 1.83h20.71zM221 59.9q0 28.43-14.22 44.2t-40.26 15.77q-26.36 0-40.5-15.65t-14.14-44.48q0-28.83 14.22-44.28T166.68 0q26 0 40.14 15.69T221 59.9zm-88.89 0q0 21.5 8.68 32.62t25.73 11.11q17 0 25.61-11t8.64-32.74q0-21.43-8.56-32.5t-25.53-11.06q-17.12 0-25.85 11.07t-8.72 32.5zM349.52 1.83v75.35q0 12.9-5.54 22.58a36.89 36.89 0 0 1-16 14.9q-10.47 5.22-25 5.22-21.67 0-33.69-11.47t-12-31.54v-75h19.12v73.64q0 14.42 6.69 21.27t20.55 6.85q26.92 0 26.92-28.28V1.83zm96.63 116.45V1.83h19v116.45zm159.03 0h-23.34l-57.26-92.79h-.64l.4 5.18q1.11 14.81 1.11 27.08v60.53h-17.28V1.83h23.1l57.11 92.31h.48q-.16-1.83-.63-13.34t-.48-18v-61h17.44zM714.51 1.83h19.75l-40.78 116.45h-20.07L632.79 1.83h19.59l24.29 72.4q1.91 5.18 4.06 13.34t2.79 12.15q1-6.05 3.19-14t3.5-11.79zm113.23 116.45h-65.87V1.83h65.87v16.09H780.9v31.7h43.89v15.93H780.9v36.56h46.83zm104.54-31.62q0 15.53-11.23 24.37t-31 8.84q-19.75 0-32.34-6.13v-18a87.93 87.93 0 0 0 16.93 5.89 71.73 71.73 0 0 0 16.68 2.15q11.31 0 16.69-4.3a14 14 0 0 0 5.38-11.55 14.47 14.47 0 0 0-4.94-11.07q-4.94-4.54-20.39-10.75-15.93-6.45-22.46-14.74a31.16 31.16 0 0 1-6.53-19.91q0-14.58 10.36-22.94T897.24.16a81.7 81.7 0 0 1 33.29 7.33L924.48 23q-15.53-6.53-27.72-6.53-9.24 0-14 4A13.21 13.21 0 0 0 878 31.14a15 15 0 0 0 1.91 7.77 19.53 19.53 0 0 0 6.26 6.09q4.38 2.87 15.77 7.57 12.82 5.34 18.8 10A29.31 29.31 0 0 1 929.5 73a31.41 31.41 0 0 1 2.78 13.66zm75 31.62h-19V18.16H954V1.83h87.53v16.33h-34.25zm64.08-104.33a4 4 0 0 1-1.54 3.34 6.7 6.7 0 0 1-4.25 1.21 10.11 10.11 0 0 1-4.43-.84v-2.47a12 12 0 0 0 2.32.81 9.76 9.76 0 0 0 2.29.3 3.64 3.64 0 0 0 2.29-.59 1.92 1.92 0 0 0 .74-1.58 2 2 0 0 0-.68-1.52 10.19 10.19 0 0 0-2.79-1.47 7.38 7.38 0 0 1-3.08-2 4.27 4.27 0 0 1-.89-2.73 3.82 3.82 0 0 1 1.42-3.14 5.88 5.88 0 0 1 3.81-1.15 11.17 11.17 0 0 1 4.56 1l-.83 2.13a10 10 0 0 0-3.8-.89 2.92 2.92 0 0 0-1.92.55 1.81 1.81 0 0 0-.66 1.46 2 2 0 0 0 .26 1.07 2.67 2.67 0 0 0 .86.83 14.51 14.51 0 0 0 2.16 1 11.81 11.81 0 0 1 2.57 1.36 4 4 0 0 1 1.2 1.43 4.3 4.3 0 0 1 .39 1.89zm9.98 4.33L1076.72 5h-.09q.19 3 .18 5.57v7.76h-2.37v-16h3.68l4.43 12.67h.07l4.56-12.69h3.69v16h-2.51v-7.92q0-1.19.06-3.1c0-1.27.07-2 .1-2.31h-.09l-4.79 13.3z"/><path d="M632.37 196.83a8.15 8.15 0 0 1 6.71 2.95q2.39 2.95 2.39 8.35t-2.41 8.39a8.12 8.12 0 0 1-6.69 3 9.47 9.47 0 0 1-3.91-.79 7.35 7.35 0 0 1-3-2.43h-.24l-.7 2.82h-2.38V188h3.32v7.56q0 2.54-.16 4.56h.16a7.88 7.88 0 0 1 6.91-3.29zm-.48 2.78q-3.4 0-4.9 1.95t-1.5 6.57q0 4.62 1.54 6.61t4.94 2a5.12 5.12 0 0 0 4.56-2.23 11.45 11.45 0 0 0 1.5-6.41q0-4.28-1.5-6.38a5.32 5.32 0 0 0-4.64-2.11zm11.89-2.42h3.56l4.8 12.5a47.71 47.71 0 0 1 2 6.18h.16q.26-1 1.09-3.49t5.43-15.19h3.56l-9.42 25a12.44 12.44 0 0 1-3.27 5.25 7 7 0 0 1-4.59 1.55 13.36 13.36 0 0 1-3-.34v-2.66a11.48 11.48 0 0 0 2.46.24q3.42 0 4.88-3.84l1.22-3.12z"/></svg>