<svg xmlns="http://www.w3.org/2000/svg" viewBox="0 0 286.39 53.28"><defs><style>.cls-1{fill:#0179c1}</style></defs><title>logo-chase</title><g id="Layer_2" data-name="Layer 2"><g id="Layer_1-2" data-name="Layer 1"><path class="cls-1" d="M252.17 0a1.88 1.88 0 0 0-1.88 1.89v13.18h34.83L269.25 0zm34.22 19.07a1.87 1.87 0 0 0-1.89-1.89h-13.16V52l15.06-15.85zm-19.06 34.21a1.89 1.89 0 0 0 1.89-1.89V38.22h-34.84l15.85 15.06zM233.1 34.23a1.88 1.88 0 0 0 1.9 1.87h13.18V1.28l-15.06 15.86z"/><path d="M73.69 6.36v16.09H51.28V6.36h-8.15v40.56h8.15V29.49h22.41v17.43h8.18V6.36h-8.18zm108.58 0V46.9h35.81l-4.52-7.13h-23.1V29.49h22.37v-6.88h-22.37v-9.28h23.06l4.45-6.97h-35.7zM12.78 6.35C4.29 6.35 0 11.51 0 19v15.16c0 8.69 5.53 12.75 12.74 12.75h25.6L33.6 39.5H14.32c-4.1 0-5.88-1.48-5.88-6.07V19.7c0-4.44 1.51-6.17 6-6.17H33.8l4.56-7.18zm133.68 0c-4.91 0-9.93 3-9.93 10.53v1.94c0 7.9 4.84 10.91 9.67 10.94h17c1.77 0 3.2.29 3.2 3.26v3.45c0 2.68-1.38 3.29-3.25 3.29h-22.36l-4.58 7.14h27.45c6.62 0 11.1-3.29 11.1-10.9v-2.79c0-7.35-4.18-10.83-10.65-10.83H147.9c-1.8 0-3-.48-3-3.15v-2.8c0-2.27.87-3.1 3-3.1h21.26l4.45-7zm-40.87.01L86.35 46.9h9.09l3.75-8.36h20.9l3.73 8.36h9.12L113.68 6.36zm4 8.42L117 31.63h-14.73z"/></g></g></svg>