<?xml version="1.0" encoding="utf-8"?>
<!-- Generator: Adobe Illustrator 18.1.1, SVG Export Plug-In . SVG Version: 6.00 Build 0)  -->
<!DOCTYPE svg PUBLIC "-//W3C//DTD SVG 1.1//EN" "http://www.w3.org/Graphics/SVG/1.1/DTD/svg11.dtd">
<svg version="1.1" id="Layer_1" xmlns="http://www.w3.org/2000/svg" xmlns:xlink="http://www.w3.org/1999/xlink" x="0px" y="0px"
	 viewBox="0 0 368.1 341.6" enable-background="new 0 0 368.1 341.6" xml:space="preserve">
<g>
	<path fill="#FFFFFF" d="M361.4,245.9c6.4-8.5,7.7-19.7,6.1-26.6c-2-8.2-7.8-8.9-9.5-8.9c-1,0-2,0.2-2.9,0.5c0.1-2.4-0.2-4.5-1-6.2
		c-1.4-3-4.3-4.9-7.5-4.9c-0.5,0-1.1,0.2-1.6,0.3c1-7.8,1.7-15.8,1.5-23.8C345.8,132.9,328.2,92.2,297,62
		c-9.9-9.6-21-17.7-32.7-24.4c-7.3-12.5-16.9-22.1-34.1-26c-6.2-0.9-9.4-0.9-13.3-0.1c-0.3-0.4-0.6-0.7-1-1.1
		c-7.1-7-18-8.6-24.5-9.5l-3.1-0.5c-2.5-0.2-5.6-0.4-9.2-0.4c-5.4,0-13.7,0.4-22,2.6c-26,6.6-43,19.6-54.7,35.3
		c-12.9,7.5-24.9,16.6-35.6,27.7c-35.9,37-50.6,86.9-44.4,134.5c-0.3,0-0.6-0.1-0.8-0.1c-3,0-6.3,2.2-7.5,4.9
		c-0.8,1.7-1.1,3.8-0.9,6.2c-0.9-0.3-1.9-0.5-3-0.5c-1.7,0-7.6,0.6-9.5,8.9c-1.7,7-0.3,18.2,6,26.7c-0.9,2.8-0.4,5.9,1.3,8.5
		c0,0.1,0,0.2,0.1,0.2c0.8,1.2,1.7,2.3,3.3,3.7c9.2,8.1,21.2,12.5,33.8,12.5c1.3,0,2.7-0.2,4-0.3c6.1,8.9,13.1,17.3,21.1,25
		c30.6,29.6,70.8,45.9,113.4,45.9c44.4,0,85.9-17.6,116.8-49.4c6.5-6.8,12.3-14.1,17.5-21.7c1.6,0.2,3.2,0.4,4.9,0.4
		c12.6,0,24.6-4.4,33.9-12.6c1.5-1.3,2.4-2.4,3.2-3.7c0-0.1,0-0.1,0.1-0.2C361.8,251.8,362.3,248.7,361.4,245.9"/>
	<path d="M225.4,187.2c-0.2,1-1.2,1.8-2.1,1.6c-1.4-0.3-2.1-1.3-1.9-2.3c0.2-1.2,1.2-1.8,2.6-1.5
		C224.9,185.2,225.6,186.2,225.4,187.2 M232.9,176.7c-1.4-0.3-2.2,0.3-2.5,1.3c-0.2,1.1,0.3,2.3,1.8,2.6c1.1,0.2,1.8-0.7,2.1-1.8
		C234.5,177.6,234,176.9,232.9,176.7 M233.6,187.4c-0.2,1.1,0.5,2.1,1.7,2.3c1,0.2,2.1-0.5,2.3-1.6c0.2-1.1-0.5-2-1.7-2.2
		C234.8,185.7,233.9,186.2,233.6,187.4 M202.6,166.6c4.1,0.5,4.8-3.3,6.3-5.5c1.3-1.8,4.1-4.6,5.5-5.5c1.3-0.8,3.3-1.4,5-0.1
		c1,0.9,0,2.7-0.7,3.1c-1.9,0.2-3.7-0.5-4.6-0.3c-0.9,0.2-2.2,2.6-2.4,5.6c2,0.8,2.4-0.7,4.4-0.7c3.1,0,6.2,2,7.9,0.4
		c1.6-1.6,1.6-4.5,1.6-5.8c2.7,0.1,3.9,3.9,2.8,5.9c-0.9,1-3.1,0.8-3,2.8c9.2,1.8,10-2,10.7-4.1c0.5-1.7,0.3-3-0.5-5.3
		c-2.7-6.8-10.8-10.7-18.1-8.3c-2.7,0.9-6.8,4.6-8.3,6.8c-1.8,2.7-2.9,7.6-5.2,7.6c-0.9-0.3,0-2.3-1.4-2.2c-1.7,0.4-2.8,1.9-2.3,3.7
		C200.6,165.8,201.4,166.5,202.6,166.6 M209.2,138.2c1.4-0.6,2.6-1.2,4.4-1.5c1.2-0.3,3-0.4,4.2-0.4c2.8,0,4.6,0,7,0.4
		c3.8,0.6,10.9,4.4,11.5,2.7c0.6-3.1-2-5.5-4.1-6.6c-5-2.7-12.8-4.1-19.6-1.3c-2.3,1.1-3.1,2-5.3,3.5c-1.5,1-4.3,2.7-4.1,4
		C203.4,140,207.3,138.9,209.2,138.2 M146.4,176.7c-1.2,0-2.4,1-2.4,1.8c0,1.5,0.8,2,2.3,2.1c0.8,0,1.5-0.6,1.9-2
		C148.3,177.6,147.1,176.7,146.4,176.7 M129.7,181.8c-1.2,0-1.8,0.7-1.8,1.7c0,1.2,0.6,2,1.7,2c1,0,2.3-0.8,2.2-2
		C131.8,182.5,130.6,181.8,129.7,181.8 M138.6,187.3c-1.1,0-2,1-2,2c0,0.9,1,1.7,2,1.7c1.1,0,2.2-0.8,2.2-1.7
		C140.8,188.3,139.7,187.3,138.6,187.3 M163.5,161.7c-2.9-2.8-0.3-8.5-6.4-11.5c-6.5-3.3-16.6-2.1-20.7,2.9c-1.6,2-3.3,4.1-4.5,7.5
		c-0.6,2.2-1.2,4.5,0.8,5.7c1.6,0.9,5.1,2.5,7.8,1.7c0.3-1-0.6-1.6-1.2-1.6c-1.7-0.1-2.9-1.6-2.9-2.3c0.2-2.3,2.6-6.1,5.5-7.6
		c2.6-1.8,4.6-0.8,5.4,0.6c-0.1,1.1-0.5,2-1.4,2.2c-1.5,0.3-2.6-1-3.7-0.5c-2.1,2.2-1.3,4.8-0.5,5.7c0.7,0.9,1.6,1.3,1.9,1
		c1.4-1.8,4.8-1.7,8.2-1.5c1.4-1,1.5-3.5,1.9-5.6c2.4-2.7,3.6,2.8,5.2,5c1,1.4,2.2,3.1,3.6,3.3c2.5,0.3,5.6-1.7,4.4-5.3
		C166.2,160.5,164.3,162.3,163.5,161.7 M214.8,179.4c-0.2,1,0.2,1.9,1.1,2.1c1,0.2,1.9-0.5,2.1-1.5c0.2-0.9-0.4-1.9-1.4-2.1
		C215.7,177.8,214.9,178.6,214.8,179.4 M156.5,186c0-1-0.8-1.9-1.8-1.9c-1.2,0-1.7,0.9-1.8,1.9c0,1,0.5,1.9,1.7,1.9
		C155.7,188.1,156.5,187.1,156.5,186 M353.2,251.3c-0.4,0.6-0.9,1.2-1.9,2.1c-10.8,9.4-24.8,12.1-37.2,9.8
		c-5.6,8.6-12,16.8-19.3,24.3c-29.4,30.3-68.9,47-111.1,47c-40.5,0-78.8-15.5-107.8-43.7c-8.7-8.5-16.2-17.7-22.5-27.5
		c-12.3,2.1-26-0.6-36.6-9.9c-1-0.9-1.5-1.5-1.9-2.1c-1.1-1.4-0.7-3.2,0.5-2.4c2.7,1.7,8.6,2.8,10.2,1.7c0.9-0.6-2.4-1.1-5.4-2.6
		c-16.1-8.1-13.2-33.7-8.4-28.4c3.4,4.3,8,8.9,16.6,8.6c-7.8-9.1-8.6-21.9-5.9-19.6c2.4,2.5,5.6,7.6,11.9,12.1
		c-14-51.1-1.4-108.2,38.1-148.9C83.1,61,95,51.8,107.9,44.6c11.6-16,27.6-27.4,51.1-33.4c10.8-2.7,22.1-2.5,28.5-1.9
		c5.5,0.9,16.7,1.7,22.9,7.8c1,1,2,2.6,2.6,4.9c5.6-2.5,9.1-2.6,16-1.6c14.7,3.3,22.8,11.9,29.3,23.8c11.9,6.6,23,14.8,33,24.5
		c29.7,28.8,46.4,67.4,47,108.8c0.2,15.1-1.7,29.8-5.6,43.9c6.8-4.6,10.2-10.1,12.8-12.7c2.7-2.3,1.9,10.5-5.9,19.6
		c8.6,0.3,13.1-4.3,16.6-8.6c4.8-5.3,7.7,20.2-8.4,28.4c-3,1.6-6.3,2-5.4,2.6c1.7,1,7.5,0,10.2-1.7
		C353.9,248.1,354.3,249.9,353.2,251.3 M164.4,122.3c-7,3.7-12.2,6-16.4,7.6c2,0.1,4.1,0.4,6,1.1c2,0.8,3.6,2,5.5,3.2
		c1.5,1,4.5,2.4,4.4,3.8c-0.4,1.1-4.2,0.2-6-0.3c-1.6-0.4-2.5-1-4.5-1.2c-1.2-0.1-3-0.3-4.2-0.2c-2.7,0.1-4.1,0.1-6.9,0.8
		c-3.7,0.9-10.6,5-11.3,3.4c-0.6-2.2,0.6-4.1,2-5.5c-2.1,0.7-4.4,1.5-7.1,2.6c-9.2,3.8-12.1,12.2-12.8,21.3
		c-0.1-1.4-0.3-2.7-0.4-3.8c-0.2-5.1-1.7-5.1-1.7-5.1s-8.2,0.1-8.7,12.2c-0.1,7.5,1.2,9.6,2.3,12.1c1.2,2.9,2.6,6.5,4.5,7.4
		c3.1,1.5,4.5,0.5,5-0.1c0,0.1,0,0.1,0,0.2c0,0,0-0.1,0-0.1c0.9,4.4,2.3,11.6,2.9,13.9c2.4,10.4,4.3,15.2,8,21.5
		c3.7,6.6,8.3,11.8,12.7,16.4c2.6,2.7,7.9,7.1,11.3,9.8c4.6,3.7,6.6,5.3,11.7,8.5c4.5,2.9,12.9,8.7,24.3,8.5
		c10.7-0.1,16.6-4.3,20.1-6.4c7.5-4.3,11.4-7.8,16.7-12.7c6-5.6,9.1-8.4,12.7-12.7c4.7-5.5,9.1-11.4,13-25.4
		c1.5-5.2,2.8-11.2,3.7-16c0.2-2.1,0.4-4,0.6-5.7c0.9,0.6,2.9,1.4,5.6-1.5c3.4-2.7,6.2-10.8,6.1-17.4c-0.1-5.8-1.5-12.1-4.9-12.9
		c-2.5-0.6-3.6,0.7-4.7,3.1c-0.2-1.8-0.7-3.7-1.4-6.2c-1.8-5.5-3.2-7.4-6.5-13.7c-8.2-11.9-11.3-16.9-15.2-24.4
		c-2.8-5.4-3.6-8-4.5-11.1c0,0-7.5,18.2-22.9,29.7c-13.2,9.8-23.3,13-30.8,11.6c14.2-13.5,21.4-27,24-42.2
		C190.5,104.8,180.5,113.9,164.4,122.3 M95,133.1c-5.4,7.7-5.6,15.3-5.6,15.3c9.4-25.1,40.2-31.8,51.7-36
		c26.9-9,30.6-20.7,30.6-20.7C147.4,115.3,111.1,109.8,95,133.1 M326.2,177.5c-0.6-38.1-16-73.7-43.3-100.2
		c-4.8-4.7-9.9-8.9-15.2-12.8c3,7.2,6.2,15,10.1,23.1c8.3,15.3,11,31.8,12.2,42.3c0.4,2.3,0.8,6.7,0.8,12.4
		c-6.4-27.1-35.5-37.2-43.2-67.4c0,0-3,11.9,15.3,33.6c7.6,9.7,30.3,31.4,25.2,57.8c0,0,0-0.1,0.1-0.1c-1.4,6.6-3.6,13.4-6.7,20.1
		c-3.4,6.3-7,11.8-12.5,17.1c2.3,0.6,5.7,1.7,9.7,5.6c-0.8,4.6-0.2,8.5-0.2,8.5s-4.9,0.8-9.2,6.8c-6.8,9.5-3.6,15.3-3.6,15.3
		s-5.2,2.7-9.9,8.4c-3.6-0.7-6.8-2.1-9.7-4.3c0,0-0.1-0.1-0.1-0.1c-3.4-2.7-6.4-6.4-8.9-11.1c-0.4,0.6-0.9,1.3-1.4,2.1
		c-3.2,4.5-3.3,4.7-3.4,8.1c-0.1,14.4-3.3,34.1-5.8,2.9c-15.8,13.4-29.4,21.9-42.3,22c-12.6,0.1-25.9-8.2-43.3-22.6
		c-0.1,7-0.2,13.9-0.3,23.3c0.8,1.2,1.7,2.7,3.1,4.6c2.3,3.2,5.6-7.6,9.6-5.3c4.3,2.4,4.1,10,8.6,13.6c2.7,2.1,7.8-10,10.4-3.4
		c2.9,7.2,8,8.8,13.6,11.6c2.5-2.2,6.1-2.5,9.2-6.1c2.8-3.4,4.6-6.8,6.7-7.5c3.3-1,5.2,7,8.7,5.8c5.8-2.1,4.8-12.7,10.1-14.2
		c2.7-0.7,3.2,3.9,6.4,4.4c3.2,0.5,6.2-10.7,7.9-15.3c0.8-2.3,2-2.9,3.8-2.3c2.5,1,2.7,4.3,2.9,10.2c0.3,8.2,4.1,16.1,8.7,21.6
		c4.6,5.5-7.1,2.4-11.6-9.4c-2.8-7.4-2-7.5-4.2-3.6c0,0-0.8,1.4-1.9,3c0.5,1.7,1.2,3.4,2.2,5.6c3.2,7.3,9.7,13.3,7.1,17.1
		c-1.2,1.3-2.5,1.9-4.3,1.7c-1.5-0.1-2.9-0.3-4.7-2.1c-1.6-1.7-7.4-8.1-10.1-20.5c-0.6-0.7-1-1.3-1-1.3s-1.7,6-4.9,9.9
		c2.6,11.9,7.8,17.7,6.5,21.4c-0.5,1.4-2.5,2.3-2.5,2.3c-0.9,0.5-1.7,0.6-2.8,0.6c-1.7-0.3-3.1-1.1-4.1-2.3
		c-2.4-3-6.4-10.6-8.8-21.4c-1.6-1.4-2.5-2.5-3.2-1.2c-1.1,1.9-2.4,4.7-7.9,6.7c2.9,2.2,5.5,4.6,6.6,8.6v0
		c2.1,9.6-5.1,15.7-13.5,16.4c-6.1,0.4-13.4-2.1-15.4-7.9c-2.1-7.3,2.3-13.9,6.7-17c-4-1.1-7.3-3.8-9.6-7.3c0,0-0.8,1.1-2.2,2.1
		c0,0.1,0,0.2,0,0.2c-1,6.1-4.2,15.5-8.8,21.1c-1.1,1.2-2.5,1.6-3.9,1.6c-0.8,0-1.7-0.3-2.7-0.9c0,0-1.4-1.1-2-2.4
		c-1.8-3.9,3.4-8,6.3-21.9c-1.8-2.4-3.4-5.5-4.2-8.4c-0.1-0.1-1.3,1.5-3.1,2.8c-2.2,6.2-6.4,15.1-11,19.2c-1.1,1-2.7,2-5.4,1.4
		c-8.3-2.5-0.1-9,2.7-15.1c2-4.4,2.7-6.8,3.3-8.9c-0.5-1-1-2.2-1.7-3.3c-0.4-0.7-0.8-1.2-1.2-1.8c-0.8-1.1-2-2.2-2.3-0.4
		c-0.3,2-1,4.7-2.5,7.8c-2.8,5.6-10.9,11.9-14.4,9.5c3.2-1.3,8.5-7.6,10.1-13.2c1.8-6.3,2.3-12.1,1.6-18.3c-0.5-4.9,4.3-2.2,7.5,1.2
		l0.1-3.3c0.2-3.5,0.2-7.4,0.3-11.2c0-1.6-0.8-4.8-2.7-7c-0.1-0.1-0.2-0.2-0.3-0.3c-6.1,7.5-14.5,10.9-24.2,12.4
		c-4.1-3.9-8.3-7.9-8.3-7.9s3.1-4.4-2.2-12c-5-7.2-6.9-7.1-6.9-7.1s1.5-4.9-0.1-12.3c2.2-2.3,4.8-4,7.9-4.7
		c-4.3-6.2-9.1-12.5-11.2-15.5c-13.4-19.9-13.3-40.2-10.2-54.9c0,0.1,0,0.2,0,0.2c5.8-25,27.3-35.7,37.8-41.8
		c-7.6,2.7-22.2,5.6-31.6,17.8c1.3-8.3,3.1-16.3,4.9-22.4c2.1-7,4.4-13.6,7-19.7c-4.8,3.8-9.4,8-13.8,12.5
		c-38.9,40.1-49.5,97.5-32,146.9c4.8,1.1,10.4,1.7,17.1,1.6c-0.1,0.1-0.2,0.1-0.3,0.2c-1.2,1.1-2.2,6.2,1,13.9
		c2.3,5.4,5.3,8.5,7.3,10.1c0.1,0,0.1,0.1,0.2,0.1c-0.2,0.2-0.5,0.4-0.7,0.6c-2.5,2.2-5.4,4.1-8.5,5.6c5.4,8,11.7,15.6,18.9,22.6
		c26.8,26,62,40.2,99.3,40.2c38.9,0,75.3-15.4,102.3-43.3c6-6.2,11.4-12.9,16.1-19.9c-2.9-1.5-5.6-3.2-7.9-5.3
		c-0.9-0.7-1.5-1.4-2.2-2c-0.3-1.5-0.8-2.3-0.8-2.3s3.8,0.9,8.2-6.1c4.8-7.7,1.1-12.6,1.1-12.6s1.1-0.8,2.8-2.1
		c5.7,0,10.6-0.5,14.8-1.4C323.7,211.7,326.5,194.8,326.2,177.5 M183.1,311.1c4.8,1.2,9.4-1.4,10.1-4.9c0.5-2.5-0.2-4.8-1.1-6.3
		c-0.8-1.5-1.7-2.4-3.4-3.5c-1.8-1.2-4.4-1-5.3-0.7l-0.8,0.4C177.8,298,174.9,309.1,183.1,311.1 M165.4,176.7c0-1-0.7-1.8-1.9-1.8
		c-1.2,0-1.8,0.8-1.9,1.8c0,0.9,0.6,1.8,1.8,1.8C164.7,178.6,165.4,177.7,165.4,176.7 M204.9,175.8c-1.2-0.2-1.7,0.4-1.9,1.5
		c-0.2,0.7,0.2,1.6,1.2,1.8c1.1,0.2,2-0.2,2.3-1.1C206.5,176.8,205.9,176,204.9,175.8 M171.1,197.4c3.4,0.9,2.7-2,5-1.2
		c1.3,0.5,1.6,2.8,5.4,4.6c3.8,1.7,7.6-0.3,11.1-3.4c2.2-2.1,6.3-2,5.2-3.3c-0.9-0.4-1.6-2.7-2.9-3.2c-4-1.2-5,3.1-9,3.1
		c-5.7,0-6.9-3.7-9.9-3.4c-2.5,0.3-3.8,4.1-5.5,4.3C169.1,194.7,169.4,197,171.1,197.4 M152.5,210.3c-2.9-0.4-3.4,1.3-1.2,4
		c2,2.1,5.6,4.1,8.4,4.1c5.7,0,10.6,1.2,16.2,0.8c0.9,0,4.4-0.4,5.3-0.4c8.8-0.8,16.9,1.5,25-0.9c-2.8,2.6-5.1,6.7-9.1,8.6
		c-4.3,2.1-12.2,2.1-18.4,1.7c-6.3-0.4-11.4-3.8-15.7-6.2c-1.2,3.5,0.7,4.9,3.4,7.3c3.1,2.8,7.9,6.5,15.1,6.7
		c10.5,0.3,18.7-0.7,24-9.4c1.6-2.8,5.9-8.7,10.5-10.8c2.5-1.2,8.3-3.9,7.3-5.4c-1.7-2.2-5.1-1.8-7.6-1.3c-1.9,0.4-2.4,3.8-5.5,4
		c-7.4,0.9-14.5-1.6-23.6-1.3c-6.5,0.2-11.7,1.7-18.7,2.3C161.1,214.6,158.8,211,152.5,210.3 M115.2,268.2
		c-0.9,3.7-7.9,8.4-13.6,10.1c-2.4,0.8-5.1,1.5-7.9,1.5c-6.1,0.1-8.8-12.9-10-15.8c-1-2.5-3.2-7.6-3.3-9.3c0-1.2,0.2-2.8,0.8-3.9
		c0.3-0.6-0.9-0.6-1.9-0.7c-4-0.4-4.9-3.1-5.9-4.5c-1-1.7-2.1-4.3-3.2-7.2c-1.3-4.8-1.7-6.9-0.5-8.1c3.9-2.7-5.4-4.6-11.7-12.3
		c-2.2-2.8-5-7.9-5.6-9.8c-0.7-2.3-0.7-5.6,5.2-10c5.6-4.7,14-6.9,15.6-7c2.1-0.1,7.7,0.2,9.8,8.9c1.7,7.4,2.5,10.2,3.4,14.4
		c0.8,2.8,1,5.2,1,6.9c0,2.5-3.8,2.9,0.5,3.5c2,0,4.3,2.5,5.7,4.5c0.8,1.3,4.1,7.8,3,10.1c-0.9,1.3-2,1.9,0.1,4
		c0.7,0.7,1.4,1.2,1.9,1.8c2.1,2.3,9.5,9.4,12.8,12.9C113.1,260.8,116.5,263,115.2,268.2 M72.4,217.4c0.5,4,3.7,8.6,6.4,6.1
		c1.7-1.6-1.5-2.1-3.8-11.4C73.5,206,72,214.3,72.4,217.4 M81.4,229.3c1.4-0.2,3-0.9,3.5-2.4c0.4-1.1-0.9-0.5-3.3-0.3
		c-2.6,0.3-5.7,0.5-7.1,2.2c-1.3,1.7-1.5,2.2-0.6,3.9c0.9,1.7,1.4,0.3,2.9-1.1C78.3,230.3,80.1,229.5,81.4,229.3 M91.5,248.5
		c-0.2-2.3,0.8-1.8,1.5-2.9c1.5-2.6-0.1-3.4-0.8-2.9c-2.1,1.7-1.9,1.8-7.6,4.1c-3.3,1.4-1.8,2.5,0,2.7c0.9,0.1,2.6-1,2.9,0
		c0.3,1,2.5,8.2,6.4,7.4C98.1,256,91.8,251.5,91.5,248.5 M313.3,211.8c-2.2,2.4-11.7,12.7-13.8,14.9c-0.5,0.5-1.1,1-1.9,1.8
		c-1.8,1.7-1.5,2.1-0.3,3.3c2.2,2.1-1.6,8.6-2.4,9.9c-1.4,2.1-4.4,5.2-6.6,5.2c-4.4,0.2-0.8,1.6-0.6,3.7c0.3,1.2,0,4.2-0.7,8.1
		c-0.7,3.2-1.2,5.4-2.7,12.6c-1.8,8.6-6.5,7.4-8.8,7.2c-1.8-0.1-12-2.5-17.4-6.7c-7.1-4.8-6.6-7.4-5.9-9.7c0.6-1.8,3.9-6.7,6.3-9.4
		c6.7-8.8,16-9.9,11.6-12.6c-1.3-1.2-1.7-3.1-0.5-7.8c1-2.9,2.4-5.6,3.4-6.6c0.8-1,2.9-3.9,7.3-4.3c1.1-0.1,2.4,0,2.1-0.7
		c-0.6-1.1-1-2.6-1-3.8c0-1.6,1.3-7.4,2.2-9.8c1.1-2.9,5-16.9,9.8-16.3c2.1,0.2,5.2,1.1,7.9,2.3c4.9,1.9,14.1,6.7,15.4,9.7
		C318.4,207.1,314.5,210.2,313.3,211.8 M282.3,245.8c-6.4-0.4-6.2-1-8.3-2.4c-0.7-0.5-3.5,0.9-1.5,2.7c0.7,0.6,2.2,2.4,1.6,4.5
		c-0.8,2.8-4.9,8.1-0.9,7.6c4.6-0.6,5.6-7,6.1-8c0.5-1,1.3-1.3,2.3-1.5C283.5,248.5,285.6,246,282.3,245.8 M290.2,227.4
		c-2.2-1.9-4.4-3.9-6.7-3.8c-2.2,0.1-3.1,0.4-3.6,2.3c-0.4,1.9,0.9,1.3,3,1.6c2.1,0.3,4.4,1.8,5.5,2.6c1.2,1,3.5,1.7,4.1,0.7
		C293.1,229.8,292.3,229.2,290.2,227.4 M294.1,213.6c-3.6,3.8-9.4,7.5-4.7,10c3.7,2,4.7-1.8,5.9-4.6
		C296.4,216.8,297.5,210.1,294.1,213.6"/>
	<path d="M321.4,280.1c2.5,0,4.6,2,4.6,4.5c0,2.5-2,4.5-4.6,4.5c-2.6,0-4.6-2-4.6-4.5C316.7,282.1,318.8,280.1,321.4,280.1
		L321.4,280.1z M321.3,281c-1.9,0-3.5,1.6-3.5,3.6c0,2,1.5,3.6,3.5,3.6c1.9,0,3.4-1.6,3.4-3.6C324.8,282.6,323.3,281,321.3,281
		L321.3,281z M320.6,286.9h-1v-4.5c0.4-0.1,1-0.1,1.7-0.1c0.8,0,1.2,0.1,1.5,0.4c0.3,0.2,0.5,0.5,0.5,1c0,0.5-0.4,0.9-0.9,1.1v0.1
		c0.4,0.1,0.7,0.5,0.8,1.1c0.1,0.7,0.2,0.9,0.3,1.1h-1.1c-0.1-0.2-0.2-0.6-0.4-1.1c-0.1-0.5-0.4-0.7-0.9-0.7h-0.5V286.9z
		 M320.6,284.4h0.5c0.6,0,1-0.2,1-0.7c0-0.4-0.3-0.7-1-0.7c-0.3,0-0.5,0-0.6,0.1V284.4z"/>
</g>
</svg>
