<?xml version="1.0" encoding="utf-8"?>
<!-- Generator: Adobe Illustrator 18.1.1, SVG Export Plug-In . SVG Version: 6.00 Build 0)  -->
<!DOCTYPE svg PUBLIC "-//W3C//DTD SVG 1.1//EN" "http://www.w3.org/Graphics/SVG/1.1/DTD/svg11.dtd">
<svg version="1.1" id="Layer_1" xmlns="http://www.w3.org/2000/svg" xmlns:xlink="http://www.w3.org/1999/xlink" x="0px" y="0px"
	 viewBox="0 0 216 35.5" enable-background="new 0 0 216 35.5" xml:space="preserve">
<g>
	<polygon fill="#E20074" points="0,23.1 7,23.1 7,16 0,16 0,23.1 	"/>
	<path fill="#E20074" d="M16.9,1.7c5.7,0.1,9.2,3.9,9.7,10.9l1.9-0.3L28.1,0H0.4L0,12.3l1.9,0.3c0.5-7,3.9-10.8,9.7-10.9v25.7
		c0,4.7-0.8,5.4-5.8,5.5v2h17.1v-2c-5,0-5.8-0.8-5.8-5.5V1.7L16.9,1.7z"/>
	<polygon fill="#E20074" points="21.4,23.1 28.4,23.1 28.4,16 21.4,16 21.4,23.1 	"/>
	<polygon fill="#E20074" points="42.5,23.1 49.5,23.1 49.5,16 42.5,16 42.5,23.1 	"/>
	<polygon fill="#E20074" points="63.6,23.1 70.6,23.1 70.6,16 63.6,16 63.6,23.1 	"/>
	<path fill="#E20074" d="M90,34.8l8.9-30.5v23.9c0,2.6-0.1,3.6-0.8,4.2c-0.5,0.5-1.5,0.8-2.7,0.8h-0.5v1.6h12.6v-1.6H107
		c-1.2,0-2.2-0.3-2.7-0.8c-0.6-0.6-0.8-1.6-0.8-4.2V7.8c0-2.6,0.2-3.6,0.8-4.2c0.5-0.5,1.5-0.8,2.7-0.8h0.7V1.3h-9.8l-7.3,24.7
		L83.4,1.3h-9.7v1.6h0.9c2.7,0,3.2,0.6,3.2,4v19.5c0,3.1-0.1,4.3-0.6,5.3c-0.5,1-1.6,1.6-2.7,1.6h-0.8v1.6H84v-1.6h-0.7
		c-1.3,0-2.4-0.6-3-1.6c-0.6-1-0.8-1.9-0.8-5.3v-22l8.9,30.5H90L90,34.8z"/>
	<path fill-rule="evenodd" clip-rule="evenodd" fill="#E20074" d="M118.4,11c-6.2,0-10.3,4.8-10.3,12.3c0,7.3,4.1,12.2,10.2,12.2
		c6.1,0,10.2-4.9,10.2-12.3C128.5,15.9,124.4,11,118.4,11L118.4,11z M118.2,12.6c1.8,0,3.4,1.1,4.2,3c0.8,1.8,1.2,4.2,1.2,7.6
		c0,7.1-1.8,10.7-5.3,10.7c-3.6,0-5.3-3.5-5.3-10.8c0-3.4,0.4-5.7,1.2-7.5C115,13.8,116.6,12.6,118.2,12.6L118.2,12.6z"/>
	<path fill-rule="evenodd" clip-rule="evenodd" fill="#E20074" d="M136.8,0.9l-7.1,0.4v1.6h0.4c2.1,0,2.6,0.7,2.6,4v23
		c0,2.9-0.1,3.7-0.5,5h1.7c1.3-2,1.6-2.4,2.1-2.4c0.3,0,0.5,0.1,0.9,0.4c2.5,2,3.5,2.5,5.8,2.5c5.4,0,9.3-5.2,9.3-12.5
		c0-6.9-3.6-11.6-9-11.6c-2.8,0-4.9,1.3-5.9,3.8V0.9L136.8,0.9z M142.1,12.9c3.2,0,4.9,3.4,4.9,10.1c0,6.9-1.7,10.6-5,10.6
		c-3.6,0-5.5-3.7-5.5-10.4c0-3.3,0.5-5.7,1.5-7.4C138.9,14,140.5,12.9,142.1,12.9L142.1,12.9z"/>
	<path fill-rule="evenodd" clip-rule="evenodd" fill="#E20074" d="M161.1,11.3l-7.3,0.4v1.6h0.6c2.1,0,2.6,0.7,2.6,4v11.9
		c0,3.3-0.5,4.1-2.6,4.1h-0.8v1.6h11v-1.6h-0.8c-2.1,0-2.6-0.7-2.6-4.1V11.3L161.1,11.3z M158.7,1c-1.6,0-2.8,1.2-2.8,2.8
		c0,1.5,1.3,2.8,2.8,2.8c1.6,0,2.8-1.2,2.8-2.8C161.4,2.3,160.2,1,158.7,1L158.7,1z"/>
	<path fill="#E20074" d="M173.8,0.9l-7.3,0.4v1.6h0.6c2.1,0,2.6,0.7,2.6,4v22.3c0,3.4-0.5,4.1-2.6,4.1h-0.8v1.6h11v-1.6h-0.8
		c-2.1,0-2.6-0.7-2.6-4.1V0.9L173.8,0.9z"/>
	<path fill-rule="evenodd" clip-rule="evenodd" fill="#E20074" d="M197.2,23.1c-0.3-7.4-3.9-12.1-9.4-12.1c-5.3,0-9.1,5.1-9.1,12.1
		c0,7.6,3.8,12.4,9.6,12.4c3.8,0,6.4-2,8.5-6.3l-1.5-0.8c-1.8,3.7-3.5,5.2-6.2,5.2c-4,0-5.7-3.1-5.7-10.5H197.2L197.2,23.1z
		 M183.5,21.3c0.1-5.3,1.8-8.6,4.6-8.6c2.8,0,4.5,3.2,4.4,8.6H183.5L183.5,21.3z"/>
	<path fill="#E20074" d="M211.9,14c-0.4-0.4-0.6-0.9-0.6-1.5c0-0.6,0.2-1.1,0.6-1.5c0.4-0.4,0.9-0.6,1.5-0.6c0.6,0,1.1,0.2,1.5,0.6
		c0.4,0.4,0.6,0.9,0.6,1.5c0,0.6-0.2,1.1-0.6,1.5c-0.4,0.4-0.9,0.6-1.5,0.6C212.8,14.6,212.3,14.4,211.9,14z M211.6,10.6
		c-0.5,0.5-0.8,1.1-0.8,1.8c0,0.7,0.2,1.3,0.8,1.8c0.5,0.5,1.1,0.8,1.8,0.8c0.7,0,1.3-0.3,1.8-0.8c0.5-0.5,0.8-1.1,0.8-1.8
		c0-0.7-0.3-1.3-0.8-1.8c-0.5-0.5-1.1-0.8-1.8-0.8C212.7,9.9,212.1,10.2,211.6,10.6z M213.9,12.6c0.4-0.1,0.5-0.4,0.5-0.7
		c0-0.2-0.1-0.4-0.3-0.6c-0.2-0.1-0.4-0.2-0.7-0.2h-0.9v2.8h0.5v-1.1h0.3l0.7,1.1h0.6L213.9,12.6z M213.1,11.5h0.3
		c0.3,0,0.5,0.1,0.5,0.4c0,0.3-0.2,0.4-0.5,0.4h-0.3V11.5z"/>
	<polygon fill="#E20074" points="203.2,23.1 210.3,23.1 210.3,16 203.2,16 203.2,23.1 	"/>
</g>
</svg>
